<svg width="133" height="158" xmlns="http://www.w3.org/2000/svg" xmlns:xlink="http://www.w3.org/1999/xlink" overflow="hidden"><defs><clipPath id="clip0"><rect x="71" y="207" width="133" height="158"/></clipPath></defs><g clip-path="url(#clip0)" transform="translate(-71 -207)"><path d="M74.5001 220.998C74.5001 215.2 79.1999 210.5 84.9975 210.5L132.003 210.5C137.8 210.5 142.5 215.2 142.5 220.998L142.5 225.003C142.5 230.8 137.8 235.5 132.003 235.5L84.9975 235.5C79.1999 235.5 74.5001 230.8 74.5001 225.003Z" stroke="#000070" stroke-miterlimit="8" stroke-opacity="0.101961" fill="#000070" fill-rule="evenodd" fill-opacity="0.501961"/><text font-family="Calibri,Calibri_MSFontService,sans-serif" font-weight="400" font-size="17" transform="translate(92.5762 229)">DNA<tspan font-family="Cambria Math,Cambria Math_MSFontService,sans-serif" font-size="17" x="-6.27995" y="27">𝑘</tspan><tspan font-family="Cambria Math,Cambria Math_MSFontService,sans-serif" font-size="12" x="3.22005" y="30">𝑟</tspan></text><path d="M142 280.167 170.371 280.167 170.371 281.833 142 281.833ZM169.038 277 177.038 281 169.038 285Z"/><text font-family="Cambria Math,Cambria Math_MSFontService,sans-serif" font-weight="400" font-size="17" transform="translate(181.625 285)">Ø</text><path d="M74.5001 341.234C74.5001 335.858 78.8581 331.5 84.2339 331.5L132.766 331.5C138.142 331.5 142.5 335.858 142.5 341.234L142.5 347.766C142.5 353.142 138.142 357.5 132.766 357.5L84.2339 357.5C78.8581 357.5 74.5001 353.142 74.5001 347.766Z" stroke="#0259FB" stroke-miterlimit="8" stroke-opacity="0.101961" fill="#FF3000" fill-rule="evenodd" fill-opacity="0.501961"/><text font-family="Calibri,Calibri_MSFontService,sans-serif" font-weight="400" font-size="17" transform="translate(83.8973 349)">Protein</text><path d="M142 344.167 170.861 344.167 170.861 345.833 142 345.833ZM169.528 341 177.528 345 169.528 349Z"/><path d="M74.5001 278.001C74.5001 272.754 78.7537 268.5 84.0009 268.5L132.999 268.5C138.246 268.5 142.5 272.754 142.5 278.001L142.5 284.999C142.5 290.246 138.246 294.5 132.999 294.5L84.0009 294.5C78.7537 294.5 74.5001 290.246 74.5001 284.999Z" stroke="#0259FB" stroke-miterlimit="8" stroke-opacity="0.101961" fill="#0058FF" fill-rule="evenodd" fill-opacity="0.501961"/><text font-family="Calibri,Calibri_MSFontService,sans-serif" font-weight="400" font-size="17" transform="translate(85.4552 287)">mRNA</text><path d="M108.833 235 108.833 261.312 107.167 261.312 107.167 235ZM112 259.978 108 267.978 104 259.978Z"/><path d="M0.833333-2.3491e-06 0.83342 30.577-0.833247 30.577-0.833333 2.3491e-06ZM4.00008 29.2437 0.000104987 37.2437-3.99992 29.2437Z" transform="matrix(-1 0 0 1 108 294)"/><text font-family="Cambria Math,Cambria Math_MSFontService,sans-serif" font-weight="400" font-size="17" transform="translate(84.6806 314)">𝑘<tspan font-size="12" x="9.5" y="3">𝑝</tspan><tspan font-size="17" x="66.6181" y="-41">𝛾</tspan><tspan font-size="12" x="75.7847" y="-38">𝑟</tspan><tspan font-size="17" x="66.5231" y="22">𝛾</tspan><tspan font-size="12" x="75.6898" y="25">𝑝</tspan><tspan font-size="17" x="96.7359" y="36">Ø</tspan></text></g></svg>