<?xml version="1.0" encoding="utf-8" standalone="no"?>
<!DOCTYPE svg PUBLIC "-//W3C//DTD SVG 1.1//EN"
  "http://www.w3.org/Graphics/SVG/1.1/DTD/svg11.dtd">
<!-- Created with matplotlib (https://matplotlib.org/) -->
<svg height="607.3875pt" version="1.1" viewBox="0 0 651.746942 607.3875" width="651.746942pt" xmlns="http://www.w3.org/2000/svg" xmlns:xlink="http://www.w3.org/1999/xlink">
 <metadata>
  <rdf:RDF xmlns:cc="http://creativecommons.org/ns#" xmlns:dc="http://purl.org/dc/elements/1.1/" xmlns:rdf="http://www.w3.org/1999/02/22-rdf-syntax-ns#">
   <cc:Work>
    <dc:type rdf:resource="http://purl.org/dc/dcmitype/StillImage"/>
    <dc:date>2022-09-24T16:11:44.977932</dc:date>
    <dc:format>image/svg+xml</dc:format>
    <dc:creator>
     <cc:Agent>
      <dc:title>Matplotlib v3.3.4, https://matplotlib.org/</dc:title>
     </cc:Agent>
    </dc:creator>
   </cc:Work>
  </rdf:RDF>
 </metadata>
 <defs>
  <style type="text/css">*{stroke-linecap:butt;stroke-linejoin:round;}</style>
 </defs>
 <g id="figure_1">
  <g id="patch_1">
   <path d="M 0 607.3875 
L 651.746942 607.3875 
L 651.746942 0 
L 0 0 
z
" style="fill:#ffffff;"/>
  </g>
  <g id="axes_1">
   <g id="patch_2">
    <path d="M 125.735 496.2775 
L 627.935 496.2775 
L 627.935 61.3975 
L 125.735 61.3975 
z
" style="fill:#ffffff;"/>
   </g>
   <g id="matplotlib.axis_1">
    <g id="xtick_1">
     <g id="line2d_1">
      <defs>
       <path d="M 0 0 
L 0 3.5 
" id="m3bb8c4fd80" style="stroke:#000000;stroke-width:0.8;"/>
      </defs>
      <g>
       <use style="stroke:#000000;stroke-width:0.8;" x="148.562273" xlink:href="#m3bb8c4fd80" y="496.2775"/>
      </g>
     </g>
     <g id="text_1">
      <!-- 0.0 -->
      <g transform="translate(110.394773 539.75)scale(0.48 -0.48)">
       <defs>
        <path d="M 31.78125 66.40625 
Q 24.171875 66.40625 20.328125 58.90625 
Q 16.5 51.421875 16.5 36.375 
Q 16.5 21.390625 20.328125 13.890625 
Q 24.171875 6.390625 31.78125 6.390625 
Q 39.453125 6.390625 43.28125 13.890625 
Q 47.125 21.390625 47.125 36.375 
Q 47.125 51.421875 43.28125 58.90625 
Q 39.453125 66.40625 31.78125 66.40625 
z
M 31.78125 74.21875 
Q 44.046875 74.21875 50.515625 64.515625 
Q 56.984375 54.828125 56.984375 36.375 
Q 56.984375 17.96875 50.515625 8.265625 
Q 44.046875 -1.421875 31.78125 -1.421875 
Q 19.53125 -1.421875 13.0625 8.265625 
Q 6.59375 17.96875 6.59375 36.375 
Q 6.59375 54.828125 13.0625 64.515625 
Q 19.53125 74.21875 31.78125 74.21875 
z
" id="DejaVuSans-48"/>
        <path d="M 10.6875 12.40625 
L 21 12.40625 
L 21 0 
L 10.6875 0 
z
" id="DejaVuSans-46"/>
       </defs>
       <use xlink:href="#DejaVuSans-48"/>
       <use x="63.623047" xlink:href="#DejaVuSans-46"/>
       <use x="95.410156" xlink:href="#DejaVuSans-48"/>
      </g>
     </g>
    </g>
    <g id="xtick_2">
     <g id="line2d_2">
      <g>
       <use style="stroke:#000000;stroke-width:0.8;" x="377.470857" xlink:href="#m3bb8c4fd80" y="496.2775"/>
      </g>
     </g>
     <g id="text_2">
      <!-- 0.5 -->
      <g transform="translate(339.303357 539.75)scale(0.48 -0.48)">
       <defs>
        <path d="M 10.796875 72.90625 
L 49.515625 72.90625 
L 49.515625 64.59375 
L 19.828125 64.59375 
L 19.828125 46.734375 
Q 21.96875 47.46875 24.109375 47.828125 
Q 26.265625 48.1875 28.421875 48.1875 
Q 40.625 48.1875 47.75 41.5 
Q 54.890625 34.8125 54.890625 23.390625 
Q 54.890625 11.625 47.5625 5.09375 
Q 40.234375 -1.421875 26.90625 -1.421875 
Q 22.3125 -1.421875 17.546875 -0.640625 
Q 12.796875 0.140625 7.71875 1.703125 
L 7.71875 11.625 
Q 12.109375 9.234375 16.796875 8.0625 
Q 21.484375 6.890625 26.703125 6.890625 
Q 35.15625 6.890625 40.078125 11.328125 
Q 45.015625 15.765625 45.015625 23.390625 
Q 45.015625 31 40.078125 35.4375 
Q 35.15625 39.890625 26.703125 39.890625 
Q 22.75 39.890625 18.8125 39.015625 
Q 14.890625 38.140625 10.796875 36.28125 
z
" id="DejaVuSans-53"/>
       </defs>
       <use xlink:href="#DejaVuSans-48"/>
       <use x="63.623047" xlink:href="#DejaVuSans-46"/>
       <use x="95.410156" xlink:href="#DejaVuSans-53"/>
      </g>
     </g>
    </g>
    <g id="xtick_3">
     <g id="line2d_3">
      <g>
       <use style="stroke:#000000;stroke-width:0.8;" x="606.379442" xlink:href="#m3bb8c4fd80" y="496.2775"/>
      </g>
     </g>
     <g id="text_3">
      <!-- 1.0 -->
      <g transform="translate(568.211942 539.75)scale(0.48 -0.48)">
       <defs>
        <path d="M 12.40625 8.296875 
L 28.515625 8.296875 
L 28.515625 63.921875 
L 10.984375 60.40625 
L 10.984375 69.390625 
L 28.421875 72.90625 
L 38.28125 72.90625 
L 38.28125 8.296875 
L 54.390625 8.296875 
L 54.390625 0 
L 12.40625 0 
z
" id="DejaVuSans-49"/>
       </defs>
       <use xlink:href="#DejaVuSans-49"/>
       <use x="63.623047" xlink:href="#DejaVuSans-46"/>
       <use x="95.410156" xlink:href="#DejaVuSans-48"/>
      </g>
     </g>
    </g>
    <g id="text_4">
     <!-- Time (hr) -->
     <g transform="translate(266.6825 590.205)scale(0.48 -0.48)">
      <defs>
       <path d="M -0.296875 72.90625 
L 61.375 72.90625 
L 61.375 64.59375 
L 35.5 64.59375 
L 35.5 0 
L 25.59375 0 
L 25.59375 64.59375 
L -0.296875 64.59375 
z
" id="DejaVuSans-84"/>
       <path d="M 9.421875 54.6875 
L 18.40625 54.6875 
L 18.40625 0 
L 9.421875 0 
z
M 9.421875 75.984375 
L 18.40625 75.984375 
L 18.40625 64.59375 
L 9.421875 64.59375 
z
" id="DejaVuSans-105"/>
       <path d="M 52 44.1875 
Q 55.375 50.25 60.0625 53.125 
Q 64.75 56 71.09375 56 
Q 79.640625 56 84.28125 50.015625 
Q 88.921875 44.046875 88.921875 33.015625 
L 88.921875 0 
L 79.890625 0 
L 79.890625 32.71875 
Q 79.890625 40.578125 77.09375 44.375 
Q 74.3125 48.1875 68.609375 48.1875 
Q 61.625 48.1875 57.5625 43.546875 
Q 53.515625 38.921875 53.515625 30.90625 
L 53.515625 0 
L 44.484375 0 
L 44.484375 32.71875 
Q 44.484375 40.625 41.703125 44.40625 
Q 38.921875 48.1875 33.109375 48.1875 
Q 26.21875 48.1875 22.15625 43.53125 
Q 18.109375 38.875 18.109375 30.90625 
L 18.109375 0 
L 9.078125 0 
L 9.078125 54.6875 
L 18.109375 54.6875 
L 18.109375 46.1875 
Q 21.1875 51.21875 25.484375 53.609375 
Q 29.78125 56 35.6875 56 
Q 41.65625 56 45.828125 52.96875 
Q 50 49.953125 52 44.1875 
z
" id="DejaVuSans-109"/>
       <path d="M 56.203125 29.59375 
L 56.203125 25.203125 
L 14.890625 25.203125 
Q 15.484375 15.921875 20.484375 11.0625 
Q 25.484375 6.203125 34.421875 6.203125 
Q 39.59375 6.203125 44.453125 7.46875 
Q 49.3125 8.734375 54.109375 11.28125 
L 54.109375 2.78125 
Q 49.265625 0.734375 44.1875 -0.34375 
Q 39.109375 -1.421875 33.890625 -1.421875 
Q 20.796875 -1.421875 13.15625 6.1875 
Q 5.515625 13.8125 5.515625 26.8125 
Q 5.515625 40.234375 12.765625 48.109375 
Q 20.015625 56 32.328125 56 
Q 43.359375 56 49.78125 48.890625 
Q 56.203125 41.796875 56.203125 29.59375 
z
M 47.21875 32.234375 
Q 47.125 39.59375 43.09375 43.984375 
Q 39.0625 48.390625 32.421875 48.390625 
Q 24.90625 48.390625 20.390625 44.140625 
Q 15.875 39.890625 15.1875 32.171875 
z
" id="DejaVuSans-101"/>
       <path id="DejaVuSans-32"/>
       <path d="M 31 75.875 
Q 24.46875 64.65625 21.28125 53.65625 
Q 18.109375 42.671875 18.109375 31.390625 
Q 18.109375 20.125 21.3125 9.0625 
Q 24.515625 -2 31 -13.1875 
L 23.1875 -13.1875 
Q 15.875 -1.703125 12.234375 9.375 
Q 8.59375 20.453125 8.59375 31.390625 
Q 8.59375 42.28125 12.203125 53.3125 
Q 15.828125 64.359375 23.1875 75.875 
z
" id="DejaVuSans-40"/>
       <path d="M 54.890625 33.015625 
L 54.890625 0 
L 45.90625 0 
L 45.90625 32.71875 
Q 45.90625 40.484375 42.875 44.328125 
Q 39.84375 48.1875 33.796875 48.1875 
Q 26.515625 48.1875 22.3125 43.546875 
Q 18.109375 38.921875 18.109375 30.90625 
L 18.109375 0 
L 9.078125 0 
L 9.078125 75.984375 
L 18.109375 75.984375 
L 18.109375 46.1875 
Q 21.34375 51.125 25.703125 53.5625 
Q 30.078125 56 35.796875 56 
Q 45.21875 56 50.046875 50.171875 
Q 54.890625 44.34375 54.890625 33.015625 
z
" id="DejaVuSans-104"/>
       <path d="M 41.109375 46.296875 
Q 39.59375 47.171875 37.8125 47.578125 
Q 36.03125 48 33.890625 48 
Q 26.265625 48 22.1875 43.046875 
Q 18.109375 38.09375 18.109375 28.8125 
L 18.109375 0 
L 9.078125 0 
L 9.078125 54.6875 
L 18.109375 54.6875 
L 18.109375 46.1875 
Q 20.953125 51.171875 25.484375 53.578125 
Q 30.03125 56 36.53125 56 
Q 37.453125 56 38.578125 55.875 
Q 39.703125 55.765625 41.0625 55.515625 
z
" id="DejaVuSans-114"/>
       <path d="M 8.015625 75.875 
L 15.828125 75.875 
Q 23.140625 64.359375 26.78125 53.3125 
Q 30.421875 42.28125 30.421875 31.390625 
Q 30.421875 20.453125 26.78125 9.375 
Q 23.140625 -1.703125 15.828125 -13.1875 
L 8.015625 -13.1875 
Q 14.5 -2 17.703125 9.0625 
Q 20.90625 20.125 20.90625 31.390625 
Q 20.90625 42.671875 17.703125 53.65625 
Q 14.5 64.65625 8.015625 75.875 
z
" id="DejaVuSans-41"/>
      </defs>
      <use xlink:href="#DejaVuSans-84"/>
      <use x="57.958984" xlink:href="#DejaVuSans-105"/>
      <use x="85.742188" xlink:href="#DejaVuSans-109"/>
      <use x="183.154297" xlink:href="#DejaVuSans-101"/>
      <use x="244.677734" xlink:href="#DejaVuSans-32"/>
      <use x="276.464844" xlink:href="#DejaVuSans-40"/>
      <use x="315.478516" xlink:href="#DejaVuSans-104"/>
      <use x="378.857422" xlink:href="#DejaVuSans-114"/>
      <use x="419.970703" xlink:href="#DejaVuSans-41"/>
     </g>
    </g>
   </g>
   <g id="matplotlib.axis_2">
    <g id="ytick_1">
     <g id="line2d_4">
      <defs>
       <path d="M 0 0 
L -3.5 0 
" id="m0eff67f08b" style="stroke:#000000;stroke-width:0.8;"/>
      </defs>
      <g>
       <use style="stroke:#000000;stroke-width:0.8;" x="125.735" xlink:href="#m0eff67f08b" y="477.276119"/>
      </g>
     </g>
     <g id="text_5">
      <!-- 0 -->
      <g transform="translate(88.195 495.512369)scale(0.48 -0.48)">
       <use xlink:href="#DejaVuSans-48"/>
      </g>
     </g>
    </g>
    <g id="ytick_2">
     <g id="line2d_5">
      <g>
       <use style="stroke:#000000;stroke-width:0.8;" x="125.735" xlink:href="#m0eff67f08b" y="326.04753"/>
      </g>
     </g>
     <g id="text_6">
      <!-- 20 -->
      <g transform="translate(57.655 344.28378)scale(0.48 -0.48)">
       <defs>
        <path d="M 19.1875 8.296875 
L 53.609375 8.296875 
L 53.609375 0 
L 7.328125 0 
L 7.328125 8.296875 
Q 12.9375 14.109375 22.625 23.890625 
Q 32.328125 33.6875 34.8125 36.53125 
Q 39.546875 41.84375 41.421875 45.53125 
Q 43.3125 49.21875 43.3125 52.78125 
Q 43.3125 58.59375 39.234375 62.25 
Q 35.15625 65.921875 28.609375 65.921875 
Q 23.96875 65.921875 18.8125 64.3125 
Q 13.671875 62.703125 7.8125 59.421875 
L 7.8125 69.390625 
Q 13.765625 71.78125 18.9375 73 
Q 24.125 74.21875 28.421875 74.21875 
Q 39.75 74.21875 46.484375 68.546875 
Q 53.21875 62.890625 53.21875 53.421875 
Q 53.21875 48.921875 51.53125 44.890625 
Q 49.859375 40.875 45.40625 35.40625 
Q 44.1875 33.984375 37.640625 27.21875 
Q 31.109375 20.453125 19.1875 8.296875 
z
" id="DejaVuSans-50"/>
       </defs>
       <use xlink:href="#DejaVuSans-50"/>
       <use x="63.623047" xlink:href="#DejaVuSans-48"/>
      </g>
     </g>
    </g>
    <g id="ytick_3">
     <g id="line2d_6">
      <g>
       <use style="stroke:#000000;stroke-width:0.8;" x="125.735" xlink:href="#m0eff67f08b" y="174.818942"/>
      </g>
     </g>
     <g id="text_7">
      <!-- 40 -->
      <g transform="translate(57.655 193.055192)scale(0.48 -0.48)">
       <defs>
        <path d="M 37.796875 64.3125 
L 12.890625 25.390625 
L 37.796875 25.390625 
z
M 35.203125 72.90625 
L 47.609375 72.90625 
L 47.609375 25.390625 
L 58.015625 25.390625 
L 58.015625 17.1875 
L 47.609375 17.1875 
L 47.609375 0 
L 37.796875 0 
L 37.796875 17.1875 
L 4.890625 17.1875 
L 4.890625 26.703125 
z
" id="DejaVuSans-52"/>
       </defs>
       <use xlink:href="#DejaVuSans-52"/>
       <use x="63.623047" xlink:href="#DejaVuSans-48"/>
      </g>
     </g>
    </g>
    <g id="text_8">
     <!-- Protein -->
     <g transform="translate(43.6725 362.95375)rotate(-90)scale(0.48 -0.48)">
      <defs>
       <path d="M 19.671875 64.796875 
L 19.671875 37.40625 
L 32.078125 37.40625 
Q 38.96875 37.40625 42.71875 40.96875 
Q 46.484375 44.53125 46.484375 51.125 
Q 46.484375 57.671875 42.71875 61.234375 
Q 38.96875 64.796875 32.078125 64.796875 
z
M 9.8125 72.90625 
L 32.078125 72.90625 
Q 44.34375 72.90625 50.609375 67.359375 
Q 56.890625 61.8125 56.890625 51.125 
Q 56.890625 40.328125 50.609375 34.8125 
Q 44.34375 29.296875 32.078125 29.296875 
L 19.671875 29.296875 
L 19.671875 0 
L 9.8125 0 
z
" id="DejaVuSans-80"/>
       <path d="M 30.609375 48.390625 
Q 23.390625 48.390625 19.1875 42.75 
Q 14.984375 37.109375 14.984375 27.296875 
Q 14.984375 17.484375 19.15625 11.84375 
Q 23.34375 6.203125 30.609375 6.203125 
Q 37.796875 6.203125 41.984375 11.859375 
Q 46.1875 17.53125 46.1875 27.296875 
Q 46.1875 37.015625 41.984375 42.703125 
Q 37.796875 48.390625 30.609375 48.390625 
z
M 30.609375 56 
Q 42.328125 56 49.015625 48.375 
Q 55.71875 40.765625 55.71875 27.296875 
Q 55.71875 13.875 49.015625 6.21875 
Q 42.328125 -1.421875 30.609375 -1.421875 
Q 18.84375 -1.421875 12.171875 6.21875 
Q 5.515625 13.875 5.515625 27.296875 
Q 5.515625 40.765625 12.171875 48.375 
Q 18.84375 56 30.609375 56 
z
" id="DejaVuSans-111"/>
       <path d="M 18.3125 70.21875 
L 18.3125 54.6875 
L 36.8125 54.6875 
L 36.8125 47.703125 
L 18.3125 47.703125 
L 18.3125 18.015625 
Q 18.3125 11.328125 20.140625 9.421875 
Q 21.96875 7.515625 27.59375 7.515625 
L 36.8125 7.515625 
L 36.8125 0 
L 27.59375 0 
Q 17.1875 0 13.234375 3.875 
Q 9.28125 7.765625 9.28125 18.015625 
L 9.28125 47.703125 
L 2.6875 47.703125 
L 2.6875 54.6875 
L 9.28125 54.6875 
L 9.28125 70.21875 
z
" id="DejaVuSans-116"/>
       <path d="M 54.890625 33.015625 
L 54.890625 0 
L 45.90625 0 
L 45.90625 32.71875 
Q 45.90625 40.484375 42.875 44.328125 
Q 39.84375 48.1875 33.796875 48.1875 
Q 26.515625 48.1875 22.3125 43.546875 
Q 18.109375 38.921875 18.109375 30.90625 
L 18.109375 0 
L 9.078125 0 
L 9.078125 54.6875 
L 18.109375 54.6875 
L 18.109375 46.1875 
Q 21.34375 51.125 25.703125 53.5625 
Q 30.078125 56 35.796875 56 
Q 45.21875 56 50.046875 50.171875 
Q 54.890625 44.34375 54.890625 33.015625 
z
" id="DejaVuSans-110"/>
      </defs>
      <use xlink:href="#DejaVuSans-80"/>
      <use x="58.552734" xlink:href="#DejaVuSans-114"/>
      <use x="97.416016" xlink:href="#DejaVuSans-111"/>
      <use x="158.597656" xlink:href="#DejaVuSans-116"/>
      <use x="197.806641" xlink:href="#DejaVuSans-101"/>
      <use x="259.330078" xlink:href="#DejaVuSans-105"/>
      <use x="287.113281" xlink:href="#DejaVuSans-110"/>
     </g>
    </g>
   </g>
   <g id="line2d_7">
    <path clip-path="url(#p5eb3f9d279)" d="M 148.562273 477.276119 
L 149.833987 474.51771 
L 151.105701 468.865541 
L 153.64913 455.265554 
L 157.464273 434.328712 
L 160.007702 421.169557 
L 166.366274 390.659945 
L 170.181417 373.539357 
L 173.99656 357.407803 
L 177.811703 342.109519 
L 182.89856 323.606701 
L 186.713703 310.38781 
L 189.257132 302.040748 
L 193.072275 290.275164 
L 199.430847 272.250228 
L 203.24599 262.466495 
L 209.604562 247.40942 
L 214.691419 235.609054 
L 226.136849 213.219661 
L 235.038849 197.851812 
L 240.125707 190.018171 
L 242.669135 186.609479 
L 249.027707 178.232171 
L 251.571136 175.094934 
L 252.84285 173.485862 
L 255.386279 170.72594 
L 260.473136 164.876418 
L 261.744851 163.553168 
L 265.559994 160.0182 
L 266.831708 158.614798 
L 269.375137 156.332003 
L 274.461994 151.902517 
L 275.733709 150.712348 
L 278.277137 148.795526 
L 279.548852 147.938816 
L 280.820566 146.786454 
L 282.09228 145.790614 
L 284.635709 144.234472 
L 285.907423 143.173603 
L 296.081138 136.305557 
L 297.352853 135.541096 
L 303.711424 132.344124 
L 307.526567 130.192897 
L 310.069996 128.967946 
L 311.341711 128.256415 
L 312.613425 127.685527 
L 315.156854 126.899139 
L 316.428568 126.594413 
L 317.700282 125.863223 
L 318.971997 125.48742 
L 321.515425 124.449992 
L 324.058854 123.470787 
L 326.602283 122.763793 
L 327.873997 122.445457 
L 331.68914 120.945269 
L 332.960855 120.661716 
L 336.775998 119.194798 
L 340.591141 118.280621 
L 341.862855 117.791397 
L 343.13457 117.6379 
L 344.406284 117.329394 
L 346.949713 116.396313 
L 348.221427 116.084782 
L 349.493141 115.903308 
L 355.851713 114.278357 
L 357.123427 113.863234 
L 360.938571 113.005768 
L 367.297142 111.240174 
L 368.568857 111.240174 
L 372.384 110.359268 
L 374.927428 109.921461 
L 377.470857 109.3415 
L 378.742572 109.035262 
L 383.829429 108.530914 
L 385.101143 108.189138 
L 386.372858 107.997834 
L 387.644572 107.604639 
L 388.916286 107.672692 
L 395.274858 107.104829 
L 397.818287 106.486304 
L 402.905144 106.228459 
L 404.176859 106.423544 
L 407.992002 105.82241 
L 409.263716 105.876096 
L 413.078859 105.576664 
L 414.350574 105.699159 
L 416.894002 105.491976 
L 418.165717 105.490464 
L 420.709145 105.291598 
L 421.98086 105.234887 
L 425.796003 105.447363 
L 430.88286 104.73054 
L 432.154575 104.738101 
L 438.513146 104.186117 
L 442.328289 104.149822 
L 443.600004 104.127138 
L 446.143433 103.823168 
L 448.686861 103.750579 
L 449.958576 103.304454 
L 453.773719 103.292356 
L 456.317147 103.039048 
L 457.588862 103.043585 
L 461.404005 102.738103 
L 463.947434 102.704833 
L 466.490862 102.833377 
L 467.762577 102.530164 
L 470.306005 102.076478 
L 471.57772 101.712017 
L 476.664577 101.605401 
L 481.751435 100.897651 
L 483.023149 100.818256 
L 485.566578 100.934702 
L 488.110006 101.007292 
L 489.381721 100.869674 
L 491.925149 100.915799 
L 493.196864 100.515799 
L 494.468578 100.353984 
L 497.012007 100.39406 
L 498.283721 100.434892 
L 499.555436 100.213342 
L 503.370579 100.133191 
L 504.642293 100.000866 
L 505.914007 100.009939 
L 507.185722 99.840563 
L 511.000865 100.270053 
L 512.272579 100.323739 
L 513.544293 100.186877 
L 516.087722 100.461357 
L 519.902865 100.407671 
L 521.17458 100.180072 
L 523.718008 100.039429 
L 526.261437 99.93735 
L 527.533151 100.145289 
L 530.07658 100.063626 
L 533.891723 100.505969 
L 538.978581 100.271565 
L 540.250295 100.436404 
L 542.793724 100.384986 
L 544.065438 100.286688 
L 547.880581 100.431867 
L 550.42401 100.550582 
L 551.695724 100.415232 
L 556.782582 100.436404 
L 559.32601 100.598219 
L 561.869439 100.115799 
L 563.141153 100.185365 
L 565.684582 99.794439 
L 570.77144 99.594817 
L 572.043154 99.343021 
L 575.858297 99.135838 
L 577.130011 98.917313 
L 578.401726 98.906727 
L 579.67344 99.021661 
L 580.945154 98.918069 
L 583.488583 99.113154 
L 584.760298 99.006538 
L 591.118869 99.112398 
L 593.662298 99.159279 
L 596.205727 98.844723 
L 597.477441 98.794062 
L 598.749155 98.919581 
L 600.02087 98.607294 
L 601.292584 98.687445 
L 602.564299 98.958901 
L 605.107727 99.005025 
L 605.107727 99.005025 
" style="fill:none;stroke:#ff3000;stroke-linecap:square;stroke-width:5;"/>
   </g>
   <g id="line2d_8">
    <defs>
     <path d="M 0 6 
C 1.591219 6 3.117479 5.367802 4.242641 4.242641 
C 5.367802 3.117479 6 1.591219 6 0 
C 6 -1.591219 5.367802 -3.117479 4.242641 -4.242641 
C 3.117479 -5.367802 1.591219 -6 0 -6 
C -1.591219 -6 -3.117479 -5.367802 -4.242641 -4.242641 
C -5.367802 -3.117479 -6 -1.591219 -6 0 
C -6 1.591219 -5.367802 3.117479 -4.242641 4.242641 
C -3.117479 5.367802 -1.591219 6 0 6 
z
" id="m6cfd0d1c7b" style="stroke:#ff3000;"/>
    </defs>
    <g clip-path="url(#p5eb3f9d279)">
     <use style="fill:#ff3000;stroke:#ff3000;" x="148.57499" xlink:href="#m6cfd0d1c7b" y="477.12111"/>
     <use style="fill:#ff3000;stroke:#ff3000;" x="165.107277" xlink:href="#m6cfd0d1c7b" y="398.286403"/>
     <use style="fill:#ff3000;stroke:#ff3000;" x="181.639563" xlink:href="#m6cfd0d1c7b" y="329.087981"/>
     <use style="fill:#ff3000;stroke:#ff3000;" x="198.17185" xlink:href="#m6cfd0d1c7b" y="276.820356"/>
     <use style="fill:#ff3000;stroke:#ff3000;" x="214.704136" xlink:href="#m6cfd0d1c7b" y="234.757637"/>
     <use style="fill:#ff3000;stroke:#ff3000;" x="231.236423" xlink:href="#m6cfd0d1c7b" y="206.134602"/>
     <use style="fill:#ff3000;stroke:#ff3000;" x="247.76871" xlink:href="#m6cfd0d1c7b" y="182.859766"/>
     <use style="fill:#ff3000;stroke:#ff3000;" x="264.300996" xlink:href="#m6cfd0d1c7b" y="163.207611"/>
     <use style="fill:#ff3000;stroke:#ff3000;" x="280.833283" xlink:href="#m6cfd0d1c7b" y="148.492313"/>
     <use style="fill:#ff3000;stroke:#ff3000;" x="297.36557" xlink:href="#m6cfd0d1c7b" y="138.992889"/>
     <use style="fill:#ff3000;stroke:#ff3000;" x="313.897856" xlink:href="#m6cfd0d1c7b" y="128.94753"/>
     <use style="fill:#ff3000;stroke:#ff3000;" x="330.430143" xlink:href="#m6cfd0d1c7b" y="122.616345"/>
     <use style="fill:#ff3000;stroke:#ff3000;" x="346.96243" xlink:href="#m6cfd0d1c7b" y="116.43412"/>
     <use style="fill:#ff3000;stroke:#ff3000;" x="363.494716" xlink:href="#m6cfd0d1c7b" y="111.997074"/>
     <use style="fill:#ff3000;stroke:#ff3000;" x="380.027003" xlink:href="#m6cfd0d1c7b" y="109.820894"/>
     <use style="fill:#ff3000;stroke:#ff3000;" x="396.55929" xlink:href="#m6cfd0d1c7b" y="107.903316"/>
     <use style="fill:#ff3000;stroke:#ff3000;" x="413.091576" xlink:href="#m6cfd0d1c7b" y="104.087062"/>
     <use style="fill:#ff3000;stroke:#ff3000;" x="429.623863" xlink:href="#m6cfd0d1c7b" y="103.216742"/>
     <use style="fill:#ff3000;stroke:#ff3000;" x="446.15615" xlink:href="#m6cfd0d1c7b" y="101.646989"/>
     <use style="fill:#ff3000;stroke:#ff3000;" x="462.688436" xlink:href="#m6cfd0d1c7b" y="100.75474"/>
     <use style="fill:#ff3000;stroke:#ff3000;" x="479.220723" xlink:href="#m6cfd0d1c7b" y="100.667028"/>
     <use style="fill:#ff3000;stroke:#ff3000;" x="495.75301" xlink:href="#m6cfd0d1c7b" y="101.112396"/>
     <use style="fill:#ff3000;stroke:#ff3000;" x="512.285296" xlink:href="#m6cfd0d1c7b" y="100.200487"/>
     <use style="fill:#ff3000;stroke:#ff3000;" x="528.817583" xlink:href="#m6cfd0d1c7b" y="97.248505"/>
     <use style="fill:#ff3000;stroke:#ff3000;" x="545.34987" xlink:href="#m6cfd0d1c7b" y="98.144535"/>
     <use style="fill:#ff3000;stroke:#ff3000;" x="561.882156" xlink:href="#m6cfd0d1c7b" y="97.814856"/>
     <use style="fill:#ff3000;stroke:#ff3000;" x="578.414443" xlink:href="#m6cfd0d1c7b" y="99.245479"/>
     <use style="fill:#ff3000;stroke:#ff3000;" x="594.94673" xlink:href="#m6cfd0d1c7b" y="98.750205"/>
    </g>
   </g>
   <g id="patch_3">
    <path d="M 125.735 496.2775 
L 125.735 61.3975 
" style="fill:none;stroke:#000000;stroke-linecap:square;stroke-linejoin:miter;stroke-width:1.5;"/>
   </g>
   <g id="patch_4">
    <path d="M 627.935 496.2775 
L 627.935 61.3975 
" style="fill:none;stroke:#000000;stroke-linecap:square;stroke-linejoin:miter;stroke-width:1.5;"/>
   </g>
   <g id="patch_5">
    <path d="M 125.735 496.2775 
L 627.935 496.2775 
" style="fill:none;stroke:#000000;stroke-linecap:square;stroke-linejoin:miter;stroke-width:1.5;"/>
   </g>
   <g id="patch_6">
    <path d="M 125.735 61.3975 
L 627.935 61.3975 
" style="fill:none;stroke:#000000;stroke-linecap:square;stroke-linejoin:miter;stroke-width:1.5;"/>
   </g>
   <g id="text_9">
    <!-- Average Count -->
    <g transform="translate(169.80125 49.75125)scale(0.56 -0.56)">
     <defs>
      <path d="M 34.1875 63.1875 
L 20.796875 26.90625 
L 47.609375 26.90625 
z
M 28.609375 72.90625 
L 39.796875 72.90625 
L 67.578125 0 
L 57.328125 0 
L 50.6875 18.703125 
L 17.828125 18.703125 
L 11.1875 0 
L 0.78125 0 
z
" id="DejaVuSans-65"/>
      <path d="M 2.984375 54.6875 
L 12.5 54.6875 
L 29.59375 8.796875 
L 46.6875 54.6875 
L 56.203125 54.6875 
L 35.6875 0 
L 23.484375 0 
z
" id="DejaVuSans-118"/>
      <path d="M 34.28125 27.484375 
Q 23.390625 27.484375 19.1875 25 
Q 14.984375 22.515625 14.984375 16.5 
Q 14.984375 11.71875 18.140625 8.90625 
Q 21.296875 6.109375 26.703125 6.109375 
Q 34.1875 6.109375 38.703125 11.40625 
Q 43.21875 16.703125 43.21875 25.484375 
L 43.21875 27.484375 
z
M 52.203125 31.203125 
L 52.203125 0 
L 43.21875 0 
L 43.21875 8.296875 
Q 40.140625 3.328125 35.546875 0.953125 
Q 30.953125 -1.421875 24.3125 -1.421875 
Q 15.921875 -1.421875 10.953125 3.296875 
Q 6 8.015625 6 15.921875 
Q 6 25.140625 12.171875 29.828125 
Q 18.359375 34.515625 30.609375 34.515625 
L 43.21875 34.515625 
L 43.21875 35.40625 
Q 43.21875 41.609375 39.140625 45 
Q 35.0625 48.390625 27.6875 48.390625 
Q 23 48.390625 18.546875 47.265625 
Q 14.109375 46.140625 10.015625 43.890625 
L 10.015625 52.203125 
Q 14.9375 54.109375 19.578125 55.046875 
Q 24.21875 56 28.609375 56 
Q 40.484375 56 46.34375 49.84375 
Q 52.203125 43.703125 52.203125 31.203125 
z
" id="DejaVuSans-97"/>
      <path d="M 45.40625 27.984375 
Q 45.40625 37.75 41.375 43.109375 
Q 37.359375 48.484375 30.078125 48.484375 
Q 22.859375 48.484375 18.828125 43.109375 
Q 14.796875 37.75 14.796875 27.984375 
Q 14.796875 18.265625 18.828125 12.890625 
Q 22.859375 7.515625 30.078125 7.515625 
Q 37.359375 7.515625 41.375 12.890625 
Q 45.40625 18.265625 45.40625 27.984375 
z
M 54.390625 6.78125 
Q 54.390625 -7.171875 48.1875 -13.984375 
Q 42 -20.796875 29.203125 -20.796875 
Q 24.46875 -20.796875 20.265625 -20.09375 
Q 16.0625 -19.390625 12.109375 -17.921875 
L 12.109375 -9.1875 
Q 16.0625 -11.328125 19.921875 -12.34375 
Q 23.78125 -13.375 27.78125 -13.375 
Q 36.625 -13.375 41.015625 -8.765625 
Q 45.40625 -4.15625 45.40625 5.171875 
L 45.40625 9.625 
Q 42.625 4.78125 38.28125 2.390625 
Q 33.9375 0 27.875 0 
Q 17.828125 0 11.671875 7.65625 
Q 5.515625 15.328125 5.515625 27.984375 
Q 5.515625 40.671875 11.671875 48.328125 
Q 17.828125 56 27.875 56 
Q 33.9375 56 38.28125 53.609375 
Q 42.625 51.21875 45.40625 46.390625 
L 45.40625 54.6875 
L 54.390625 54.6875 
z
" id="DejaVuSans-103"/>
      <path d="M 64.40625 67.28125 
L 64.40625 56.890625 
Q 59.421875 61.53125 53.78125 63.8125 
Q 48.140625 66.109375 41.796875 66.109375 
Q 29.296875 66.109375 22.65625 58.46875 
Q 16.015625 50.828125 16.015625 36.375 
Q 16.015625 21.96875 22.65625 14.328125 
Q 29.296875 6.6875 41.796875 6.6875 
Q 48.140625 6.6875 53.78125 8.984375 
Q 59.421875 11.28125 64.40625 15.921875 
L 64.40625 5.609375 
Q 59.234375 2.09375 53.4375 0.328125 
Q 47.65625 -1.421875 41.21875 -1.421875 
Q 24.65625 -1.421875 15.125 8.703125 
Q 5.609375 18.84375 5.609375 36.375 
Q 5.609375 53.953125 15.125 64.078125 
Q 24.65625 74.21875 41.21875 74.21875 
Q 47.75 74.21875 53.53125 72.484375 
Q 59.328125 70.75 64.40625 67.28125 
z
" id="DejaVuSans-67"/>
      <path d="M 8.5 21.578125 
L 8.5 54.6875 
L 17.484375 54.6875 
L 17.484375 21.921875 
Q 17.484375 14.15625 20.5 10.265625 
Q 23.53125 6.390625 29.59375 6.390625 
Q 36.859375 6.390625 41.078125 11.03125 
Q 45.3125 15.671875 45.3125 23.6875 
L 45.3125 54.6875 
L 54.296875 54.6875 
L 54.296875 0 
L 45.3125 0 
L 45.3125 8.40625 
Q 42.046875 3.421875 37.71875 1 
Q 33.40625 -1.421875 27.6875 -1.421875 
Q 18.265625 -1.421875 13.375 4.4375 
Q 8.5 10.296875 8.5 21.578125 
z
M 31.109375 56 
z
" id="DejaVuSans-117"/>
     </defs>
     <use xlink:href="#DejaVuSans-65"/>
     <use x="62.533203" xlink:href="#DejaVuSans-118"/>
     <use x="121.712891" xlink:href="#DejaVuSans-101"/>
     <use x="183.236328" xlink:href="#DejaVuSans-114"/>
     <use x="224.349609" xlink:href="#DejaVuSans-97"/>
     <use x="285.628906" xlink:href="#DejaVuSans-103"/>
     <use x="349.105469" xlink:href="#DejaVuSans-101"/>
     <use x="410.628906" xlink:href="#DejaVuSans-32"/>
     <use x="442.416016" xlink:href="#DejaVuSans-67"/>
     <use x="512.240234" xlink:href="#DejaVuSans-111"/>
     <use x="573.421875" xlink:href="#DejaVuSans-117"/>
     <use x="636.800781" xlink:href="#DejaVuSans-110"/>
     <use x="700.179688" xlink:href="#DejaVuSans-116"/>
    </g>
   </g>
  </g>
 </g>
 <defs>
  <clipPath id="p5eb3f9d279">
   <rect height="434.88" width="502.2" x="125.735" y="61.3975"/>
  </clipPath>
 </defs>
</svg>
