<?xml version="1.0" encoding="utf-8" standalone="no"?>
<!DOCTYPE svg PUBLIC "-//W3C//DTD SVG 1.1//EN"
  "http://www.w3.org/Graphics/SVG/1.1/DTD/svg11.dtd">
<!-- Created with matplotlib (https://matplotlib.org/) -->
<svg height="608.936pt" version="1.1" viewBox="0 0 592.392727 608.936" width="592.392727pt" xmlns="http://www.w3.org/2000/svg" xmlns:xlink="http://www.w3.org/1999/xlink">
 <metadata>
  <rdf:RDF xmlns:cc="http://creativecommons.org/ns#" xmlns:dc="http://purl.org/dc/elements/1.1/" xmlns:rdf="http://www.w3.org/1999/02/22-rdf-syntax-ns#">
   <cc:Work>
    <dc:type rdf:resource="http://purl.org/dc/dcmitype/StillImage"/>
    <dc:date>2022-09-24T16:13:41.025489</dc:date>
    <dc:format>image/svg+xml</dc:format>
    <dc:creator>
     <cc:Agent>
      <dc:title>Matplotlib v3.3.4, https://matplotlib.org/</dc:title>
     </cc:Agent>
    </dc:creator>
   </cc:Work>
  </rdf:RDF>
 </metadata>
 <defs>
  <style type="text/css">*{stroke-linecap:butt;stroke-linejoin:round;}</style>
 </defs>
 <g id="figure_1">
  <g id="patch_1">
   <path d="M 0 608.936 
L 592.392727 608.936 
L 592.392727 0 
L 0 0 
z
" style="fill:#ffffff;"/>
  </g>
  <g id="axes_1">
   <g id="patch_2">
    <path d="M 75.28 497.826 
L 577.48 497.826 
L 577.48 62.946 
L 75.28 62.946 
z
" style="fill:#ffffff;"/>
   </g>
   <g id="matplotlib.axis_1">
    <g id="xtick_1">
     <g id="line2d_1">
      <defs>
       <path d="M 0 0 
L 0 3.5 
" id="m57ae0cd3ba" style="stroke:#000000;stroke-width:0.8;"/>
      </defs>
      <g>
       <use style="stroke:#000000;stroke-width:0.8;" x="98.107273" xlink:href="#m57ae0cd3ba" y="497.826"/>
      </g>
     </g>
     <g id="text_1">
      <!-- 0 -->
      <g transform="translate(82.837273 541.2985)scale(0.48 -0.48)">
       <defs>
        <path d="M 31.78125 66.40625 
Q 24.171875 66.40625 20.328125 58.90625 
Q 16.5 51.421875 16.5 36.375 
Q 16.5 21.390625 20.328125 13.890625 
Q 24.171875 6.390625 31.78125 6.390625 
Q 39.453125 6.390625 43.28125 13.890625 
Q 47.125 21.390625 47.125 36.375 
Q 47.125 51.421875 43.28125 58.90625 
Q 39.453125 66.40625 31.78125 66.40625 
z
M 31.78125 74.21875 
Q 44.046875 74.21875 50.515625 64.515625 
Q 56.984375 54.828125 56.984375 36.375 
Q 56.984375 17.96875 50.515625 8.265625 
Q 44.046875 -1.421875 31.78125 -1.421875 
Q 19.53125 -1.421875 13.0625 8.265625 
Q 6.59375 17.96875 6.59375 36.375 
Q 6.59375 54.828125 13.0625 64.515625 
Q 19.53125 74.21875 31.78125 74.21875 
z
" id="DejaVuSans-48"/>
       </defs>
       <use xlink:href="#DejaVuSans-48"/>
      </g>
     </g>
    </g>
    <g id="xtick_2">
     <g id="line2d_2">
      <g>
       <use style="stroke:#000000;stroke-width:0.8;" x="326.38" xlink:href="#m57ae0cd3ba" y="497.826"/>
      </g>
     </g>
     <g id="text_2">
      <!-- 5 -->
      <g transform="translate(311.11 541.2985)scale(0.48 -0.48)">
       <defs>
        <path d="M 10.796875 72.90625 
L 49.515625 72.90625 
L 49.515625 64.59375 
L 19.828125 64.59375 
L 19.828125 46.734375 
Q 21.96875 47.46875 24.109375 47.828125 
Q 26.265625 48.1875 28.421875 48.1875 
Q 40.625 48.1875 47.75 41.5 
Q 54.890625 34.8125 54.890625 23.390625 
Q 54.890625 11.625 47.5625 5.09375 
Q 40.234375 -1.421875 26.90625 -1.421875 
Q 22.3125 -1.421875 17.546875 -0.640625 
Q 12.796875 0.140625 7.71875 1.703125 
L 7.71875 11.625 
Q 12.109375 9.234375 16.796875 8.0625 
Q 21.484375 6.890625 26.703125 6.890625 
Q 35.15625 6.890625 40.078125 11.328125 
Q 45.015625 15.765625 45.015625 23.390625 
Q 45.015625 31 40.078125 35.4375 
Q 35.15625 39.890625 26.703125 39.890625 
Q 22.75 39.890625 18.8125 39.015625 
Q 14.890625 38.140625 10.796875 36.28125 
z
" id="DejaVuSans-53"/>
       </defs>
       <use xlink:href="#DejaVuSans-53"/>
      </g>
     </g>
    </g>
    <g id="xtick_3">
     <g id="line2d_3">
      <g>
       <use style="stroke:#000000;stroke-width:0.8;" x="554.652727" xlink:href="#m57ae0cd3ba" y="497.826"/>
      </g>
     </g>
     <g id="text_3">
      <!-- 10 -->
      <g transform="translate(524.112727 541.2985)scale(0.48 -0.48)">
       <defs>
        <path d="M 12.40625 8.296875 
L 28.515625 8.296875 
L 28.515625 63.921875 
L 10.984375 60.40625 
L 10.984375 69.390625 
L 28.421875 72.90625 
L 38.28125 72.90625 
L 38.28125 8.296875 
L 54.390625 8.296875 
L 54.390625 0 
L 12.40625 0 
z
" id="DejaVuSans-49"/>
       </defs>
       <use xlink:href="#DejaVuSans-49"/>
       <use x="63.623047" xlink:href="#DejaVuSans-48"/>
      </g>
     </g>
    </g>
    <g id="text_4">
     <!-- Gillespie -->
     <g transform="translate(223.84 591.7535)scale(0.48 -0.48)">
      <defs>
       <path d="M 59.515625 10.40625 
L 59.515625 29.984375 
L 43.40625 29.984375 
L 43.40625 38.09375 
L 69.28125 38.09375 
L 69.28125 6.78125 
Q 63.578125 2.734375 56.6875 0.65625 
Q 49.8125 -1.421875 42 -1.421875 
Q 24.90625 -1.421875 15.25 8.5625 
Q 5.609375 18.5625 5.609375 36.375 
Q 5.609375 54.25 15.25 64.234375 
Q 24.90625 74.21875 42 74.21875 
Q 49.125 74.21875 55.546875 72.453125 
Q 61.96875 70.703125 67.390625 67.28125 
L 67.390625 56.78125 
Q 61.921875 61.421875 55.765625 63.765625 
Q 49.609375 66.109375 42.828125 66.109375 
Q 29.4375 66.109375 22.71875 58.640625 
Q 16.015625 51.171875 16.015625 36.375 
Q 16.015625 21.625 22.71875 14.15625 
Q 29.4375 6.6875 42.828125 6.6875 
Q 48.046875 6.6875 52.140625 7.59375 
Q 56.25 8.5 59.515625 10.40625 
z
" id="DejaVuSans-71"/>
       <path d="M 9.421875 54.6875 
L 18.40625 54.6875 
L 18.40625 0 
L 9.421875 0 
z
M 9.421875 75.984375 
L 18.40625 75.984375 
L 18.40625 64.59375 
L 9.421875 64.59375 
z
" id="DejaVuSans-105"/>
       <path d="M 9.421875 75.984375 
L 18.40625 75.984375 
L 18.40625 0 
L 9.421875 0 
z
" id="DejaVuSans-108"/>
       <path d="M 56.203125 29.59375 
L 56.203125 25.203125 
L 14.890625 25.203125 
Q 15.484375 15.921875 20.484375 11.0625 
Q 25.484375 6.203125 34.421875 6.203125 
Q 39.59375 6.203125 44.453125 7.46875 
Q 49.3125 8.734375 54.109375 11.28125 
L 54.109375 2.78125 
Q 49.265625 0.734375 44.1875 -0.34375 
Q 39.109375 -1.421875 33.890625 -1.421875 
Q 20.796875 -1.421875 13.15625 6.1875 
Q 5.515625 13.8125 5.515625 26.8125 
Q 5.515625 40.234375 12.765625 48.109375 
Q 20.015625 56 32.328125 56 
Q 43.359375 56 49.78125 48.890625 
Q 56.203125 41.796875 56.203125 29.59375 
z
M 47.21875 32.234375 
Q 47.125 39.59375 43.09375 43.984375 
Q 39.0625 48.390625 32.421875 48.390625 
Q 24.90625 48.390625 20.390625 44.140625 
Q 15.875 39.890625 15.1875 32.171875 
z
" id="DejaVuSans-101"/>
       <path d="M 44.28125 53.078125 
L 44.28125 44.578125 
Q 40.484375 46.53125 36.375 47.5 
Q 32.28125 48.484375 27.875 48.484375 
Q 21.1875 48.484375 17.84375 46.4375 
Q 14.5 44.390625 14.5 40.28125 
Q 14.5 37.15625 16.890625 35.375 
Q 19.28125 33.59375 26.515625 31.984375 
L 29.59375 31.296875 
Q 39.15625 29.25 43.1875 25.515625 
Q 47.21875 21.78125 47.21875 15.09375 
Q 47.21875 7.46875 41.1875 3.015625 
Q 35.15625 -1.421875 24.609375 -1.421875 
Q 20.21875 -1.421875 15.453125 -0.5625 
Q 10.6875 0.296875 5.421875 2 
L 5.421875 11.28125 
Q 10.40625 8.6875 15.234375 7.390625 
Q 20.0625 6.109375 24.8125 6.109375 
Q 31.15625 6.109375 34.5625 8.28125 
Q 37.984375 10.453125 37.984375 14.40625 
Q 37.984375 18.0625 35.515625 20.015625 
Q 33.0625 21.96875 24.703125 23.78125 
L 21.578125 24.515625 
Q 13.234375 26.265625 9.515625 29.90625 
Q 5.8125 33.546875 5.8125 39.890625 
Q 5.8125 47.609375 11.28125 51.796875 
Q 16.75 56 26.8125 56 
Q 31.78125 56 36.171875 55.265625 
Q 40.578125 54.546875 44.28125 53.078125 
z
" id="DejaVuSans-115"/>
       <path d="M 18.109375 8.203125 
L 18.109375 -20.796875 
L 9.078125 -20.796875 
L 9.078125 54.6875 
L 18.109375 54.6875 
L 18.109375 46.390625 
Q 20.953125 51.265625 25.265625 53.625 
Q 29.59375 56 35.59375 56 
Q 45.5625 56 51.78125 48.09375 
Q 58.015625 40.1875 58.015625 27.296875 
Q 58.015625 14.40625 51.78125 6.484375 
Q 45.5625 -1.421875 35.59375 -1.421875 
Q 29.59375 -1.421875 25.265625 0.953125 
Q 20.953125 3.328125 18.109375 8.203125 
z
M 48.6875 27.296875 
Q 48.6875 37.203125 44.609375 42.84375 
Q 40.53125 48.484375 33.40625 48.484375 
Q 26.265625 48.484375 22.1875 42.84375 
Q 18.109375 37.203125 18.109375 27.296875 
Q 18.109375 17.390625 22.1875 11.75 
Q 26.265625 6.109375 33.40625 6.109375 
Q 40.53125 6.109375 44.609375 11.75 
Q 48.6875 17.390625 48.6875 27.296875 
z
" id="DejaVuSans-112"/>
      </defs>
      <use xlink:href="#DejaVuSans-71"/>
      <use x="77.490234" xlink:href="#DejaVuSans-105"/>
      <use x="105.273438" xlink:href="#DejaVuSans-108"/>
      <use x="133.056641" xlink:href="#DejaVuSans-108"/>
      <use x="160.839844" xlink:href="#DejaVuSans-101"/>
      <use x="222.363281" xlink:href="#DejaVuSans-115"/>
      <use x="274.462891" xlink:href="#DejaVuSans-112"/>
      <use x="337.939453" xlink:href="#DejaVuSans-105"/>
      <use x="365.722656" xlink:href="#DejaVuSans-101"/>
     </g>
    </g>
   </g>
   <g id="matplotlib.axis_2">
    <g id="ytick_1">
     <g id="line2d_4">
      <defs>
       <path d="M 0 0 
L -3.5 0 
" id="mc32db0c114" style="stroke:#000000;stroke-width:0.8;"/>
      </defs>
      <g>
       <use style="stroke:#000000;stroke-width:0.8;" x="75.28" xlink:href="#mc32db0c114" y="478.058727"/>
      </g>
     </g>
     <g id="text_5">
      <!-- 0 -->
      <g transform="translate(37.74 496.294977)scale(0.48 -0.48)">
       <use xlink:href="#DejaVuSans-48"/>
      </g>
     </g>
    </g>
    <g id="ytick_2">
     <g id="line2d_5">
      <g>
       <use style="stroke:#000000;stroke-width:0.8;" x="75.28" xlink:href="#mc32db0c114" y="280.386"/>
      </g>
     </g>
     <g id="text_6">
      <!-- 5 -->
      <g transform="translate(37.74 298.62225)scale(0.48 -0.48)">
       <use xlink:href="#DejaVuSans-53"/>
      </g>
     </g>
    </g>
    <g id="ytick_3">
     <g id="line2d_6">
      <g>
       <use style="stroke:#000000;stroke-width:0.8;" x="75.28" xlink:href="#mc32db0c114" y="82.713273"/>
      </g>
     </g>
     <g id="text_7">
      <!-- 10 -->
      <g transform="translate(7.2 100.949523)scale(0.48 -0.48)">
       <use xlink:href="#DejaVuSans-49"/>
       <use x="63.623047" xlink:href="#DejaVuSans-48"/>
      </g>
     </g>
    </g>
   </g>
   <g id="line2d_7">
    <defs>
     <path d="M 0 10 
C 2.652031 10 5.195799 8.946337 7.071068 7.071068 
C 8.946337 5.195799 10 2.652031 10 0 
C 10 -2.652031 8.946337 -5.195799 7.071068 -7.071068 
C 5.195799 -8.946337 2.652031 -10 0 -10 
C -2.652031 -10 -5.195799 -8.946337 -7.071068 -7.071068 
C -8.946337 -5.195799 -10 -2.652031 -10 0 
C -10 2.652031 -8.946337 5.195799 -7.071068 7.071068 
C -5.195799 8.946337 -2.652031 10 0 10 
z
" id="mec71589220" style="stroke:#ff3000;"/>
    </defs>
    <g clip-path="url(#p77241c4abe)">
     <use style="fill:#ff3000;stroke:#ff3000;" x="98.107273" xlink:href="#mec71589220" y="471.674204"/>
    </g>
   </g>
   <g id="line2d_8">
    <defs>
     <path d="M 0 10 
C 2.652031 10 5.195799 8.946337 7.071068 7.071068 
C 8.946337 5.195799 10 2.652031 10 0 
C 10 -2.652031 8.946337 -5.195799 7.071068 -7.071068 
C 5.195799 -8.946337 2.652031 -10 0 -10 
C -2.652031 -10 -5.195799 -8.946337 -7.071068 -7.071068 
C -8.946337 -5.195799 -10 -2.652031 -10 0 
C -10 2.652031 -8.946337 5.195799 -7.071068 7.071068 
C -5.195799 8.946337 -2.652031 10 0 10 
z
" id="m67f75f3223" style="stroke:#ff3000;stroke-opacity:0.979796;"/>
    </defs>
    <g clip-path="url(#p77241c4abe)">
     <use style="fill:#ff3000;fill-opacity:0.979796;stroke:#ff3000;stroke-opacity:0.979796;" x="132.910322" xlink:href="#m67f75f3223" y="448.572253"/>
    </g>
   </g>
   <g id="line2d_9">
    <defs>
     <path d="M 0 10 
C 2.652031 10 5.195799 8.946337 7.071068 7.071068 
C 8.946337 5.195799 10 2.652031 10 0 
C 10 -2.652031 8.946337 -5.195799 7.071068 -7.071068 
C 5.195799 -8.946337 2.652031 -10 0 -10 
C -2.652031 -10 -5.195799 -8.946337 -7.071068 -7.071068 
C -8.946337 -5.195799 -10 -2.652031 -10 0 
C -10 2.652031 -8.946337 5.195799 -7.071068 7.071068 
C -5.195799 8.946337 -2.652031 10 0 10 
z
" id="m8ba6b576fd" style="stroke:#ff3000;stroke-opacity:0.959592;"/>
    </defs>
    <g clip-path="url(#p77241c4abe)">
     <use style="fill:#ff3000;fill-opacity:0.959592;stroke:#ff3000;stroke-opacity:0.959592;" x="165.197535" xlink:href="#m8ba6b576fd" y="402.629695"/>
    </g>
   </g>
   <g id="line2d_10">
    <defs>
     <path d="M 0 10 
C 2.652031 10 5.195799 8.946337 7.071068 7.071068 
C 8.946337 5.195799 10 2.652031 10 0 
C 10 -2.652031 8.946337 -5.195799 7.071068 -7.071068 
C 5.195799 -8.946337 2.652031 -10 0 -10 
C -2.652031 -10 -5.195799 -8.946337 -7.071068 -7.071068 
C -8.946337 -5.195799 -10 -2.652031 -10 0 
C -10 2.652031 -8.946337 5.195799 -7.071068 7.071068 
C -5.195799 8.946337 -2.652031 10 0 10 
z
" id="mb41106eabd" style="stroke:#ff3000;stroke-opacity:0.939388;"/>
    </defs>
    <g clip-path="url(#p77241c4abe)">
     <use style="fill:#ff3000;fill-opacity:0.939388;stroke:#ff3000;stroke-opacity:0.939388;" x="217.423496" xlink:href="#mb41106eabd" y="383.176551"/>
    </g>
   </g>
   <g id="line2d_11">
    <defs>
     <path d="M 0 10 
C 2.652031 10 5.195799 8.946337 7.071068 7.071068 
C 8.946337 5.195799 10 2.652031 10 0 
C 10 -2.652031 8.946337 -5.195799 7.071068 -7.071068 
C 5.195799 -8.946337 2.652031 -10 0 -10 
C -2.652031 -10 -5.195799 -8.946337 -7.071068 -7.071068 
C -8.946337 -5.195799 -10 -2.652031 -10 0 
C -10 2.652031 -8.946337 5.195799 -7.071068 7.071068 
C -5.195799 8.946337 -2.652031 10 0 10 
z
" id="m338dbf8431" style="stroke:#ff3000;stroke-opacity:0.919184;"/>
    </defs>
    <g clip-path="url(#p77241c4abe)">
     <use style="fill:#ff3000;fill-opacity:0.919184;stroke:#ff3000;stroke-opacity:0.919184;" x="238.101777" xlink:href="#m338dbf8431" y="350.948017"/>
    </g>
   </g>
   <g id="line2d_12">
    <defs>
     <path d="M 0 10 
C 2.652031 10 5.195799 8.946337 7.071068 7.071068 
C 8.946337 5.195799 10 2.652031 10 0 
C 10 -2.652031 8.946337 -5.195799 7.071068 -7.071068 
C 5.195799 -8.946337 2.652031 -10 0 -10 
C -2.652031 -10 -5.195799 -8.946337 -7.071068 -7.071068 
C -8.946337 -5.195799 -10 -2.652031 -10 0 
C -10 2.652031 -8.946337 5.195799 -7.071068 7.071068 
C -5.195799 8.946337 -2.652031 10 0 10 
z
" id="maf14dc5fb0" style="stroke:#ff3000;stroke-opacity:0.89898;"/>
    </defs>
    <g clip-path="url(#p77241c4abe)">
     <use style="fill:#ff3000;fill-opacity:0.89898;stroke:#ff3000;stroke-opacity:0.89898;" x="271.955034" xlink:href="#maf14dc5fb0" y="336.28033"/>
    </g>
   </g>
   <g id="line2d_13">
    <defs>
     <path d="M 0 10 
C 2.652031 10 5.195799 8.946337 7.071068 7.071068 
C 8.946337 5.195799 10 2.652031 10 0 
C 10 -2.652031 8.946337 -5.195799 7.071068 -7.071068 
C 5.195799 -8.946337 2.652031 -10 0 -10 
C -2.652031 -10 -5.195799 -8.946337 -7.071068 -7.071068 
C -8.946337 -5.195799 -10 -2.652031 -10 0 
C -10 2.652031 -8.946337 5.195799 -7.071068 7.071068 
C -5.195799 8.946337 -2.652031 10 0 10 
z
" id="m2647f30e85" style="stroke:#ff3000;stroke-opacity:0.878776;"/>
    </defs>
    <g clip-path="url(#p77241c4abe)">
     <use style="fill:#ff3000;fill-opacity:0.878776;stroke:#ff3000;stroke-opacity:0.878776;" x="286.230287" xlink:href="#m2647f30e85" y="312.400465"/>
    </g>
   </g>
   <g id="line2d_14">
    <defs>
     <path d="M 0 10 
C 2.652031 10 5.195799 8.946337 7.071068 7.071068 
C 8.946337 5.195799 10 2.652031 10 0 
C 10 -2.652031 8.946337 -5.195799 7.071068 -7.071068 
C 5.195799 -8.946337 2.652031 -10 0 -10 
C -2.652031 -10 -5.195799 -8.946337 -7.071068 -7.071068 
C -8.946337 -5.195799 -10 -2.652031 -10 0 
C -10 2.652031 -8.946337 5.195799 -7.071068 7.071068 
C -5.195799 8.946337 -2.652031 10 0 10 
z
" id="m5bebcd7e47" style="stroke:#ff3000;stroke-opacity:0.858571;"/>
    </defs>
    <g clip-path="url(#p77241c4abe)">
     <use style="fill:#ff3000;fill-opacity:0.858571;stroke:#ff3000;stroke-opacity:0.858571;" x="310.739347" xlink:href="#m5bebcd7e47" y="298.309278"/>
    </g>
   </g>
   <g id="line2d_15">
    <defs>
     <path d="M 0 10 
C 2.652031 10 5.195799 8.946337 7.071068 7.071068 
C 8.946337 5.195799 10 2.652031 10 0 
C 10 -2.652031 8.946337 -5.195799 7.071068 -7.071068 
C 5.195799 -8.946337 2.652031 -10 0 -10 
C -2.652031 -10 -5.195799 -8.946337 -7.071068 -7.071068 
C -8.946337 -5.195799 -10 -2.652031 -10 0 
C -10 2.652031 -8.946337 5.195799 -7.071068 7.071068 
C -5.195799 8.946337 -2.652031 10 0 10 
z
" id="mfe4de67b0b" style="stroke:#ff3000;stroke-opacity:0.838367;"/>
    </defs>
    <g clip-path="url(#p77241c4abe)">
     <use style="fill:#ff3000;fill-opacity:0.838367;stroke:#ff3000;stroke-opacity:0.838367;" x="321.154517" xlink:href="#mfe4de67b0b" y="281.928042"/>
    </g>
   </g>
   <g id="line2d_16">
    <defs>
     <path d="M 0 10 
C 2.652031 10 5.195799 8.946337 7.071068 7.071068 
C 8.946337 5.195799 10 2.652031 10 0 
C 10 -2.652031 8.946337 -5.195799 7.071068 -7.071068 
C 5.195799 -8.946337 2.652031 -10 0 -10 
C -2.652031 -10 -5.195799 -8.946337 -7.071068 -7.071068 
C -8.946337 -5.195799 -10 -2.652031 -10 0 
C -10 2.652031 -8.946337 5.195799 -7.071068 7.071068 
C -5.195799 8.946337 -2.652031 10 0 10 
z
" id="ma586436b60" style="stroke:#ff3000;stroke-opacity:0.818163;"/>
    </defs>
    <g clip-path="url(#p77241c4abe)">
     <use style="fill:#ff3000;fill-opacity:0.818163;stroke:#ff3000;stroke-opacity:0.818163;" x="331.194077" xlink:href="#ma586436b60" y="272.750207"/>
    </g>
   </g>
   <g id="line2d_17">
    <defs>
     <path d="M 0 10 
C 2.652031 10 5.195799 8.946337 7.071068 7.071068 
C 8.946337 5.195799 10 2.652031 10 0 
C 10 -2.652031 8.946337 -5.195799 7.071068 -7.071068 
C 5.195799 -8.946337 2.652031 -10 0 -10 
C -2.652031 -10 -5.195799 -8.946337 -7.071068 -7.071068 
C -8.946337 -5.195799 -10 -2.652031 -10 0 
C -10 2.652031 -8.946337 5.195799 -7.071068 7.071068 
C -5.195799 8.946337 -2.652031 10 0 10 
z
" id="mb7f5db3c13" style="stroke:#ff3000;stroke-opacity:0.797959;"/>
    </defs>
    <g clip-path="url(#p77241c4abe)">
     <use style="fill:#ff3000;fill-opacity:0.797959;stroke:#ff3000;stroke-opacity:0.797959;" x="349.96555" xlink:href="#mb7f5db3c13" y="263.081894"/>
    </g>
   </g>
   <g id="line2d_18">
    <defs>
     <path d="M 0 10 
C 2.652031 10 5.195799 8.946337 7.071068 7.071068 
C 8.946337 5.195799 10 2.652031 10 0 
C 10 -2.652031 8.946337 -5.195799 7.071068 -7.071068 
C 5.195799 -8.946337 2.652031 -10 0 -10 
C -2.652031 -10 -5.195799 -8.946337 -7.071068 -7.071068 
C -8.946337 -5.195799 -10 -2.652031 -10 0 
C -10 2.652031 -8.946337 5.195799 -7.071068 7.071068 
C -5.195799 8.946337 -2.652031 10 0 10 
z
" id="m44d086b951" style="stroke:#ff3000;stroke-opacity:0.777755;"/>
    </defs>
    <g clip-path="url(#p77241c4abe)">
     <use style="fill:#ff3000;fill-opacity:0.777755;stroke:#ff3000;stroke-opacity:0.777755;" x="358.134644" xlink:href="#m44d086b951" y="249.948804"/>
    </g>
   </g>
   <g id="line2d_19">
    <defs>
     <path d="M 0 10 
C 2.652031 10 5.195799 8.946337 7.071068 7.071068 
C 8.946337 5.195799 10 2.652031 10 0 
C 10 -2.652031 8.946337 -5.195799 7.071068 -7.071068 
C 5.195799 -8.946337 2.652031 -10 0 -10 
C -2.652031 -10 -5.195799 -8.946337 -7.071068 -7.071068 
C -8.946337 -5.195799 -10 -2.652031 -10 0 
C -10 2.652031 -8.946337 5.195799 -7.071068 7.071068 
C -5.195799 8.946337 -2.652031 10 0 10 
z
" id="m3e50274b6b" style="stroke:#ff3000;stroke-opacity:0.757551;"/>
    </defs>
    <g clip-path="url(#p77241c4abe)">
     <use style="fill:#ff3000;fill-opacity:0.757551;stroke:#ff3000;stroke-opacity:0.757551;" x="373.159717" xlink:href="#m3e50274b6b" y="244.286422"/>
    </g>
   </g>
   <g id="line2d_20">
    <defs>
     <path d="M 0 10 
C 2.652031 10 5.195799 8.946337 7.071068 7.071068 
C 8.946337 5.195799 10 2.652031 10 0 
C 10 -2.652031 8.946337 -5.195799 7.071068 -7.071068 
C 5.195799 -8.946337 2.652031 -10 0 -10 
C -2.652031 -10 -5.195799 -8.946337 -7.071068 -7.071068 
C -8.946337 -5.195799 -10 -2.652031 -10 0 
C -10 2.652031 -8.946337 5.195799 -7.071068 7.071068 
C -5.195799 8.946337 -2.652031 10 0 10 
z
" id="m711767d0bc" style="stroke:#ff3000;stroke-opacity:0.737347;"/>
    </defs>
    <g clip-path="url(#p77241c4abe)">
     <use style="fill:#ff3000;fill-opacity:0.737347;stroke:#ff3000;stroke-opacity:0.737347;" x="380.738224" xlink:href="#m711767d0bc" y="236.236021"/>
    </g>
   </g>
   <g id="line2d_21">
    <defs>
     <path d="M 0 10 
C 2.652031 10 5.195799 8.946337 7.071068 7.071068 
C 8.946337 5.195799 10 2.652031 10 0 
C 10 -2.652031 8.946337 -5.195799 7.071068 -7.071068 
C 5.195799 -8.946337 2.652031 -10 0 -10 
C -2.652031 -10 -5.195799 -8.946337 -7.071068 -7.071068 
C -8.946337 -5.195799 -10 -2.652031 -10 0 
C -10 2.652031 -8.946337 5.195799 -7.071068 7.071068 
C -5.195799 8.946337 -2.652031 10 0 10 
z
" id="m4803c2e661" style="stroke:#ff3000;stroke-opacity:0.717143;"/>
    </defs>
    <g clip-path="url(#p77241c4abe)">
     <use style="fill:#ff3000;fill-opacity:0.717143;stroke:#ff3000;stroke-opacity:0.717143;" x="392.527321" xlink:href="#m4803c2e661" y="225.096265"/>
    </g>
   </g>
   <g id="line2d_22">
    <defs>
     <path d="M 0 10 
C 2.652031 10 5.195799 8.946337 7.071068 7.071068 
C 8.946337 5.195799 10 2.652031 10 0 
C 10 -2.652031 8.946337 -5.195799 7.071068 -7.071068 
C 5.195799 -8.946337 2.652031 -10 0 -10 
C -2.652031 -10 -5.195799 -8.946337 -7.071068 -7.071068 
C -8.946337 -5.195799 -10 -2.652031 -10 0 
C -10 2.652031 -8.946337 5.195799 -7.071068 7.071068 
C -5.195799 8.946337 -2.652031 10 0 10 
z
" id="m8190bd43ef" style="stroke:#ff3000;stroke-opacity:0.696939;"/>
    </defs>
    <g clip-path="url(#p77241c4abe)">
     <use style="fill:#ff3000;fill-opacity:0.696939;stroke:#ff3000;stroke-opacity:0.696939;" x="397.910568" xlink:href="#m8190bd43ef" y="217.694671"/>
    </g>
   </g>
   <g id="line2d_23">
    <defs>
     <path d="M 0 10 
C 2.652031 10 5.195799 8.946337 7.071068 7.071068 
C 8.946337 5.195799 10 2.652031 10 0 
C 10 -2.652031 8.946337 -5.195799 7.071068 -7.071068 
C 5.195799 -8.946337 2.652031 -10 0 -10 
C -2.652031 -10 -5.195799 -8.946337 -7.071068 -7.071068 
C -8.946337 -5.195799 -10 -2.652031 -10 0 
C -10 2.652031 -8.946337 5.195799 -7.071068 7.071068 
C -5.195799 8.946337 -2.652031 10 0 10 
z
" id="m148c874e8e" style="stroke:#ff3000;stroke-opacity:0.676735;"/>
    </defs>
    <g clip-path="url(#p77241c4abe)">
     <use style="fill:#ff3000;fill-opacity:0.676735;stroke:#ff3000;stroke-opacity:0.676735;" x="407.126074" xlink:href="#m148c874e8e" y="212.026067"/>
    </g>
   </g>
   <g id="line2d_24">
    <defs>
     <path d="M 0 10 
C 2.652031 10 5.195799 8.946337 7.071068 7.071068 
C 8.946337 5.195799 10 2.652031 10 0 
C 10 -2.652031 8.946337 -5.195799 7.071068 -7.071068 
C 5.195799 -8.946337 2.652031 -10 0 -10 
C -2.652031 -10 -5.195799 -8.946337 -7.071068 -7.071068 
C -8.946337 -5.195799 -10 -2.652031 -10 0 
C -10 2.652031 -8.946337 5.195799 -7.071068 7.071068 
C -5.195799 8.946337 -2.652031 10 0 10 
z
" id="m0703cd073a" style="stroke:#ff3000;stroke-opacity:0.656531;"/>
    </defs>
    <g clip-path="url(#p77241c4abe)">
     <use style="fill:#ff3000;fill-opacity:0.656531;stroke:#ff3000;stroke-opacity:0.656531;" x="412.636277" xlink:href="#m0703cd073a" y="206.402804"/>
    </g>
   </g>
   <g id="line2d_25">
    <defs>
     <path d="M 0 10 
C 2.652031 10 5.195799 8.946337 7.071068 7.071068 
C 8.946337 5.195799 10 2.652031 10 0 
C 10 -2.652031 8.946337 -5.195799 7.071068 -7.071068 
C 5.195799 -8.946337 2.652031 -10 0 -10 
C -2.652031 -10 -5.195799 -8.946337 -7.071068 -7.071068 
C -8.946337 -5.195799 -10 -2.652031 -10 0 
C -10 2.652031 -8.946337 5.195799 -7.071068 7.071068 
C -5.195799 8.946337 -2.652031 10 0 10 
z
" id="m0c44e2509a" style="stroke:#ff3000;stroke-opacity:0.636327;"/>
    </defs>
    <g clip-path="url(#p77241c4abe)">
     <use style="fill:#ff3000;fill-opacity:0.636327;stroke:#ff3000;stroke-opacity:0.636327;" x="417.781879" xlink:href="#m0c44e2509a" y="204.163306"/>
    </g>
   </g>
   <g id="line2d_26">
    <defs>
     <path d="M 0 10 
C 2.652031 10 5.195799 8.946337 7.071068 7.071068 
C 8.946337 5.195799 10 2.652031 10 0 
C 10 -2.652031 8.946337 -5.195799 7.071068 -7.071068 
C 5.195799 -8.946337 2.652031 -10 0 -10 
C -2.652031 -10 -5.195799 -8.946337 -7.071068 -7.071068 
C -8.946337 -5.195799 -10 -2.652031 -10 0 
C -10 2.652031 -8.946337 5.195799 -7.071068 7.071068 
C -5.195799 8.946337 -2.652031 10 0 10 
z
" id="m35d5debd62" style="stroke:#ff3000;stroke-opacity:0.616122;"/>
    </defs>
    <g clip-path="url(#p77241c4abe)">
     <use style="fill:#ff3000;fill-opacity:0.616122;stroke:#ff3000;stroke-opacity:0.616122;" x="425.517534" xlink:href="#m35d5debd62" y="201.53755"/>
    </g>
   </g>
   <g id="line2d_27">
    <defs>
     <path d="M 0 10 
C 2.652031 10 5.195799 8.946337 7.071068 7.071068 
C 8.946337 5.195799 10 2.652031 10 0 
C 10 -2.652031 8.946337 -5.195799 7.071068 -7.071068 
C 5.195799 -8.946337 2.652031 -10 0 -10 
C -2.652031 -10 -5.195799 -8.946337 -7.071068 -7.071068 
C -8.946337 -5.195799 -10 -2.652031 -10 0 
C -10 2.652031 -8.946337 5.195799 -7.071068 7.071068 
C -5.195799 8.946337 -2.652031 10 0 10 
z
" id="m8cebddb86b" style="stroke:#ff3000;stroke-opacity:0.595918;"/>
    </defs>
    <g clip-path="url(#p77241c4abe)">
     <use style="fill:#ff3000;fill-opacity:0.595918;stroke:#ff3000;stroke-opacity:0.595918;" x="429.89493" xlink:href="#m8cebddb86b" y="188.562445"/>
    </g>
   </g>
   <g id="line2d_28">
    <defs>
     <path d="M 0 10 
C 2.652031 10 5.195799 8.946337 7.071068 7.071068 
C 8.946337 5.195799 10 2.652031 10 0 
C 10 -2.652031 8.946337 -5.195799 7.071068 -7.071068 
C 5.195799 -8.946337 2.652031 -10 0 -10 
C -2.652031 -10 -5.195799 -8.946337 -7.071068 -7.071068 
C -8.946337 -5.195799 -10 -2.652031 -10 0 
C -10 2.652031 -8.946337 5.195799 -7.071068 7.071068 
C -5.195799 8.946337 -2.652031 10 0 10 
z
" id="m004a4acabb" style="stroke:#ff3000;stroke-opacity:0.575714;"/>
    </defs>
    <g clip-path="url(#p77241c4abe)">
     <use style="fill:#ff3000;fill-opacity:0.575714;stroke:#ff3000;stroke-opacity:0.575714;" x="438.361871" xlink:href="#m004a4acabb" y="184.943146"/>
    </g>
   </g>
   <g id="line2d_29">
    <defs>
     <path d="M 0 10 
C 2.652031 10 5.195799 8.946337 7.071068 7.071068 
C 8.946337 5.195799 10 2.652031 10 0 
C 10 -2.652031 8.946337 -5.195799 7.071068 -7.071068 
C 5.195799 -8.946337 2.652031 -10 0 -10 
C -2.652031 -10 -5.195799 -8.946337 -7.071068 -7.071068 
C -8.946337 -5.195799 -10 -2.652031 -10 0 
C -10 2.652031 -8.946337 5.195799 -7.071068 7.071068 
C -5.195799 8.946337 -2.652031 10 0 10 
z
" id="m82171388ee" style="stroke:#ff3000;stroke-opacity:0.55551;"/>
    </defs>
    <g clip-path="url(#p77241c4abe)">
     <use style="fill:#ff3000;fill-opacity:0.55551;stroke:#ff3000;stroke-opacity:0.55551;" x="442.750147" xlink:href="#m82171388ee" y="181.781351"/>
    </g>
   </g>
   <g id="line2d_30">
    <defs>
     <path d="M 0 10 
C 2.652031 10 5.195799 8.946337 7.071068 7.071068 
C 8.946337 5.195799 10 2.652031 10 0 
C 10 -2.652031 8.946337 -5.195799 7.071068 -7.071068 
C 5.195799 -8.946337 2.652031 -10 0 -10 
C -2.652031 -10 -5.195799 -8.946337 -7.071068 -7.071068 
C -8.946337 -5.195799 -10 -2.652031 -10 0 
C -10 2.652031 -8.946337 5.195799 -7.071068 7.071068 
C -5.195799 8.946337 -2.652031 10 0 10 
z
" id="mb6f96a484c" style="stroke:#ff3000;stroke-opacity:0.535306;"/>
    </defs>
    <g clip-path="url(#p77241c4abe)">
     <use style="fill:#ff3000;fill-opacity:0.535306;stroke:#ff3000;stroke-opacity:0.535306;" x="449.771399" xlink:href="#mb6f96a484c" y="177.163228"/>
    </g>
   </g>
   <g id="line2d_31">
    <defs>
     <path d="M 0 10 
C 2.652031 10 5.195799 8.946337 7.071068 7.071068 
C 8.946337 5.195799 10 2.652031 10 0 
C 10 -2.652031 8.946337 -5.195799 7.071068 -7.071068 
C 5.195799 -8.946337 2.652031 -10 0 -10 
C -2.652031 -10 -5.195799 -8.946337 -7.071068 -7.071068 
C -8.946337 -5.195799 -10 -2.652031 -10 0 
C -10 2.652031 -8.946337 5.195799 -7.071068 7.071068 
C -5.195799 8.946337 -2.652031 10 0 10 
z
" id="m95df599b12" style="stroke:#ff3000;stroke-opacity:0.515102;"/>
    </defs>
    <g clip-path="url(#p77241c4abe)">
     <use style="fill:#ff3000;fill-opacity:0.515102;stroke:#ff3000;stroke-opacity:0.515102;" x="453.514422" xlink:href="#m95df599b12" y="168.740379"/>
    </g>
   </g>
   <g id="line2d_32">
    <defs>
     <path d="M 0 10 
C 2.652031 10 5.195799 8.946337 7.071068 7.071068 
C 8.946337 5.195799 10 2.652031 10 0 
C 10 -2.652031 8.946337 -5.195799 7.071068 -7.071068 
C 5.195799 -8.946337 2.652031 -10 0 -10 
C -2.652031 -10 -5.195799 -8.946337 -7.071068 -7.071068 
C -8.946337 -5.195799 -10 -2.652031 -10 0 
C -10 2.652031 -8.946337 5.195799 -7.071068 7.071068 
C -5.195799 8.946337 -2.652031 10 0 10 
z
" id="m31d45c01bb" style="stroke:#ff3000;stroke-opacity:0.494898;"/>
    </defs>
    <g clip-path="url(#p77241c4abe)">
     <use style="fill:#ff3000;fill-opacity:0.494898;stroke:#ff3000;stroke-opacity:0.494898;" x="458.993593" xlink:href="#m31d45c01bb" y="169.025888"/>
    </g>
   </g>
   <g id="line2d_33">
    <defs>
     <path d="M 0 10 
C 2.652031 10 5.195799 8.946337 7.071068 7.071068 
C 8.946337 5.195799 10 2.652031 10 0 
C 10 -2.652031 8.946337 -5.195799 7.071068 -7.071068 
C 5.195799 -8.946337 2.652031 -10 0 -10 
C -2.652031 -10 -5.195799 -8.946337 -7.071068 -7.071068 
C -8.946337 -5.195799 -10 -2.652031 -10 0 
C -10 2.652031 -8.946337 5.195799 -7.071068 7.071068 
C -5.195799 8.946337 -2.652031 10 0 10 
z
" id="m43ab5d2047" style="stroke:#ff3000;stroke-opacity:0.474694;"/>
    </defs>
    <g clip-path="url(#p77241c4abe)">
     <use style="fill:#ff3000;fill-opacity:0.474694;stroke:#ff3000;stroke-opacity:0.474694;" x="462.531502" xlink:href="#m43ab5d2047" y="166.033523"/>
    </g>
   </g>
   <g id="line2d_34">
    <defs>
     <path d="M 0 10 
C 2.652031 10 5.195799 8.946337 7.071068 7.071068 
C 8.946337 5.195799 10 2.652031 10 0 
C 10 -2.652031 8.946337 -5.195799 7.071068 -7.071068 
C 5.195799 -8.946337 2.652031 -10 0 -10 
C -2.652031 -10 -5.195799 -8.946337 -7.071068 -7.071068 
C -8.946337 -5.195799 -10 -2.652031 -10 0 
C -10 2.652031 -8.946337 5.195799 -7.071068 7.071068 
C -5.195799 8.946337 -2.652031 10 0 10 
z
" id="mbbb682c928" style="stroke:#ff3000;stroke-opacity:0.45449;"/>
    </defs>
    <g clip-path="url(#p77241c4abe)">
     <use style="fill:#ff3000;fill-opacity:0.45449;stroke:#ff3000;stroke-opacity:0.45449;" x="464.117984" xlink:href="#mbbb682c928" y="161.197068"/>
    </g>
   </g>
   <g id="line2d_35">
    <defs>
     <path d="M 0 10 
C 2.652031 10 5.195799 8.946337 7.071068 7.071068 
C 8.946337 5.195799 10 2.652031 10 0 
C 10 -2.652031 8.946337 -5.195799 7.071068 -7.071068 
C 5.195799 -8.946337 2.652031 -10 0 -10 
C -2.652031 -10 -5.195799 -8.946337 -7.071068 -7.071068 
C -8.946337 -5.195799 -10 -2.652031 -10 0 
C -10 2.652031 -8.946337 5.195799 -7.071068 7.071068 
C -5.195799 8.946337 -2.652031 10 0 10 
z
" id="m298b5b7d92" style="stroke:#ff3000;stroke-opacity:0.434286;"/>
    </defs>
    <g clip-path="url(#p77241c4abe)">
     <use style="fill:#ff3000;fill-opacity:0.434286;stroke:#ff3000;stroke-opacity:0.434286;" x="468.788288" xlink:href="#m298b5b7d92" y="162.14354"/>
    </g>
   </g>
   <g id="line2d_36">
    <defs>
     <path d="M 0 10 
C 2.652031 10 5.195799 8.946337 7.071068 7.071068 
C 8.946337 5.195799 10 2.652031 10 0 
C 10 -2.652031 8.946337 -5.195799 7.071068 -7.071068 
C 5.195799 -8.946337 2.652031 -10 0 -10 
C -2.652031 -10 -5.195799 -8.946337 -7.071068 -7.071068 
C -8.946337 -5.195799 -10 -2.652031 -10 0 
C -10 2.652031 -8.946337 5.195799 -7.071068 7.071068 
C -5.195799 8.946337 -2.652031 10 0 10 
z
" id="m830c1331f3" style="stroke:#ff3000;stroke-opacity:0.414082;"/>
    </defs>
    <g clip-path="url(#p77241c4abe)">
     <use style="fill:#ff3000;fill-opacity:0.414082;stroke:#ff3000;stroke-opacity:0.414082;" x="471.549975" xlink:href="#m830c1331f3" y="157.580712"/>
    </g>
   </g>
   <g id="line2d_37">
    <defs>
     <path d="M 0 10 
C 2.652031 10 5.195799 8.946337 7.071068 7.071068 
C 8.946337 5.195799 10 2.652031 10 0 
C 10 -2.652031 8.946337 -5.195799 7.071068 -7.071068 
C 5.195799 -8.946337 2.652031 -10 0 -10 
C -2.652031 -10 -5.195799 -8.946337 -7.071068 -7.071068 
C -8.946337 -5.195799 -10 -2.652031 -10 0 
C -10 2.652031 -8.946337 5.195799 -7.071068 7.071068 
C -5.195799 8.946337 -2.652031 10 0 10 
z
" id="m147578b41e" style="stroke:#ff3000;stroke-opacity:0.393878;"/>
    </defs>
    <g clip-path="url(#p77241c4abe)">
     <use style="fill:#ff3000;fill-opacity:0.393878;stroke:#ff3000;stroke-opacity:0.393878;" x="475.523341" xlink:href="#m147578b41e" y="148.913464"/>
    </g>
   </g>
   <g id="line2d_38">
    <defs>
     <path d="M 0 10 
C 2.652031 10 5.195799 8.946337 7.071068 7.071068 
C 8.946337 5.195799 10 2.652031 10 0 
C 10 -2.652031 8.946337 -5.195799 7.071068 -7.071068 
C 5.195799 -8.946337 2.652031 -10 0 -10 
C -2.652031 -10 -5.195799 -8.946337 -7.071068 -7.071068 
C -8.946337 -5.195799 -10 -2.652031 -10 0 
C -10 2.652031 -8.946337 5.195799 -7.071068 7.071068 
C -5.195799 8.946337 -2.652031 10 0 10 
z
" id="m007c083bdd" style="stroke:#ff3000;stroke-opacity:0.373673;"/>
    </defs>
    <g clip-path="url(#p77241c4abe)">
     <use style="fill:#ff3000;fill-opacity:0.373673;stroke:#ff3000;stroke-opacity:0.373673;" x="477.377217" xlink:href="#m007c083bdd" y="149.599952"/>
    </g>
   </g>
   <g id="line2d_39">
    <defs>
     <path d="M 0 10 
C 2.652031 10 5.195799 8.946337 7.071068 7.071068 
C 8.946337 5.195799 10 2.652031 10 0 
C 10 -2.652031 8.946337 -5.195799 7.071068 -7.071068 
C 5.195799 -8.946337 2.652031 -10 0 -10 
C -2.652031 -10 -5.195799 -8.946337 -7.071068 -7.071068 
C -8.946337 -5.195799 -10 -2.652031 -10 0 
C -10 2.652031 -8.946337 5.195799 -7.071068 7.071068 
C -5.195799 8.946337 -2.652031 10 0 10 
z
" id="m37a0d2e3e4" style="stroke:#ff3000;stroke-opacity:0.353469;"/>
    </defs>
    <g clip-path="url(#p77241c4abe)">
     <use style="fill:#ff3000;fill-opacity:0.353469;stroke:#ff3000;stroke-opacity:0.353469;" x="480.853132" xlink:href="#m37a0d2e3e4" y="148.636064"/>
    </g>
   </g>
   <g id="line2d_40">
    <defs>
     <path d="M 0 10 
C 2.652031 10 5.195799 8.946337 7.071068 7.071068 
C 8.946337 5.195799 10 2.652031 10 0 
C 10 -2.652031 8.946337 -5.195799 7.071068 -7.071068 
C 5.195799 -8.946337 2.652031 -10 0 -10 
C -2.652031 -10 -5.195799 -8.946337 -7.071068 -7.071068 
C -8.946337 -5.195799 -10 -2.652031 -10 0 
C -10 2.652031 -8.946337 5.195799 -7.071068 7.071068 
C -5.195799 8.946337 -2.652031 10 0 10 
z
" id="mb292e1ad7f" style="stroke:#ff3000;stroke-opacity:0.333265;"/>
    </defs>
    <g clip-path="url(#p77241c4abe)">
     <use style="fill:#ff3000;fill-opacity:0.333265;stroke:#ff3000;stroke-opacity:0.333265;" x="482.689987" xlink:href="#mb292e1ad7f" y="144.152727"/>
    </g>
   </g>
   <g id="line2d_41">
    <defs>
     <path d="M 0 10 
C 2.652031 10 5.195799 8.946337 7.071068 7.071068 
C 8.946337 5.195799 10 2.652031 10 0 
C 10 -2.652031 8.946337 -5.195799 7.071068 -7.071068 
C 5.195799 -8.946337 2.652031 -10 0 -10 
C -2.652031 -10 -5.195799 -8.946337 -7.071068 -7.071068 
C -8.946337 -5.195799 -10 -2.652031 -10 0 
C -10 2.652031 -8.946337 5.195799 -7.071068 7.071068 
C -5.195799 8.946337 -2.652031 10 0 10 
z
" id="m6d7868fab9" style="stroke:#ff3000;stroke-opacity:0.313061;"/>
    </defs>
    <g clip-path="url(#p77241c4abe)">
     <use style="fill:#ff3000;fill-opacity:0.313061;stroke:#ff3000;stroke-opacity:0.313061;" x="484.037489" xlink:href="#m6d7868fab9" y="143.399891"/>
    </g>
   </g>
   <g id="line2d_42">
    <defs>
     <path d="M 0 10 
C 2.652031 10 5.195799 8.946337 7.071068 7.071068 
C 8.946337 5.195799 10 2.652031 10 0 
C 10 -2.652031 8.946337 -5.195799 7.071068 -7.071068 
C 5.195799 -8.946337 2.652031 -10 0 -10 
C -2.652031 -10 -5.195799 -8.946337 -7.071068 -7.071068 
C -8.946337 -5.195799 -10 -2.652031 -10 0 
C -10 2.652031 -8.946337 5.195799 -7.071068 7.071068 
C -5.195799 8.946337 -2.652031 10 0 10 
z
" id="mea90bfe69d" style="stroke:#ff3000;stroke-opacity:0.292857;"/>
    </defs>
    <g clip-path="url(#p77241c4abe)">
     <use style="fill:#ff3000;fill-opacity:0.292857;stroke:#ff3000;stroke-opacity:0.292857;" x="487.515613" xlink:href="#mea90bfe69d" y="142.40944"/>
    </g>
   </g>
   <g id="line2d_43">
    <defs>
     <path d="M 0 10 
C 2.652031 10 5.195799 8.946337 7.071068 7.071068 
C 8.946337 5.195799 10 2.652031 10 0 
C 10 -2.652031 8.946337 -5.195799 7.071068 -7.071068 
C 5.195799 -8.946337 2.652031 -10 0 -10 
C -2.652031 -10 -5.195799 -8.946337 -7.071068 -7.071068 
C -8.946337 -5.195799 -10 -2.652031 -10 0 
C -10 2.652031 -8.946337 5.195799 -7.071068 7.071068 
C -5.195799 8.946337 -2.652031 10 0 10 
z
" id="m107a8e630d" style="stroke:#ff3000;stroke-opacity:0.272653;"/>
    </defs>
    <g clip-path="url(#p77241c4abe)">
     <use style="fill:#ff3000;fill-opacity:0.272653;stroke:#ff3000;stroke-opacity:0.272653;" x="488.595384" xlink:href="#m107a8e630d" y="137.216013"/>
    </g>
   </g>
   <g id="line2d_44">
    <defs>
     <path d="M 0 10 
C 2.652031 10 5.195799 8.946337 7.071068 7.071068 
C 8.946337 5.195799 10 2.652031 10 0 
C 10 -2.652031 8.946337 -5.195799 7.071068 -7.071068 
C 5.195799 -8.946337 2.652031 -10 0 -10 
C -2.652031 -10 -5.195799 -8.946337 -7.071068 -7.071068 
C -8.946337 -5.195799 -10 -2.652031 -10 0 
C -10 2.652031 -8.946337 5.195799 -7.071068 7.071068 
C -5.195799 8.946337 -2.652031 10 0 10 
z
" id="m2a98feab14" style="stroke:#ff3000;stroke-opacity:0.252449;"/>
    </defs>
    <g clip-path="url(#p77241c4abe)">
     <use style="fill:#ff3000;fill-opacity:0.252449;stroke:#ff3000;stroke-opacity:0.252449;" x="492.458134" xlink:href="#m2a98feab14" y="139.345567"/>
    </g>
   </g>
   <g id="line2d_45">
    <defs>
     <path d="M 0 10 
C 2.652031 10 5.195799 8.946337 7.071068 7.071068 
C 8.946337 5.195799 10 2.652031 10 0 
C 10 -2.652031 8.946337 -5.195799 7.071068 -7.071068 
C 5.195799 -8.946337 2.652031 -10 0 -10 
C -2.652031 -10 -5.195799 -8.946337 -7.071068 -7.071068 
C -8.946337 -5.195799 -10 -2.652031 -10 0 
C -10 2.652031 -8.946337 5.195799 -7.071068 7.071068 
C -5.195799 8.946337 -2.652031 10 0 10 
z
" id="m230e7c90db" style="stroke:#ff3000;stroke-opacity:0.232245;"/>
    </defs>
    <g clip-path="url(#p77241c4abe)">
     <use style="fill:#ff3000;fill-opacity:0.232245;stroke:#ff3000;stroke-opacity:0.232245;" x="493.976995" xlink:href="#m230e7c90db" y="133.273528"/>
    </g>
   </g>
   <g id="line2d_46">
    <defs>
     <path d="M 0 10 
C 2.652031 10 5.195799 8.946337 7.071068 7.071068 
C 8.946337 5.195799 10 2.652031 10 0 
C 10 -2.652031 8.946337 -5.195799 7.071068 -7.071068 
C 5.195799 -8.946337 2.652031 -10 0 -10 
C -2.652031 -10 -5.195799 -8.946337 -7.071068 -7.071068 
C -8.946337 -5.195799 -10 -2.652031 -10 0 
C -10 2.652031 -8.946337 5.195799 -7.071068 7.071068 
C -5.195799 8.946337 -2.652031 10 0 10 
z
" id="mc8ca24a023" style="stroke:#ff3000;stroke-opacity:0.212041;"/>
    </defs>
    <g clip-path="url(#p77241c4abe)">
     <use style="fill:#ff3000;fill-opacity:0.212041;stroke:#ff3000;stroke-opacity:0.212041;" x="497.894226" xlink:href="#mc8ca24a023" y="132.157835"/>
    </g>
   </g>
   <g id="line2d_47">
    <defs>
     <path d="M 0 10 
C 2.652031 10 5.195799 8.946337 7.071068 7.071068 
C 8.946337 5.195799 10 2.652031 10 0 
C 10 -2.652031 8.946337 -5.195799 7.071068 -7.071068 
C 5.195799 -8.946337 2.652031 -10 0 -10 
C -2.652031 -10 -5.195799 -8.946337 -7.071068 -7.071068 
C -8.946337 -5.195799 -10 -2.652031 -10 0 
C -10 2.652031 -8.946337 5.195799 -7.071068 7.071068 
C -5.195799 8.946337 -2.652031 10 0 10 
z
" id="mb378d7f2e6" style="stroke:#ff3000;stroke-opacity:0.191837;"/>
    </defs>
    <g clip-path="url(#p77241c4abe)">
     <use style="fill:#ff3000;fill-opacity:0.191837;stroke:#ff3000;stroke-opacity:0.191837;" x="499.937418" xlink:href="#mb378d7f2e6" y="126.652705"/>
    </g>
   </g>
   <g id="line2d_48">
    <defs>
     <path d="M 0 10 
C 2.652031 10 5.195799 8.946337 7.071068 7.071068 
C 8.946337 5.195799 10 2.652031 10 0 
C 10 -2.652031 8.946337 -5.195799 7.071068 -7.071068 
C 5.195799 -8.946337 2.652031 -10 0 -10 
C -2.652031 -10 -5.195799 -8.946337 -7.071068 -7.071068 
C -8.946337 -5.195799 -10 -2.652031 -10 0 
C -10 2.652031 -8.946337 5.195799 -7.071068 7.071068 
C -5.195799 8.946337 -2.652031 10 0 10 
z
" id="m15fd27cd1a" style="stroke:#ff3000;stroke-opacity:0.171633;"/>
    </defs>
    <g clip-path="url(#p77241c4abe)">
     <use style="fill:#ff3000;fill-opacity:0.171633;stroke:#ff3000;stroke-opacity:0.171633;" x="503.174081" xlink:href="#m15fd27cd1a" y="125.942718"/>
    </g>
   </g>
   <g id="line2d_49">
    <defs>
     <path d="M 0 10 
C 2.652031 10 5.195799 8.946337 7.071068 7.071068 
C 8.946337 5.195799 10 2.652031 10 0 
C 10 -2.652031 8.946337 -5.195799 7.071068 -7.071068 
C 5.195799 -8.946337 2.652031 -10 0 -10 
C -2.652031 -10 -5.195799 -8.946337 -7.071068 -7.071068 
C -8.946337 -5.195799 -10 -2.652031 -10 0 
C -10 2.652031 -8.946337 5.195799 -7.071068 7.071068 
C -5.195799 8.946337 -2.652031 10 0 10 
z
" id="m2ff040f50b" style="stroke:#ff3000;stroke-opacity:0.151429;"/>
    </defs>
    <g clip-path="url(#p77241c4abe)">
     <use style="fill:#ff3000;fill-opacity:0.151429;stroke:#ff3000;stroke-opacity:0.151429;" x="504.770368" xlink:href="#m2ff040f50b" y="127.486164"/>
    </g>
   </g>
   <g id="line2d_50">
    <defs>
     <path d="M 0 10 
C 2.652031 10 5.195799 8.946337 7.071068 7.071068 
C 8.946337 5.195799 10 2.652031 10 0 
C 10 -2.652031 8.946337 -5.195799 7.071068 -7.071068 
C 5.195799 -8.946337 2.652031 -10 0 -10 
C -2.652031 -10 -5.195799 -8.946337 -7.071068 -7.071068 
C -8.946337 -5.195799 -10 -2.652031 -10 0 
C -10 2.652031 -8.946337 5.195799 -7.071068 7.071068 
C -5.195799 8.946337 -2.652031 10 0 10 
z
" id="m3717f9d5bf" style="stroke:#ff3000;stroke-opacity:0.131224;"/>
    </defs>
    <g clip-path="url(#p77241c4abe)">
     <use style="fill:#ff3000;fill-opacity:0.131224;stroke:#ff3000;stroke-opacity:0.131224;" x="505.737526" xlink:href="#m3717f9d5bf" y="126.812881"/>
    </g>
   </g>
   <g id="line2d_51">
    <defs>
     <path d="M 0 10 
C 2.652031 10 5.195799 8.946337 7.071068 7.071068 
C 8.946337 5.195799 10 2.652031 10 0 
C 10 -2.652031 8.946337 -5.195799 7.071068 -7.071068 
C 5.195799 -8.946337 2.652031 -10 0 -10 
C -2.652031 -10 -5.195799 -8.946337 -7.071068 -7.071068 
C -8.946337 -5.195799 -10 -2.652031 -10 0 
C -10 2.652031 -8.946337 5.195799 -7.071068 7.071068 
C -5.195799 8.946337 -2.652031 10 0 10 
z
" id="m345ebf2d37" style="stroke:#ff3000;stroke-opacity:0.11102;"/>
    </defs>
    <g clip-path="url(#p77241c4abe)">
     <use style="fill:#ff3000;fill-opacity:0.11102;stroke:#ff3000;stroke-opacity:0.11102;" x="510.204384" xlink:href="#m345ebf2d37" y="125.811334"/>
    </g>
   </g>
   <g id="line2d_52">
    <defs>
     <path d="M 0 10 
C 2.652031 10 5.195799 8.946337 7.071068 7.071068 
C 8.946337 5.195799 10 2.652031 10 0 
C 10 -2.652031 8.946337 -5.195799 7.071068 -7.071068 
C 5.195799 -8.946337 2.652031 -10 0 -10 
C -2.652031 -10 -5.195799 -8.946337 -7.071068 -7.071068 
C -8.946337 -5.195799 -10 -2.652031 -10 0 
C -10 2.652031 -8.946337 5.195799 -7.071068 7.071068 
C -5.195799 8.946337 -2.652031 10 0 10 
z
" id="m773a45d6d4" style="stroke:#ff3000;stroke-opacity:0.090816;"/>
    </defs>
    <g clip-path="url(#p77241c4abe)">
     <use style="fill:#ff3000;fill-opacity:0.090816;stroke:#ff3000;stroke-opacity:0.090816;" x="512.308449" xlink:href="#m773a45d6d4" y="124.183958"/>
    </g>
   </g>
   <g id="line2d_53">
    <defs>
     <path d="M 0 10 
C 2.652031 10 5.195799 8.946337 7.071068 7.071068 
C 8.946337 5.195799 10 2.652031 10 0 
C 10 -2.652031 8.946337 -5.195799 7.071068 -7.071068 
C 5.195799 -8.946337 2.652031 -10 0 -10 
C -2.652031 -10 -5.195799 -8.946337 -7.071068 -7.071068 
C -8.946337 -5.195799 -10 -2.652031 -10 0 
C -10 2.652031 -8.946337 5.195799 -7.071068 7.071068 
C -5.195799 8.946337 -2.652031 10 0 10 
z
" id="m73da44cd20" style="stroke:#ff3000;stroke-opacity:0.070612;"/>
    </defs>
    <g clip-path="url(#p77241c4abe)">
     <use style="fill:#ff3000;fill-opacity:0.070612;stroke:#ff3000;stroke-opacity:0.070612;" x="516.252407" xlink:href="#m73da44cd20" y="120.479324"/>
    </g>
   </g>
   <g id="line2d_54">
    <defs>
     <path d="M 0 10 
C 2.652031 10 5.195799 8.946337 7.071068 7.071068 
C 8.946337 5.195799 10 2.652031 10 0 
C 10 -2.652031 8.946337 -5.195799 7.071068 -7.071068 
C 5.195799 -8.946337 2.652031 -10 0 -10 
C -2.652031 -10 -5.195799 -8.946337 -7.071068 -7.071068 
C -8.946337 -5.195799 -10 -2.652031 -10 0 
C -10 2.652031 -8.946337 5.195799 -7.071068 7.071068 
C -5.195799 8.946337 -2.652031 10 0 10 
z
" id="mb155dae9d6" style="stroke:#ff3000;stroke-opacity:0.050408;"/>
    </defs>
    <g clip-path="url(#p77241c4abe)">
     <use style="fill:#ff3000;fill-opacity:0.050408;stroke:#ff3000;stroke-opacity:0.050408;" x="516.41741" xlink:href="#mb155dae9d6" y="123.629673"/>
    </g>
   </g>
   <g id="line2d_55">
    <defs>
     <path d="M 0 10 
C 2.652031 10 5.195799 8.946337 7.071068 7.071068 
C 8.946337 5.195799 10 2.652031 10 0 
C 10 -2.652031 8.946337 -5.195799 7.071068 -7.071068 
C 5.195799 -8.946337 2.652031 -10 0 -10 
C -2.652031 -10 -5.195799 -8.946337 -7.071068 -7.071068 
C -8.946337 -5.195799 -10 -2.652031 -10 0 
C -10 2.652031 -8.946337 5.195799 -7.071068 7.071068 
C -5.195799 8.946337 -2.652031 10 0 10 
z
" id="mf6c4b8697f" style="stroke:#ff3000;stroke-opacity:0.030204;"/>
    </defs>
    <g clip-path="url(#p77241c4abe)">
     <use style="fill:#ff3000;fill-opacity:0.030204;stroke:#ff3000;stroke-opacity:0.030204;" x="518.709022" xlink:href="#mf6c4b8697f" y="118.067599"/>
    </g>
   </g>
   <g id="line2d_56">
    <defs>
     <path d="M 0 10 
C 2.652031 10 5.195799 8.946337 7.071068 7.071068 
C 8.946337 5.195799 10 2.652031 10 0 
C 10 -2.652031 8.946337 -5.195799 7.071068 -7.071068 
C 5.195799 -8.946337 2.652031 -10 0 -10 
C -2.652031 -10 -5.195799 -8.946337 -7.071068 -7.071068 
C -8.946337 -5.195799 -10 -2.652031 -10 0 
C -10 2.652031 -8.946337 5.195799 -7.071068 7.071068 
C -5.195799 8.946337 -2.652031 10 0 10 
z
" id="mf6b8c84ee2" style="stroke:#ff3000;stroke-opacity:0.01;"/>
    </defs>
    <g clip-path="url(#p77241c4abe)">
     <use style="fill:#ff3000;fill-opacity:0.01;stroke:#ff3000;stroke-opacity:0.01;" x="518.394782" xlink:href="#mf6b8c84ee2" y="115.375108"/>
    </g>
   </g>
   <g id="line2d_57">
    <path clip-path="url(#p77241c4abe)" d="M 98.107273 478.058727 
L 554.652727 82.713273 
" style="fill:none;stroke:#000000;stroke-linecap:square;stroke-width:4;"/>
   </g>
   <g id="patch_3">
    <path d="M 75.28 497.826 
L 75.28 62.946 
" style="fill:none;stroke:#000000;stroke-linecap:square;stroke-linejoin:miter;stroke-width:1.5;"/>
   </g>
   <g id="patch_4">
    <path d="M 577.48 497.826 
L 577.48 62.946 
" style="fill:none;stroke:#000000;stroke-linecap:square;stroke-linejoin:miter;stroke-width:1.5;"/>
   </g>
   <g id="patch_5">
    <path d="M 75.28 497.826 
L 577.48 497.826 
" style="fill:none;stroke:#000000;stroke-linecap:square;stroke-linejoin:miter;stroke-width:1.5;"/>
   </g>
   <g id="patch_6">
    <path d="M 75.28 62.946 
L 577.48 62.946 
" style="fill:none;stroke:#000000;stroke-linecap:square;stroke-linejoin:miter;stroke-width:1.5;"/>
   </g>
   <g id="text_8">
    <!-- Std -->
    <g transform="translate(278.5225 50.967)scale(0.576 -0.576)">
     <defs>
      <path d="M 53.515625 70.515625 
L 53.515625 60.890625 
Q 47.90625 63.578125 42.921875 64.890625 
Q 37.9375 66.21875 33.296875 66.21875 
Q 25.25 66.21875 20.875 63.09375 
Q 16.5 59.96875 16.5 54.203125 
Q 16.5 49.359375 19.40625 46.890625 
Q 22.3125 44.4375 30.421875 42.921875 
L 36.375 41.703125 
Q 47.40625 39.59375 52.65625 34.296875 
Q 57.90625 29 57.90625 20.125 
Q 57.90625 9.515625 50.796875 4.046875 
Q 43.703125 -1.421875 29.984375 -1.421875 
Q 24.8125 -1.421875 18.96875 -0.25 
Q 13.140625 0.921875 6.890625 3.21875 
L 6.890625 13.375 
Q 12.890625 10.015625 18.65625 8.296875 
Q 24.421875 6.59375 29.984375 6.59375 
Q 38.421875 6.59375 43.015625 9.90625 
Q 47.609375 13.234375 47.609375 19.390625 
Q 47.609375 24.75 44.3125 27.78125 
Q 41.015625 30.8125 33.5 32.328125 
L 27.484375 33.5 
Q 16.453125 35.6875 11.515625 40.375 
Q 6.59375 45.0625 6.59375 53.421875 
Q 6.59375 63.09375 13.40625 68.65625 
Q 20.21875 74.21875 32.171875 74.21875 
Q 37.3125 74.21875 42.625 73.28125 
Q 47.953125 72.359375 53.515625 70.515625 
z
" id="DejaVuSans-83"/>
      <path d="M 18.3125 70.21875 
L 18.3125 54.6875 
L 36.8125 54.6875 
L 36.8125 47.703125 
L 18.3125 47.703125 
L 18.3125 18.015625 
Q 18.3125 11.328125 20.140625 9.421875 
Q 21.96875 7.515625 27.59375 7.515625 
L 36.8125 7.515625 
L 36.8125 0 
L 27.59375 0 
Q 17.1875 0 13.234375 3.875 
Q 9.28125 7.765625 9.28125 18.015625 
L 9.28125 47.703125 
L 2.6875 47.703125 
L 2.6875 54.6875 
L 9.28125 54.6875 
L 9.28125 70.21875 
z
" id="DejaVuSans-116"/>
      <path d="M 45.40625 46.390625 
L 45.40625 75.984375 
L 54.390625 75.984375 
L 54.390625 0 
L 45.40625 0 
L 45.40625 8.203125 
Q 42.578125 3.328125 38.25 0.953125 
Q 33.9375 -1.421875 27.875 -1.421875 
Q 17.96875 -1.421875 11.734375 6.484375 
Q 5.515625 14.40625 5.515625 27.296875 
Q 5.515625 40.1875 11.734375 48.09375 
Q 17.96875 56 27.875 56 
Q 33.9375 56 38.25 53.625 
Q 42.578125 51.265625 45.40625 46.390625 
z
M 14.796875 27.296875 
Q 14.796875 17.390625 18.875 11.75 
Q 22.953125 6.109375 30.078125 6.109375 
Q 37.203125 6.109375 41.296875 11.75 
Q 45.40625 17.390625 45.40625 27.296875 
Q 45.40625 37.203125 41.296875 42.84375 
Q 37.203125 48.484375 30.078125 48.484375 
Q 22.953125 48.484375 18.875 42.84375 
Q 14.796875 37.203125 14.796875 27.296875 
z
" id="DejaVuSans-100"/>
     </defs>
     <use xlink:href="#DejaVuSans-83"/>
     <use x="63.476562" xlink:href="#DejaVuSans-116"/>
     <use x="102.685547" xlink:href="#DejaVuSans-100"/>
    </g>
   </g>
   <g id="legend_1">
    <g id="patch_7">
     <path d="M 108.88 171.801 
L 401.9125 171.801 
Q 411.5125 171.801 411.5125 162.201 
L 411.5125 96.546 
Q 411.5125 86.946 401.9125 86.946 
L 108.88 86.946 
Q 99.28 86.946 99.28 96.546 
L 99.28 162.201 
Q 99.28 171.801 108.88 171.801 
z
" style="fill:#ffffff;opacity:0.8;stroke:#cccccc;stroke-linejoin:miter;"/>
    </g>
    <g id="line2d_58"/>
    <g id="line2d_59">
     <g>
      <use style="fill:#ff3000;stroke:#ff3000;" x="166.48" xlink:href="#mec71589220" y="125.8185"/>
     </g>
    </g>
    <g id="text_9">
     <!-- Protein -->
     <g transform="translate(224.08 142.6185)scale(0.48 -0.48)">
      <defs>
       <path d="M 19.671875 64.796875 
L 19.671875 37.40625 
L 32.078125 37.40625 
Q 38.96875 37.40625 42.71875 40.96875 
Q 46.484375 44.53125 46.484375 51.125 
Q 46.484375 57.671875 42.71875 61.234375 
Q 38.96875 64.796875 32.078125 64.796875 
z
M 9.8125 72.90625 
L 32.078125 72.90625 
Q 44.34375 72.90625 50.609375 67.359375 
Q 56.890625 61.8125 56.890625 51.125 
Q 56.890625 40.328125 50.609375 34.8125 
Q 44.34375 29.296875 32.078125 29.296875 
L 19.671875 29.296875 
L 19.671875 0 
L 9.8125 0 
z
" id="DejaVuSans-80"/>
       <path d="M 41.109375 46.296875 
Q 39.59375 47.171875 37.8125 47.578125 
Q 36.03125 48 33.890625 48 
Q 26.265625 48 22.1875 43.046875 
Q 18.109375 38.09375 18.109375 28.8125 
L 18.109375 0 
L 9.078125 0 
L 9.078125 54.6875 
L 18.109375 54.6875 
L 18.109375 46.1875 
Q 20.953125 51.171875 25.484375 53.578125 
Q 30.03125 56 36.53125 56 
Q 37.453125 56 38.578125 55.875 
Q 39.703125 55.765625 41.0625 55.515625 
z
" id="DejaVuSans-114"/>
       <path d="M 30.609375 48.390625 
Q 23.390625 48.390625 19.1875 42.75 
Q 14.984375 37.109375 14.984375 27.296875 
Q 14.984375 17.484375 19.15625 11.84375 
Q 23.34375 6.203125 30.609375 6.203125 
Q 37.796875 6.203125 41.984375 11.859375 
Q 46.1875 17.53125 46.1875 27.296875 
Q 46.1875 37.015625 41.984375 42.703125 
Q 37.796875 48.390625 30.609375 48.390625 
z
M 30.609375 56 
Q 42.328125 56 49.015625 48.375 
Q 55.71875 40.765625 55.71875 27.296875 
Q 55.71875 13.875 49.015625 6.21875 
Q 42.328125 -1.421875 30.609375 -1.421875 
Q 18.84375 -1.421875 12.171875 6.21875 
Q 5.515625 13.875 5.515625 27.296875 
Q 5.515625 40.765625 12.171875 48.375 
Q 18.84375 56 30.609375 56 
z
" id="DejaVuSans-111"/>
       <path d="M 54.890625 33.015625 
L 54.890625 0 
L 45.90625 0 
L 45.90625 32.71875 
Q 45.90625 40.484375 42.875 44.328125 
Q 39.84375 48.1875 33.796875 48.1875 
Q 26.515625 48.1875 22.3125 43.546875 
Q 18.109375 38.921875 18.109375 30.90625 
L 18.109375 0 
L 9.078125 0 
L 9.078125 54.6875 
L 18.109375 54.6875 
L 18.109375 46.1875 
Q 21.34375 51.125 25.703125 53.5625 
Q 30.078125 56 35.796875 56 
Q 45.21875 56 50.046875 50.171875 
Q 54.890625 44.34375 54.890625 33.015625 
z
" id="DejaVuSans-110"/>
      </defs>
      <use xlink:href="#DejaVuSans-80"/>
      <use x="58.552734" xlink:href="#DejaVuSans-114"/>
      <use x="97.416016" xlink:href="#DejaVuSans-111"/>
      <use x="158.597656" xlink:href="#DejaVuSans-116"/>
      <use x="197.806641" xlink:href="#DejaVuSans-101"/>
      <use x="259.330078" xlink:href="#DejaVuSans-105"/>
      <use x="287.113281" xlink:href="#DejaVuSans-110"/>
     </g>
    </g>
   </g>
  </g>
 </g>
 <defs>
  <clipPath id="p77241c4abe">
   <rect height="434.88" width="502.2" x="75.28" y="62.946"/>
  </clipPath>
 </defs>
</svg>
