<?xml version="1.0" encoding="utf-8" standalone="no"?>
<!DOCTYPE svg PUBLIC "-//W3C//DTD SVG 1.1//EN"
  "http://www.w3.org/Graphics/SVG/1.1/DTD/svg11.dtd">
<!-- Created with matplotlib (https://matplotlib.org/) -->
<svg height="607.3875pt" version="1.1" viewBox="0 0 667.001942 607.3875" width="667.001942pt" xmlns="http://www.w3.org/2000/svg" xmlns:xlink="http://www.w3.org/1999/xlink">
 <metadata>
  <rdf:RDF xmlns:cc="http://creativecommons.org/ns#" xmlns:dc="http://purl.org/dc/elements/1.1/" xmlns:rdf="http://www.w3.org/1999/02/22-rdf-syntax-ns#">
   <cc:Work>
    <dc:type rdf:resource="http://purl.org/dc/dcmitype/StillImage"/>
    <dc:date>2022-09-24T16:11:44.844781</dc:date>
    <dc:format>image/svg+xml</dc:format>
    <dc:creator>
     <cc:Agent>
      <dc:title>Matplotlib v3.3.4, https://matplotlib.org/</dc:title>
     </cc:Agent>
    </dc:creator>
   </cc:Work>
  </rdf:RDF>
 </metadata>
 <defs>
  <style type="text/css">*{stroke-linecap:butt;stroke-linejoin:round;}</style>
 </defs>
 <g id="figure_1">
  <g id="patch_1">
   <path d="M 0 607.3875 
L 667.001942 607.3875 
L 667.001942 0 
L 0 0 
z
" style="fill:#ffffff;"/>
  </g>
  <g id="axes_1">
   <g id="patch_2">
    <path d="M 140.99 496.2775 
L 643.19 496.2775 
L 643.19 61.3975 
L 140.99 61.3975 
z
" style="fill:#ffffff;"/>
   </g>
   <g id="matplotlib.axis_1">
    <g id="xtick_1">
     <g id="line2d_1">
      <defs>
       <path d="M 0 0 
L 0 3.5 
" id="m9d2b52a002" style="stroke:#000000;stroke-width:0.8;"/>
      </defs>
      <g>
       <use style="stroke:#000000;stroke-width:0.8;" x="163.817273" xlink:href="#m9d2b52a002" y="496.2775"/>
      </g>
     </g>
     <g id="text_1">
      <!-- 0.0 -->
      <g transform="translate(125.649773 539.75)scale(0.48 -0.48)">
       <defs>
        <path d="M 31.78125 66.40625 
Q 24.171875 66.40625 20.328125 58.90625 
Q 16.5 51.421875 16.5 36.375 
Q 16.5 21.390625 20.328125 13.890625 
Q 24.171875 6.390625 31.78125 6.390625 
Q 39.453125 6.390625 43.28125 13.890625 
Q 47.125 21.390625 47.125 36.375 
Q 47.125 51.421875 43.28125 58.90625 
Q 39.453125 66.40625 31.78125 66.40625 
z
M 31.78125 74.21875 
Q 44.046875 74.21875 50.515625 64.515625 
Q 56.984375 54.828125 56.984375 36.375 
Q 56.984375 17.96875 50.515625 8.265625 
Q 44.046875 -1.421875 31.78125 -1.421875 
Q 19.53125 -1.421875 13.0625 8.265625 
Q 6.59375 17.96875 6.59375 36.375 
Q 6.59375 54.828125 13.0625 64.515625 
Q 19.53125 74.21875 31.78125 74.21875 
z
" id="DejaVuSans-48"/>
        <path d="M 10.6875 12.40625 
L 21 12.40625 
L 21 0 
L 10.6875 0 
z
" id="DejaVuSans-46"/>
       </defs>
       <use xlink:href="#DejaVuSans-48"/>
       <use x="63.623047" xlink:href="#DejaVuSans-46"/>
       <use x="95.410156" xlink:href="#DejaVuSans-48"/>
      </g>
     </g>
    </g>
    <g id="xtick_2">
     <g id="line2d_2">
      <g>
       <use style="stroke:#000000;stroke-width:0.8;" x="392.725857" xlink:href="#m9d2b52a002" y="496.2775"/>
      </g>
     </g>
     <g id="text_2">
      <!-- 0.5 -->
      <g transform="translate(354.558357 539.75)scale(0.48 -0.48)">
       <defs>
        <path d="M 10.796875 72.90625 
L 49.515625 72.90625 
L 49.515625 64.59375 
L 19.828125 64.59375 
L 19.828125 46.734375 
Q 21.96875 47.46875 24.109375 47.828125 
Q 26.265625 48.1875 28.421875 48.1875 
Q 40.625 48.1875 47.75 41.5 
Q 54.890625 34.8125 54.890625 23.390625 
Q 54.890625 11.625 47.5625 5.09375 
Q 40.234375 -1.421875 26.90625 -1.421875 
Q 22.3125 -1.421875 17.546875 -0.640625 
Q 12.796875 0.140625 7.71875 1.703125 
L 7.71875 11.625 
Q 12.109375 9.234375 16.796875 8.0625 
Q 21.484375 6.890625 26.703125 6.890625 
Q 35.15625 6.890625 40.078125 11.328125 
Q 45.015625 15.765625 45.015625 23.390625 
Q 45.015625 31 40.078125 35.4375 
Q 35.15625 39.890625 26.703125 39.890625 
Q 22.75 39.890625 18.8125 39.015625 
Q 14.890625 38.140625 10.796875 36.28125 
z
" id="DejaVuSans-53"/>
       </defs>
       <use xlink:href="#DejaVuSans-48"/>
       <use x="63.623047" xlink:href="#DejaVuSans-46"/>
       <use x="95.410156" xlink:href="#DejaVuSans-53"/>
      </g>
     </g>
    </g>
    <g id="xtick_3">
     <g id="line2d_3">
      <g>
       <use style="stroke:#000000;stroke-width:0.8;" x="621.634442" xlink:href="#m9d2b52a002" y="496.2775"/>
      </g>
     </g>
     <g id="text_3">
      <!-- 1.0 -->
      <g transform="translate(583.466942 539.75)scale(0.48 -0.48)">
       <defs>
        <path d="M 12.40625 8.296875 
L 28.515625 8.296875 
L 28.515625 63.921875 
L 10.984375 60.40625 
L 10.984375 69.390625 
L 28.421875 72.90625 
L 38.28125 72.90625 
L 38.28125 8.296875 
L 54.390625 8.296875 
L 54.390625 0 
L 12.40625 0 
z
" id="DejaVuSans-49"/>
       </defs>
       <use xlink:href="#DejaVuSans-49"/>
       <use x="63.623047" xlink:href="#DejaVuSans-46"/>
       <use x="95.410156" xlink:href="#DejaVuSans-48"/>
      </g>
     </g>
    </g>
    <g id="text_4">
     <!-- Time (hr) -->
     <g transform="translate(281.9375 590.205)scale(0.48 -0.48)">
      <defs>
       <path d="M -0.296875 72.90625 
L 61.375 72.90625 
L 61.375 64.59375 
L 35.5 64.59375 
L 35.5 0 
L 25.59375 0 
L 25.59375 64.59375 
L -0.296875 64.59375 
z
" id="DejaVuSans-84"/>
       <path d="M 9.421875 54.6875 
L 18.40625 54.6875 
L 18.40625 0 
L 9.421875 0 
z
M 9.421875 75.984375 
L 18.40625 75.984375 
L 18.40625 64.59375 
L 9.421875 64.59375 
z
" id="DejaVuSans-105"/>
       <path d="M 52 44.1875 
Q 55.375 50.25 60.0625 53.125 
Q 64.75 56 71.09375 56 
Q 79.640625 56 84.28125 50.015625 
Q 88.921875 44.046875 88.921875 33.015625 
L 88.921875 0 
L 79.890625 0 
L 79.890625 32.71875 
Q 79.890625 40.578125 77.09375 44.375 
Q 74.3125 48.1875 68.609375 48.1875 
Q 61.625 48.1875 57.5625 43.546875 
Q 53.515625 38.921875 53.515625 30.90625 
L 53.515625 0 
L 44.484375 0 
L 44.484375 32.71875 
Q 44.484375 40.625 41.703125 44.40625 
Q 38.921875 48.1875 33.109375 48.1875 
Q 26.21875 48.1875 22.15625 43.53125 
Q 18.109375 38.875 18.109375 30.90625 
L 18.109375 0 
L 9.078125 0 
L 9.078125 54.6875 
L 18.109375 54.6875 
L 18.109375 46.1875 
Q 21.1875 51.21875 25.484375 53.609375 
Q 29.78125 56 35.6875 56 
Q 41.65625 56 45.828125 52.96875 
Q 50 49.953125 52 44.1875 
z
" id="DejaVuSans-109"/>
       <path d="M 56.203125 29.59375 
L 56.203125 25.203125 
L 14.890625 25.203125 
Q 15.484375 15.921875 20.484375 11.0625 
Q 25.484375 6.203125 34.421875 6.203125 
Q 39.59375 6.203125 44.453125 7.46875 
Q 49.3125 8.734375 54.109375 11.28125 
L 54.109375 2.78125 
Q 49.265625 0.734375 44.1875 -0.34375 
Q 39.109375 -1.421875 33.890625 -1.421875 
Q 20.796875 -1.421875 13.15625 6.1875 
Q 5.515625 13.8125 5.515625 26.8125 
Q 5.515625 40.234375 12.765625 48.109375 
Q 20.015625 56 32.328125 56 
Q 43.359375 56 49.78125 48.890625 
Q 56.203125 41.796875 56.203125 29.59375 
z
M 47.21875 32.234375 
Q 47.125 39.59375 43.09375 43.984375 
Q 39.0625 48.390625 32.421875 48.390625 
Q 24.90625 48.390625 20.390625 44.140625 
Q 15.875 39.890625 15.1875 32.171875 
z
" id="DejaVuSans-101"/>
       <path id="DejaVuSans-32"/>
       <path d="M 31 75.875 
Q 24.46875 64.65625 21.28125 53.65625 
Q 18.109375 42.671875 18.109375 31.390625 
Q 18.109375 20.125 21.3125 9.0625 
Q 24.515625 -2 31 -13.1875 
L 23.1875 -13.1875 
Q 15.875 -1.703125 12.234375 9.375 
Q 8.59375 20.453125 8.59375 31.390625 
Q 8.59375 42.28125 12.203125 53.3125 
Q 15.828125 64.359375 23.1875 75.875 
z
" id="DejaVuSans-40"/>
       <path d="M 54.890625 33.015625 
L 54.890625 0 
L 45.90625 0 
L 45.90625 32.71875 
Q 45.90625 40.484375 42.875 44.328125 
Q 39.84375 48.1875 33.796875 48.1875 
Q 26.515625 48.1875 22.3125 43.546875 
Q 18.109375 38.921875 18.109375 30.90625 
L 18.109375 0 
L 9.078125 0 
L 9.078125 75.984375 
L 18.109375 75.984375 
L 18.109375 46.1875 
Q 21.34375 51.125 25.703125 53.5625 
Q 30.078125 56 35.796875 56 
Q 45.21875 56 50.046875 50.171875 
Q 54.890625 44.34375 54.890625 33.015625 
z
" id="DejaVuSans-104"/>
       <path d="M 41.109375 46.296875 
Q 39.59375 47.171875 37.8125 47.578125 
Q 36.03125 48 33.890625 48 
Q 26.265625 48 22.1875 43.046875 
Q 18.109375 38.09375 18.109375 28.8125 
L 18.109375 0 
L 9.078125 0 
L 9.078125 54.6875 
L 18.109375 54.6875 
L 18.109375 46.1875 
Q 20.953125 51.171875 25.484375 53.578125 
Q 30.03125 56 36.53125 56 
Q 37.453125 56 38.578125 55.875 
Q 39.703125 55.765625 41.0625 55.515625 
z
" id="DejaVuSans-114"/>
       <path d="M 8.015625 75.875 
L 15.828125 75.875 
Q 23.140625 64.359375 26.78125 53.3125 
Q 30.421875 42.28125 30.421875 31.390625 
Q 30.421875 20.453125 26.78125 9.375 
Q 23.140625 -1.703125 15.828125 -13.1875 
L 8.015625 -13.1875 
Q 14.5 -2 17.703125 9.0625 
Q 20.90625 20.125 20.90625 31.390625 
Q 20.90625 42.671875 17.703125 53.65625 
Q 14.5 64.65625 8.015625 75.875 
z
" id="DejaVuSans-41"/>
      </defs>
      <use xlink:href="#DejaVuSans-84"/>
      <use x="57.958984" xlink:href="#DejaVuSans-105"/>
      <use x="85.742188" xlink:href="#DejaVuSans-109"/>
      <use x="183.154297" xlink:href="#DejaVuSans-101"/>
      <use x="244.677734" xlink:href="#DejaVuSans-32"/>
      <use x="276.464844" xlink:href="#DejaVuSans-40"/>
      <use x="315.478516" xlink:href="#DejaVuSans-104"/>
      <use x="378.857422" xlink:href="#DejaVuSans-114"/>
      <use x="419.970703" xlink:href="#DejaVuSans-41"/>
     </g>
    </g>
   </g>
   <g id="matplotlib.axis_2">
    <g id="ytick_1">
     <g id="line2d_4">
      <defs>
       <path d="M 0 0 
L -3.5 0 
" id="m58cfc79880" style="stroke:#000000;stroke-width:0.8;"/>
      </defs>
      <g>
       <use style="stroke:#000000;stroke-width:0.8;" x="140.99" xlink:href="#m58cfc79880" y="478.360263"/>
      </g>
     </g>
     <g id="text_5">
      <!-- 0.0 -->
      <g transform="translate(57.655 496.596513)scale(0.48 -0.48)">
       <use xlink:href="#DejaVuSans-48"/>
       <use x="63.623047" xlink:href="#DejaVuSans-46"/>
       <use x="95.410156" xlink:href="#DejaVuSans-48"/>
      </g>
     </g>
    </g>
    <g id="ytick_2">
     <g id="line2d_5">
      <g>
       <use style="stroke:#000000;stroke-width:0.8;" x="140.99" xlink:href="#m58cfc79880" y="304.625778"/>
      </g>
     </g>
     <g id="text_6">
      <!-- 0.5 -->
      <g transform="translate(57.655 322.862028)scale(0.48 -0.48)">
       <use xlink:href="#DejaVuSans-48"/>
       <use x="63.623047" xlink:href="#DejaVuSans-46"/>
       <use x="95.410156" xlink:href="#DejaVuSans-53"/>
      </g>
     </g>
    </g>
    <g id="ytick_3">
     <g id="line2d_6">
      <g>
       <use style="stroke:#000000;stroke-width:0.8;" x="140.99" xlink:href="#m58cfc79880" y="130.891294"/>
      </g>
     </g>
     <g id="text_7">
      <!-- 1.0 -->
      <g transform="translate(57.655 149.127544)scale(0.48 -0.48)">
       <use xlink:href="#DejaVuSans-49"/>
       <use x="63.623047" xlink:href="#DejaVuSans-46"/>
       <use x="95.410156" xlink:href="#DejaVuSans-48"/>
      </g>
     </g>
    </g>
    <g id="text_8">
     <!-- mRNA -->
     <g transform="translate(43.6725 353.26375)rotate(-90)scale(0.48 -0.48)">
      <defs>
       <path d="M 44.390625 34.1875 
Q 47.5625 33.109375 50.5625 29.59375 
Q 53.5625 26.078125 56.59375 19.921875 
L 66.609375 0 
L 56 0 
L 46.6875 18.703125 
Q 43.0625 26.03125 39.671875 28.421875 
Q 36.28125 30.8125 30.421875 30.8125 
L 19.671875 30.8125 
L 19.671875 0 
L 9.8125 0 
L 9.8125 72.90625 
L 32.078125 72.90625 
Q 44.578125 72.90625 50.734375 67.671875 
Q 56.890625 62.453125 56.890625 51.90625 
Q 56.890625 45.015625 53.6875 40.46875 
Q 50.484375 35.9375 44.390625 34.1875 
z
M 19.671875 64.796875 
L 19.671875 38.921875 
L 32.078125 38.921875 
Q 39.203125 38.921875 42.84375 42.21875 
Q 46.484375 45.515625 46.484375 51.90625 
Q 46.484375 58.296875 42.84375 61.546875 
Q 39.203125 64.796875 32.078125 64.796875 
z
" id="DejaVuSans-82"/>
       <path d="M 9.8125 72.90625 
L 23.09375 72.90625 
L 55.421875 11.921875 
L 55.421875 72.90625 
L 64.984375 72.90625 
L 64.984375 0 
L 51.703125 0 
L 19.390625 60.984375 
L 19.390625 0 
L 9.8125 0 
z
" id="DejaVuSans-78"/>
       <path d="M 34.1875 63.1875 
L 20.796875 26.90625 
L 47.609375 26.90625 
z
M 28.609375 72.90625 
L 39.796875 72.90625 
L 67.578125 0 
L 57.328125 0 
L 50.6875 18.703125 
L 17.828125 18.703125 
L 11.1875 0 
L 0.78125 0 
z
" id="DejaVuSans-65"/>
      </defs>
      <use xlink:href="#DejaVuSans-109"/>
      <use x="97.412109" xlink:href="#DejaVuSans-82"/>
      <use x="166.894531" xlink:href="#DejaVuSans-78"/>
      <use x="241.699219" xlink:href="#DejaVuSans-65"/>
     </g>
    </g>
   </g>
   <g id="line2d_7">
    <path clip-path="url(#p1951fa5450)" d="M 163.817273 478.360263 
L 165.088987 258.412405 
L 166.360701 179.328468 
L 167.632416 145.867206 
L 168.90413 133.740539 
L 170.175845 131.759966 
L 171.447559 130.960788 
L 172.719273 126.478438 
L 173.990988 134.748199 
L 175.262702 134.678706 
L 176.534416 131.516738 
L 177.806131 130.960788 
L 179.077845 129.953128 
L 180.349559 131.134522 
L 181.621274 131.065028 
L 182.892988 133.219336 
L 184.164702 134.088008 
L 185.436417 129.119202 
L 186.708131 127.103882 
L 187.979846 122.239316 
L 189.25156 130.439584 
L 190.523274 125.852994 
L 191.794989 123.76818 
L 193.066703 129.536165 
L 194.338417 127.34711 
L 195.610132 131.169269 
L 196.881846 133.636299 
L 198.15356 128.702239 
L 199.425275 132.176929 
L 200.696989 129.292937 
L 201.968703 127.24287 
L 203.240418 126.964894 
L 204.512132 132.559145 
L 205.783847 132.037941 
L 207.055561 130.613319 
L 208.327275 128.424264 
L 209.59899 135.8601 
L 210.870704 133.358323 
L 212.142418 128.320023 
L 213.414133 132.315917 
L 214.685847 139.091561 
L 215.957561 134.921934 
L 217.229276 135.095668 
L 218.50099 134.122755 
L 219.772704 136.520291 
L 221.044419 129.744646 
L 222.316133 131.030281 
L 223.587848 134.226996 
L 224.859562 132.315917 
L 226.131276 130.891294 
L 227.402991 131.308257 
L 228.674705 125.540272 
L 229.946419 134.365983 
L 231.218134 138.952574 
L 232.489848 133.28883 
L 233.761562 137.180482 
L 235.033277 140.550931 
L 236.304991 131.655726 
L 240.120134 129.049708 
L 241.391849 127.486098 
L 242.663563 132.107435 
L 245.206992 127.069135 
L 246.478706 128.389517 
L 247.75042 125.7835 
L 249.022135 128.632745 
L 250.293849 127.034388 
L 251.565563 126.443691 
L 252.837278 131.516738 
L 254.108992 124.741093 
L 255.380707 128.841227 
L 256.652421 131.82946 
L 257.924135 128.042048 
L 259.19585 135.199909 
L 260.467564 133.28883 
L 261.739278 130.231103 
L 263.010993 133.39307 
L 264.282707 124.567359 
L 265.554421 128.736986 
L 266.826136 129.744646 
L 268.09785 131.794713 
L 269.369564 126.686919 
L 270.641279 132.246423 
L 271.912993 131.794713 
L 273.184708 134.053261 
L 274.456422 133.84478 
L 275.728136 126.23521 
L 276.999851 133.149842 
L 278.271565 132.38541 
L 279.543279 133.149842 
L 282.086708 125.922488 
L 283.358422 127.659832 
L 284.630137 127.833567 
L 285.901851 127.729326 
L 287.173565 124.115649 
L 288.44528 128.459011 
L 289.716994 128.563252 
L 290.988709 126.23521 
L 292.260423 126.478438 
L 293.532137 132.315917 
L 294.803852 132.037941 
L 296.075566 130.648065 
L 297.34728 136.86776 
L 298.618995 135.582125 
L 299.890709 124.393624 
L 301.162423 133.184589 
L 302.434138 131.030281 
L 303.705852 130.578572 
L 304.977566 125.679259 
L 306.249281 125.436031 
L 307.520995 128.980214 
L 308.79271 133.115095 
L 310.064424 128.424264 
L 311.336138 134.088008 
L 312.607853 133.219336 
L 313.879567 127.173376 
L 315.151281 131.030281 
L 316.422996 131.169269 
L 317.69471 133.671046 
L 318.966424 130.891294 
L 320.238139 129.883634 
L 321.509853 128.424264 
L 322.781567 131.655726 
L 324.053282 130.335343 
L 326.596711 133.636299 
L 327.868425 129.431924 
L 329.140139 138.778839 
L 330.411854 137.145735 
L 331.683568 131.82946 
L 332.955282 131.065028 
L 334.226997 136.068581 
L 335.498711 134.365983 
L 336.770425 134.088008 
L 339.313854 131.308257 
L 340.585568 133.149842 
L 341.857283 137.284723 
L 343.128997 134.504971 
L 344.400712 133.914274 
L 345.672426 133.636299 
L 346.94414 133.84478 
L 348.215855 134.678706 
L 349.487569 128.215783 
L 350.759283 129.709899 
L 352.030998 133.254083 
L 353.302712 131.620979 
L 354.574426 135.964341 
L 355.846141 130.404837 
L 357.117855 132.732879 
L 358.38957 135.373643 
L 359.661284 127.903061 
L 360.932998 133.566805 
L 362.204713 131.412497 
L 363.476427 129.953128 
L 364.748141 129.675152 
L 366.019856 130.752306 
L 367.29157 133.115095 
L 368.563284 129.987874 
L 369.834999 129.466671 
L 371.106713 131.551485 
L 372.378427 131.343003 
L 373.650142 133.323577 
L 374.921856 130.543825 
L 376.193571 128.841227 
L 377.465285 126.33945 
L 378.736999 130.126862 
L 380.008714 129.25819 
L 381.280428 126.33945 
L 382.552142 130.613319 
L 383.823857 133.497311 
L 386.367285 126.130969 
L 387.639 126.23521 
L 388.910714 129.014961 
L 390.182428 125.575019 
L 391.454143 128.076795 
L 392.725857 120.015515 
L 393.997572 131.343003 
L 395.269286 138.987321 
L 396.541 133.879527 
L 397.812715 123.351217 
L 399.084429 131.620979 
L 400.356143 133.323577 
L 401.627858 132.211676 
L 402.899572 129.605659 
L 404.171286 132.663386 
L 405.443001 132.350663 
L 406.714715 131.655726 
L 407.986429 131.447244 
L 409.258144 130.926041 
L 410.529858 132.906614 
L 411.801573 133.462564 
L 413.073287 129.709899 
L 414.345001 134.226996 
L 415.616716 136.138075 
L 418.160144 134.782946 
L 419.431859 133.39307 
L 420.703573 130.335343 
L 421.975287 128.875974 
L 423.247002 135.964341 
L 424.518716 133.636299 
L 425.79043 131.551485 
L 427.062145 134.331237 
L 428.333859 132.802373 
L 429.605574 133.149842 
L 430.877288 133.740539 
L 432.149002 132.037941 
L 433.420717 133.636299 
L 434.692431 129.084455 
L 435.964145 131.204016 
L 437.23586 128.771733 
L 438.507574 135.443137 
L 439.779288 136.068581 
L 441.051003 132.246423 
L 442.322717 136.728772 
L 443.594432 129.81414 
L 444.866146 130.404837 
L 446.13786 134.261743 
L 447.409575 133.010854 
L 448.681289 126.130969 
L 449.953003 132.246423 
L 451.224718 131.238763 
L 452.496432 134.713452 
L 453.768146 131.968448 
L 455.039861 138.88308 
L 456.311575 134.261743 
L 457.583289 131.759966 
L 458.855004 127.79882 
L 460.126718 128.771733 
L 461.398433 125.852994 
L 462.670147 126.478438 
L 463.941861 129.744646 
L 465.213576 126.096222 
L 466.48529 127.694579 
L 467.757004 134.713452 
L 469.028719 137.041495 
L 470.300433 130.196356 
L 471.572147 127.173376 
L 472.843862 127.486098 
L 474.115576 123.177483 
L 475.38729 132.802373 
L 476.659005 129.605659 
L 477.930719 135.026174 
L 479.202434 138.466117 
L 480.474148 134.991428 
L 481.745862 131.099775 
L 483.017577 134.157502 
L 484.289291 129.084455 
L 485.561005 127.764073 
L 486.83272 129.153949 
L 488.104434 136.172822 
L 489.376148 137.006748 
L 490.647863 133.358323 
L 491.919577 127.173376 
L 493.191291 124.254636 
L 494.463006 126.478438 
L 495.73472 130.648065 
L 497.006435 132.142182 
L 499.549863 128.771733 
L 500.821578 126.096222 
L 502.093292 129.188696 
L 503.365006 131.447244 
L 505.908435 129.119202 
L 507.180149 128.632745 
L 508.451864 123.872421 
L 509.723578 124.741093 
L 510.995292 132.072688 
L 512.267007 130.37009 
L 513.538721 125.714006 
L 514.810436 133.705792 
L 516.08215 137.736432 
L 517.353864 132.767626 
L 518.625579 126.026728 
L 519.897293 128.042048 
L 521.169007 124.602105 
L 522.440722 132.176929 
L 523.712436 131.898954 
L 526.255865 129.918381 
L 527.527579 130.578572 
L 528.799293 131.82946 
L 530.071008 129.431924 
L 531.342722 128.80648 
L 532.614437 132.941361 
L 533.886151 130.26585 
L 535.157865 128.459011 
L 536.42958 127.416604 
L 537.701294 129.918381 
L 538.973008 130.856547 
L 540.244723 131.516738 
L 541.516437 135.651619 
L 542.788151 133.254083 
L 544.059866 132.420157 
L 545.33158 132.107435 
L 546.603295 133.705792 
L 547.875009 133.254083 
L 549.146723 132.420157 
L 550.418438 129.570912 
L 551.690152 130.196356 
L 552.961866 132.003194 
L 554.233581 134.539718 
L 555.505295 129.605659 
L 556.777009 128.146289 
L 558.048724 132.802373 
L 559.320438 138.917827 
L 560.592152 133.323577 
L 561.863867 135.30415 
L 563.135581 132.628639 
L 564.407296 132.211676 
L 565.67901 127.590339 
L 566.950724 132.420157 
L 568.222439 129.153949 
L 569.494153 135.547378 
L 570.765867 131.690472 
L 572.037582 132.315917 
L 573.309296 131.690472 
L 574.58101 120.953681 
L 575.852725 124.393624 
L 577.124439 130.196356 
L 578.396153 130.26585 
L 579.667868 122.795267 
L 580.939582 128.945468 
L 582.211297 132.142182 
L 583.483011 129.605659 
L 584.754725 127.833567 
L 586.02644 129.744646 
L 587.298154 130.995534 
L 588.569868 129.709899 
L 589.841583 130.509078 
L 591.113297 125.644512 
L 592.385011 127.555592 
L 593.656726 130.196356 
L 594.92844 127.937808 
L 596.200154 129.327683 
L 597.471869 127.868314 
L 598.743583 128.181036 
L 600.015298 133.601552 
L 601.287012 129.987874 
L 602.558726 131.759966 
L 605.102155 131.169269 
L 606.373869 129.570912 
L 607.645584 130.092115 
L 608.917298 138.083901 
L 610.189012 131.343003 
L 611.460727 127.903061 
L 612.732441 131.030281 
L 614.004155 126.513185 
L 615.27587 129.188696 
L 616.547584 134.365983 
L 617.819299 130.995534 
L 619.091013 133.705792 
L 620.362727 131.516738 
L 620.362727 131.516738 
" style="fill:none;stroke:#0058ff;stroke-linecap:square;stroke-width:5;"/>
   </g>
   <g id="line2d_8">
    <defs>
     <path d="M 0 6 
C 1.591219 6 3.117479 5.367802 4.242641 4.242641 
C 5.367802 3.117479 6 1.591219 6 0 
C 6 -1.591219 5.367802 -3.117479 4.242641 -4.242641 
C 3.117479 -5.367802 1.591219 -6 0 -6 
C -1.591219 -6 -3.117479 -5.367802 -4.242641 -4.242641 
C -5.367802 -3.117479 -6 -1.591219 -6 0 
C -6 1.591219 -5.367802 3.117479 -4.242641 4.242641 
C -3.117479 5.367802 -1.591219 6 0 6 
z
" id="md6be2cfe75" style="stroke:#0058ff;"/>
    </defs>
    <g clip-path="url(#p1951fa5450)">
     <use style="fill:#0058ff;stroke:#0058ff;" x="163.82999" xlink:href="#md6be2cfe75" y="471.063414"/>
     <use style="fill:#0058ff;stroke:#0058ff;" x="180.362277" xlink:href="#md6be2cfe75" y="132.976108"/>
     <use style="fill:#0058ff;stroke:#0058ff;" x="196.894563" xlink:href="#md6be2cfe75" y="123.455458"/>
     <use style="fill:#0058ff;stroke:#0058ff;" x="213.42685" xlink:href="#md6be2cfe75" y="126.721666"/>
     <use style="fill:#0058ff;stroke:#0058ff;" x="229.959136" xlink:href="#md6be2cfe75" y="133.740539"/>
     <use style="fill:#0058ff;stroke:#0058ff;" x="246.491423" xlink:href="#md6be2cfe75" y="136.033835"/>
     <use style="fill:#0058ff;stroke:#0058ff;" x="263.02371" xlink:href="#md6be2cfe75" y="132.663386"/>
     <use style="fill:#0058ff;stroke:#0058ff;" x="279.555996" xlink:href="#md6be2cfe75" y="127.833567"/>
     <use style="fill:#0058ff;stroke:#0058ff;" x="296.088283" xlink:href="#md6be2cfe75" y="131.586232"/>
     <use style="fill:#0058ff;stroke:#0058ff;" x="312.62057" xlink:href="#md6be2cfe75" y="127.833567"/>
     <use style="fill:#0058ff;stroke:#0058ff;" x="329.152856" xlink:href="#md6be2cfe75" y="133.879527"/>
     <use style="fill:#0058ff;stroke:#0058ff;" x="345.685143" xlink:href="#md6be2cfe75" y="122.76052"/>
     <use style="fill:#0058ff;stroke:#0058ff;" x="362.21743" xlink:href="#md6be2cfe75" y="137.493204"/>
     <use style="fill:#0058ff;stroke:#0058ff;" x="378.749716" xlink:href="#md6be2cfe75" y="131.134522"/>
     <use style="fill:#0058ff;stroke:#0058ff;" x="395.282003" xlink:href="#md6be2cfe75" y="127.555592"/>
     <use style="fill:#0058ff;stroke:#0058ff;" x="411.81429" xlink:href="#md6be2cfe75" y="132.350663"/>
     <use style="fill:#0058ff;stroke:#0058ff;" x="428.346576" xlink:href="#md6be2cfe75" y="133.705792"/>
     <use style="fill:#0058ff;stroke:#0058ff;" x="444.878863" xlink:href="#md6be2cfe75" y="135.686366"/>
     <use style="fill:#0058ff;stroke:#0058ff;" x="461.41115" xlink:href="#md6be2cfe75" y="134.713452"/>
     <use style="fill:#0058ff;stroke:#0058ff;" x="477.943436" xlink:href="#md6be2cfe75" y="132.732879"/>
     <use style="fill:#0058ff;stroke:#0058ff;" x="494.475723" xlink:href="#md6be2cfe75" y="134.226996"/>
     <use style="fill:#0058ff;stroke:#0058ff;" x="511.00801" xlink:href="#md6be2cfe75" y="130.787053"/>
     <use style="fill:#0058ff;stroke:#0058ff;" x="527.540296" xlink:href="#md6be2cfe75" y="134.018514"/>
     <use style="fill:#0058ff;stroke:#0058ff;" x="544.072583" xlink:href="#md6be2cfe75" y="126.33945"/>
     <use style="fill:#0058ff;stroke:#0058ff;" x="560.60487" xlink:href="#md6be2cfe75" y="134.887187"/>
     <use style="fill:#0058ff;stroke:#0058ff;" x="577.137156" xlink:href="#md6be2cfe75" y="134.921934"/>
     <use style="fill:#0058ff;stroke:#0058ff;" x="593.669443" xlink:href="#md6be2cfe75" y="131.725219"/>
     <use style="fill:#0058ff;stroke:#0058ff;" x="610.20173" xlink:href="#md6be2cfe75" y="126.999641"/>
    </g>
   </g>
   <g id="patch_3">
    <path d="M 140.99 496.2775 
L 140.99 61.3975 
" style="fill:none;stroke:#000000;stroke-linecap:square;stroke-linejoin:miter;stroke-width:1.5;"/>
   </g>
   <g id="patch_4">
    <path d="M 643.19 496.2775 
L 643.19 61.3975 
" style="fill:none;stroke:#000000;stroke-linecap:square;stroke-linejoin:miter;stroke-width:1.5;"/>
   </g>
   <g id="patch_5">
    <path d="M 140.99 496.2775 
L 643.19 496.2775 
" style="fill:none;stroke:#000000;stroke-linecap:square;stroke-linejoin:miter;stroke-width:1.5;"/>
   </g>
   <g id="patch_6">
    <path d="M 140.99 61.3975 
L 643.19 61.3975 
" style="fill:none;stroke:#000000;stroke-linecap:square;stroke-linejoin:miter;stroke-width:1.5;"/>
   </g>
   <g id="text_9">
    <!-- Average Count -->
    <g transform="translate(185.05625 49.75125)scale(0.56 -0.56)">
     <defs>
      <path d="M 2.984375 54.6875 
L 12.5 54.6875 
L 29.59375 8.796875 
L 46.6875 54.6875 
L 56.203125 54.6875 
L 35.6875 0 
L 23.484375 0 
z
" id="DejaVuSans-118"/>
      <path d="M 34.28125 27.484375 
Q 23.390625 27.484375 19.1875 25 
Q 14.984375 22.515625 14.984375 16.5 
Q 14.984375 11.71875 18.140625 8.90625 
Q 21.296875 6.109375 26.703125 6.109375 
Q 34.1875 6.109375 38.703125 11.40625 
Q 43.21875 16.703125 43.21875 25.484375 
L 43.21875 27.484375 
z
M 52.203125 31.203125 
L 52.203125 0 
L 43.21875 0 
L 43.21875 8.296875 
Q 40.140625 3.328125 35.546875 0.953125 
Q 30.953125 -1.421875 24.3125 -1.421875 
Q 15.921875 -1.421875 10.953125 3.296875 
Q 6 8.015625 6 15.921875 
Q 6 25.140625 12.171875 29.828125 
Q 18.359375 34.515625 30.609375 34.515625 
L 43.21875 34.515625 
L 43.21875 35.40625 
Q 43.21875 41.609375 39.140625 45 
Q 35.0625 48.390625 27.6875 48.390625 
Q 23 48.390625 18.546875 47.265625 
Q 14.109375 46.140625 10.015625 43.890625 
L 10.015625 52.203125 
Q 14.9375 54.109375 19.578125 55.046875 
Q 24.21875 56 28.609375 56 
Q 40.484375 56 46.34375 49.84375 
Q 52.203125 43.703125 52.203125 31.203125 
z
" id="DejaVuSans-97"/>
      <path d="M 45.40625 27.984375 
Q 45.40625 37.75 41.375 43.109375 
Q 37.359375 48.484375 30.078125 48.484375 
Q 22.859375 48.484375 18.828125 43.109375 
Q 14.796875 37.75 14.796875 27.984375 
Q 14.796875 18.265625 18.828125 12.890625 
Q 22.859375 7.515625 30.078125 7.515625 
Q 37.359375 7.515625 41.375 12.890625 
Q 45.40625 18.265625 45.40625 27.984375 
z
M 54.390625 6.78125 
Q 54.390625 -7.171875 48.1875 -13.984375 
Q 42 -20.796875 29.203125 -20.796875 
Q 24.46875 -20.796875 20.265625 -20.09375 
Q 16.0625 -19.390625 12.109375 -17.921875 
L 12.109375 -9.1875 
Q 16.0625 -11.328125 19.921875 -12.34375 
Q 23.78125 -13.375 27.78125 -13.375 
Q 36.625 -13.375 41.015625 -8.765625 
Q 45.40625 -4.15625 45.40625 5.171875 
L 45.40625 9.625 
Q 42.625 4.78125 38.28125 2.390625 
Q 33.9375 0 27.875 0 
Q 17.828125 0 11.671875 7.65625 
Q 5.515625 15.328125 5.515625 27.984375 
Q 5.515625 40.671875 11.671875 48.328125 
Q 17.828125 56 27.875 56 
Q 33.9375 56 38.28125 53.609375 
Q 42.625 51.21875 45.40625 46.390625 
L 45.40625 54.6875 
L 54.390625 54.6875 
z
" id="DejaVuSans-103"/>
      <path d="M 64.40625 67.28125 
L 64.40625 56.890625 
Q 59.421875 61.53125 53.78125 63.8125 
Q 48.140625 66.109375 41.796875 66.109375 
Q 29.296875 66.109375 22.65625 58.46875 
Q 16.015625 50.828125 16.015625 36.375 
Q 16.015625 21.96875 22.65625 14.328125 
Q 29.296875 6.6875 41.796875 6.6875 
Q 48.140625 6.6875 53.78125 8.984375 
Q 59.421875 11.28125 64.40625 15.921875 
L 64.40625 5.609375 
Q 59.234375 2.09375 53.4375 0.328125 
Q 47.65625 -1.421875 41.21875 -1.421875 
Q 24.65625 -1.421875 15.125 8.703125 
Q 5.609375 18.84375 5.609375 36.375 
Q 5.609375 53.953125 15.125 64.078125 
Q 24.65625 74.21875 41.21875 74.21875 
Q 47.75 74.21875 53.53125 72.484375 
Q 59.328125 70.75 64.40625 67.28125 
z
" id="DejaVuSans-67"/>
      <path d="M 30.609375 48.390625 
Q 23.390625 48.390625 19.1875 42.75 
Q 14.984375 37.109375 14.984375 27.296875 
Q 14.984375 17.484375 19.15625 11.84375 
Q 23.34375 6.203125 30.609375 6.203125 
Q 37.796875 6.203125 41.984375 11.859375 
Q 46.1875 17.53125 46.1875 27.296875 
Q 46.1875 37.015625 41.984375 42.703125 
Q 37.796875 48.390625 30.609375 48.390625 
z
M 30.609375 56 
Q 42.328125 56 49.015625 48.375 
Q 55.71875 40.765625 55.71875 27.296875 
Q 55.71875 13.875 49.015625 6.21875 
Q 42.328125 -1.421875 30.609375 -1.421875 
Q 18.84375 -1.421875 12.171875 6.21875 
Q 5.515625 13.875 5.515625 27.296875 
Q 5.515625 40.765625 12.171875 48.375 
Q 18.84375 56 30.609375 56 
z
" id="DejaVuSans-111"/>
      <path d="M 8.5 21.578125 
L 8.5 54.6875 
L 17.484375 54.6875 
L 17.484375 21.921875 
Q 17.484375 14.15625 20.5 10.265625 
Q 23.53125 6.390625 29.59375 6.390625 
Q 36.859375 6.390625 41.078125 11.03125 
Q 45.3125 15.671875 45.3125 23.6875 
L 45.3125 54.6875 
L 54.296875 54.6875 
L 54.296875 0 
L 45.3125 0 
L 45.3125 8.40625 
Q 42.046875 3.421875 37.71875 1 
Q 33.40625 -1.421875 27.6875 -1.421875 
Q 18.265625 -1.421875 13.375 4.4375 
Q 8.5 10.296875 8.5 21.578125 
z
M 31.109375 56 
z
" id="DejaVuSans-117"/>
      <path d="M 54.890625 33.015625 
L 54.890625 0 
L 45.90625 0 
L 45.90625 32.71875 
Q 45.90625 40.484375 42.875 44.328125 
Q 39.84375 48.1875 33.796875 48.1875 
Q 26.515625 48.1875 22.3125 43.546875 
Q 18.109375 38.921875 18.109375 30.90625 
L 18.109375 0 
L 9.078125 0 
L 9.078125 54.6875 
L 18.109375 54.6875 
L 18.109375 46.1875 
Q 21.34375 51.125 25.703125 53.5625 
Q 30.078125 56 35.796875 56 
Q 45.21875 56 50.046875 50.171875 
Q 54.890625 44.34375 54.890625 33.015625 
z
" id="DejaVuSans-110"/>
      <path d="M 18.3125 70.21875 
L 18.3125 54.6875 
L 36.8125 54.6875 
L 36.8125 47.703125 
L 18.3125 47.703125 
L 18.3125 18.015625 
Q 18.3125 11.328125 20.140625 9.421875 
Q 21.96875 7.515625 27.59375 7.515625 
L 36.8125 7.515625 
L 36.8125 0 
L 27.59375 0 
Q 17.1875 0 13.234375 3.875 
Q 9.28125 7.765625 9.28125 18.015625 
L 9.28125 47.703125 
L 2.6875 47.703125 
L 2.6875 54.6875 
L 9.28125 54.6875 
L 9.28125 70.21875 
z
" id="DejaVuSans-116"/>
     </defs>
     <use xlink:href="#DejaVuSans-65"/>
     <use x="62.533203" xlink:href="#DejaVuSans-118"/>
     <use x="121.712891" xlink:href="#DejaVuSans-101"/>
     <use x="183.236328" xlink:href="#DejaVuSans-114"/>
     <use x="224.349609" xlink:href="#DejaVuSans-97"/>
     <use x="285.628906" xlink:href="#DejaVuSans-103"/>
     <use x="349.105469" xlink:href="#DejaVuSans-101"/>
     <use x="410.628906" xlink:href="#DejaVuSans-32"/>
     <use x="442.416016" xlink:href="#DejaVuSans-67"/>
     <use x="512.240234" xlink:href="#DejaVuSans-111"/>
     <use x="573.421875" xlink:href="#DejaVuSans-117"/>
     <use x="636.800781" xlink:href="#DejaVuSans-110"/>
     <use x="700.179688" xlink:href="#DejaVuSans-116"/>
    </g>
   </g>
  </g>
 </g>
 <defs>
  <clipPath id="p1951fa5450">
   <rect height="434.88" width="502.2" x="140.99" y="61.3975"/>
  </clipPath>
 </defs>
</svg>
