<?xml version="1.0" encoding="utf-8" standalone="no"?>
<!DOCTYPE svg PUBLIC "-//W3C//DTD SVG 1.1//EN"
  "http://www.w3.org/Graphics/SVG/1.1/DTD/svg11.dtd">
<!-- Created with matplotlib (https://matplotlib.org/) -->
<svg height="633.712pt" version="1.1" viewBox="0 0 670.855 633.712" width="670.855pt" xmlns="http://www.w3.org/2000/svg" xmlns:xlink="http://www.w3.org/1999/xlink">
 <metadata>
  <rdf:RDF xmlns:cc="http://creativecommons.org/ns#" xmlns:dc="http://purl.org/dc/elements/1.1/" xmlns:rdf="http://www.w3.org/1999/02/22-rdf-syntax-ns#">
   <cc:Work>
    <dc:type rdf:resource="http://purl.org/dc/dcmitype/StillImage"/>
    <dc:date>2023-01-05T11:24:51.918328</dc:date>
    <dc:format>image/svg+xml</dc:format>
    <dc:creator>
     <cc:Agent>
      <dc:title>Matplotlib v3.3.4, https://matplotlib.org/</dc:title>
     </cc:Agent>
    </dc:creator>
   </cc:Work>
  </rdf:RDF>
 </metadata>
 <defs>
  <style type="text/css">*{stroke-linecap:butt;stroke-linejoin:round;}</style>
 </defs>
 <g id="figure_1">
  <g id="patch_1">
   <path d="M 0 633.712 
L 670.855 633.712 
L 670.855 0 
L 0 0 
z
" style="fill:#ffffff;"/>
  </g>
  <g id="axes_1">
   <g id="patch_2">
    <path d="M 161.455 507.117 
L 663.655 507.117 
L 663.655 72.237 
L 161.455 72.237 
z
" style="fill:#ffffff;"/>
   </g>
   <g id="matplotlib.axis_1">
    <g id="xtick_1">
     <g id="line2d_1">
      <defs>
       <path d="M 0 0 
L 0 3.5 
" id="m59f570b6f4" style="stroke:#000000;stroke-width:0.8;"/>
      </defs>
      <g>
       <use style="stroke:#000000;stroke-width:0.8;" x="184.282273" xlink:href="#m59f570b6f4" y="507.117"/>
      </g>
     </g>
     <g id="text_1">
      <!-- 0 -->
      <g transform="translate(166.467273 556.66825)scale(0.56 -0.56)">
       <defs>
        <path d="M 31.78125 66.40625 
Q 24.171875 66.40625 20.328125 58.90625 
Q 16.5 51.421875 16.5 36.375 
Q 16.5 21.390625 20.328125 13.890625 
Q 24.171875 6.390625 31.78125 6.390625 
Q 39.453125 6.390625 43.28125 13.890625 
Q 47.125 21.390625 47.125 36.375 
Q 47.125 51.421875 43.28125 58.90625 
Q 39.453125 66.40625 31.78125 66.40625 
z
M 31.78125 74.21875 
Q 44.046875 74.21875 50.515625 64.515625 
Q 56.984375 54.828125 56.984375 36.375 
Q 56.984375 17.96875 50.515625 8.265625 
Q 44.046875 -1.421875 31.78125 -1.421875 
Q 19.53125 -1.421875 13.0625 8.265625 
Q 6.59375 17.96875 6.59375 36.375 
Q 6.59375 54.828125 13.0625 64.515625 
Q 19.53125 74.21875 31.78125 74.21875 
z
" id="DejaVuSans-48"/>
       </defs>
       <use xlink:href="#DejaVuSans-48"/>
      </g>
     </g>
    </g>
    <g id="xtick_2">
     <g id="line2d_2">
      <g>
       <use style="stroke:#000000;stroke-width:0.8;" x="640.827727" xlink:href="#m59f570b6f4" y="507.117"/>
      </g>
     </g>
     <g id="text_2">
      <!-- 1 -->
      <g transform="translate(623.012727 556.66825)scale(0.56 -0.56)">
       <defs>
        <path d="M 12.40625 8.296875 
L 28.515625 8.296875 
L 28.515625 63.921875 
L 10.984375 60.40625 
L 10.984375 69.390625 
L 28.421875 72.90625 
L 38.28125 72.90625 
L 38.28125 8.296875 
L 54.390625 8.296875 
L 54.390625 0 
L 12.40625 0 
z
" id="DejaVuSans-49"/>
       </defs>
       <use xlink:href="#DejaVuSans-49"/>
      </g>
     </g>
    </g>
    <g id="text_3">
     <!-- Gillespie -->
     <g transform="translate(292.925 614.86575)scale(0.56 -0.56)">
      <defs>
       <path d="M 59.515625 10.40625 
L 59.515625 29.984375 
L 43.40625 29.984375 
L 43.40625 38.09375 
L 69.28125 38.09375 
L 69.28125 6.78125 
Q 63.578125 2.734375 56.6875 0.65625 
Q 49.8125 -1.421875 42 -1.421875 
Q 24.90625 -1.421875 15.25 8.5625 
Q 5.609375 18.5625 5.609375 36.375 
Q 5.609375 54.25 15.25 64.234375 
Q 24.90625 74.21875 42 74.21875 
Q 49.125 74.21875 55.546875 72.453125 
Q 61.96875 70.703125 67.390625 67.28125 
L 67.390625 56.78125 
Q 61.921875 61.421875 55.765625 63.765625 
Q 49.609375 66.109375 42.828125 66.109375 
Q 29.4375 66.109375 22.71875 58.640625 
Q 16.015625 51.171875 16.015625 36.375 
Q 16.015625 21.625 22.71875 14.15625 
Q 29.4375 6.6875 42.828125 6.6875 
Q 48.046875 6.6875 52.140625 7.59375 
Q 56.25 8.5 59.515625 10.40625 
z
" id="DejaVuSans-71"/>
       <path d="M 9.421875 54.6875 
L 18.40625 54.6875 
L 18.40625 0 
L 9.421875 0 
z
M 9.421875 75.984375 
L 18.40625 75.984375 
L 18.40625 64.59375 
L 9.421875 64.59375 
z
" id="DejaVuSans-105"/>
       <path d="M 9.421875 75.984375 
L 18.40625 75.984375 
L 18.40625 0 
L 9.421875 0 
z
" id="DejaVuSans-108"/>
       <path d="M 56.203125 29.59375 
L 56.203125 25.203125 
L 14.890625 25.203125 
Q 15.484375 15.921875 20.484375 11.0625 
Q 25.484375 6.203125 34.421875 6.203125 
Q 39.59375 6.203125 44.453125 7.46875 
Q 49.3125 8.734375 54.109375 11.28125 
L 54.109375 2.78125 
Q 49.265625 0.734375 44.1875 -0.34375 
Q 39.109375 -1.421875 33.890625 -1.421875 
Q 20.796875 -1.421875 13.15625 6.1875 
Q 5.515625 13.8125 5.515625 26.8125 
Q 5.515625 40.234375 12.765625 48.109375 
Q 20.015625 56 32.328125 56 
Q 43.359375 56 49.78125 48.890625 
Q 56.203125 41.796875 56.203125 29.59375 
z
M 47.21875 32.234375 
Q 47.125 39.59375 43.09375 43.984375 
Q 39.0625 48.390625 32.421875 48.390625 
Q 24.90625 48.390625 20.390625 44.140625 
Q 15.875 39.890625 15.1875 32.171875 
z
" id="DejaVuSans-101"/>
       <path d="M 44.28125 53.078125 
L 44.28125 44.578125 
Q 40.484375 46.53125 36.375 47.5 
Q 32.28125 48.484375 27.875 48.484375 
Q 21.1875 48.484375 17.84375 46.4375 
Q 14.5 44.390625 14.5 40.28125 
Q 14.5 37.15625 16.890625 35.375 
Q 19.28125 33.59375 26.515625 31.984375 
L 29.59375 31.296875 
Q 39.15625 29.25 43.1875 25.515625 
Q 47.21875 21.78125 47.21875 15.09375 
Q 47.21875 7.46875 41.1875 3.015625 
Q 35.15625 -1.421875 24.609375 -1.421875 
Q 20.21875 -1.421875 15.453125 -0.5625 
Q 10.6875 0.296875 5.421875 2 
L 5.421875 11.28125 
Q 10.40625 8.6875 15.234375 7.390625 
Q 20.0625 6.109375 24.8125 6.109375 
Q 31.15625 6.109375 34.5625 8.28125 
Q 37.984375 10.453125 37.984375 14.40625 
Q 37.984375 18.0625 35.515625 20.015625 
Q 33.0625 21.96875 24.703125 23.78125 
L 21.578125 24.515625 
Q 13.234375 26.265625 9.515625 29.90625 
Q 5.8125 33.546875 5.8125 39.890625 
Q 5.8125 47.609375 11.28125 51.796875 
Q 16.75 56 26.8125 56 
Q 31.78125 56 36.171875 55.265625 
Q 40.578125 54.546875 44.28125 53.078125 
z
" id="DejaVuSans-115"/>
       <path d="M 18.109375 8.203125 
L 18.109375 -20.796875 
L 9.078125 -20.796875 
L 9.078125 54.6875 
L 18.109375 54.6875 
L 18.109375 46.390625 
Q 20.953125 51.265625 25.265625 53.625 
Q 29.59375 56 35.59375 56 
Q 45.5625 56 51.78125 48.09375 
Q 58.015625 40.1875 58.015625 27.296875 
Q 58.015625 14.40625 51.78125 6.484375 
Q 45.5625 -1.421875 35.59375 -1.421875 
Q 29.59375 -1.421875 25.265625 0.953125 
Q 20.953125 3.328125 18.109375 8.203125 
z
M 48.6875 27.296875 
Q 48.6875 37.203125 44.609375 42.84375 
Q 40.53125 48.484375 33.40625 48.484375 
Q 26.265625 48.484375 22.1875 42.84375 
Q 18.109375 37.203125 18.109375 27.296875 
Q 18.109375 17.390625 22.1875 11.75 
Q 26.265625 6.109375 33.40625 6.109375 
Q 40.53125 6.109375 44.609375 11.75 
Q 48.6875 17.390625 48.6875 27.296875 
z
" id="DejaVuSans-112"/>
      </defs>
      <use xlink:href="#DejaVuSans-71"/>
      <use x="77.490234" xlink:href="#DejaVuSans-105"/>
      <use x="105.273438" xlink:href="#DejaVuSans-108"/>
      <use x="133.056641" xlink:href="#DejaVuSans-108"/>
      <use x="160.839844" xlink:href="#DejaVuSans-101"/>
      <use x="222.363281" xlink:href="#DejaVuSans-115"/>
      <use x="274.462891" xlink:href="#DejaVuSans-112"/>
      <use x="337.939453" xlink:href="#DejaVuSans-105"/>
      <use x="365.722656" xlink:href="#DejaVuSans-101"/>
     </g>
    </g>
   </g>
   <g id="matplotlib.axis_2">
    <g id="ytick_1">
     <g id="line2d_3">
      <defs>
       <path d="M 0 0 
L -3.5 0 
" id="m00b926bc2b" style="stroke:#000000;stroke-width:0.8;"/>
      </defs>
      <g>
       <use style="stroke:#000000;stroke-width:0.8;" x="161.455" xlink:href="#m00b926bc2b" y="487.349727"/>
      </g>
     </g>
     <g id="text_4">
      <!-- 0.0 -->
      <g transform="translate(65.3975 508.625352)scale(0.56 -0.56)">
       <defs>
        <path d="M 10.6875 12.40625 
L 21 12.40625 
L 21 0 
L 10.6875 0 
z
" id="DejaVuSans-46"/>
       </defs>
       <use xlink:href="#DejaVuSans-48"/>
       <use x="63.623047" xlink:href="#DejaVuSans-46"/>
       <use x="95.410156" xlink:href="#DejaVuSans-48"/>
      </g>
     </g>
    </g>
    <g id="ytick_2">
     <g id="line2d_4">
      <g>
       <use style="stroke:#000000;stroke-width:0.8;" x="161.455" xlink:href="#m00b926bc2b" y="289.677"/>
      </g>
     </g>
     <g id="text_5">
      <!-- 0.5 -->
      <g transform="translate(65.3975 310.952625)scale(0.56 -0.56)">
       <defs>
        <path d="M 10.796875 72.90625 
L 49.515625 72.90625 
L 49.515625 64.59375 
L 19.828125 64.59375 
L 19.828125 46.734375 
Q 21.96875 47.46875 24.109375 47.828125 
Q 26.265625 48.1875 28.421875 48.1875 
Q 40.625 48.1875 47.75 41.5 
Q 54.890625 34.8125 54.890625 23.390625 
Q 54.890625 11.625 47.5625 5.09375 
Q 40.234375 -1.421875 26.90625 -1.421875 
Q 22.3125 -1.421875 17.546875 -0.640625 
Q 12.796875 0.140625 7.71875 1.703125 
L 7.71875 11.625 
Q 12.109375 9.234375 16.796875 8.0625 
Q 21.484375 6.890625 26.703125 6.890625 
Q 35.15625 6.890625 40.078125 11.328125 
Q 45.015625 15.765625 45.015625 23.390625 
Q 45.015625 31 40.078125 35.4375 
Q 35.15625 39.890625 26.703125 39.890625 
Q 22.75 39.890625 18.8125 39.015625 
Q 14.890625 38.140625 10.796875 36.28125 
z
" id="DejaVuSans-53"/>
       </defs>
       <use xlink:href="#DejaVuSans-48"/>
       <use x="63.623047" xlink:href="#DejaVuSans-46"/>
       <use x="95.410156" xlink:href="#DejaVuSans-53"/>
      </g>
     </g>
    </g>
    <g id="ytick_3">
     <g id="line2d_5">
      <g>
       <use style="stroke:#000000;stroke-width:0.8;" x="161.455" xlink:href="#m00b926bc2b" y="92.004273"/>
      </g>
     </g>
     <g id="text_6">
      <!-- 1.0 -->
      <g transform="translate(65.3975 113.279898)scale(0.56 -0.56)">
       <use xlink:href="#DejaVuSans-49"/>
       <use x="63.623047" xlink:href="#DejaVuSans-46"/>
       <use x="95.410156" xlink:href="#DejaVuSans-48"/>
      </g>
     </g>
    </g>
    <g id="text_7">
     <!-- VAN -->
     <g transform="translate(49.75125 347.147)rotate(-90)scale(0.56 -0.56)">
      <defs>
       <path d="M 28.609375 0 
L 0.78125 72.90625 
L 11.078125 72.90625 
L 34.1875 11.53125 
L 57.328125 72.90625 
L 67.578125 72.90625 
L 39.796875 0 
z
" id="DejaVuSans-86"/>
       <path d="M 34.1875 63.1875 
L 20.796875 26.90625 
L 47.609375 26.90625 
z
M 28.609375 72.90625 
L 39.796875 72.90625 
L 67.578125 0 
L 57.328125 0 
L 50.6875 18.703125 
L 17.828125 18.703125 
L 11.1875 0 
L 0.78125 0 
z
" id="DejaVuSans-65"/>
       <path d="M 9.8125 72.90625 
L 23.09375 72.90625 
L 55.421875 11.921875 
L 55.421875 72.90625 
L 64.984375 72.90625 
L 64.984375 0 
L 51.703125 0 
L 19.390625 60.984375 
L 19.390625 0 
L 9.8125 0 
z
" id="DejaVuSans-78"/>
      </defs>
      <use xlink:href="#DejaVuSans-86"/>
      <use x="62.033203" xlink:href="#DejaVuSans-65"/>
      <use x="130.441406" xlink:href="#DejaVuSans-78"/>
     </g>
    </g>
   </g>
   <g id="line2d_6">
    <defs>
     <path d="M 0 10 
C 2.652031 10 5.195799 8.946337 7.071068 7.071068 
C 8.946337 5.195799 10 2.652031 10 0 
C 10 -2.652031 8.946337 -5.195799 7.071068 -7.071068 
C 5.195799 -8.946337 2.652031 -10 0 -10 
C -2.652031 -10 -5.195799 -8.946337 -7.071068 -7.071068 
C -8.946337 -5.195799 -10 -2.652031 -10 0 
C -10 2.652031 -8.946337 5.195799 -7.071068 7.071068 
C -5.195799 8.946337 -2.652031 10 0 10 
z
" id="m18fdf991b7" style="stroke:#000080;"/>
    </defs>
    <g clip-path="url(#p152b2f5873)">
     <use style="fill:#000080;stroke:#000080;" x="640.827727" xlink:href="#m18fdf991b7" y="92.24148"/>
    </g>
   </g>
   <g id="line2d_7">
    <defs>
     <path d="M 0 10 
C 2.652031 10 5.195799 8.946337 7.071068 7.071068 
C 8.946337 5.195799 10 2.652031 10 0 
C 10 -2.652031 8.946337 -5.195799 7.071068 -7.071068 
C 5.195799 -8.946337 2.652031 -10 0 -10 
C -2.652031 -10 -5.195799 -8.946337 -7.071068 -7.071068 
C -8.946337 -5.195799 -10 -2.652031 -10 0 
C -10 2.652031 -8.946337 5.195799 -7.071068 7.071068 
C -5.195799 8.946337 -2.652031 10 0 10 
z
" id="m9169e8c05e" style="stroke:#000080;stroke-opacity:0.974615;"/>
    </defs>
    <g clip-path="url(#p152b2f5873)">
     <use style="fill:#000080;fill-opacity:0.974615;stroke:#000080;stroke-opacity:0.974615;" x="623.387691" xlink:href="#m9169e8c05e" y="110.980855"/>
    </g>
   </g>
   <g id="line2d_8">
    <defs>
     <path d="M 0 10 
C 2.652031 10 5.195799 8.946337 7.071068 7.071068 
C 8.946337 5.195799 10 2.652031 10 0 
C 10 -2.652031 8.946337 -5.195799 7.071068 -7.071068 
C 5.195799 -8.946337 2.652031 -10 0 -10 
C -2.652031 -10 -5.195799 -8.946337 -7.071068 -7.071068 
C -8.946337 -5.195799 -10 -2.652031 -10 0 
C -10 2.652031 -8.946337 5.195799 -7.071068 7.071068 
C -5.195799 8.946337 -2.652031 10 0 10 
z
" id="m60ca116682" style="stroke:#000080;stroke-opacity:0.949231;"/>
    </defs>
    <g clip-path="url(#p152b2f5873)">
     <use style="fill:#000080;fill-opacity:0.949231;stroke:#000080;stroke-opacity:0.949231;" x="571.889364" xlink:href="#m60ca116682" y="155.852564"/>
    </g>
   </g>
   <g id="line2d_9">
    <defs>
     <path d="M 0 10 
C 2.652031 10 5.195799 8.946337 7.071068 7.071068 
C 8.946337 5.195799 10 2.652031 10 0 
C 10 -2.652031 8.946337 -5.195799 7.071068 -7.071068 
C 5.195799 -8.946337 2.652031 -10 0 -10 
C -2.652031 -10 -5.195799 -8.946337 -7.071068 -7.071068 
C -8.946337 -5.195799 -10 -2.652031 -10 0 
C -10 2.652031 -8.946337 5.195799 -7.071068 7.071068 
C -5.195799 8.946337 -2.652031 10 0 10 
z
" id="m2c7ac768c3" style="stroke:#000080;stroke-opacity:0.923846;"/>
    </defs>
    <g clip-path="url(#p152b2f5873)">
     <use style="fill:#000080;fill-opacity:0.923846;stroke:#000080;stroke-opacity:0.923846;" x="519.204018" xlink:href="#m2c7ac768c3" y="198.589407"/>
    </g>
   </g>
   <g id="line2d_10">
    <defs>
     <path d="M 0 10 
C 2.652031 10 5.195799 8.946337 7.071068 7.071068 
C 8.946337 5.195799 10 2.652031 10 0 
C 10 -2.652031 8.946337 -5.195799 7.071068 -7.071068 
C 5.195799 -8.946337 2.652031 -10 0 -10 
C -2.652031 -10 -5.195799 -8.946337 -7.071068 -7.071068 
C -8.946337 -5.195799 -10 -2.652031 -10 0 
C -10 2.652031 -8.946337 5.195799 -7.071068 7.071068 
C -5.195799 8.946337 -2.652031 10 0 10 
z
" id="meaac5e5c33" style="stroke:#000080;stroke-opacity:0.898462;"/>
    </defs>
    <g clip-path="url(#p152b2f5873)">
     <use style="fill:#000080;fill-opacity:0.898462;stroke:#000080;stroke-opacity:0.898462;" x="486.195782" xlink:href="#meaac5e5c33" y="227.331022"/>
    </g>
   </g>
   <g id="line2d_11">
    <defs>
     <path d="M 0 10 
C 2.652031 10 5.195799 8.946337 7.071068 7.071068 
C 8.946337 5.195799 10 2.652031 10 0 
C 10 -2.652031 8.946337 -5.195799 7.071068 -7.071068 
C 5.195799 -8.946337 2.652031 -10 0 -10 
C -2.652031 -10 -5.195799 -8.946337 -7.071068 -7.071068 
C -8.946337 -5.195799 -10 -2.652031 -10 0 
C -10 2.652031 -8.946337 5.195799 -7.071068 7.071068 
C -5.195799 8.946337 -2.652031 10 0 10 
z
" id="m7fe1b1756b" style="stroke:#000080;stroke-opacity:0.873077;"/>
    </defs>
    <g clip-path="url(#p152b2f5873)">
     <use style="fill:#000080;fill-opacity:0.873077;stroke:#000080;stroke-opacity:0.873077;" x="465.742545" xlink:href="#m7fe1b1756b" y="244.765756"/>
    </g>
   </g>
   <g id="line2d_12">
    <defs>
     <path d="M 0 10 
C 2.652031 10 5.195799 8.946337 7.071068 7.071068 
C 8.946337 5.195799 10 2.652031 10 0 
C 10 -2.652031 8.946337 -5.195799 7.071068 -7.071068 
C 5.195799 -8.946337 2.652031 -10 0 -10 
C -2.652031 -10 -5.195799 -8.946337 -7.071068 -7.071068 
C -8.946337 -5.195799 -10 -2.652031 -10 0 
C -10 2.652031 -8.946337 5.195799 -7.071068 7.071068 
C -5.195799 8.946337 -2.652031 10 0 10 
z
" id="m6fb61081f5" style="stroke:#000080;stroke-opacity:0.847692;"/>
    </defs>
    <g clip-path="url(#p152b2f5873)">
     <use style="fill:#000080;fill-opacity:0.847692;stroke:#000080;stroke-opacity:0.847692;" x="453.918018" xlink:href="#m6fb61081f5" y="249.944782"/>
    </g>
   </g>
   <g id="line2d_13">
    <defs>
     <path d="M 0 10 
C 2.652031 10 5.195799 8.946337 7.071068 7.071068 
C 8.946337 5.195799 10 2.652031 10 0 
C 10 -2.652031 8.946337 -5.195799 7.071068 -7.071068 
C 5.195799 -8.946337 2.652031 -10 0 -10 
C -2.652031 -10 -5.195799 -8.946337 -7.071068 -7.071068 
C -8.946337 -5.195799 -10 -2.652031 -10 0 
C -10 2.652031 -8.946337 5.195799 -7.071068 7.071068 
C -5.195799 8.946337 -2.652031 10 0 10 
z
" id="m40e001227e" style="stroke:#000080;stroke-opacity:0.822308;"/>
    </defs>
    <g clip-path="url(#p152b2f5873)">
     <use style="fill:#000080;fill-opacity:0.822308;stroke:#000080;stroke-opacity:0.822308;" x="449.078636" xlink:href="#m40e001227e" y="254.767996"/>
    </g>
   </g>
   <g id="line2d_14">
    <defs>
     <path d="M 0 10 
C 2.652031 10 5.195799 8.946337 7.071068 7.071068 
C 8.946337 5.195799 10 2.652031 10 0 
C 10 -2.652031 8.946337 -5.195799 7.071068 -7.071068 
C 5.195799 -8.946337 2.652031 -10 0 -10 
C -2.652031 -10 -5.195799 -8.946337 -7.071068 -7.071068 
C -8.946337 -5.195799 -10 -2.652031 -10 0 
C -10 2.652031 -8.946337 5.195799 -7.071068 7.071068 
C -5.195799 8.946337 -2.652031 10 0 10 
z
" id="m2fed641261" style="stroke:#000080;stroke-opacity:0.796923;"/>
    </defs>
    <g clip-path="url(#p152b2f5873)">
     <use style="fill:#000080;fill-opacity:0.796923;stroke:#000080;stroke-opacity:0.796923;" x="448.074236" xlink:href="#m2fed641261" y="260.144695"/>
    </g>
   </g>
   <g id="line2d_15">
    <defs>
     <path d="M 0 10 
C 2.652031 10 5.195799 8.946337 7.071068 7.071068 
C 8.946337 5.195799 10 2.652031 10 0 
C 10 -2.652031 8.946337 -5.195799 7.071068 -7.071068 
C 5.195799 -8.946337 2.652031 -10 0 -10 
C -2.652031 -10 -5.195799 -8.946337 -7.071068 -7.071068 
C -8.946337 -5.195799 -10 -2.652031 -10 0 
C -10 2.652031 -8.946337 5.195799 -7.071068 7.071068 
C -5.195799 8.946337 -2.652031 10 0 10 
z
" id="m686e242783" style="stroke:#000080;stroke-opacity:0.771538;"/>
    </defs>
    <g clip-path="url(#p152b2f5873)">
     <use style="fill:#000080;fill-opacity:0.771538;stroke:#000080;stroke-opacity:0.771538;" x="448.302509" xlink:href="#m686e242783" y="258.444709"/>
    </g>
   </g>
   <g id="line2d_16">
    <defs>
     <path d="M 0 10 
C 2.652031 10 5.195799 8.946337 7.071068 7.071068 
C 8.946337 5.195799 10 2.652031 10 0 
C 10 -2.652031 8.946337 -5.195799 7.071068 -7.071068 
C 5.195799 -8.946337 2.652031 -10 0 -10 
C -2.652031 -10 -5.195799 -8.946337 -7.071068 -7.071068 
C -8.946337 -5.195799 -10 -2.652031 -10 0 
C -10 2.652031 -8.946337 5.195799 -7.071068 7.071068 
C -5.195799 8.946337 -2.652031 10 0 10 
z
" id="m24fbc398ef" style="stroke:#000080;stroke-opacity:0.746154;"/>
    </defs>
    <g clip-path="url(#p152b2f5873)">
     <use style="fill:#000080;fill-opacity:0.746154;stroke:#000080;stroke-opacity:0.746154;" x="449.535182" xlink:href="#m24fbc398ef" y="259.947022"/>
    </g>
   </g>
   <g id="line2d_17">
    <defs>
     <path d="M 0 10 
C 2.652031 10 5.195799 8.946337 7.071068 7.071068 
C 8.946337 5.195799 10 2.652031 10 0 
C 10 -2.652031 8.946337 -5.195799 7.071068 -7.071068 
C 5.195799 -8.946337 2.652031 -10 0 -10 
C -2.652031 -10 -5.195799 -8.946337 -7.071068 -7.071068 
C -8.946337 -5.195799 -10 -2.652031 -10 0 
C -10 2.652031 -8.946337 5.195799 -7.071068 7.071068 
C -5.195799 8.946337 -2.652031 10 0 10 
z
" id="m2ec2f6f94a" style="stroke:#000080;stroke-opacity:0.720769;"/>
    </defs>
    <g clip-path="url(#p152b2f5873)">
     <use style="fill:#000080;fill-opacity:0.720769;stroke:#000080;stroke-opacity:0.720769;" x="450.539582" xlink:href="#m2ec2f6f94a" y="259.947022"/>
    </g>
   </g>
   <g id="line2d_18">
    <defs>
     <path d="M 0 10 
C 2.652031 10 5.195799 8.946337 7.071068 7.071068 
C 8.946337 5.195799 10 2.652031 10 0 
C 10 -2.652031 8.946337 -5.195799 7.071068 -7.071068 
C 5.195799 -8.946337 2.652031 -10 0 -10 
C -2.652031 -10 -5.195799 -8.946337 -7.071068 -7.071068 
C -8.946337 -5.195799 -10 -2.652031 -10 0 
C -10 2.652031 -8.946337 5.195799 -7.071068 7.071068 
C -5.195799 8.946337 -2.652031 10 0 10 
z
" id="m527eec97cf" style="stroke:#000080;stroke-opacity:0.695385;"/>
    </defs>
    <g clip-path="url(#p152b2f5873)">
     <use style="fill:#000080;fill-opacity:0.695385;stroke:#000080;stroke-opacity:0.695385;" x="451.680945" xlink:href="#m527eec97cf" y="260.579575"/>
    </g>
   </g>
   <g id="line2d_19">
    <defs>
     <path d="M 0 10 
C 2.652031 10 5.195799 8.946337 7.071068 7.071068 
C 8.946337 5.195799 10 2.652031 10 0 
C 10 -2.652031 8.946337 -5.195799 7.071068 -7.071068 
C 5.195799 -8.946337 2.652031 -10 0 -10 
C -2.652031 -10 -5.195799 -8.946337 -7.071068 -7.071068 
C -8.946337 -5.195799 -10 -2.652031 -10 0 
C -10 2.652031 -8.946337 5.195799 -7.071068 7.071068 
C -5.195799 8.946337 -2.652031 10 0 10 
z
" id="md7fb9e03a5" style="stroke:#000080;stroke-opacity:0.67;"/>
    </defs>
    <g clip-path="url(#p152b2f5873)">
     <use style="fill:#000080;fill-opacity:0.67;stroke:#000080;stroke-opacity:0.67;" x="451.7266" xlink:href="#md7fb9e03a5" y="257.535415"/>
    </g>
   </g>
   <g id="line2d_20">
    <defs>
     <path d="M 0 10 
C 2.652031 10 5.195799 8.946337 7.071068 7.071068 
C 8.946337 5.195799 10 2.652031 10 0 
C 10 -2.652031 8.946337 -5.195799 7.071068 -7.071068 
C 5.195799 -8.946337 2.652031 -10 0 -10 
C -2.652031 -10 -5.195799 -8.946337 -7.071068 -7.071068 
C -8.946337 -5.195799 -10 -2.652031 -10 0 
C -10 2.652031 -8.946337 5.195799 -7.071068 7.071068 
C -5.195799 8.946337 -2.652031 10 0 10 
z
" id="mc52efbe348" style="stroke:#000080;stroke-opacity:0.644615;"/>
    </defs>
    <g clip-path="url(#p152b2f5873)">
     <use style="fill:#000080;fill-opacity:0.644615;stroke:#000080;stroke-opacity:0.644615;" x="452.365764" xlink:href="#mc52efbe348" y="259.2354"/>
    </g>
   </g>
   <g id="line2d_21">
    <defs>
     <path d="M 0 10 
C 2.652031 10 5.195799 8.946337 7.071068 7.071068 
C 8.946337 5.195799 10 2.652031 10 0 
C 10 -2.652031 8.946337 -5.195799 7.071068 -7.071068 
C 5.195799 -8.946337 2.652031 -10 0 -10 
C -2.652031 -10 -5.195799 -8.946337 -7.071068 -7.071068 
C -8.946337 -5.195799 -10 -2.652031 -10 0 
C -10 2.652031 -8.946337 5.195799 -7.071068 7.071068 
C -5.195799 8.946337 -2.652031 10 0 10 
z
" id="mc41d846b08" style="stroke:#000080;stroke-opacity:0.619231;"/>
    </defs>
    <g clip-path="url(#p152b2f5873)">
     <use style="fill:#000080;fill-opacity:0.619231;stroke:#000080;stroke-opacity:0.619231;" x="452.685345" xlink:href="#mc41d846b08" y="259.591211"/>
    </g>
   </g>
   <g id="line2d_22">
    <defs>
     <path d="M 0 10 
C 2.652031 10 5.195799 8.946337 7.071068 7.071068 
C 8.946337 5.195799 10 2.652031 10 0 
C 10 -2.652031 8.946337 -5.195799 7.071068 -7.071068 
C 5.195799 -8.946337 2.652031 -10 0 -10 
C -2.652031 -10 -5.195799 -8.946337 -7.071068 -7.071068 
C -8.946337 -5.195799 -10 -2.652031 -10 0 
C -10 2.652031 -8.946337 5.195799 -7.071068 7.071068 
C -5.195799 8.946337 -2.652031 10 0 10 
z
" id="mec215ed618" style="stroke:#000080;stroke-opacity:0.593846;"/>
    </defs>
    <g clip-path="url(#p152b2f5873)">
     <use style="fill:#000080;fill-opacity:0.593846;stroke:#000080;stroke-opacity:0.593846;" x="451.817909" xlink:href="#mec215ed618" y="260.816782"/>
    </g>
   </g>
   <g id="line2d_23">
    <defs>
     <path d="M 0 10 
C 2.652031 10 5.195799 8.946337 7.071068 7.071068 
C 8.946337 5.195799 10 2.652031 10 0 
C 10 -2.652031 8.946337 -5.195799 7.071068 -7.071068 
C 5.195799 -8.946337 2.652031 -10 0 -10 
C -2.652031 -10 -5.195799 -8.946337 -7.071068 -7.071068 
C -8.946337 -5.195799 -10 -2.652031 -10 0 
C -10 2.652031 -8.946337 5.195799 -7.071068 7.071068 
C -5.195799 8.946337 -2.652031 10 0 10 
z
" id="mb3160ee757" style="stroke:#000080;stroke-opacity:0.568462;"/>
    </defs>
    <g clip-path="url(#p152b2f5873)">
     <use style="fill:#000080;fill-opacity:0.568462;stroke:#000080;stroke-opacity:0.568462;" x="452.365764" xlink:href="#mb3160ee757" y="258.523778"/>
    </g>
   </g>
   <g id="line2d_24">
    <defs>
     <path d="M 0 10 
C 2.652031 10 5.195799 8.946337 7.071068 7.071068 
C 8.946337 5.195799 10 2.652031 10 0 
C 10 -2.652031 8.946337 -5.195799 7.071068 -7.071068 
C 5.195799 -8.946337 2.652031 -10 0 -10 
C -2.652031 -10 -5.195799 -8.946337 -7.071068 -7.071068 
C -8.946337 -5.195799 -10 -2.652031 -10 0 
C -10 2.652031 -8.946337 5.195799 -7.071068 7.071068 
C -5.195799 8.946337 -2.652031 10 0 10 
z
" id="m0a378c1b6d" style="stroke:#000080;stroke-opacity:0.543077;"/>
    </defs>
    <g clip-path="url(#p152b2f5873)">
     <use style="fill:#000080;fill-opacity:0.543077;stroke:#000080;stroke-opacity:0.543077;" x="454.100636" xlink:href="#m0a378c1b6d" y="257.061"/>
    </g>
   </g>
   <g id="line2d_25">
    <defs>
     <path d="M 0 10 
C 2.652031 10 5.195799 8.946337 7.071068 7.071068 
C 8.946337 5.195799 10 2.652031 10 0 
C 10 -2.652031 8.946337 -5.195799 7.071068 -7.071068 
C 5.195799 -8.946337 2.652031 -10 0 -10 
C -2.652031 -10 -5.195799 -8.946337 -7.071068 -7.071068 
C -8.946337 -5.195799 -10 -2.652031 -10 0 
C -10 2.652031 -8.946337 5.195799 -7.071068 7.071068 
C -5.195799 8.946337 -2.652031 10 0 10 
z
" id="mae68498261" style="stroke:#000080;stroke-opacity:0.517692;"/>
    </defs>
    <g clip-path="url(#p152b2f5873)">
     <use style="fill:#000080;fill-opacity:0.517692;stroke:#000080;stroke-opacity:0.517692;" x="456.7486" xlink:href="#mae68498261" y="258.840055"/>
    </g>
   </g>
   <g id="line2d_26">
    <defs>
     <path d="M 0 10 
C 2.652031 10 5.195799 8.946337 7.071068 7.071068 
C 8.946337 5.195799 10 2.652031 10 0 
C 10 -2.652031 8.946337 -5.195799 7.071068 -7.071068 
C 5.195799 -8.946337 2.652031 -10 0 -10 
C -2.652031 -10 -5.195799 -8.946337 -7.071068 -7.071068 
C -8.946337 -5.195799 -10 -2.652031 -10 0 
C -10 2.652031 -8.946337 5.195799 -7.071068 7.071068 
C -5.195799 8.946337 -2.652031 10 0 10 
z
" id="m6236499499" style="stroke:#000080;stroke-opacity:0.492308;"/>
    </defs>
    <g clip-path="url(#p152b2f5873)">
     <use style="fill:#000080;fill-opacity:0.492308;stroke:#000080;stroke-opacity:0.492308;" x="457.205145" xlink:href="#m6236499499" y="259.472607"/>
    </g>
   </g>
   <g id="line2d_27">
    <defs>
     <path d="M 0 10 
C 2.652031 10 5.195799 8.946337 7.071068 7.071068 
C 8.946337 5.195799 10 2.652031 10 0 
C 10 -2.652031 8.946337 -5.195799 7.071068 -7.071068 
C 5.195799 -8.946337 2.652031 -10 0 -10 
C -2.652031 -10 -5.195799 -8.946337 -7.071068 -7.071068 
C -8.946337 -5.195799 -10 -2.652031 -10 0 
C -10 2.652031 -8.946337 5.195799 -7.071068 7.071068 
C -5.195799 8.946337 -2.652031 10 0 10 
z
" id="mc15e1249e7" style="stroke:#000080;stroke-opacity:0.466923;"/>
    </defs>
    <g clip-path="url(#p152b2f5873)">
     <use style="fill:#000080;fill-opacity:0.466923;stroke:#000080;stroke-opacity:0.466923;" x="457.570382" xlink:href="#mc15e1249e7" y="257.812156"/>
    </g>
   </g>
   <g id="line2d_28">
    <defs>
     <path d="M 0 10 
C 2.652031 10 5.195799 8.946337 7.071068 7.071068 
C 8.946337 5.195799 10 2.652031 10 0 
C 10 -2.652031 8.946337 -5.195799 7.071068 -7.071068 
C 5.195799 -8.946337 2.652031 -10 0 -10 
C -2.652031 -10 -5.195799 -8.946337 -7.071068 -7.071068 
C -8.946337 -5.195799 -10 -2.652031 -10 0 
C -10 2.652031 -8.946337 5.195799 -7.071068 7.071068 
C -5.195799 8.946337 -2.652031 10 0 10 
z
" id="m444e65ad2f" style="stroke:#000080;stroke-opacity:0.441538;"/>
    </defs>
    <g clip-path="url(#p152b2f5873)">
     <use style="fill:#000080;fill-opacity:0.441538;stroke:#000080;stroke-opacity:0.441538;" x="456.839909" xlink:href="#m444e65ad2f" y="251.012215"/>
    </g>
   </g>
   <g id="line2d_29">
    <defs>
     <path d="M 0 10 
C 2.652031 10 5.195799 8.946337 7.071068 7.071068 
C 8.946337 5.195799 10 2.652031 10 0 
C 10 -2.652031 8.946337 -5.195799 7.071068 -7.071068 
C 5.195799 -8.946337 2.652031 -10 0 -10 
C -2.652031 -10 -5.195799 -8.946337 -7.071068 -7.071068 
C -8.946337 -5.195799 -10 -2.652031 -10 0 
C -10 2.652031 -8.946337 5.195799 -7.071068 7.071068 
C -5.195799 8.946337 -2.652031 10 0 10 
z
" id="mbdee6b2afd" style="stroke:#000080;stroke-opacity:0.416154;"/>
    </defs>
    <g clip-path="url(#p152b2f5873)">
     <use style="fill:#000080;fill-opacity:0.416154;stroke:#000080;stroke-opacity:0.416154;" x="456.565982" xlink:href="#mbdee6b2afd" y="259.037727"/>
    </g>
   </g>
   <g id="line2d_30">
    <defs>
     <path d="M 0 10 
C 2.652031 10 5.195799 8.946337 7.071068 7.071068 
C 8.946337 5.195799 10 2.652031 10 0 
C 10 -2.652031 8.946337 -5.195799 7.071068 -7.071068 
C 5.195799 -8.946337 2.652031 -10 0 -10 
C -2.652031 -10 -5.195799 -8.946337 -7.071068 -7.071068 
C -8.946337 -5.195799 -10 -2.652031 -10 0 
C -10 2.652031 -8.946337 5.195799 -7.071068 7.071068 
C -5.195799 8.946337 -2.652031 10 0 10 
z
" id="me61fc982f0" style="stroke:#000080;stroke-opacity:0.390769;"/>
    </defs>
    <g clip-path="url(#p152b2f5873)">
     <use style="fill:#000080;fill-opacity:0.390769;stroke:#000080;stroke-opacity:0.390769;" x="456.7486" xlink:href="#me61fc982f0" y="257.93076"/>
    </g>
   </g>
   <g id="line2d_31">
    <defs>
     <path d="M 0 10 
C 2.652031 10 5.195799 8.946337 7.071068 7.071068 
C 8.946337 5.195799 10 2.652031 10 0 
C 10 -2.652031 8.946337 -5.195799 7.071068 -7.071068 
C 5.195799 -8.946337 2.652031 -10 0 -10 
C -2.652031 -10 -5.195799 -8.946337 -7.071068 -7.071068 
C -8.946337 -5.195799 -10 -2.652031 -10 0 
C -10 2.652031 -8.946337 5.195799 -7.071068 7.071068 
C -5.195799 8.946337 -2.652031 10 0 10 
z
" id="m8a422dcb4d" style="stroke:#000080;stroke-opacity:0.365385;"/>
    </defs>
    <g clip-path="url(#p152b2f5873)">
     <use style="fill:#000080;fill-opacity:0.365385;stroke:#000080;stroke-opacity:0.365385;" x="455.150691" xlink:href="#m8a422dcb4d" y="261.923749"/>
    </g>
   </g>
   <g id="line2d_32">
    <defs>
     <path d="M 0 10 
C 2.652031 10 5.195799 8.946337 7.071068 7.071068 
C 8.946337 5.195799 10 2.652031 10 0 
C 10 -2.652031 8.946337 -5.195799 7.071068 -7.071068 
C 5.195799 -8.946337 2.652031 -10 0 -10 
C -2.652031 -10 -5.195799 -8.946337 -7.071068 -7.071068 
C -8.946337 -5.195799 -10 -2.652031 -10 0 
C -10 2.652031 -8.946337 5.195799 -7.071068 7.071068 
C -5.195799 8.946337 -2.652031 10 0 10 
z
" id="mad7f4b894a" style="stroke:#000080;stroke-opacity:0.34;"/>
    </defs>
    <g clip-path="url(#p152b2f5873)">
     <use style="fill:#000080;fill-opacity:0.34;stroke:#000080;stroke-opacity:0.34;" x="451.772255" xlink:href="#mad7f4b894a" y="259.354004"/>
    </g>
   </g>
   <g id="line2d_33">
    <defs>
     <path d="M 0 10 
C 2.652031 10 5.195799 8.946337 7.071068 7.071068 
C 8.946337 5.195799 10 2.652031 10 0 
C 10 -2.652031 8.946337 -5.195799 7.071068 -7.071068 
C 5.195799 -8.946337 2.652031 -10 0 -10 
C -2.652031 -10 -5.195799 -8.946337 -7.071068 -7.071068 
C -8.946337 -5.195799 -10 -2.652031 -10 0 
C -10 2.652031 -8.946337 5.195799 -7.071068 7.071068 
C -5.195799 8.946337 -2.652031 10 0 10 
z
" id="m8a365da96c" style="stroke:#000080;stroke-opacity:0.314615;"/>
    </defs>
    <g clip-path="url(#p152b2f5873)">
     <use style="fill:#000080;fill-opacity:0.314615;stroke:#000080;stroke-opacity:0.314615;" x="450.767855" xlink:href="#m8a365da96c" y="262.042353"/>
    </g>
   </g>
   <g id="line2d_34">
    <defs>
     <path d="M 0 10 
C 2.652031 10 5.195799 8.946337 7.071068 7.071068 
C 8.946337 5.195799 10 2.652031 10 0 
C 10 -2.652031 8.946337 -5.195799 7.071068 -7.071068 
C 5.195799 -8.946337 2.652031 -10 0 -10 
C -2.652031 -10 -5.195799 -8.946337 -7.071068 -7.071068 
C -8.946337 -5.195799 -10 -2.652031 -10 0 
C -10 2.652031 -8.946337 5.195799 -7.071068 7.071068 
C -5.195799 8.946337 -2.652031 10 0 10 
z
" id="m086eb3b3c9" style="stroke:#000080;stroke-opacity:0.289231;"/>
    </defs>
    <g clip-path="url(#p152b2f5873)">
     <use style="fill:#000080;fill-opacity:0.289231;stroke:#000080;stroke-opacity:0.289231;" x="450.904818" xlink:href="#m086eb3b3c9" y="260.144695"/>
    </g>
   </g>
   <g id="line2d_35">
    <defs>
     <path d="M 0 10 
C 2.652031 10 5.195799 8.946337 7.071068 7.071068 
C 8.946337 5.195799 10 2.652031 10 0 
C 10 -2.652031 8.946337 -5.195799 7.071068 -7.071068 
C 5.195799 -8.946337 2.652031 -10 0 -10 
C -2.652031 -10 -5.195799 -8.946337 -7.071068 -7.071068 
C -8.946337 -5.195799 -10 -2.652031 -10 0 
C -10 2.652031 -8.946337 5.195799 -7.071068 7.071068 
C -5.195799 8.946337 -2.652031 10 0 10 
z
" id="m4db55d8036" style="stroke:#000080;stroke-opacity:0.263846;"/>
    </defs>
    <g clip-path="url(#p152b2f5873)">
     <use style="fill:#000080;fill-opacity:0.263846;stroke:#000080;stroke-opacity:0.263846;" x="450.311309" xlink:href="#m4db55d8036" y="261.765611"/>
    </g>
   </g>
   <g id="line2d_36">
    <defs>
     <path d="M 0 10 
C 2.652031 10 5.195799 8.946337 7.071068 7.071068 
C 8.946337 5.195799 10 2.652031 10 0 
C 10 -2.652031 8.946337 -5.195799 7.071068 -7.071068 
C 5.195799 -8.946337 2.652031 -10 0 -10 
C -2.652031 -10 -5.195799 -8.946337 -7.071068 -7.071068 
C -8.946337 -5.195799 -10 -2.652031 -10 0 
C -10 2.652031 -8.946337 5.195799 -7.071068 7.071068 
C -5.195799 8.946337 -2.652031 10 0 10 
z
" id="m5beecaf5f5" style="stroke:#000080;stroke-opacity:0.238462;"/>
    </defs>
    <g clip-path="url(#p152b2f5873)">
     <use style="fill:#000080;fill-opacity:0.238462;stroke:#000080;stroke-opacity:0.238462;" x="451.452673" xlink:href="#m5beecaf5f5" y="258.247036"/>
    </g>
   </g>
   <g id="line2d_37">
    <defs>
     <path d="M 0 10 
C 2.652031 10 5.195799 8.946337 7.071068 7.071068 
C 8.946337 5.195799 10 2.652031 10 0 
C 10 -2.652031 8.946337 -5.195799 7.071068 -7.071068 
C 5.195799 -8.946337 2.652031 -10 0 -10 
C -2.652031 -10 -5.195799 -8.946337 -7.071068 -7.071068 
C -8.946337 -5.195799 -10 -2.652031 -10 0 
C -10 2.652031 -8.946337 5.195799 -7.071068 7.071068 
C -5.195799 8.946337 -2.652031 10 0 10 
z
" id="mb98469f7b8" style="stroke:#000080;stroke-opacity:0.213077;"/>
    </defs>
    <g clip-path="url(#p152b2f5873)">
     <use style="fill:#000080;fill-opacity:0.213077;stroke:#000080;stroke-opacity:0.213077;" x="451.954873" xlink:href="#mb98469f7b8" y="261.212127"/>
    </g>
   </g>
   <g id="line2d_38">
    <defs>
     <path d="M 0 10 
C 2.652031 10 5.195799 8.946337 7.071068 7.071068 
C 8.946337 5.195799 10 2.652031 10 0 
C 10 -2.652031 8.946337 -5.195799 7.071068 -7.071068 
C 5.195799 -8.946337 2.652031 -10 0 -10 
C -2.652031 -10 -5.195799 -8.946337 -7.071068 -7.071068 
C -8.946337 -5.195799 -10 -2.652031 -10 0 
C -10 2.652031 -8.946337 5.195799 -7.071068 7.071068 
C -5.195799 8.946337 -2.652031 10 0 10 
z
" id="m77aa1ec002" style="stroke:#000080;stroke-opacity:0.187692;"/>
    </defs>
    <g clip-path="url(#p152b2f5873)">
     <use style="fill:#000080;fill-opacity:0.187692;stroke:#000080;stroke-opacity:0.187692;" x="451.772255" xlink:href="#m77aa1ec002" y="261.647007"/>
    </g>
   </g>
   <g id="line2d_39">
    <defs>
     <path d="M 0 10 
C 2.652031 10 5.195799 8.946337 7.071068 7.071068 
C 8.946337 5.195799 10 2.652031 10 0 
C 10 -2.652031 8.946337 -5.195799 7.071068 -7.071068 
C 5.195799 -8.946337 2.652031 -10 0 -10 
C -2.652031 -10 -5.195799 -8.946337 -7.071068 -7.071068 
C -8.946337 -5.195799 -10 -2.652031 -10 0 
C -10 2.652031 -8.946337 5.195799 -7.071068 7.071068 
C -5.195799 8.946337 -2.652031 10 0 10 
z
" id="m3387c5c5fc" style="stroke:#000080;stroke-opacity:0.162308;"/>
    </defs>
    <g clip-path="url(#p152b2f5873)">
     <use style="fill:#000080;fill-opacity:0.162308;stroke:#000080;stroke-opacity:0.162308;" x="452.183145" xlink:href="#m3387c5c5fc" y="263.544665"/>
    </g>
   </g>
   <g id="line2d_40">
    <defs>
     <path d="M 0 10 
C 2.652031 10 5.195799 8.946337 7.071068 7.071068 
C 8.946337 5.195799 10 2.652031 10 0 
C 10 -2.652031 8.946337 -5.195799 7.071068 -7.071068 
C 5.195799 -8.946337 2.652031 -10 0 -10 
C -2.652031 -10 -5.195799 -8.946337 -7.071068 -7.071068 
C -8.946337 -5.195799 -10 -2.652031 -10 0 
C -10 2.652031 -8.946337 5.195799 -7.071068 7.071068 
C -5.195799 8.946337 -2.652031 10 0 10 
z
" id="mdad9e49a32" style="stroke:#000080;stroke-opacity:0.136923;"/>
    </defs>
    <g clip-path="url(#p152b2f5873)">
     <use style="fill:#000080;fill-opacity:0.136923;stroke:#000080;stroke-opacity:0.136923;" x="451.361364" xlink:href="#mdad9e49a32" y="260.263298"/>
    </g>
   </g>
   <g id="line2d_41">
    <defs>
     <path d="M 0 10 
C 2.652031 10 5.195799 8.946337 7.071068 7.071068 
C 8.946337 5.195799 10 2.652031 10 0 
C 10 -2.652031 8.946337 -5.195799 7.071068 -7.071068 
C 5.195799 -8.946337 2.652031 -10 0 -10 
C -2.652031 -10 -5.195799 -8.946337 -7.071068 -7.071068 
C -8.946337 -5.195799 -10 -2.652031 -10 0 
C -10 2.652031 -8.946337 5.195799 -7.071068 7.071068 
C -5.195799 8.946337 -2.652031 10 0 10 
z
" id="m5f3139c484" style="stroke:#000080;stroke-opacity:0.111538;"/>
    </defs>
    <g clip-path="url(#p152b2f5873)">
     <use style="fill:#000080;fill-opacity:0.111538;stroke:#000080;stroke-opacity:0.111538;" x="451.7266" xlink:href="#m5f3139c484" y="262.358629"/>
    </g>
   </g>
   <g id="line2d_42">
    <defs>
     <path d="M 0 10 
C 2.652031 10 5.195799 8.946337 7.071068 7.071068 
C 8.946337 5.195799 10 2.652031 10 0 
C 10 -2.652031 8.946337 -5.195799 7.071068 -7.071068 
C 5.195799 -8.946337 2.652031 -10 0 -10 
C -2.652031 -10 -5.195799 -8.946337 -7.071068 -7.071068 
C -8.946337 -5.195799 -10 -2.652031 -10 0 
C -10 2.652031 -8.946337 5.195799 -7.071068 7.071068 
C -5.195799 8.946337 -2.652031 10 0 10 
z
" id="m5a29b3a288" style="stroke:#000080;stroke-opacity:0.086154;"/>
    </defs>
    <g clip-path="url(#p152b2f5873)">
     <use style="fill:#000080;fill-opacity:0.086154;stroke:#000080;stroke-opacity:0.086154;" x="450.448273" xlink:href="#m5a29b3a288" y="265.639996"/>
    </g>
   </g>
   <g id="line2d_43">
    <defs>
     <path d="M 0 10 
C 2.652031 10 5.195799 8.946337 7.071068 7.071068 
C 8.946337 5.195799 10 2.652031 10 0 
C 10 -2.652031 8.946337 -5.195799 7.071068 -7.071068 
C 5.195799 -8.946337 2.652031 -10 0 -10 
C -2.652031 -10 -5.195799 -8.946337 -7.071068 -7.071068 
C -8.946337 -5.195799 -10 -2.652031 -10 0 
C -10 2.652031 -8.946337 5.195799 -7.071068 7.071068 
C -5.195799 8.946337 -2.652031 10 0 10 
z
" id="m4649fd1539" style="stroke:#000080;stroke-opacity:0.060769;"/>
    </defs>
    <g clip-path="url(#p152b2f5873)">
     <use style="fill:#000080;fill-opacity:0.060769;stroke:#000080;stroke-opacity:0.060769;" x="450.904818" xlink:href="#m4649fd1539" y="262.358629"/>
    </g>
   </g>
   <g id="line2d_44">
    <defs>
     <path d="M 0 10 
C 2.652031 10 5.195799 8.946337 7.071068 7.071068 
C 8.946337 5.195799 10 2.652031 10 0 
C 10 -2.652031 8.946337 -5.195799 7.071068 -7.071068 
C 5.195799 -8.946337 2.652031 -10 0 -10 
C -2.652031 -10 -5.195799 -8.946337 -7.071068 -7.071068 
C -8.946337 -5.195799 -10 -2.652031 -10 0 
C -10 2.652031 -8.946337 5.195799 -7.071068 7.071068 
C -5.195799 8.946337 -2.652031 10 0 10 
z
" id="m8b31bb0199" style="stroke:#000080;stroke-opacity:0.035385;"/>
    </defs>
    <g clip-path="url(#p152b2f5873)">
     <use style="fill:#000080;fill-opacity:0.035385;stroke:#000080;stroke-opacity:0.035385;" x="450.950473" xlink:href="#m8b31bb0199" y="262.398164"/>
    </g>
   </g>
   <g id="line2d_45">
    <defs>
     <path d="M 0 10 
C 2.652031 10 5.195799 8.946337 7.071068 7.071068 
C 8.946337 5.195799 10 2.652031 10 0 
C 10 -2.652031 8.946337 -5.195799 7.071068 -7.071068 
C 5.195799 -8.946337 2.652031 -10 0 -10 
C -2.652031 -10 -5.195799 -8.946337 -7.071068 -7.071068 
C -8.946337 -5.195799 -10 -2.652031 -10 0 
C -10 2.652031 -8.946337 5.195799 -7.071068 7.071068 
C -5.195799 8.946337 -2.652031 10 0 10 
z
" id="mb33e0b8f69" style="stroke:#000080;stroke-opacity:0.01;"/>
    </defs>
    <g clip-path="url(#p152b2f5873)">
     <use style="fill:#000080;fill-opacity:0.01;stroke:#000080;stroke-opacity:0.01;" x="451.7266" xlink:href="#mb33e0b8f69" y="257.772622"/>
    </g>
   </g>
   <g id="line2d_46">
    <path clip-path="url(#p152b2f5873)" d="M 184.282273 487.349727 
L 640.827727 92.004273 
" style="fill:none;stroke:#000000;stroke-linecap:square;stroke-width:4;"/>
   </g>
   <g id="line2d_47">
    <defs>
     <path d="M 0 10 
C 2.652031 10 5.195799 8.946337 7.071068 7.071068 
C 8.946337 5.195799 10 2.652031 10 0 
C 10 -2.652031 8.946337 -5.195799 7.071068 -7.071068 
C 5.195799 -8.946337 2.652031 -10 0 -10 
C -2.652031 -10 -5.195799 -8.946337 -7.071068 -7.071068 
C -8.946337 -5.195799 -10 -2.652031 -10 0 
C -10 2.652031 -8.946337 5.195799 -7.071068 7.071068 
C -5.195799 8.946337 -2.652031 10 0 10 
z
" id="m1ee8c66e76" style="stroke:#00a4ff;"/>
    </defs>
    <g clip-path="url(#p152b2f5873)">
     <use style="fill:#00a4ff;stroke:#00a4ff;" x="640.827727" xlink:href="#m1ee8c66e76" y="92.004273"/>
    </g>
   </g>
   <g id="line2d_48">
    <defs>
     <path d="M 0 10 
C 2.652031 10 5.195799 8.946337 7.071068 7.071068 
C 8.946337 5.195799 10 2.652031 10 0 
C 10 -2.652031 8.946337 -5.195799 7.071068 -7.071068 
C 5.195799 -8.946337 2.652031 -10 0 -10 
C -2.652031 -10 -5.195799 -8.946337 -7.071068 -7.071068 
C -8.946337 -5.195799 -10 -2.652031 -10 0 
C -10 2.652031 -8.946337 5.195799 -7.071068 7.071068 
C -5.195799 8.946337 -2.652031 10 0 10 
z
" id="m1e51221f9c" style="stroke:#00a4ff;stroke-opacity:0.974615;"/>
    </defs>
    <g clip-path="url(#p152b2f5873)">
     <use style="fill:#00a4ff;fill-opacity:0.974615;stroke:#00a4ff;stroke-opacity:0.974615;" x="624.163818" xlink:href="#m1e51221f9c" y="114.262222"/>
    </g>
   </g>
   <g id="line2d_49">
    <defs>
     <path d="M 0 10 
C 2.652031 10 5.195799 8.946337 7.071068 7.071068 
C 8.946337 5.195799 10 2.652031 10 0 
C 10 -2.652031 8.946337 -5.195799 7.071068 -7.071068 
C 5.195799 -8.946337 2.652031 -10 0 -10 
C -2.652031 -10 -5.195799 -8.946337 -7.071068 -7.071068 
C -8.946337 -5.195799 -10 -2.652031 -10 0 
C -10 2.652031 -8.946337 5.195799 -7.071068 7.071068 
C -5.195799 8.946337 -2.652031 10 0 10 
z
" id="m313d0e3aec" style="stroke:#00a4ff;stroke-opacity:0.949231;"/>
    </defs>
    <g clip-path="url(#p152b2f5873)">
     <use style="fill:#00a4ff;fill-opacity:0.949231;stroke:#00a4ff;stroke-opacity:0.949231;" x="568.237" xlink:href="#m313d0e3aec" y="162.494367"/>
    </g>
   </g>
   <g id="line2d_50">
    <defs>
     <path d="M 0 10 
C 2.652031 10 5.195799 8.946337 7.071068 7.071068 
C 8.946337 5.195799 10 2.652031 10 0 
C 10 -2.652031 8.946337 -5.195799 7.071068 -7.071068 
C 5.195799 -8.946337 2.652031 -10 0 -10 
C -2.652031 -10 -5.195799 -8.946337 -7.071068 -7.071068 
C -8.946337 -5.195799 -10 -2.652031 -10 0 
C -10 2.652031 -8.946337 5.195799 -7.071068 7.071068 
C -5.195799 8.946337 -2.652031 10 0 10 
z
" id="m2f0723c7e3" style="stroke:#00a4ff;stroke-opacity:0.923846;"/>
    </defs>
    <g clip-path="url(#p152b2f5873)">
     <use style="fill:#00a4ff;fill-opacity:0.923846;stroke:#00a4ff;stroke-opacity:0.923846;" x="517.058255" xlink:href="#m2f0723c7e3" y="204.44052"/>
    </g>
   </g>
   <g id="line2d_51">
    <defs>
     <path d="M 0 10 
C 2.652031 10 5.195799 8.946337 7.071068 7.071068 
C 8.946337 5.195799 10 2.652031 10 0 
C 10 -2.652031 8.946337 -5.195799 7.071068 -7.071068 
C 5.195799 -8.946337 2.652031 -10 0 -10 
C -2.652031 -10 -5.195799 -8.946337 -7.071068 -7.071068 
C -8.946337 -5.195799 -10 -2.652031 -10 0 
C -10 2.652031 -8.946337 5.195799 -7.071068 7.071068 
C -5.195799 8.946337 -2.652031 10 0 10 
z
" id="m2e8f5c498a" style="stroke:#00a4ff;stroke-opacity:0.898462;"/>
    </defs>
    <g clip-path="url(#p152b2f5873)">
     <use style="fill:#00a4ff;fill-opacity:0.898462;stroke:#00a4ff;stroke-opacity:0.898462;" x="479.575873" xlink:href="#m2e8f5c498a" y="231.758891"/>
    </g>
   </g>
   <g id="line2d_52">
    <defs>
     <path d="M 0 10 
C 2.652031 10 5.195799 8.946337 7.071068 7.071068 
C 8.946337 5.195799 10 2.652031 10 0 
C 10 -2.652031 8.946337 -5.195799 7.071068 -7.071068 
C 5.195799 -8.946337 2.652031 -10 0 -10 
C -2.652031 -10 -5.195799 -8.946337 -7.071068 -7.071068 
C -8.946337 -5.195799 -10 -2.652031 -10 0 
C -10 2.652031 -8.946337 5.195799 -7.071068 7.071068 
C -5.195799 8.946337 -2.652031 10 0 10 
z
" id="mbb10df2ae1" style="stroke:#00a4ff;stroke-opacity:0.873077;"/>
    </defs>
    <g clip-path="url(#p152b2f5873)">
     <use style="fill:#00a4ff;fill-opacity:0.873077;stroke:#00a4ff;stroke-opacity:0.873077;" x="459.898764" xlink:href="#mbb10df2ae1" y="246.109931"/>
    </g>
   </g>
   <g id="line2d_53">
    <defs>
     <path d="M 0 10 
C 2.652031 10 5.195799 8.946337 7.071068 7.071068 
C 8.946337 5.195799 10 2.652031 10 0 
C 10 -2.652031 8.946337 -5.195799 7.071068 -7.071068 
C 5.195799 -8.946337 2.652031 -10 0 -10 
C -2.652031 -10 -5.195799 -8.946337 -7.071068 -7.071068 
C -8.946337 -5.195799 -10 -2.652031 -10 0 
C -10 2.652031 -8.946337 5.195799 -7.071068 7.071068 
C -5.195799 8.946337 -2.652031 10 0 10 
z
" id="mac69b509ff" style="stroke:#00a4ff;stroke-opacity:0.847692;"/>
    </defs>
    <g clip-path="url(#p152b2f5873)">
     <use style="fill:#00a4ff;fill-opacity:0.847692;stroke:#00a4ff;stroke-opacity:0.847692;" x="447.480727" xlink:href="#mac69b509ff" y="252.356389"/>
    </g>
   </g>
   <g id="line2d_54">
    <defs>
     <path d="M 0 10 
C 2.652031 10 5.195799 8.946337 7.071068 7.071068 
C 8.946337 5.195799 10 2.652031 10 0 
C 10 -2.652031 8.946337 -5.195799 7.071068 -7.071068 
C 5.195799 -8.946337 2.652031 -10 0 -10 
C -2.652031 -10 -5.195799 -8.946337 -7.071068 -7.071068 
C -8.946337 -5.195799 -10 -2.652031 -10 0 
C -10 2.652031 -8.946337 5.195799 -7.071068 7.071068 
C -5.195799 8.946337 -2.652031 10 0 10 
z
" id="mc0bae9ca3e" style="stroke:#00a4ff;stroke-opacity:0.822308;"/>
    </defs>
    <g clip-path="url(#p152b2f5873)">
     <use style="fill:#00a4ff;fill-opacity:0.822308;stroke:#00a4ff;stroke-opacity:0.822308;" x="442.778309" xlink:href="#mc0bae9ca3e" y="259.156331"/>
    </g>
   </g>
   <g id="line2d_55">
    <defs>
     <path d="M 0 10 
C 2.652031 10 5.195799 8.946337 7.071068 7.071068 
C 8.946337 5.195799 10 2.652031 10 0 
C 10 -2.652031 8.946337 -5.195799 7.071068 -7.071068 
C 5.195799 -8.946337 2.652031 -10 0 -10 
C -2.652031 -10 -5.195799 -8.946337 -7.071068 -7.071068 
C -8.946337 -5.195799 -10 -2.652031 -10 0 
C -10 2.652031 -8.946337 5.195799 -7.071068 7.071068 
C -5.195799 8.946337 -2.652031 10 0 10 
z
" id="mff06c57424" style="stroke:#00a4ff;stroke-opacity:0.796923;"/>
    </defs>
    <g clip-path="url(#p152b2f5873)">
     <use style="fill:#00a4ff;fill-opacity:0.796923;stroke:#00a4ff;stroke-opacity:0.796923;" x="440.495582" xlink:href="#mff06c57424" y="258.563313"/>
    </g>
   </g>
   <g id="line2d_56">
    <defs>
     <path d="M 0 10 
C 2.652031 10 5.195799 8.946337 7.071068 7.071068 
C 8.946337 5.195799 10 2.652031 10 0 
C 10 -2.652031 8.946337 -5.195799 7.071068 -7.071068 
C 5.195799 -8.946337 2.652031 -10 0 -10 
C -2.652031 -10 -5.195799 -8.946337 -7.071068 -7.071068 
C -8.946337 -5.195799 -10 -2.652031 -10 0 
C -10 2.652031 -8.946337 5.195799 -7.071068 7.071068 
C -5.195799 8.946337 -2.652031 10 0 10 
z
" id="m552357e4c2" style="stroke:#00a4ff;stroke-opacity:0.771538;"/>
    </defs>
    <g clip-path="url(#p152b2f5873)">
     <use style="fill:#00a4ff;fill-opacity:0.771538;stroke:#00a4ff;stroke-opacity:0.771538;" x="440.860818" xlink:href="#m552357e4c2" y="265.442324"/>
    </g>
   </g>
   <g id="line2d_57">
    <defs>
     <path d="M 0 10 
C 2.652031 10 5.195799 8.946337 7.071068 7.071068 
C 8.946337 5.195799 10 2.652031 10 0 
C 10 -2.652031 8.946337 -5.195799 7.071068 -7.071068 
C 5.195799 -8.946337 2.652031 -10 0 -10 
C -2.652031 -10 -5.195799 -8.946337 -7.071068 -7.071068 
C -8.946337 -5.195799 -10 -2.652031 -10 0 
C -10 2.652031 -8.946337 5.195799 -7.071068 7.071068 
C -5.195799 8.946337 -2.652031 10 0 10 
z
" id="m94ffbf68e9" style="stroke:#00a4ff;stroke-opacity:0.746154;"/>
    </defs>
    <g clip-path="url(#p152b2f5873)">
     <use style="fill:#00a4ff;fill-opacity:0.746154;stroke:#00a4ff;stroke-opacity:0.746154;" x="443.782709" xlink:href="#m94ffbf68e9" y="261.607473"/>
    </g>
   </g>
   <g id="line2d_58">
    <defs>
     <path d="M 0 10 
C 2.652031 10 5.195799 8.946337 7.071068 7.071068 
C 8.946337 5.195799 10 2.652031 10 0 
C 10 -2.652031 8.946337 -5.195799 7.071068 -7.071068 
C 5.195799 -8.946337 2.652031 -10 0 -10 
C -2.652031 -10 -5.195799 -8.946337 -7.071068 -7.071068 
C -8.946337 -5.195799 -10 -2.652031 -10 0 
C -10 2.652031 -8.946337 5.195799 -7.071068 7.071068 
C -5.195799 8.946337 -2.652031 10 0 10 
z
" id="m51d312da3d" style="stroke:#00a4ff;stroke-opacity:0.720769;"/>
    </defs>
    <g clip-path="url(#p152b2f5873)">
     <use style="fill:#00a4ff;fill-opacity:0.720769;stroke:#00a4ff;stroke-opacity:0.720769;" x="442.504382" xlink:href="#m51d312da3d" y="263.702804"/>
    </g>
   </g>
   <g id="line2d_59">
    <defs>
     <path d="M 0 10 
C 2.652031 10 5.195799 8.946337 7.071068 7.071068 
C 8.946337 5.195799 10 2.652031 10 0 
C 10 -2.652031 8.946337 -5.195799 7.071068 -7.071068 
C 5.195799 -8.946337 2.652031 -10 0 -10 
C -2.652031 -10 -5.195799 -8.946337 -7.071068 -7.071068 
C -8.946337 -5.195799 -10 -2.652031 -10 0 
C -10 2.652031 -8.946337 5.195799 -7.071068 7.071068 
C -5.195799 8.946337 -2.652031 10 0 10 
z
" id="md706009240" style="stroke:#00a4ff;stroke-opacity:0.695385;"/>
    </defs>
    <g clip-path="url(#p152b2f5873)">
     <use style="fill:#00a4ff;fill-opacity:0.695385;stroke:#00a4ff;stroke-opacity:0.695385;" x="442.915273" xlink:href="#md706009240" y="260.816782"/>
    </g>
   </g>
   <g id="line2d_60">
    <defs>
     <path d="M 0 10 
C 2.652031 10 5.195799 8.946337 7.071068 7.071068 
C 8.946337 5.195799 10 2.652031 10 0 
C 10 -2.652031 8.946337 -5.195799 7.071068 -7.071068 
C 5.195799 -8.946337 2.652031 -10 0 -10 
C -2.652031 -10 -5.195799 -8.946337 -7.071068 -7.071068 
C -8.946337 -5.195799 -10 -2.652031 -10 0 
C -10 2.652031 -8.946337 5.195799 -7.071068 7.071068 
C -5.195799 8.946337 -2.652031 10 0 10 
z
" id="m5d5c83a0b0" style="stroke:#00a4ff;stroke-opacity:0.67;"/>
    </defs>
    <g clip-path="url(#p152b2f5873)">
     <use style="fill:#00a4ff;fill-opacity:0.67;stroke:#00a4ff;stroke-opacity:0.67;" x="440.176" xlink:href="#m5d5c83a0b0" y="254.530789"/>
    </g>
   </g>
   <g id="line2d_61">
    <defs>
     <path d="M 0 10 
C 2.652031 10 5.195799 8.946337 7.071068 7.071068 
C 8.946337 5.195799 10 2.652031 10 0 
C 10 -2.652031 8.946337 -5.195799 7.071068 -7.071068 
C 5.195799 -8.946337 2.652031 -10 0 -10 
C -2.652031 -10 -5.195799 -8.946337 -7.071068 -7.071068 
C -8.946337 -5.195799 -10 -2.652031 -10 0 
C -10 2.652031 -8.946337 5.195799 -7.071068 7.071068 
C -5.195799 8.946337 -2.652031 10 0 10 
z
" id="m5ffdbac9d3" style="stroke:#00a4ff;stroke-opacity:0.644615;"/>
    </defs>
    <g clip-path="url(#p152b2f5873)">
     <use style="fill:#00a4ff;fill-opacity:0.644615;stroke:#00a4ff;stroke-opacity:0.644615;" x="440.084691" xlink:href="#m5ffdbac9d3" y="256.072636"/>
    </g>
   </g>
   <g id="line2d_62">
    <defs>
     <path d="M 0 10 
C 2.652031 10 5.195799 8.946337 7.071068 7.071068 
C 8.946337 5.195799 10 2.652031 10 0 
C 10 -2.652031 8.946337 -5.195799 7.071068 -7.071068 
C 5.195799 -8.946337 2.652031 -10 0 -10 
C -2.652031 -10 -5.195799 -8.946337 -7.071068 -7.071068 
C -8.946337 -5.195799 -10 -2.652031 -10 0 
C -10 2.652031 -8.946337 5.195799 -7.071068 7.071068 
C -5.195799 8.946337 -2.652031 10 0 10 
z
" id="m312537c082" style="stroke:#00a4ff;stroke-opacity:0.619231;"/>
    </defs>
    <g clip-path="url(#p152b2f5873)">
     <use style="fill:#00a4ff;fill-opacity:0.619231;stroke:#00a4ff;stroke-opacity:0.619231;" x="441.6826" xlink:href="#m312537c082" y="251.802905"/>
    </g>
   </g>
   <g id="line2d_63">
    <defs>
     <path d="M 0 10 
C 2.652031 10 5.195799 8.946337 7.071068 7.071068 
C 8.946337 5.195799 10 2.652031 10 0 
C 10 -2.652031 8.946337 -5.195799 7.071068 -7.071068 
C 5.195799 -8.946337 2.652031 -10 0 -10 
C -2.652031 -10 -5.195799 -8.946337 -7.071068 -7.071068 
C -8.946337 -5.195799 -10 -2.652031 -10 0 
C -10 2.652031 -8.946337 5.195799 -7.071068 7.071068 
C -5.195799 8.946337 -2.652031 10 0 10 
z
" id="m970333713d" style="stroke:#00a4ff;stroke-opacity:0.593846;"/>
    </defs>
    <g clip-path="url(#p152b2f5873)">
     <use style="fill:#00a4ff;fill-opacity:0.593846;stroke:#00a4ff;stroke-opacity:0.593846;" x="442.869618" xlink:href="#m970333713d" y="258.326105"/>
    </g>
   </g>
   <g id="line2d_64">
    <defs>
     <path d="M 0 10 
C 2.652031 10 5.195799 8.946337 7.071068 7.071068 
C 8.946337 5.195799 10 2.652031 10 0 
C 10 -2.652031 8.946337 -5.195799 7.071068 -7.071068 
C 5.195799 -8.946337 2.652031 -10 0 -10 
C -2.652031 -10 -5.195799 -8.946337 -7.071068 -7.071068 
C -8.946337 -5.195799 -10 -2.652031 -10 0 
C -10 2.652031 -8.946337 5.195799 -7.071068 7.071068 
C -5.195799 8.946337 -2.652031 10 0 10 
z
" id="m6d0c676205" style="stroke:#00a4ff;stroke-opacity:0.568462;"/>
    </defs>
    <g clip-path="url(#p152b2f5873)">
     <use style="fill:#00a4ff;fill-opacity:0.568462;stroke:#00a4ff;stroke-opacity:0.568462;" x="443.782709" xlink:href="#m6d0c676205" y="257.535415"/>
    </g>
   </g>
   <g id="line2d_65">
    <defs>
     <path d="M 0 10 
C 2.652031 10 5.195799 8.946337 7.071068 7.071068 
C 8.946337 5.195799 10 2.652031 10 0 
C 10 -2.652031 8.946337 -5.195799 7.071068 -7.071068 
C 5.195799 -8.946337 2.652031 -10 0 -10 
C -2.652031 -10 -5.195799 -8.946337 -7.071068 -7.071068 
C -8.946337 -5.195799 -10 -2.652031 -10 0 
C -10 2.652031 -8.946337 5.195799 -7.071068 7.071068 
C -5.195799 8.946337 -2.652031 10 0 10 
z
" id="me0ea681b42" style="stroke:#00a4ff;stroke-opacity:0.543077;"/>
    </defs>
    <g clip-path="url(#p152b2f5873)">
     <use style="fill:#00a4ff;fill-opacity:0.543077;stroke:#00a4ff;stroke-opacity:0.543077;" x="444.6958" xlink:href="#me0ea681b42" y="257.891225"/>
    </g>
   </g>
   <g id="line2d_66">
    <defs>
     <path d="M 0 10 
C 2.652031 10 5.195799 8.946337 7.071068 7.071068 
C 8.946337 5.195799 10 2.652031 10 0 
C 10 -2.652031 8.946337 -5.195799 7.071068 -7.071068 
C 5.195799 -8.946337 2.652031 -10 0 -10 
C -2.652031 -10 -5.195799 -8.946337 -7.071068 -7.071068 
C -8.946337 -5.195799 -10 -2.652031 -10 0 
C -10 2.652031 -8.946337 5.195799 -7.071068 7.071068 
C -5.195799 8.946337 -2.652031 10 0 10 
z
" id="m6625e1b136" style="stroke:#00a4ff;stroke-opacity:0.517692;"/>
    </defs>
    <g clip-path="url(#p152b2f5873)">
     <use style="fill:#00a4ff;fill-opacity:0.517692;stroke:#00a4ff;stroke-opacity:0.517692;" x="443.919673" xlink:href="#m6625e1b136" y="258.840055"/>
    </g>
   </g>
   <g id="line2d_67">
    <defs>
     <path d="M 0 10 
C 2.652031 10 5.195799 8.946337 7.071068 7.071068 
C 8.946337 5.195799 10 2.652031 10 0 
C 10 -2.652031 8.946337 -5.195799 7.071068 -7.071068 
C 5.195799 -8.946337 2.652031 -10 0 -10 
C -2.652031 -10 -5.195799 -8.946337 -7.071068 -7.071068 
C -8.946337 -5.195799 -10 -2.652031 -10 0 
C -10 2.652031 -8.946337 5.195799 -7.071068 7.071068 
C -5.195799 8.946337 -2.652031 10 0 10 
z
" id="m2dacc5975c" style="stroke:#00a4ff;stroke-opacity:0.492308;"/>
    </defs>
    <g clip-path="url(#p152b2f5873)">
     <use style="fill:#00a4ff;fill-opacity:0.492308;stroke:#00a4ff;stroke-opacity:0.492308;" x="443.463127" xlink:href="#m2dacc5975c" y="256.507516"/>
    </g>
   </g>
   <g id="line2d_68">
    <defs>
     <path d="M 0 10 
C 2.652031 10 5.195799 8.946337 7.071068 7.071068 
C 8.946337 5.195799 10 2.652031 10 0 
C 10 -2.652031 8.946337 -5.195799 7.071068 -7.071068 
C 5.195799 -8.946337 2.652031 -10 0 -10 
C -2.652031 -10 -5.195799 -8.946337 -7.071068 -7.071068 
C -8.946337 -5.195799 -10 -2.652031 -10 0 
C -10 2.652031 -8.946337 5.195799 -7.071068 7.071068 
C -5.195799 8.946337 -2.652031 10 0 10 
z
" id="md27a525b94" style="stroke:#00a4ff;stroke-opacity:0.466923;"/>
    </defs>
    <g clip-path="url(#p152b2f5873)">
     <use style="fill:#00a4ff;fill-opacity:0.466923;stroke:#00a4ff;stroke-opacity:0.466923;" x="442.093491" xlink:href="#md27a525b94" y="260.816782"/>
    </g>
   </g>
   <g id="line2d_69">
    <defs>
     <path d="M 0 10 
C 2.652031 10 5.195799 8.946337 7.071068 7.071068 
C 8.946337 5.195799 10 2.652031 10 0 
C 10 -2.652031 8.946337 -5.195799 7.071068 -7.071068 
C 5.195799 -8.946337 2.652031 -10 0 -10 
C -2.652031 -10 -5.195799 -8.946337 -7.071068 -7.071068 
C -8.946337 -5.195799 -10 -2.652031 -10 0 
C -10 2.652031 -8.946337 5.195799 -7.071068 7.071068 
C -5.195799 8.946337 -2.652031 10 0 10 
z
" id="m1a6d7c8884" style="stroke:#00a4ff;stroke-opacity:0.441538;"/>
    </defs>
    <g clip-path="url(#p152b2f5873)">
     <use style="fill:#00a4ff;fill-opacity:0.441538;stroke:#00a4ff;stroke-opacity:0.441538;" x="442.732655" xlink:href="#m1a6d7c8884" y="265.639996"/>
    </g>
   </g>
   <g id="line2d_70">
    <defs>
     <path d="M 0 10 
C 2.652031 10 5.195799 8.946337 7.071068 7.071068 
C 8.946337 5.195799 10 2.652031 10 0 
C 10 -2.652031 8.946337 -5.195799 7.071068 -7.071068 
C 5.195799 -8.946337 2.652031 -10 0 -10 
C -2.652031 -10 -5.195799 -8.946337 -7.071068 -7.071068 
C -8.946337 -5.195799 -10 -2.652031 -10 0 
C -10 2.652031 -8.946337 5.195799 -7.071068 7.071068 
C -5.195799 8.946337 -2.652031 10 0 10 
z
" id="m70382dd572" style="stroke:#00a4ff;stroke-opacity:0.416154;"/>
    </defs>
    <g clip-path="url(#p152b2f5873)">
     <use style="fill:#00a4ff;fill-opacity:0.416154;stroke:#00a4ff;stroke-opacity:0.416154;" x="443.371818" xlink:href="#m70382dd572" y="262.833044"/>
    </g>
   </g>
   <g id="line2d_71">
    <defs>
     <path d="M 0 10 
C 2.652031 10 5.195799 8.946337 7.071068 7.071068 
C 8.946337 5.195799 10 2.652031 10 0 
C 10 -2.652031 8.946337 -5.195799 7.071068 -7.071068 
C 5.195799 -8.946337 2.652031 -10 0 -10 
C -2.652031 -10 -5.195799 -8.946337 -7.071068 -7.071068 
C -8.946337 -5.195799 -10 -2.652031 -10 0 
C -10 2.652031 -8.946337 5.195799 -7.071068 7.071068 
C -5.195799 8.946337 -2.652031 10 0 10 
z
" id="mc0f891e8cb" style="stroke:#00a4ff;stroke-opacity:0.390769;"/>
    </defs>
    <g clip-path="url(#p152b2f5873)">
     <use style="fill:#00a4ff;fill-opacity:0.390769;stroke:#00a4ff;stroke-opacity:0.390769;" x="440.952127" xlink:href="#mc0f891e8cb" y="259.947022"/>
    </g>
   </g>
   <g id="line2d_72">
    <defs>
     <path d="M 0 10 
C 2.652031 10 5.195799 8.946337 7.071068 7.071068 
C 8.946337 5.195799 10 2.652031 10 0 
C 10 -2.652031 8.946337 -5.195799 7.071068 -7.071068 
C 5.195799 -8.946337 2.652031 -10 0 -10 
C -2.652031 -10 -5.195799 -8.946337 -7.071068 -7.071068 
C -8.946337 -5.195799 -10 -2.652031 -10 0 
C -10 2.652031 -8.946337 5.195799 -7.071068 7.071068 
C -5.195799 8.946337 -2.652031 10 0 10 
z
" id="m63019fd01b" style="stroke:#00a4ff;stroke-opacity:0.365385;"/>
    </defs>
    <g clip-path="url(#p152b2f5873)">
     <use style="fill:#00a4ff;fill-opacity:0.365385;stroke:#00a4ff;stroke-opacity:0.365385;" x="442.413073" xlink:href="#m63019fd01b" y="258.602847"/>
    </g>
   </g>
   <g id="line2d_73">
    <defs>
     <path d="M 0 10 
C 2.652031 10 5.195799 8.946337 7.071068 7.071068 
C 8.946337 5.195799 10 2.652031 10 0 
C 10 -2.652031 8.946337 -5.195799 7.071068 -7.071068 
C 5.195799 -8.946337 2.652031 -10 0 -10 
C -2.652031 -10 -5.195799 -8.946337 -7.071068 -7.071068 
C -8.946337 -5.195799 -10 -2.652031 -10 0 
C -10 2.652031 -8.946337 5.195799 -7.071068 7.071068 
C -5.195799 8.946337 -2.652031 10 0 10 
z
" id="mff4c93055f" style="stroke:#00a4ff;stroke-opacity:0.34;"/>
    </defs>
    <g clip-path="url(#p152b2f5873)">
     <use style="fill:#00a4ff;fill-opacity:0.34;stroke:#00a4ff;stroke-opacity:0.34;" x="443.782709" xlink:href="#mff4c93055f" y="256.547051"/>
    </g>
   </g>
   <g id="line2d_74">
    <defs>
     <path d="M 0 10 
C 2.652031 10 5.195799 8.946337 7.071068 7.071068 
C 8.946337 5.195799 10 2.652031 10 0 
C 10 -2.652031 8.946337 -5.195799 7.071068 -7.071068 
C 5.195799 -8.946337 2.652031 -10 0 -10 
C -2.652031 -10 -5.195799 -8.946337 -7.071068 -7.071068 
C -8.946337 -5.195799 -10 -2.652031 -10 0 
C -10 2.652031 -8.946337 5.195799 -7.071068 7.071068 
C -5.195799 8.946337 -2.652031 10 0 10 
z
" id="m6756711e45" style="stroke:#00a4ff;stroke-opacity:0.314615;"/>
    </defs>
    <g clip-path="url(#p152b2f5873)">
     <use style="fill:#00a4ff;fill-opacity:0.314615;stroke:#00a4ff;stroke-opacity:0.314615;" x="445.198" xlink:href="#m6756711e45" y="258.721451"/>
    </g>
   </g>
   <g id="line2d_75">
    <defs>
     <path d="M 0 10 
C 2.652031 10 5.195799 8.946337 7.071068 7.071068 
C 8.946337 5.195799 10 2.652031 10 0 
C 10 -2.652031 8.946337 -5.195799 7.071068 -7.071068 
C 5.195799 -8.946337 2.652031 -10 0 -10 
C -2.652031 -10 -5.195799 -8.946337 -7.071068 -7.071068 
C -8.946337 -5.195799 -10 -2.652031 -10 0 
C -10 2.652031 -8.946337 5.195799 -7.071068 7.071068 
C -5.195799 8.946337 -2.652031 10 0 10 
z
" id="m761d2d9876" style="stroke:#00a4ff;stroke-opacity:0.289231;"/>
    </defs>
    <g clip-path="url(#p152b2f5873)">
     <use style="fill:#00a4ff;fill-opacity:0.289231;stroke:#00a4ff;stroke-opacity:0.289231;" x="446.887218" xlink:href="#m761d2d9876" y="258.444709"/>
    </g>
   </g>
   <g id="line2d_76">
    <defs>
     <path d="M 0 10 
C 2.652031 10 5.195799 8.946337 7.071068 7.071068 
C 8.946337 5.195799 10 2.652031 10 0 
C 10 -2.652031 8.946337 -5.195799 7.071068 -7.071068 
C 5.195799 -8.946337 2.652031 -10 0 -10 
C -2.652031 -10 -5.195799 -8.946337 -7.071068 -7.071068 
C -8.946337 -5.195799 -10 -2.652031 -10 0 
C -10 2.652031 -8.946337 5.195799 -7.071068 7.071068 
C -5.195799 8.946337 -2.652031 10 0 10 
z
" id="m34fcfd89a3" style="stroke:#00a4ff;stroke-opacity:0.263846;"/>
    </defs>
    <g clip-path="url(#p152b2f5873)">
     <use style="fill:#00a4ff;fill-opacity:0.263846;stroke:#00a4ff;stroke-opacity:0.263846;" x="447.891618" xlink:href="#m34fcfd89a3" y="256.507516"/>
    </g>
   </g>
   <g id="line2d_77">
    <defs>
     <path d="M 0 10 
C 2.652031 10 5.195799 8.946337 7.071068 7.071068 
C 8.946337 5.195799 10 2.652031 10 0 
C 10 -2.652031 8.946337 -5.195799 7.071068 -7.071068 
C 5.195799 -8.946337 2.652031 -10 0 -10 
C -2.652031 -10 -5.195799 -8.946337 -7.071068 -7.071068 
C -8.946337 -5.195799 -10 -2.652031 -10 0 
C -10 2.652031 -8.946337 5.195799 -7.071068 7.071068 
C -5.195799 8.946337 -2.652031 10 0 10 
z
" id="mac656b10c2" style="stroke:#00a4ff;stroke-opacity:0.238462;"/>
    </defs>
    <g clip-path="url(#p152b2f5873)">
     <use style="fill:#00a4ff;fill-opacity:0.238462;stroke:#00a4ff;stroke-opacity:0.238462;" x="447.389418" xlink:href="#mac656b10c2" y="259.354004"/>
    </g>
   </g>
   <g id="line2d_78">
    <defs>
     <path d="M 0 10 
C 2.652031 10 5.195799 8.946337 7.071068 7.071068 
C 8.946337 5.195799 10 2.652031 10 0 
C 10 -2.652031 8.946337 -5.195799 7.071068 -7.071068 
C 5.195799 -8.946337 2.652031 -10 0 -10 
C -2.652031 -10 -5.195799 -8.946337 -7.071068 -7.071068 
C -8.946337 -5.195799 -10 -2.652031 -10 0 
C -10 2.652031 -8.946337 5.195799 -7.071068 7.071068 
C -5.195799 8.946337 -2.652031 10 0 10 
z
" id="maca7b04d5e" style="stroke:#00a4ff;stroke-opacity:0.213077;"/>
    </defs>
    <g clip-path="url(#p152b2f5873)">
     <use style="fill:#00a4ff;fill-opacity:0.213077;stroke:#00a4ff;stroke-opacity:0.213077;" x="448.7134" xlink:href="#maca7b04d5e" y="254.293582"/>
    </g>
   </g>
   <g id="line2d_79">
    <defs>
     <path d="M 0 10 
C 2.652031 10 5.195799 8.946337 7.071068 7.071068 
C 8.946337 5.195799 10 2.652031 10 0 
C 10 -2.652031 8.946337 -5.195799 7.071068 -7.071068 
C 5.195799 -8.946337 2.652031 -10 0 -10 
C -2.652031 -10 -5.195799 -8.946337 -7.071068 -7.071068 
C -8.946337 -5.195799 -10 -2.652031 -10 0 
C -10 2.652031 -8.946337 5.195799 -7.071068 7.071068 
C -5.195799 8.946337 -2.652031 10 0 10 
z
" id="md6477dbc23" style="stroke:#00a4ff;stroke-opacity:0.187692;"/>
    </defs>
    <g clip-path="url(#p152b2f5873)">
     <use style="fill:#00a4ff;fill-opacity:0.187692;stroke:#00a4ff;stroke-opacity:0.187692;" x="449.763455" xlink:href="#md6477dbc23" y="255.75636"/>
    </g>
   </g>
   <g id="line2d_80">
    <defs>
     <path d="M 0 10 
C 2.652031 10 5.195799 8.946337 7.071068 7.071068 
C 8.946337 5.195799 10 2.652031 10 0 
C 10 -2.652031 8.946337 -5.195799 7.071068 -7.071068 
C 5.195799 -8.946337 2.652031 -10 0 -10 
C -2.652031 -10 -5.195799 -8.946337 -7.071068 -7.071068 
C -8.946337 -5.195799 -10 -2.652031 -10 0 
C -10 2.652031 -8.946337 5.195799 -7.071068 7.071068 
C -5.195799 8.946337 -2.652031 10 0 10 
z
" id="mea365a70ca" style="stroke:#00a4ff;stroke-opacity:0.162308;"/>
    </defs>
    <g clip-path="url(#p152b2f5873)">
     <use style="fill:#00a4ff;fill-opacity:0.162308;stroke:#00a4ff;stroke-opacity:0.162308;" x="447.298109" xlink:href="#mea365a70ca" y="251.684302"/>
    </g>
   </g>
   <g id="line2d_81">
    <defs>
     <path d="M 0 10 
C 2.652031 10 5.195799 8.946337 7.071068 7.071068 
C 8.946337 5.195799 10 2.652031 10 0 
C 10 -2.652031 8.946337 -5.195799 7.071068 -7.071068 
C 5.195799 -8.946337 2.652031 -10 0 -10 
C -2.652031 -10 -5.195799 -8.946337 -7.071068 -7.071068 
C -8.946337 -5.195799 -10 -2.652031 -10 0 
C -10 2.652031 -8.946337 5.195799 -7.071068 7.071068 
C -5.195799 8.946337 -2.652031 10 0 10 
z
" id="m7ce9df5271" style="stroke:#00a4ff;stroke-opacity:0.136923;"/>
    </defs>
    <g clip-path="url(#p152b2f5873)">
     <use style="fill:#00a4ff;fill-opacity:0.136923;stroke:#00a4ff;stroke-opacity:0.136923;" x="446.111091" xlink:href="#m7ce9df5271" y="252.791269"/>
    </g>
   </g>
   <g id="line2d_82">
    <defs>
     <path d="M 0 10 
C 2.652031 10 5.195799 8.946337 7.071068 7.071068 
C 8.946337 5.195799 10 2.652031 10 0 
C 10 -2.652031 8.946337 -5.195799 7.071068 -7.071068 
C 5.195799 -8.946337 2.652031 -10 0 -10 
C -2.652031 -10 -5.195799 -8.946337 -7.071068 -7.071068 
C -8.946337 -5.195799 -10 -2.652031 -10 0 
C -10 2.652031 -8.946337 5.195799 -7.071068 7.071068 
C -5.195799 8.946337 -2.652031 10 0 10 
z
" id="mc8067faf7d" style="stroke:#00a4ff;stroke-opacity:0.111538;"/>
    </defs>
    <g clip-path="url(#p152b2f5873)">
     <use style="fill:#00a4ff;fill-opacity:0.111538;stroke:#00a4ff;stroke-opacity:0.111538;" x="446.156745" xlink:href="#mc8067faf7d" y="255.242411"/>
    </g>
   </g>
   <g id="line2d_83">
    <defs>
     <path d="M 0 10 
C 2.652031 10 5.195799 8.946337 7.071068 7.071068 
C 8.946337 5.195799 10 2.652031 10 0 
C 10 -2.652031 8.946337 -5.195799 7.071068 -7.071068 
C 5.195799 -8.946337 2.652031 -10 0 -10 
C -2.652031 -10 -5.195799 -8.946337 -7.071068 -7.071068 
C -8.946337 -5.195799 -10 -2.652031 -10 0 
C -10 2.652031 -8.946337 5.195799 -7.071068 7.071068 
C -5.195799 8.946337 -2.652031 10 0 10 
z
" id="me5b90a6eec" style="stroke:#00a4ff;stroke-opacity:0.086154;"/>
    </defs>
    <g clip-path="url(#p152b2f5873)">
     <use style="fill:#00a4ff;fill-opacity:0.086154;stroke:#00a4ff;stroke-opacity:0.086154;" x="447.2068" xlink:href="#me5b90a6eec" y="248.877349"/>
    </g>
   </g>
   <g id="line2d_84">
    <defs>
     <path d="M 0 10 
C 2.652031 10 5.195799 8.946337 7.071068 7.071068 
C 8.946337 5.195799 10 2.652031 10 0 
C 10 -2.652031 8.946337 -5.195799 7.071068 -7.071068 
C 5.195799 -8.946337 2.652031 -10 0 -10 
C -2.652031 -10 -5.195799 -8.946337 -7.071068 -7.071068 
C -8.946337 -5.195799 -10 -2.652031 -10 0 
C -10 2.652031 -8.946337 5.195799 -7.071068 7.071068 
C -5.195799 8.946337 -2.652031 10 0 10 
z
" id="mde2ae8fcfe" style="stroke:#00a4ff;stroke-opacity:0.060769;"/>
    </defs>
    <g clip-path="url(#p152b2f5873)">
     <use style="fill:#00a4ff;fill-opacity:0.060769;stroke:#00a4ff;stroke-opacity:0.060769;" x="448.256855" xlink:href="#mde2ae8fcfe" y="256.230775"/>
    </g>
   </g>
   <g id="line2d_85">
    <defs>
     <path d="M 0 10 
C 2.652031 10 5.195799 8.946337 7.071068 7.071068 
C 8.946337 5.195799 10 2.652031 10 0 
C 10 -2.652031 8.946337 -5.195799 7.071068 -7.071068 
C 5.195799 -8.946337 2.652031 -10 0 -10 
C -2.652031 -10 -5.195799 -8.946337 -7.071068 -7.071068 
C -8.946337 -5.195799 -10 -2.652031 -10 0 
C -10 2.652031 -8.946337 5.195799 -7.071068 7.071068 
C -5.195799 8.946337 -2.652031 10 0 10 
z
" id="m99a841b3b0" style="stroke:#00a4ff;stroke-opacity:0.035385;"/>
    </defs>
    <g clip-path="url(#p152b2f5873)">
     <use style="fill:#00a4ff;fill-opacity:0.035385;stroke:#00a4ff;stroke-opacity:0.035385;" x="447.663345" xlink:href="#m99a841b3b0" y="253.977305"/>
    </g>
   </g>
   <g id="line2d_86">
    <defs>
     <path d="M 0 10 
C 2.652031 10 5.195799 8.946337 7.071068 7.071068 
C 8.946337 5.195799 10 2.652031 10 0 
C 10 -2.652031 8.946337 -5.195799 7.071068 -7.071068 
C 5.195799 -8.946337 2.652031 -10 0 -10 
C -2.652031 -10 -5.195799 -8.946337 -7.071068 -7.071068 
C -8.946337 -5.195799 -10 -2.652031 -10 0 
C -10 2.652031 -8.946337 5.195799 -7.071068 7.071068 
C -5.195799 8.946337 -2.652031 10 0 10 
z
" id="m81600fd525" style="stroke:#00a4ff;stroke-opacity:0.01;"/>
    </defs>
    <g clip-path="url(#p152b2f5873)">
     <use style="fill:#00a4ff;fill-opacity:0.01;stroke:#00a4ff;stroke-opacity:0.01;" x="448.348164" xlink:href="#m81600fd525" y="258.919124"/>
    </g>
   </g>
   <g id="line2d_87">
    <path clip-path="url(#p152b2f5873)" d="M 184.282273 487.349727 
L 640.827727 92.004273 
" style="fill:none;stroke:#000000;stroke-linecap:square;stroke-width:4;"/>
   </g>
   <g id="patch_3">
    <path d="M 161.455 507.117 
L 161.455 72.237 
" style="fill:none;stroke:#000000;stroke-linecap:square;stroke-linejoin:miter;stroke-width:2;"/>
   </g>
   <g id="patch_4">
    <path d="M 663.655 507.117 
L 663.655 72.237 
" style="fill:none;stroke:#000000;stroke-linecap:square;stroke-linejoin:miter;stroke-width:2;"/>
   </g>
   <g id="patch_5">
    <path d="M 161.455 507.117 
L 663.655 507.117 
" style="fill:none;stroke:#000000;stroke-linecap:square;stroke-linejoin:miter;stroke-width:2;"/>
   </g>
   <g id="patch_6">
    <path d="M 161.455 72.237 
L 663.655 72.237 
" style="fill:none;stroke:#000000;stroke-linecap:square;stroke-linejoin:miter;stroke-width:2;"/>
   </g>
   <g id="text_8">
    <!-- Mean -->
    <g transform="translate(321.0055 58.2615)scale(0.672 -0.672)">
     <defs>
      <path d="M 9.8125 72.90625 
L 24.515625 72.90625 
L 43.109375 23.296875 
L 61.8125 72.90625 
L 76.515625 72.90625 
L 76.515625 0 
L 66.890625 0 
L 66.890625 64.015625 
L 48.09375 14.015625 
L 38.1875 14.015625 
L 19.390625 64.015625 
L 19.390625 0 
L 9.8125 0 
z
" id="DejaVuSans-77"/>
      <path d="M 34.28125 27.484375 
Q 23.390625 27.484375 19.1875 25 
Q 14.984375 22.515625 14.984375 16.5 
Q 14.984375 11.71875 18.140625 8.90625 
Q 21.296875 6.109375 26.703125 6.109375 
Q 34.1875 6.109375 38.703125 11.40625 
Q 43.21875 16.703125 43.21875 25.484375 
L 43.21875 27.484375 
z
M 52.203125 31.203125 
L 52.203125 0 
L 43.21875 0 
L 43.21875 8.296875 
Q 40.140625 3.328125 35.546875 0.953125 
Q 30.953125 -1.421875 24.3125 -1.421875 
Q 15.921875 -1.421875 10.953125 3.296875 
Q 6 8.015625 6 15.921875 
Q 6 25.140625 12.171875 29.828125 
Q 18.359375 34.515625 30.609375 34.515625 
L 43.21875 34.515625 
L 43.21875 35.40625 
Q 43.21875 41.609375 39.140625 45 
Q 35.0625 48.390625 27.6875 48.390625 
Q 23 48.390625 18.546875 47.265625 
Q 14.109375 46.140625 10.015625 43.890625 
L 10.015625 52.203125 
Q 14.9375 54.109375 19.578125 55.046875 
Q 24.21875 56 28.609375 56 
Q 40.484375 56 46.34375 49.84375 
Q 52.203125 43.703125 52.203125 31.203125 
z
" id="DejaVuSans-97"/>
      <path d="M 54.890625 33.015625 
L 54.890625 0 
L 45.90625 0 
L 45.90625 32.71875 
Q 45.90625 40.484375 42.875 44.328125 
Q 39.84375 48.1875 33.796875 48.1875 
Q 26.515625 48.1875 22.3125 43.546875 
Q 18.109375 38.921875 18.109375 30.90625 
L 18.109375 0 
L 9.078125 0 
L 9.078125 54.6875 
L 18.109375 54.6875 
L 18.109375 46.1875 
Q 21.34375 51.125 25.703125 53.5625 
Q 30.078125 56 35.796875 56 
Q 45.21875 56 50.046875 50.171875 
Q 54.890625 44.34375 54.890625 33.015625 
z
" id="DejaVuSans-110"/>
     </defs>
     <use xlink:href="#DejaVuSans-77"/>
     <use x="86.279297" xlink:href="#DejaVuSans-101"/>
     <use x="147.802734" xlink:href="#DejaVuSans-97"/>
     <use x="209.082031" xlink:href="#DejaVuSans-110"/>
    </g>
   </g>
   <g id="legend_1">
    <g id="patch_7">
     <path d="M 196.455 264.119812 
L 387.455 264.119812 
Q 397.455 264.119812 397.455 254.119812 
L 397.455 107.237 
Q 397.455 97.237 387.455 97.237 
L 196.455 97.237 
Q 186.455 97.237 186.455 107.237 
L 186.455 254.119812 
Q 186.455 264.119812 196.455 264.119812 
z
" style="fill:#ffffff;opacity:0.8;stroke:#cccccc;stroke-linejoin:miter;"/>
    </g>
    <g id="line2d_88"/>
    <g id="line2d_89">
     <g>
      <use style="fill:#000080;stroke:#000080;" x="256.455" xlink:href="#m18fdf991b7" y="137.729187"/>
     </g>
    </g>
    <g id="text_9">
     <!-- $G_x$ -->
     <g transform="translate(316.455 155.229187)scale(0.5 -0.5)">
      <defs>
       <path d="M 54.59375 10.890625 
L 58.40625 29.984375 
L 42.1875 29.984375 
L 43.703125 38.09375 
L 69.578125 38.09375 
L 63.28125 6 
Q 56.78125 2.4375 49.109375 0.5 
Q 41.453125 -1.421875 33.6875 -1.421875 
Q 19.96875 -1.421875 12.234375 6.1875 
Q 4.5 13.8125 4.5 27.390625 
Q 4.5 38.671875 9.203125 48.84375 
Q 13.921875 59.03125 22.21875 65.828125 
Q 27.4375 70.0625 33.640625 72.140625 
Q 39.84375 74.21875 47.40625 74.21875 
Q 54.25 74.21875 60.515625 72.484375 
Q 66.796875 70.75 72.515625 67.28125 
L 70.515625 56.78125 
Q 66.109375 61.375 60.203125 63.796875 
Q 54.296875 66.21875 47.609375 66.21875 
Q 39.84375 66.21875 33.9375 63.25 
Q 28.03125 60.296875 23.390625 54.109375 
Q 19.4375 48.828125 17.15625 41.671875 
Q 14.890625 34.515625 14.890625 27.09375 
Q 14.890625 16.890625 20.109375 11.734375 
Q 25.34375 6.59375 35.6875 6.59375 
Q 40.875 6.59375 45.703125 7.6875 
Q 50.53125 8.796875 54.59375 10.890625 
z
" id="DejaVuSans-Oblique-71"/>
       <path d="M 60.015625 54.6875 
L 34.90625 27.875 
L 50.296875 0 
L 39.984375 0 
L 28.421875 21.6875 
L 8.296875 0 
L -2.59375 0 
L 24.3125 28.8125 
L 10.015625 54.6875 
L 20.3125 54.6875 
L 30.8125 34.90625 
L 49.125 54.6875 
z
" id="DejaVuSans-Oblique-120"/>
      </defs>
      <use transform="translate(0 0.78125)" xlink:href="#DejaVuSans-Oblique-71"/>
      <use transform="translate(77.490234 -15.625)scale(0.7)" xlink:href="#DejaVuSans-Oblique-120"/>
     </g>
    </g>
    <g id="line2d_90"/>
    <g id="line2d_91">
     <g>
      <use style="fill:#00a4ff;stroke:#00a4ff;" x="256.455" xlink:href="#m1ee8c66e76" y="211.119812"/>
     </g>
    </g>
    <g id="text_10">
     <!-- $G_y$ -->
     <g transform="translate(316.455 228.619812)scale(0.5 -0.5)">
      <defs>
       <path d="M 24.8125 -5.078125 
Q 18.5625 -15.578125 14.625 -18.1875 
Q 10.6875 -20.796875 4.59375 -20.796875 
L -2.484375 -20.796875 
L -0.984375 -13.28125 
L 4.203125 -13.28125 
Q 7.953125 -13.28125 10.59375 -11.234375 
Q 13.234375 -9.1875 16.5 -3.21875 
L 19.28125 2 
L 7.171875 54.6875 
L 16.703125 54.6875 
L 25.78125 12.796875 
L 50.875 54.6875 
L 60.296875 54.6875 
z
" id="DejaVuSans-Oblique-121"/>
      </defs>
      <use transform="translate(0 0.78125)" xlink:href="#DejaVuSans-Oblique-71"/>
      <use transform="translate(77.490234 -15.625)scale(0.7)" xlink:href="#DejaVuSans-Oblique-121"/>
     </g>
    </g>
   </g>
  </g>
 </g>
 <defs>
  <clipPath id="p152b2f5873">
   <rect height="434.88" width="502.2" x="161.455" y="72.237"/>
  </clipPath>
 </defs>
</svg>
