<?xml version="1.0" encoding="utf-8" standalone="no"?>
<!DOCTYPE svg PUBLIC "-//W3C//DTD SVG 1.1//EN"
  "http://www.w3.org/Graphics/SVG/1.1/DTD/svg11.dtd">
<!-- Created with matplotlib (https://matplotlib.org/) -->
<svg height="633.712pt" version="1.1" viewBox="0 0 665.860227 633.712" width="665.860227pt" xmlns="http://www.w3.org/2000/svg" xmlns:xlink="http://www.w3.org/1999/xlink">
 <metadata>
  <rdf:RDF xmlns:cc="http://creativecommons.org/ns#" xmlns:dc="http://purl.org/dc/elements/1.1/" xmlns:rdf="http://www.w3.org/1999/02/22-rdf-syntax-ns#">
   <cc:Work>
    <dc:type rdf:resource="http://purl.org/dc/dcmitype/StillImage"/>
    <dc:date>2023-01-05T11:24:55.224073</dc:date>
    <dc:format>image/svg+xml</dc:format>
    <dc:creator>
     <cc:Agent>
      <dc:title>Matplotlib v3.3.4, https://matplotlib.org/</dc:title>
     </cc:Agent>
    </dc:creator>
   </cc:Work>
  </rdf:RDF>
 </metadata>
 <defs>
  <style type="text/css">*{stroke-linecap:butt;stroke-linejoin:round;}</style>
 </defs>
 <g id="figure_1">
  <g id="patch_1">
   <path d="M 0 633.712 
L 665.860227 633.712 
L 665.860227 0 
L 0 0 
z
" style="fill:#ffffff;"/>
  </g>
  <g id="axes_1">
   <g id="patch_2">
    <path d="M 143.6575 507.117 
L 645.8575 507.117 
L 645.8575 72.237 
L 143.6575 72.237 
z
" style="fill:#ffffff;"/>
   </g>
   <g id="line2d_1">
    <defs>
     <path d="M 0 10 
C 2.652031 10 5.195799 8.946337 7.071068 7.071068 
C 8.946337 5.195799 10 2.652031 10 0 
C 10 -2.652031 8.946337 -5.195799 7.071068 -7.071068 
C 5.195799 -8.946337 2.652031 -10 0 -10 
C -2.652031 -10 -5.195799 -8.946337 -7.071068 -7.071068 
C -8.946337 -5.195799 -10 -2.652031 -10 0 
C -10 2.652031 -8.946337 5.195799 -7.071068 7.071068 
C -5.195799 8.946337 -2.652031 10 0 10 
z
" id="m0a75bf4a11" style="stroke:#b7ff40;"/>
    </defs>
    <g clip-path="url(#p842d91e206)">
     <use style="fill:#b7ff40;stroke:#b7ff40;" x="166.484773" xlink:href="#m0a75bf4a11" y="486.981265"/>
    </g>
   </g>
   <g id="line2d_2">
    <defs>
     <path d="M 0 10 
C 2.652031 10 5.195799 8.946337 7.071068 7.071068 
C 8.946337 5.195799 10 2.652031 10 0 
C 10 -2.652031 8.946337 -5.195799 7.071068 -7.071068 
C 5.195799 -8.946337 2.652031 -10 0 -10 
C -2.652031 -10 -5.195799 -8.946337 -7.071068 -7.071068 
C -8.946337 -5.195799 -10 -2.652031 -10 0 
C -10 2.652031 -8.946337 5.195799 -7.071068 7.071068 
C -5.195799 8.946337 -2.652031 10 0 10 
z
" id="me8d36c08c3" style="stroke:#b7ff40;stroke-opacity:0.974615;"/>
    </defs>
    <g clip-path="url(#p842d91e206)">
     <use style="fill:#b7ff40;fill-opacity:0.974615;stroke:#b7ff40;stroke-opacity:0.974615;" x="449.804099" xlink:href="#me8d36c08c3" y="243.326699"/>
    </g>
   </g>
   <g id="line2d_3">
    <defs>
     <path d="M 0 10 
C 2.652031 10 5.195799 8.946337 7.071068 7.071068 
C 8.946337 5.195799 10 2.652031 10 0 
C 10 -2.652031 8.946337 -5.195799 7.071068 -7.071068 
C 5.195799 -8.946337 2.652031 -10 0 -10 
C -2.652031 -10 -5.195799 -8.946337 -7.071068 -7.071068 
C -8.946337 -5.195799 -10 -2.652031 -10 0 
C -10 2.652031 -8.946337 5.195799 -7.071068 7.071068 
C -5.195799 8.946337 -2.652031 10 0 10 
z
" id="m2df2f5dcd8" style="stroke:#b7ff40;stroke-opacity:0.949231;"/>
    </defs>
    <g clip-path="url(#p842d91e206)">
     <use style="fill:#b7ff40;fill-opacity:0.949231;stroke:#b7ff40;stroke-opacity:0.949231;" x="528.186561" xlink:href="#m2df2f5dcd8" y="180.47626"/>
    </g>
   </g>
   <g id="line2d_4">
    <defs>
     <path d="M 0 10 
C 2.652031 10 5.195799 8.946337 7.071068 7.071068 
C 8.946337 5.195799 10 2.652031 10 0 
C 10 -2.652031 8.946337 -5.195799 7.071068 -7.071068 
C 5.195799 -8.946337 2.652031 -10 0 -10 
C -2.652031 -10 -5.195799 -8.946337 -7.071068 -7.071068 
C -8.946337 -5.195799 -10 -2.652031 -10 0 
C -10 2.652031 -8.946337 5.195799 -7.071068 7.071068 
C -5.195799 8.946337 -2.652031 10 0 10 
z
" id="mdd583afc17" style="stroke:#b7ff40;stroke-opacity:0.923846;"/>
    </defs>
    <g clip-path="url(#p842d91e206)">
     <use style="fill:#b7ff40;fill-opacity:0.923846;stroke:#b7ff40;stroke-opacity:0.923846;" x="522.133682" xlink:href="#mdd583afc17" y="184.934175"/>
    </g>
   </g>
   <g id="line2d_5">
    <defs>
     <path d="M 0 10 
C 2.652031 10 5.195799 8.946337 7.071068 7.071068 
C 8.946337 5.195799 10 2.652031 10 0 
C 10 -2.652031 8.946337 -5.195799 7.071068 -7.071068 
C 5.195799 -8.946337 2.652031 -10 0 -10 
C -2.652031 -10 -5.195799 -8.946337 -7.071068 -7.071068 
C -8.946337 -5.195799 -10 -2.652031 -10 0 
C -10 2.652031 -8.946337 5.195799 -7.071068 7.071068 
C -5.195799 8.946337 -2.652031 10 0 10 
z
" id="mf9d0c8fb99" style="stroke:#b7ff40;stroke-opacity:0.898462;"/>
    </defs>
    <g clip-path="url(#p842d91e206)">
     <use style="fill:#b7ff40;fill-opacity:0.898462;stroke:#b7ff40;stroke-opacity:0.898462;" x="492.744025" xlink:href="#mf9d0c8fb99" y="207.253008"/>
    </g>
   </g>
   <g id="line2d_6">
    <defs>
     <path d="M 0 10 
C 2.652031 10 5.195799 8.946337 7.071068 7.071068 
C 8.946337 5.195799 10 2.652031 10 0 
C 10 -2.652031 8.946337 -5.195799 7.071068 -7.071068 
C 5.195799 -8.946337 2.652031 -10 0 -10 
C -2.652031 -10 -5.195799 -8.946337 -7.071068 -7.071068 
C -8.946337 -5.195799 -10 -2.652031 -10 0 
C -10 2.652031 -8.946337 5.195799 -7.071068 7.071068 
C -5.195799 8.946337 -2.652031 10 0 10 
z
" id="m87eff67682" style="stroke:#b7ff40;stroke-opacity:0.873077;"/>
    </defs>
    <g clip-path="url(#p842d91e206)">
     <use style="fill:#b7ff40;fill-opacity:0.873077;stroke:#b7ff40;stroke-opacity:0.873077;" x="464.951364" xlink:href="#m87eff67682" y="227.640973"/>
    </g>
   </g>
   <g id="line2d_7">
    <defs>
     <path d="M 0 10 
C 2.652031 10 5.195799 8.946337 7.071068 7.071068 
C 8.946337 5.195799 10 2.652031 10 0 
C 10 -2.652031 8.946337 -5.195799 7.071068 -7.071068 
C 5.195799 -8.946337 2.652031 -10 0 -10 
C -2.652031 -10 -5.195799 -8.946337 -7.071068 -7.071068 
C -8.946337 -5.195799 -10 -2.652031 -10 0 
C -10 2.652031 -8.946337 5.195799 -7.071068 7.071068 
C -5.195799 8.946337 -2.652031 10 0 10 
z
" id="m862d4bbd0c" style="stroke:#b7ff40;stroke-opacity:0.847692;"/>
    </defs>
    <g clip-path="url(#p842d91e206)">
     <use style="fill:#b7ff40;fill-opacity:0.847692;stroke:#b7ff40;stroke-opacity:0.847692;" x="445.991944" xlink:href="#m862d4bbd0c" y="239.736171"/>
    </g>
   </g>
   <g id="line2d_8">
    <defs>
     <path d="M 0 10 
C 2.652031 10 5.195799 8.946337 7.071068 7.071068 
C 8.946337 5.195799 10 2.652031 10 0 
C 10 -2.652031 8.946337 -5.195799 7.071068 -7.071068 
C 5.195799 -8.946337 2.652031 -10 0 -10 
C -2.652031 -10 -5.195799 -8.946337 -7.071068 -7.071068 
C -8.946337 -5.195799 -10 -2.652031 -10 0 
C -10 2.652031 -8.946337 5.195799 -7.071068 7.071068 
C -5.195799 8.946337 -2.652031 10 0 10 
z
" id="m540de82143" style="stroke:#b7ff40;stroke-opacity:0.822308;"/>
    </defs>
    <g clip-path="url(#p842d91e206)">
     <use style="fill:#b7ff40;fill-opacity:0.822308;stroke:#b7ff40;stroke-opacity:0.822308;" x="434.197549" xlink:href="#m540de82143" y="250.996401"/>
    </g>
   </g>
   <g id="line2d_9">
    <defs>
     <path d="M 0 10 
C 2.652031 10 5.195799 8.946337 7.071068 7.071068 
C 8.946337 5.195799 10 2.652031 10 0 
C 10 -2.652031 8.946337 -5.195799 7.071068 -7.071068 
C 5.195799 -8.946337 2.652031 -10 0 -10 
C -2.652031 -10 -5.195799 -8.946337 -7.071068 -7.071068 
C -8.946337 -5.195799 -10 -2.652031 -10 0 
C -10 2.652031 -8.946337 5.195799 -7.071068 7.071068 
C -5.195799 8.946337 -2.652031 10 0 10 
z
" id="m56586840cb" style="stroke:#b7ff40;stroke-opacity:0.796923;"/>
    </defs>
    <g clip-path="url(#p842d91e206)">
     <use style="fill:#b7ff40;fill-opacity:0.796923;stroke:#b7ff40;stroke-opacity:0.796923;" x="427.302799" xlink:href="#m56586840cb" y="255.91608"/>
    </g>
   </g>
   <g id="line2d_10">
    <defs>
     <path d="M 0 10 
C 2.652031 10 5.195799 8.946337 7.071068 7.071068 
C 8.946337 5.195799 10 2.652031 10 0 
C 10 -2.652031 8.946337 -5.195799 7.071068 -7.071068 
C 5.195799 -8.946337 2.652031 -10 0 -10 
C -2.652031 -10 -5.195799 -8.946337 -7.071068 -7.071068 
C -8.946337 -5.195799 -10 -2.652031 -10 0 
C -10 2.652031 -8.946337 5.195799 -7.071068 7.071068 
C -5.195799 8.946337 -2.652031 10 0 10 
z
" id="ma164b76236" style="stroke:#b7ff40;stroke-opacity:0.771538;"/>
    </defs>
    <g clip-path="url(#p842d91e206)">
     <use style="fill:#b7ff40;fill-opacity:0.771538;stroke:#b7ff40;stroke-opacity:0.771538;" x="423.621217" xlink:href="#ma164b76236" y="264.444472"/>
    </g>
   </g>
   <g id="line2d_11">
    <defs>
     <path d="M 0 10 
C 2.652031 10 5.195799 8.946337 7.071068 7.071068 
C 8.946337 5.195799 10 2.652031 10 0 
C 10 -2.652031 8.946337 -5.195799 7.071068 -7.071068 
C 5.195799 -8.946337 2.652031 -10 0 -10 
C -2.652031 -10 -5.195799 -8.946337 -7.071068 -7.071068 
C -8.946337 -5.195799 -10 -2.652031 -10 0 
C -10 2.652031 -8.946337 5.195799 -7.071068 7.071068 
C -5.195799 8.946337 -2.652031 10 0 10 
z
" id="m2c280cd935" style="stroke:#b7ff40;stroke-opacity:0.746154;"/>
    </defs>
    <g clip-path="url(#p842d91e206)">
     <use style="fill:#b7ff40;fill-opacity:0.746154;stroke:#b7ff40;stroke-opacity:0.746154;" x="424.031195" xlink:href="#m2c280cd935" y="259.374562"/>
    </g>
   </g>
   <g id="line2d_12">
    <defs>
     <path d="M 0 10 
C 2.652031 10 5.195799 8.946337 7.071068 7.071068 
C 8.946337 5.195799 10 2.652031 10 0 
C 10 -2.652031 8.946337 -5.195799 7.071068 -7.071068 
C 5.195799 -8.946337 2.652031 -10 0 -10 
C -2.652031 -10 -5.195799 -8.946337 -7.071068 -7.071068 
C -8.946337 -5.195799 -10 -2.652031 -10 0 
C -10 2.652031 -8.946337 5.195799 -7.071068 7.071068 
C -5.195799 8.946337 -2.652031 10 0 10 
z
" id="mf6e02d7997" style="stroke:#b7ff40;stroke-opacity:0.720769;"/>
    </defs>
    <g clip-path="url(#p842d91e206)">
     <use style="fill:#b7ff40;fill-opacity:0.720769;stroke:#b7ff40;stroke-opacity:0.720769;" x="424.371777" xlink:href="#mf6e02d7997" y="263.60713"/>
    </g>
   </g>
   <g id="line2d_13">
    <defs>
     <path d="M 0 10 
C 2.652031 10 5.195799 8.946337 7.071068 7.071068 
C 8.946337 5.195799 10 2.652031 10 0 
C 10 -2.652031 8.946337 -5.195799 7.071068 -7.071068 
C 5.195799 -8.946337 2.652031 -10 0 -10 
C -2.652031 -10 -5.195799 -8.946337 -7.071068 -7.071068 
C -8.946337 -5.195799 -10 -2.652031 -10 0 
C -10 2.652031 -8.946337 5.195799 -7.071068 7.071068 
C -5.195799 8.946337 -2.652031 10 0 10 
z
" id="m2e78b71695" style="stroke:#b7ff40;stroke-opacity:0.695385;"/>
    </defs>
    <g clip-path="url(#p842d91e206)">
     <use style="fill:#b7ff40;fill-opacity:0.695385;stroke:#b7ff40;stroke-opacity:0.695385;" x="424.632008" xlink:href="#m2e78b71695" y="260.714783"/>
    </g>
   </g>
   <g id="line2d_14">
    <defs>
     <path d="M 0 10 
C 2.652031 10 5.195799 8.946337 7.071068 7.071068 
C 8.946337 5.195799 10 2.652031 10 0 
C 10 -2.652031 8.946337 -5.195799 7.071068 -7.071068 
C 5.195799 -8.946337 2.652031 -10 0 -10 
C -2.652031 -10 -5.195799 -8.946337 -7.071068 -7.071068 
C -8.946337 -5.195799 -10 -2.652031 -10 0 
C -10 2.652031 -8.946337 5.195799 -7.071068 7.071068 
C -5.195799 8.946337 -2.652031 10 0 10 
z
" id="m60f81befd8" style="stroke:#b7ff40;stroke-opacity:0.67;"/>
    </defs>
    <g clip-path="url(#p842d91e206)">
     <use style="fill:#b7ff40;fill-opacity:0.67;stroke:#b7ff40;stroke-opacity:0.67;" x="424.657575" xlink:href="#m60f81befd8" y="254.653346"/>
    </g>
   </g>
   <g id="line2d_15">
    <defs>
     <path d="M 0 10 
C 2.652031 10 5.195799 8.946337 7.071068 7.071068 
C 8.946337 5.195799 10 2.652031 10 0 
C 10 -2.652031 8.946337 -5.195799 7.071068 -7.071068 
C 5.195799 -8.946337 2.652031 -10 0 -10 
C -2.652031 -10 -5.195799 -8.946337 -7.071068 -7.071068 
C -8.946337 -5.195799 -10 -2.652031 -10 0 
C -10 2.652031 -8.946337 5.195799 -7.071068 7.071068 
C -5.195799 8.946337 -2.652031 10 0 10 
z
" id="me6a8e57131" style="stroke:#b7ff40;stroke-opacity:0.644615;"/>
    </defs>
    <g clip-path="url(#p842d91e206)">
     <use style="fill:#b7ff40;fill-opacity:0.644615;stroke:#b7ff40;stroke-opacity:0.644615;" x="423.337245" xlink:href="#me6a8e57131" y="257.425509"/>
    </g>
   </g>
   <g id="line2d_16">
    <defs>
     <path d="M 0 10 
C 2.652031 10 5.195799 8.946337 7.071068 7.071068 
C 8.946337 5.195799 10 2.652031 10 0 
C 10 -2.652031 8.946337 -5.195799 7.071068 -7.071068 
C 5.195799 -8.946337 2.652031 -10 0 -10 
C -2.652031 -10 -5.195799 -8.946337 -7.071068 -7.071068 
C -8.946337 -5.195799 -10 -2.652031 -10 0 
C -10 2.652031 -8.946337 5.195799 -7.071068 7.071068 
C -5.195799 8.946337 -2.652031 10 0 10 
z
" id="m8cf2b6270b" style="stroke:#b7ff40;stroke-opacity:0.619231;"/>
    </defs>
    <g clip-path="url(#p842d91e206)">
     <use style="fill:#b7ff40;fill-opacity:0.619231;stroke:#b7ff40;stroke-opacity:0.619231;" x="422.343803" xlink:href="#m8cf2b6270b" y="250.993238"/>
    </g>
   </g>
   <g id="line2d_17">
    <defs>
     <path d="M 0 10 
C 2.652031 10 5.195799 8.946337 7.071068 7.071068 
C 8.946337 5.195799 10 2.652031 10 0 
C 10 -2.652031 8.946337 -5.195799 7.071068 -7.071068 
C 5.195799 -8.946337 2.652031 -10 0 -10 
C -2.652031 -10 -5.195799 -8.946337 -7.071068 -7.071068 
C -8.946337 -5.195799 -10 -2.652031 -10 0 
C -10 2.652031 -8.946337 5.195799 -7.071068 7.071068 
C -5.195799 8.946337 -2.652031 10 0 10 
z
" id="mb16fd55e93" style="stroke:#b7ff40;stroke-opacity:0.593846;"/>
    </defs>
    <g clip-path="url(#p842d91e206)">
     <use style="fill:#b7ff40;fill-opacity:0.593846;stroke:#b7ff40;stroke-opacity:0.593846;" x="423.321723" xlink:href="#mb16fd55e93" y="257.645321"/>
    </g>
   </g>
   <g id="line2d_18">
    <defs>
     <path d="M 0 10 
C 2.652031 10 5.195799 8.946337 7.071068 7.071068 
C 8.946337 5.195799 10 2.652031 10 0 
C 10 -2.652031 8.946337 -5.195799 7.071068 -7.071068 
C 5.195799 -8.946337 2.652031 -10 0 -10 
C -2.652031 -10 -5.195799 -8.946337 -7.071068 -7.071068 
C -8.946337 -5.195799 -10 -2.652031 -10 0 
C -10 2.652031 -8.946337 5.195799 -7.071068 7.071068 
C -5.195799 8.946337 -2.652031 10 0 10 
z
" id="m7538930743" style="stroke:#b7ff40;stroke-opacity:0.568462;"/>
    </defs>
    <g clip-path="url(#p842d91e206)">
     <use style="fill:#b7ff40;fill-opacity:0.568462;stroke:#b7ff40;stroke-opacity:0.568462;" x="424.516959" xlink:href="#m7538930743" y="257.589182"/>
    </g>
   </g>
   <g id="line2d_19">
    <defs>
     <path d="M 0 10 
C 2.652031 10 5.195799 8.946337 7.071068 7.071068 
C 8.946337 5.195799 10 2.652031 10 0 
C 10 -2.652031 8.946337 -5.195799 7.071068 -7.071068 
C 5.195799 -8.946337 2.652031 -10 0 -10 
C -2.652031 -10 -5.195799 -8.946337 -7.071068 -7.071068 
C -8.946337 -5.195799 -10 -2.652031 -10 0 
C -10 2.652031 -8.946337 5.195799 -7.071068 7.071068 
C -5.195799 8.946337 -2.652031 10 0 10 
z
" id="m78b0ccb715" style="stroke:#b7ff40;stroke-opacity:0.543077;"/>
    </defs>
    <g clip-path="url(#p842d91e206)">
     <use style="fill:#b7ff40;fill-opacity:0.543077;stroke:#b7ff40;stroke-opacity:0.543077;" x="426.167827" xlink:href="#m78b0ccb715" y="257.550438"/>
    </g>
   </g>
   <g id="line2d_20">
    <defs>
     <path d="M 0 10 
C 2.652031 10 5.195799 8.946337 7.071068 7.071068 
C 8.946337 5.195799 10 2.652031 10 0 
C 10 -2.652031 8.946337 -5.195799 7.071068 -7.071068 
C 5.195799 -8.946337 2.652031 -10 0 -10 
C -2.652031 -10 -5.195799 -8.946337 -7.071068 -7.071068 
C -8.946337 -5.195799 -10 -2.652031 -10 0 
C -10 2.652031 -8.946337 5.195799 -7.071068 7.071068 
C -5.195799 8.946337 -2.652031 10 0 10 
z
" id="m389592c78d" style="stroke:#b7ff40;stroke-opacity:0.517692;"/>
    </defs>
    <g clip-path="url(#p842d91e206)">
     <use style="fill:#b7ff40;fill-opacity:0.517692;stroke:#b7ff40;stroke-opacity:0.517692;" x="425.997992" xlink:href="#m389592c78d" y="260.197671"/>
    </g>
   </g>
   <g id="line2d_21">
    <defs>
     <path d="M 0 10 
C 2.652031 10 5.195799 8.946337 7.071068 7.071068 
C 8.946337 5.195799 10 2.652031 10 0 
C 10 -2.652031 8.946337 -5.195799 7.071068 -7.071068 
C 5.195799 -8.946337 2.652031 -10 0 -10 
C -2.652031 -10 -5.195799 -8.946337 -7.071068 -7.071068 
C -8.946337 -5.195799 -10 -2.652031 -10 0 
C -10 2.652031 -8.946337 5.195799 -7.071068 7.071068 
C -5.195799 8.946337 -2.652031 10 0 10 
z
" id="m387ae0ff38" style="stroke:#b7ff40;stroke-opacity:0.492308;"/>
    </defs>
    <g clip-path="url(#p842d91e206)">
     <use style="fill:#b7ff40;fill-opacity:0.492308;stroke:#b7ff40;stroke-opacity:0.492308;" x="425.395352" xlink:href="#m387ae0ff38" y="256.758956"/>
    </g>
   </g>
   <g id="line2d_22">
    <defs>
     <path d="M 0 10 
C 2.652031 10 5.195799 8.946337 7.071068 7.071068 
C 8.946337 5.195799 10 2.652031 10 0 
C 10 -2.652031 8.946337 -5.195799 7.071068 -7.071068 
C 5.195799 -8.946337 2.652031 -10 0 -10 
C -2.652031 -10 -5.195799 -8.946337 -7.071068 -7.071068 
C -8.946337 -5.195799 -10 -2.652031 -10 0 
C -10 2.652031 -8.946337 5.195799 -7.071068 7.071068 
C -5.195799 8.946337 -2.652031 10 0 10 
z
" id="mac20491db7" style="stroke:#b7ff40;stroke-opacity:0.466923;"/>
    </defs>
    <g clip-path="url(#p842d91e206)">
     <use style="fill:#b7ff40;fill-opacity:0.466923;stroke:#b7ff40;stroke-opacity:0.466923;" x="425.559709" xlink:href="#mac20491db7" y="260.857898"/>
    </g>
   </g>
   <g id="line2d_23">
    <defs>
     <path d="M 0 10 
C 2.652031 10 5.195799 8.946337 7.071068 7.071068 
C 8.946337 5.195799 10 2.652031 10 0 
C 10 -2.652031 8.946337 -5.195799 7.071068 -7.071068 
C 5.195799 -8.946337 2.652031 -10 0 -10 
C -2.652031 -10 -5.195799 -8.946337 -7.071068 -7.071068 
C -8.946337 -5.195799 -10 -2.652031 -10 0 
C -10 2.652031 -8.946337 5.195799 -7.071068 7.071068 
C -5.195799 8.946337 -2.652031 10 0 10 
z
" id="m4fbd27f19d" style="stroke:#b7ff40;stroke-opacity:0.441538;"/>
    </defs>
    <g clip-path="url(#p842d91e206)">
     <use style="fill:#b7ff40;fill-opacity:0.441538;stroke:#b7ff40;stroke-opacity:0.441538;" x="424.779016" xlink:href="#m4fbd27f19d" y="266.168969"/>
    </g>
   </g>
   <g id="line2d_24">
    <defs>
     <path d="M 0 10 
C 2.652031 10 5.195799 8.946337 7.071068 7.071068 
C 8.946337 5.195799 10 2.652031 10 0 
C 10 -2.652031 8.946337 -5.195799 7.071068 -7.071068 
C 5.195799 -8.946337 2.652031 -10 0 -10 
C -2.652031 -10 -5.195799 -8.946337 -7.071068 -7.071068 
C -8.946337 -5.195799 -10 -2.652031 -10 0 
C -10 2.652031 -8.946337 5.195799 -7.071068 7.071068 
C -5.195799 8.946337 -2.652031 10 0 10 
z
" id="md852cefda2" style="stroke:#b7ff40;stroke-opacity:0.416154;"/>
    </defs>
    <g clip-path="url(#p842d91e206)">
     <use style="fill:#b7ff40;fill-opacity:0.416154;stroke:#b7ff40;stroke-opacity:0.416154;" x="425.546925" xlink:href="#md852cefda2" y="263.169087"/>
    </g>
   </g>
   <g id="line2d_25">
    <defs>
     <path d="M 0 10 
C 2.652031 10 5.195799 8.946337 7.071068 7.071068 
C 8.946337 5.195799 10 2.652031 10 0 
C 10 -2.652031 8.946337 -5.195799 7.071068 -7.071068 
C 5.195799 -8.946337 2.652031 -10 0 -10 
C -2.652031 -10 -5.195799 -8.946337 -7.071068 -7.071068 
C -8.946337 -5.195799 -10 -2.652031 -10 0 
C -10 2.652031 -8.946337 5.195799 -7.071068 7.071068 
C -5.195799 8.946337 -2.652031 10 0 10 
z
" id="m7e0313dc58" style="stroke:#b7ff40;stroke-opacity:0.390769;"/>
    </defs>
    <g clip-path="url(#p842d91e206)">
     <use style="fill:#b7ff40;fill-opacity:0.390769;stroke:#b7ff40;stroke-opacity:0.390769;" x="425.558796" xlink:href="#m7e0313dc58" y="261.179709"/>
    </g>
   </g>
   <g id="line2d_26">
    <defs>
     <path d="M 0 10 
C 2.652031 10 5.195799 8.946337 7.071068 7.071068 
C 8.946337 5.195799 10 2.652031 10 0 
C 10 -2.652031 8.946337 -5.195799 7.071068 -7.071068 
C 5.195799 -8.946337 2.652031 -10 0 -10 
C -2.652031 -10 -5.195799 -8.946337 -7.071068 -7.071068 
C -8.946337 -5.195799 -10 -2.652031 -10 0 
C -10 2.652031 -8.946337 5.195799 -7.071068 7.071068 
C -5.195799 8.946337 -2.652031 10 0 10 
z
" id="md9d49fdec6" style="stroke:#b7ff40;stroke-opacity:0.365385;"/>
    </defs>
    <g clip-path="url(#p842d91e206)">
     <use style="fill:#b7ff40;fill-opacity:0.365385;stroke:#b7ff40;stroke-opacity:0.365385;" x="424.34895" xlink:href="#md9d49fdec6" y="260.169997"/>
    </g>
   </g>
   <g id="line2d_27">
    <defs>
     <path d="M 0 10 
C 2.652031 10 5.195799 8.946337 7.071068 7.071068 
C 8.946337 5.195799 10 2.652031 10 0 
C 10 -2.652031 8.946337 -5.195799 7.071068 -7.071068 
C 5.195799 -8.946337 2.652031 -10 0 -10 
C -2.652031 -10 -5.195799 -8.946337 -7.071068 -7.071068 
C -8.946337 -5.195799 -10 -2.652031 -10 0 
C -10 2.652031 -8.946337 5.195799 -7.071068 7.071068 
C -5.195799 8.946337 -2.652031 10 0 10 
z
" id="m95e6ed020d" style="stroke:#b7ff40;stroke-opacity:0.34;"/>
    </defs>
    <g clip-path="url(#p842d91e206)">
     <use style="fill:#b7ff40;fill-opacity:0.34;stroke:#b7ff40;stroke-opacity:0.34;" x="425.420006" xlink:href="#m95e6ed020d" y="259.208517"/>
    </g>
   </g>
   <g id="line2d_28">
    <defs>
     <path d="M 0 10 
C 2.652031 10 5.195799 8.946337 7.071068 7.071068 
C 8.946337 5.195799 10 2.652031 10 0 
C 10 -2.652031 8.946337 -5.195799 7.071068 -7.071068 
C 5.195799 -8.946337 2.652031 -10 0 -10 
C -2.652031 -10 -5.195799 -8.946337 -7.071068 -7.071068 
C -8.946337 -5.195799 -10 -2.652031 -10 0 
C -10 2.652031 -8.946337 5.195799 -7.071068 7.071068 
C -5.195799 8.946337 -2.652031 10 0 10 
z
" id="m1a50abe3ab" style="stroke:#b7ff40;stroke-opacity:0.314615;"/>
    </defs>
    <g clip-path="url(#p842d91e206)">
     <use style="fill:#b7ff40;fill-opacity:0.314615;stroke:#b7ff40;stroke-opacity:0.314615;" x="426.35775" xlink:href="#m1a50abe3ab" y="258.874054"/>
    </g>
   </g>
   <g id="line2d_29">
    <defs>
     <path d="M 0 10 
C 2.652031 10 5.195799 8.946337 7.071068 7.071068 
C 8.946337 5.195799 10 2.652031 10 0 
C 10 -2.652031 8.946337 -5.195799 7.071068 -7.071068 
C 5.195799 -8.946337 2.652031 -10 0 -10 
C -2.652031 -10 -5.195799 -8.946337 -7.071068 -7.071068 
C -8.946337 -5.195799 -10 -2.652031 -10 0 
C -10 2.652031 -8.946337 5.195799 -7.071068 7.071068 
C -5.195799 8.946337 -2.652031 10 0 10 
z
" id="mc0a7fd7e5e" style="stroke:#b7ff40;stroke-opacity:0.289231;"/>
    </defs>
    <g clip-path="url(#p842d91e206)">
     <use style="fill:#b7ff40;fill-opacity:0.289231;stroke:#b7ff40;stroke-opacity:0.289231;" x="427.252579" xlink:href="#mc0a7fd7e5e" y="260.395344"/>
    </g>
   </g>
   <g id="line2d_30">
    <defs>
     <path d="M 0 10 
C 2.652031 10 5.195799 8.946337 7.071068 7.071068 
C 8.946337 5.195799 10 2.652031 10 0 
C 10 -2.652031 8.946337 -5.195799 7.071068 -7.071068 
C 5.195799 -8.946337 2.652031 -10 0 -10 
C -2.652031 -10 -5.195799 -8.946337 -7.071068 -7.071068 
C -8.946337 -5.195799 -10 -2.652031 -10 0 
C -10 2.652031 -8.946337 5.195799 -7.071068 7.071068 
C -5.195799 8.946337 -2.652031 10 0 10 
z
" id="mf1c3e75b54" style="stroke:#b7ff40;stroke-opacity:0.263846;"/>
    </defs>
    <g clip-path="url(#p842d91e206)">
     <use style="fill:#b7ff40;fill-opacity:0.263846;stroke:#b7ff40;stroke-opacity:0.263846;" x="428.4816" xlink:href="#mf1c3e75b54" y="256.554167"/>
    </g>
   </g>
   <g id="line2d_31">
    <defs>
     <path d="M 0 10 
C 2.652031 10 5.195799 8.946337 7.071068 7.071068 
C 8.946337 5.195799 10 2.652031 10 0 
C 10 -2.652031 8.946337 -5.195799 7.071068 -7.071068 
C 5.195799 -8.946337 2.652031 -10 0 -10 
C -2.652031 -10 -5.195799 -8.946337 -7.071068 -7.071068 
C -8.946337 -5.195799 -10 -2.652031 -10 0 
C -10 2.652031 -8.946337 5.195799 -7.071068 7.071068 
C -5.195799 8.946337 -2.652031 10 0 10 
z
" id="m8022a6b62e" style="stroke:#b7ff40;stroke-opacity:0.238462;"/>
    </defs>
    <g clip-path="url(#p842d91e206)">
     <use style="fill:#b7ff40;fill-opacity:0.238462;stroke:#b7ff40;stroke-opacity:0.238462;" x="429.206594" xlink:href="#m8022a6b62e" y="262.357838"/>
    </g>
   </g>
   <g id="line2d_32">
    <defs>
     <path d="M 0 10 
C 2.652031 10 5.195799 8.946337 7.071068 7.071068 
C 8.946337 5.195799 10 2.652031 10 0 
C 10 -2.652031 8.946337 -5.195799 7.071068 -7.071068 
C 5.195799 -8.946337 2.652031 -10 0 -10 
C -2.652031 -10 -5.195799 -8.946337 -7.071068 -7.071068 
C -8.946337 -5.195799 -10 -2.652031 -10 0 
C -10 2.652031 -8.946337 5.195799 -7.071068 7.071068 
C -5.195799 8.946337 -2.652031 10 0 10 
z
" id="m935c3c57cc" style="stroke:#b7ff40;stroke-opacity:0.213077;"/>
    </defs>
    <g clip-path="url(#p842d91e206)">
     <use style="fill:#b7ff40;fill-opacity:0.213077;stroke:#b7ff40;stroke-opacity:0.213077;" x="429.812886" xlink:href="#m935c3c57cc" y="254.652555"/>
    </g>
   </g>
   <g id="line2d_33">
    <defs>
     <path d="M 0 10 
C 2.652031 10 5.195799 8.946337 7.071068 7.071068 
C 8.946337 5.195799 10 2.652031 10 0 
C 10 -2.652031 8.946337 -5.195799 7.071068 -7.071068 
C 5.195799 -8.946337 2.652031 -10 0 -10 
C -2.652031 -10 -5.195799 -8.946337 -7.071068 -7.071068 
C -8.946337 -5.195799 -10 -2.652031 -10 0 
C -10 2.652031 -8.946337 5.195799 -7.071068 7.071068 
C -5.195799 8.946337 -2.652031 10 0 10 
z
" id="m43b23747ac" style="stroke:#b7ff40;stroke-opacity:0.187692;"/>
    </defs>
    <g clip-path="url(#p842d91e206)">
     <use style="fill:#b7ff40;fill-opacity:0.187692;stroke:#b7ff40;stroke-opacity:0.187692;" x="430.704063" xlink:href="#m43b23747ac" y="255.278783"/>
    </g>
   </g>
   <g id="line2d_34">
    <defs>
     <path d="M 0 10 
C 2.652031 10 5.195799 8.946337 7.071068 7.071068 
C 8.946337 5.195799 10 2.652031 10 0 
C 10 -2.652031 8.946337 -5.195799 7.071068 -7.071068 
C 5.195799 -8.946337 2.652031 -10 0 -10 
C -2.652031 -10 -5.195799 -8.946337 -7.071068 -7.071068 
C -8.946337 -5.195799 -10 -2.652031 -10 0 
C -10 2.652031 -8.946337 5.195799 -7.071068 7.071068 
C -5.195799 8.946337 -2.652031 10 0 10 
z
" id="m5f149d1c52" style="stroke:#b7ff40;stroke-opacity:0.162308;"/>
    </defs>
    <g clip-path="url(#p842d91e206)">
     <use style="fill:#b7ff40;fill-opacity:0.162308;stroke:#b7ff40;stroke-opacity:0.162308;" x="431.138694" xlink:href="#m5f149d1c52" y="251.531698"/>
    </g>
   </g>
   <g id="line2d_35">
    <defs>
     <path d="M 0 10 
C 2.652031 10 5.195799 8.946337 7.071068 7.071068 
C 8.946337 5.195799 10 2.652031 10 0 
C 10 -2.652031 8.946337 -5.195799 7.071068 -7.071068 
C 5.195799 -8.946337 2.652031 -10 0 -10 
C -2.652031 -10 -5.195799 -8.946337 -7.071068 -7.071068 
C -8.946337 -5.195799 -10 -2.652031 -10 0 
C -10 2.652031 -8.946337 5.195799 -7.071068 7.071068 
C -5.195799 8.946337 -2.652031 10 0 10 
z
" id="m252141017d" style="stroke:#b7ff40;stroke-opacity:0.136923;"/>
    </defs>
    <g clip-path="url(#p842d91e206)">
     <use style="fill:#b7ff40;fill-opacity:0.136923;stroke:#b7ff40;stroke-opacity:0.136923;" x="429.763579" xlink:href="#m252141017d" y="254.220048"/>
    </g>
   </g>
   <g id="line2d_36">
    <defs>
     <path d="M 0 10 
C 2.652031 10 5.195799 8.946337 7.071068 7.071068 
C 8.946337 5.195799 10 2.652031 10 0 
C 10 -2.652031 8.946337 -5.195799 7.071068 -7.071068 
C 5.195799 -8.946337 2.652031 -10 0 -10 
C -2.652031 -10 -5.195799 -8.946337 -7.071068 -7.071068 
C -8.946337 -5.195799 -10 -2.652031 -10 0 
C -10 2.652031 -8.946337 5.195799 -7.071068 7.071068 
C -5.195799 8.946337 -2.652031 10 0 10 
z
" id="m2ad2edab77" style="stroke:#b7ff40;stroke-opacity:0.111538;"/>
    </defs>
    <g clip-path="url(#p842d91e206)">
     <use style="fill:#b7ff40;fill-opacity:0.111538;stroke:#b7ff40;stroke-opacity:0.111538;" x="427.951094" xlink:href="#m2ad2edab77" y="255.436921"/>
    </g>
   </g>
   <g id="line2d_37">
    <defs>
     <path d="M 0 10 
C 2.652031 10 5.195799 8.946337 7.071068 7.071068 
C 8.946337 5.195799 10 2.652031 10 0 
C 10 -2.652031 8.946337 -5.195799 7.071068 -7.071068 
C 5.195799 -8.946337 2.652031 -10 0 -10 
C -2.652031 -10 -5.195799 -8.946337 -7.071068 -7.071068 
C -8.946337 -5.195799 -10 -2.652031 -10 0 
C -10 2.652031 -8.946337 5.195799 -7.071068 7.071068 
C -5.195799 8.946337 -2.652031 10 0 10 
z
" id="me3b10f7e88" style="stroke:#b7ff40;stroke-opacity:0.086154;"/>
    </defs>
    <g clip-path="url(#p842d91e206)">
     <use style="fill:#b7ff40;fill-opacity:0.086154;stroke:#b7ff40;stroke-opacity:0.086154;" x="429.170983" xlink:href="#me3b10f7e88" y="250.051525"/>
    </g>
   </g>
   <g id="line2d_38">
    <defs>
     <path d="M 0 10 
C 2.652031 10 5.195799 8.946337 7.071068 7.071068 
C 8.946337 5.195799 10 2.652031 10 0 
C 10 -2.652031 8.946337 -5.195799 7.071068 -7.071068 
C 5.195799 -8.946337 2.652031 -10 0 -10 
C -2.652031 -10 -5.195799 -8.946337 -7.071068 -7.071068 
C -8.946337 -5.195799 -10 -2.652031 -10 0 
C -10 2.652031 -8.946337 5.195799 -7.071068 7.071068 
C -5.195799 8.946337 -2.652031 10 0 10 
z
" id="m047cc22e0d" style="stroke:#b7ff40;stroke-opacity:0.060769;"/>
    </defs>
    <g clip-path="url(#p842d91e206)">
     <use style="fill:#b7ff40;fill-opacity:0.060769;stroke:#b7ff40;stroke-opacity:0.060769;" x="429.143591" xlink:href="#m047cc22e0d" y="256.963745"/>
    </g>
   </g>
   <g id="line2d_39">
    <defs>
     <path d="M 0 10 
C 2.652031 10 5.195799 8.946337 7.071068 7.071068 
C 8.946337 5.195799 10 2.652031 10 0 
C 10 -2.652031 8.946337 -5.195799 7.071068 -7.071068 
C 5.195799 -8.946337 2.652031 -10 0 -10 
C -2.652031 -10 -5.195799 -8.946337 -7.071068 -7.071068 
C -8.946337 -5.195799 -10 -2.652031 -10 0 
C -10 2.652031 -8.946337 5.195799 -7.071068 7.071068 
C -5.195799 8.946337 -2.652031 10 0 10 
z
" id="m0b5dacda49" style="stroke:#b7ff40;stroke-opacity:0.035385;"/>
    </defs>
    <g clip-path="url(#p842d91e206)">
     <use style="fill:#b7ff40;fill-opacity:0.035385;stroke:#b7ff40;stroke-opacity:0.035385;" x="429.350862" xlink:href="#m0b5dacda49" y="254.487301"/>
    </g>
   </g>
   <g id="line2d_40">
    <defs>
     <path d="M 0 10 
C 2.652031 10 5.195799 8.946337 7.071068 7.071068 
C 8.946337 5.195799 10 2.652031 10 0 
C 10 -2.652031 8.946337 -5.195799 7.071068 -7.071068 
C 5.195799 -8.946337 2.652031 -10 0 -10 
C -2.652031 -10 -5.195799 -8.946337 -7.071068 -7.071068 
C -8.946337 -5.195799 -10 -2.652031 -10 0 
C -10 2.652031 -8.946337 5.195799 -7.071068 7.071068 
C -5.195799 8.946337 -2.652031 10 0 10 
z
" id="m26b44cb625" style="stroke:#b7ff40;stroke-opacity:0.01;"/>
    </defs>
    <g clip-path="url(#p842d91e206)">
     <use style="fill:#b7ff40;fill-opacity:0.01;stroke:#b7ff40;stroke-opacity:0.01;" x="429.814712" xlink:href="#m26b44cb625" y="258.962612"/>
    </g>
   </g>
   <g id="matplotlib.axis_1">
    <g id="xtick_1">
     <g id="line2d_41">
      <defs>
       <path d="M 0 0 
L 0 3.5 
" id="m246f3a81ec" style="stroke:#000000;stroke-width:0.8;"/>
      </defs>
      <g>
       <use style="stroke:#000000;stroke-width:0.8;" x="166.484773" xlink:href="#m246f3a81ec" y="507.117"/>
      </g>
     </g>
     <g id="text_1">
      <!-- 0 -->
      <g transform="translate(148.669773 556.66825)scale(0.56 -0.56)">
       <defs>
        <path d="M 31.78125 66.40625 
Q 24.171875 66.40625 20.328125 58.90625 
Q 16.5 51.421875 16.5 36.375 
Q 16.5 21.390625 20.328125 13.890625 
Q 24.171875 6.390625 31.78125 6.390625 
Q 39.453125 6.390625 43.28125 13.890625 
Q 47.125 21.390625 47.125 36.375 
Q 47.125 51.421875 43.28125 58.90625 
Q 39.453125 66.40625 31.78125 66.40625 
z
M 31.78125 74.21875 
Q 44.046875 74.21875 50.515625 64.515625 
Q 56.984375 54.828125 56.984375 36.375 
Q 56.984375 17.96875 50.515625 8.265625 
Q 44.046875 -1.421875 31.78125 -1.421875 
Q 19.53125 -1.421875 13.0625 8.265625 
Q 6.59375 17.96875 6.59375 36.375 
Q 6.59375 54.828125 13.0625 64.515625 
Q 19.53125 74.21875 31.78125 74.21875 
z
" id="DejaVuSans-48"/>
       </defs>
       <use xlink:href="#DejaVuSans-48"/>
      </g>
     </g>
    </g>
    <g id="xtick_2">
     <g id="line2d_42">
      <g>
       <use style="stroke:#000000;stroke-width:0.8;" x="623.030227" xlink:href="#m246f3a81ec" y="507.117"/>
      </g>
     </g>
     <g id="text_2">
      <!-- 50 -->
      <g transform="translate(587.400227 556.66825)scale(0.56 -0.56)">
       <defs>
        <path d="M 10.796875 72.90625 
L 49.515625 72.90625 
L 49.515625 64.59375 
L 19.828125 64.59375 
L 19.828125 46.734375 
Q 21.96875 47.46875 24.109375 47.828125 
Q 26.265625 48.1875 28.421875 48.1875 
Q 40.625 48.1875 47.75 41.5 
Q 54.890625 34.8125 54.890625 23.390625 
Q 54.890625 11.625 47.5625 5.09375 
Q 40.234375 -1.421875 26.90625 -1.421875 
Q 22.3125 -1.421875 17.546875 -0.640625 
Q 12.796875 0.140625 7.71875 1.703125 
L 7.71875 11.625 
Q 12.109375 9.234375 16.796875 8.0625 
Q 21.484375 6.890625 26.703125 6.890625 
Q 35.15625 6.890625 40.078125 11.328125 
Q 45.015625 15.765625 45.015625 23.390625 
Q 45.015625 31 40.078125 35.4375 
Q 35.15625 39.890625 26.703125 39.890625 
Q 22.75 39.890625 18.8125 39.015625 
Q 14.890625 38.140625 10.796875 36.28125 
z
" id="DejaVuSans-53"/>
       </defs>
       <use xlink:href="#DejaVuSans-53"/>
       <use x="63.623047" xlink:href="#DejaVuSans-48"/>
      </g>
     </g>
    </g>
    <g id="text_3">
     <!-- Gillespie -->
     <g transform="translate(275.1275 614.86575)scale(0.56 -0.56)">
      <defs>
       <path d="M 59.515625 10.40625 
L 59.515625 29.984375 
L 43.40625 29.984375 
L 43.40625 38.09375 
L 69.28125 38.09375 
L 69.28125 6.78125 
Q 63.578125 2.734375 56.6875 0.65625 
Q 49.8125 -1.421875 42 -1.421875 
Q 24.90625 -1.421875 15.25 8.5625 
Q 5.609375 18.5625 5.609375 36.375 
Q 5.609375 54.25 15.25 64.234375 
Q 24.90625 74.21875 42 74.21875 
Q 49.125 74.21875 55.546875 72.453125 
Q 61.96875 70.703125 67.390625 67.28125 
L 67.390625 56.78125 
Q 61.921875 61.421875 55.765625 63.765625 
Q 49.609375 66.109375 42.828125 66.109375 
Q 29.4375 66.109375 22.71875 58.640625 
Q 16.015625 51.171875 16.015625 36.375 
Q 16.015625 21.625 22.71875 14.15625 
Q 29.4375 6.6875 42.828125 6.6875 
Q 48.046875 6.6875 52.140625 7.59375 
Q 56.25 8.5 59.515625 10.40625 
z
" id="DejaVuSans-71"/>
       <path d="M 9.421875 54.6875 
L 18.40625 54.6875 
L 18.40625 0 
L 9.421875 0 
z
M 9.421875 75.984375 
L 18.40625 75.984375 
L 18.40625 64.59375 
L 9.421875 64.59375 
z
" id="DejaVuSans-105"/>
       <path d="M 9.421875 75.984375 
L 18.40625 75.984375 
L 18.40625 0 
L 9.421875 0 
z
" id="DejaVuSans-108"/>
       <path d="M 56.203125 29.59375 
L 56.203125 25.203125 
L 14.890625 25.203125 
Q 15.484375 15.921875 20.484375 11.0625 
Q 25.484375 6.203125 34.421875 6.203125 
Q 39.59375 6.203125 44.453125 7.46875 
Q 49.3125 8.734375 54.109375 11.28125 
L 54.109375 2.78125 
Q 49.265625 0.734375 44.1875 -0.34375 
Q 39.109375 -1.421875 33.890625 -1.421875 
Q 20.796875 -1.421875 13.15625 6.1875 
Q 5.515625 13.8125 5.515625 26.8125 
Q 5.515625 40.234375 12.765625 48.109375 
Q 20.015625 56 32.328125 56 
Q 43.359375 56 49.78125 48.890625 
Q 56.203125 41.796875 56.203125 29.59375 
z
M 47.21875 32.234375 
Q 47.125 39.59375 43.09375 43.984375 
Q 39.0625 48.390625 32.421875 48.390625 
Q 24.90625 48.390625 20.390625 44.140625 
Q 15.875 39.890625 15.1875 32.171875 
z
" id="DejaVuSans-101"/>
       <path d="M 44.28125 53.078125 
L 44.28125 44.578125 
Q 40.484375 46.53125 36.375 47.5 
Q 32.28125 48.484375 27.875 48.484375 
Q 21.1875 48.484375 17.84375 46.4375 
Q 14.5 44.390625 14.5 40.28125 
Q 14.5 37.15625 16.890625 35.375 
Q 19.28125 33.59375 26.515625 31.984375 
L 29.59375 31.296875 
Q 39.15625 29.25 43.1875 25.515625 
Q 47.21875 21.78125 47.21875 15.09375 
Q 47.21875 7.46875 41.1875 3.015625 
Q 35.15625 -1.421875 24.609375 -1.421875 
Q 20.21875 -1.421875 15.453125 -0.5625 
Q 10.6875 0.296875 5.421875 2 
L 5.421875 11.28125 
Q 10.40625 8.6875 15.234375 7.390625 
Q 20.0625 6.109375 24.8125 6.109375 
Q 31.15625 6.109375 34.5625 8.28125 
Q 37.984375 10.453125 37.984375 14.40625 
Q 37.984375 18.0625 35.515625 20.015625 
Q 33.0625 21.96875 24.703125 23.78125 
L 21.578125 24.515625 
Q 13.234375 26.265625 9.515625 29.90625 
Q 5.8125 33.546875 5.8125 39.890625 
Q 5.8125 47.609375 11.28125 51.796875 
Q 16.75 56 26.8125 56 
Q 31.78125 56 36.171875 55.265625 
Q 40.578125 54.546875 44.28125 53.078125 
z
" id="DejaVuSans-115"/>
       <path d="M 18.109375 8.203125 
L 18.109375 -20.796875 
L 9.078125 -20.796875 
L 9.078125 54.6875 
L 18.109375 54.6875 
L 18.109375 46.390625 
Q 20.953125 51.265625 25.265625 53.625 
Q 29.59375 56 35.59375 56 
Q 45.5625 56 51.78125 48.09375 
Q 58.015625 40.1875 58.015625 27.296875 
Q 58.015625 14.40625 51.78125 6.484375 
Q 45.5625 -1.421875 35.59375 -1.421875 
Q 29.59375 -1.421875 25.265625 0.953125 
Q 20.953125 3.328125 18.109375 8.203125 
z
M 48.6875 27.296875 
Q 48.6875 37.203125 44.609375 42.84375 
Q 40.53125 48.484375 33.40625 48.484375 
Q 26.265625 48.484375 22.1875 42.84375 
Q 18.109375 37.203125 18.109375 27.296875 
Q 18.109375 17.390625 22.1875 11.75 
Q 26.265625 6.109375 33.40625 6.109375 
Q 40.53125 6.109375 44.609375 11.75 
Q 48.6875 17.390625 48.6875 27.296875 
z
" id="DejaVuSans-112"/>
      </defs>
      <use xlink:href="#DejaVuSans-71"/>
      <use x="77.490234" xlink:href="#DejaVuSans-105"/>
      <use x="105.273438" xlink:href="#DejaVuSans-108"/>
      <use x="133.056641" xlink:href="#DejaVuSans-108"/>
      <use x="160.839844" xlink:href="#DejaVuSans-101"/>
      <use x="222.363281" xlink:href="#DejaVuSans-115"/>
      <use x="274.462891" xlink:href="#DejaVuSans-112"/>
      <use x="337.939453" xlink:href="#DejaVuSans-105"/>
      <use x="365.722656" xlink:href="#DejaVuSans-101"/>
     </g>
    </g>
   </g>
   <g id="matplotlib.axis_2">
    <g id="ytick_1">
     <g id="line2d_43">
      <defs>
       <path d="M 0 0 
L -3.5 0 
" id="mddec7d015b" style="stroke:#000000;stroke-width:0.8;"/>
      </defs>
      <g>
       <use style="stroke:#000000;stroke-width:0.8;" x="143.6575" xlink:href="#mddec7d015b" y="487.349727"/>
      </g>
     </g>
     <g id="text_4">
      <!-- 0 -->
      <g transform="translate(101.0275 508.625352)scale(0.56 -0.56)">
       <use xlink:href="#DejaVuSans-48"/>
      </g>
     </g>
    </g>
    <g id="ytick_2">
     <g id="line2d_44">
      <g>
       <use style="stroke:#000000;stroke-width:0.8;" x="143.6575" xlink:href="#mddec7d015b" y="329.211545"/>
      </g>
     </g>
     <g id="text_5">
      <!-- 20 -->
      <g transform="translate(65.3975 350.48717)scale(0.56 -0.56)">
       <defs>
        <path d="M 19.1875 8.296875 
L 53.609375 8.296875 
L 53.609375 0 
L 7.328125 0 
L 7.328125 8.296875 
Q 12.9375 14.109375 22.625 23.890625 
Q 32.328125 33.6875 34.8125 36.53125 
Q 39.546875 41.84375 41.421875 45.53125 
Q 43.3125 49.21875 43.3125 52.78125 
Q 43.3125 58.59375 39.234375 62.25 
Q 35.15625 65.921875 28.609375 65.921875 
Q 23.96875 65.921875 18.8125 64.3125 
Q 13.671875 62.703125 7.8125 59.421875 
L 7.8125 69.390625 
Q 13.765625 71.78125 18.9375 73 
Q 24.125 74.21875 28.421875 74.21875 
Q 39.75 74.21875 46.484375 68.546875 
Q 53.21875 62.890625 53.21875 53.421875 
Q 53.21875 48.921875 51.53125 44.890625 
Q 49.859375 40.875 45.40625 35.40625 
Q 44.1875 33.984375 37.640625 27.21875 
Q 31.109375 20.453125 19.1875 8.296875 
z
" id="DejaVuSans-50"/>
       </defs>
       <use xlink:href="#DejaVuSans-50"/>
       <use x="63.623047" xlink:href="#DejaVuSans-48"/>
      </g>
     </g>
    </g>
    <g id="ytick_3">
     <g id="line2d_45">
      <g>
       <use style="stroke:#000000;stroke-width:0.8;" x="143.6575" xlink:href="#mddec7d015b" y="171.073364"/>
      </g>
     </g>
     <g id="text_6">
      <!-- 40 -->
      <g transform="translate(65.3975 192.348989)scale(0.56 -0.56)">
       <defs>
        <path d="M 37.796875 64.3125 
L 12.890625 25.390625 
L 37.796875 25.390625 
z
M 35.203125 72.90625 
L 47.609375 72.90625 
L 47.609375 25.390625 
L 58.015625 25.390625 
L 58.015625 17.1875 
L 47.609375 17.1875 
L 47.609375 0 
L 37.796875 0 
L 37.796875 17.1875 
L 4.890625 17.1875 
L 4.890625 26.703125 
z
" id="DejaVuSans-52"/>
       </defs>
       <use xlink:href="#DejaVuSans-52"/>
       <use x="63.623047" xlink:href="#DejaVuSans-48"/>
      </g>
     </g>
    </g>
    <g id="text_7">
     <!-- VAN -->
     <g transform="translate(49.75125 347.147)rotate(-90)scale(0.56 -0.56)">
      <defs>
       <path d="M 28.609375 0 
L 0.78125 72.90625 
L 11.078125 72.90625 
L 34.1875 11.53125 
L 57.328125 72.90625 
L 67.578125 72.90625 
L 39.796875 0 
z
" id="DejaVuSans-86"/>
       <path d="M 34.1875 63.1875 
L 20.796875 26.90625 
L 47.609375 26.90625 
z
M 28.609375 72.90625 
L 39.796875 72.90625 
L 67.578125 0 
L 57.328125 0 
L 50.6875 18.703125 
L 17.828125 18.703125 
L 11.1875 0 
L 0.78125 0 
z
" id="DejaVuSans-65"/>
       <path d="M 9.8125 72.90625 
L 23.09375 72.90625 
L 55.421875 11.921875 
L 55.421875 72.90625 
L 64.984375 72.90625 
L 64.984375 0 
L 51.703125 0 
L 19.390625 60.984375 
L 19.390625 0 
L 9.8125 0 
z
" id="DejaVuSans-78"/>
      </defs>
      <use xlink:href="#DejaVuSans-86"/>
      <use x="62.033203" xlink:href="#DejaVuSans-65"/>
      <use x="130.441406" xlink:href="#DejaVuSans-78"/>
     </g>
    </g>
   </g>
   <g id="line2d_46">
    <defs>
     <path d="M 0 10 
C 2.652031 10 5.195799 8.946337 7.071068 7.071068 
C 8.946337 5.195799 10 2.652031 10 0 
C 10 -2.652031 8.946337 -5.195799 7.071068 -7.071068 
C 5.195799 -8.946337 2.652031 -10 0 -10 
C -2.652031 -10 -5.195799 -8.946337 -7.071068 -7.071068 
C -8.946337 -5.195799 -10 -2.652031 -10 0 
C -10 2.652031 -8.946337 5.195799 -7.071068 7.071068 
C -5.195799 8.946337 -2.652031 10 0 10 
z
" id="m3ef77864e6" style="stroke:#ff3000;"/>
    </defs>
    <g clip-path="url(#p842d91e206)">
     <use style="fill:#ff3000;stroke:#ff3000;" x="166.484773" xlink:href="#m3ef77864e6" y="486.745639"/>
    </g>
   </g>
   <g id="line2d_47">
    <defs>
     <path d="M 0 10 
C 2.652031 10 5.195799 8.946337 7.071068 7.071068 
C 8.946337 5.195799 10 2.652031 10 0 
C 10 -2.652031 8.946337 -5.195799 7.071068 -7.071068 
C 5.195799 -8.946337 2.652031 -10 0 -10 
C -2.652031 -10 -5.195799 -8.946337 -7.071068 -7.071068 
C -8.946337 -5.195799 -10 -2.652031 -10 0 
C -10 2.652031 -8.946337 5.195799 -7.071068 7.071068 
C -5.195799 8.946337 -2.652031 10 0 10 
z
" id="m51ee1f4781" style="stroke:#ff3000;stroke-opacity:0.974615;"/>
    </defs>
    <g clip-path="url(#p842d91e206)">
     <use style="fill:#ff3000;fill-opacity:0.974615;stroke:#ff3000;stroke-opacity:0.974615;" x="450.373867" xlink:href="#m51ee1f4781" y="222.503063"/>
    </g>
   </g>
   <g id="line2d_48">
    <defs>
     <path d="M 0 10 
C 2.652031 10 5.195799 8.946337 7.071068 7.071068 
C 8.946337 5.195799 10 2.652031 10 0 
C 10 -2.652031 8.946337 -5.195799 7.071068 -7.071068 
C 5.195799 -8.946337 2.652031 -10 0 -10 
C -2.652031 -10 -5.195799 -8.946337 -7.071068 -7.071068 
C -8.946337 -5.195799 -10 -2.652031 -10 0 
C -10 2.652031 -8.946337 5.195799 -7.071068 7.071068 
C -5.195799 8.946337 -2.652031 10 0 10 
z
" id="mb8dcae47c4" style="stroke:#ff3000;stroke-opacity:0.949231;"/>
    </defs>
    <g clip-path="url(#p842d91e206)">
     <use style="fill:#ff3000;fill-opacity:0.949231;stroke:#ff3000;stroke-opacity:0.949231;" x="529.618288" xlink:href="#mb8dcae47c4" y="169.230263"/>
    </g>
   </g>
   <g id="line2d_49">
    <defs>
     <path d="M 0 10 
C 2.652031 10 5.195799 8.946337 7.071068 7.071068 
C 8.946337 5.195799 10 2.652031 10 0 
C 10 -2.652031 8.946337 -5.195799 7.071068 -7.071068 
C 5.195799 -8.946337 2.652031 -10 0 -10 
C -2.652031 -10 -5.195799 -8.946337 -7.071068 -7.071068 
C -8.946337 -5.195799 -10 -2.652031 -10 0 
C -10 2.652031 -8.946337 5.195799 -7.071068 7.071068 
C -5.195799 8.946337 -2.652031 10 0 10 
z
" id="m46facaf2d8" style="stroke:#ff3000;stroke-opacity:0.923846;"/>
    </defs>
    <g clip-path="url(#p842d91e206)">
     <use style="fill:#ff3000;fill-opacity:0.923846;stroke:#ff3000;stroke-opacity:0.923846;" x="523.387356" xlink:href="#m46facaf2d8" y="179.046691"/>
    </g>
   </g>
   <g id="line2d_50">
    <defs>
     <path d="M 0 10 
C 2.652031 10 5.195799 8.946337 7.071068 7.071068 
C 8.946337 5.195799 10 2.652031 10 0 
C 10 -2.652031 8.946337 -5.195799 7.071068 -7.071068 
C 5.195799 -8.946337 2.652031 -10 0 -10 
C -2.652031 -10 -5.195799 -8.946337 -7.071068 -7.071068 
C -8.946337 -5.195799 -10 -2.652031 -10 0 
C -10 2.652031 -8.946337 5.195799 -7.071068 7.071068 
C -5.195799 8.946337 -2.652031 10 0 10 
z
" id="m0d4857c60b" style="stroke:#ff3000;stroke-opacity:0.898462;"/>
    </defs>
    <g clip-path="url(#p842d91e206)">
     <use style="fill:#ff3000;fill-opacity:0.898462;stroke:#ff3000;stroke-opacity:0.898462;" x="496.049414" xlink:href="#m0d4857c60b" y="202.606908"/>
    </g>
   </g>
   <g id="line2d_51">
    <defs>
     <path d="M 0 10 
C 2.652031 10 5.195799 8.946337 7.071068 7.071068 
C 8.946337 5.195799 10 2.652031 10 0 
C 10 -2.652031 8.946337 -5.195799 7.071068 -7.071068 
C 5.195799 -8.946337 2.652031 -10 0 -10 
C -2.652031 -10 -5.195799 -8.946337 -7.071068 -7.071068 
C -8.946337 -5.195799 -10 -2.652031 -10 0 
C -10 2.652031 -8.946337 5.195799 -7.071068 7.071068 
C -5.195799 8.946337 -2.652031 10 0 10 
z
" id="m587a6f6caa" style="stroke:#ff3000;stroke-opacity:0.873077;"/>
    </defs>
    <g clip-path="url(#p842d91e206)">
     <use style="fill:#ff3000;fill-opacity:0.873077;stroke:#ff3000;stroke-opacity:0.873077;" x="469.315025" xlink:href="#m587a6f6caa" y="224.153235"/>
    </g>
   </g>
   <g id="line2d_52">
    <defs>
     <path d="M 0 10 
C 2.652031 10 5.195799 8.946337 7.071068 7.071068 
C 8.946337 5.195799 10 2.652031 10 0 
C 10 -2.652031 8.946337 -5.195799 7.071068 -7.071068 
C 5.195799 -8.946337 2.652031 -10 0 -10 
C -2.652031 -10 -5.195799 -8.946337 -7.071068 -7.071068 
C -8.946337 -5.195799 -10 -2.652031 -10 0 
C -10 2.652031 -8.946337 5.195799 -7.071068 7.071068 
C -5.195799 8.946337 -2.652031 10 0 10 
z
" id="m37f2cf4251" style="stroke:#ff3000;stroke-opacity:0.847692;"/>
    </defs>
    <g clip-path="url(#p842d91e206)">
     <use style="fill:#ff3000;fill-opacity:0.847692;stroke:#ff3000;stroke-opacity:0.847692;" x="450.587531" xlink:href="#m37f2cf4251" y="238.285254"/>
    </g>
   </g>
   <g id="line2d_53">
    <defs>
     <path d="M 0 10 
C 2.652031 10 5.195799 8.946337 7.071068 7.071068 
C 8.946337 5.195799 10 2.652031 10 0 
C 10 -2.652031 8.946337 -5.195799 7.071068 -7.071068 
C 5.195799 -8.946337 2.652031 -10 0 -10 
C -2.652031 -10 -5.195799 -8.946337 -7.071068 -7.071068 
C -8.946337 -5.195799 -10 -2.652031 -10 0 
C -10 2.652031 -8.946337 5.195799 -7.071068 7.071068 
C -5.195799 8.946337 -2.652031 10 0 10 
z
" id="m6a7f634a7c" style="stroke:#ff3000;stroke-opacity:0.822308;"/>
    </defs>
    <g clip-path="url(#p842d91e206)">
     <use style="fill:#ff3000;fill-opacity:0.822308;stroke:#ff3000;stroke-opacity:0.822308;" x="439.787491" xlink:href="#m6a7f634a7c" y="247.159968"/>
    </g>
   </g>
   <g id="line2d_54">
    <defs>
     <path d="M 0 10 
C 2.652031 10 5.195799 8.946337 7.071068 7.071068 
C 8.946337 5.195799 10 2.652031 10 0 
C 10 -2.652031 8.946337 -5.195799 7.071068 -7.071068 
C 5.195799 -8.946337 2.652031 -10 0 -10 
C -2.652031 -10 -5.195799 -8.946337 -7.071068 -7.071068 
C -8.946337 -5.195799 -10 -2.652031 -10 0 
C -10 2.652031 -8.946337 5.195799 -7.071068 7.071068 
C -5.195799 8.946337 -2.652031 10 0 10 
z
" id="m2ddbbe1428" style="stroke:#ff3000;stroke-opacity:0.796923;"/>
    </defs>
    <g clip-path="url(#p842d91e206)">
     <use style="fill:#ff3000;fill-opacity:0.796923;stroke:#ff3000;stroke-opacity:0.796923;" x="434.289771" xlink:href="#m2ddbbe1428" y="255.330178"/>
    </g>
   </g>
   <g id="line2d_55">
    <defs>
     <path d="M 0 10 
C 2.652031 10 5.195799 8.946337 7.071068 7.071068 
C 8.946337 5.195799 10 2.652031 10 0 
C 10 -2.652031 8.946337 -5.195799 7.071068 -7.071068 
C 5.195799 -8.946337 2.652031 -10 0 -10 
C -2.652031 -10 -5.195799 -8.946337 -7.071068 -7.071068 
C -8.946337 -5.195799 -10 -2.652031 -10 0 
C -10 2.652031 -8.946337 5.195799 -7.071068 7.071068 
C -5.195799 8.946337 -2.652031 10 0 10 
z
" id="md5e6898ab7" style="stroke:#ff3000;stroke-opacity:0.771538;"/>
    </defs>
    <g clip-path="url(#p842d91e206)">
     <use style="fill:#ff3000;fill-opacity:0.771538;stroke:#ff3000;stroke-opacity:0.771538;" x="431.534063" xlink:href="#md5e6898ab7" y="256.733654"/>
    </g>
   </g>
   <g id="line2d_56">
    <defs>
     <path d="M 0 10 
C 2.652031 10 5.195799 8.946337 7.071068 7.071068 
C 8.946337 5.195799 10 2.652031 10 0 
C 10 -2.652031 8.946337 -5.195799 7.071068 -7.071068 
C 5.195799 -8.946337 2.652031 -10 0 -10 
C -2.652031 -10 -5.195799 -8.946337 -7.071068 -7.071068 
C -8.946337 -5.195799 -10 -2.652031 -10 0 
C -10 2.652031 -8.946337 5.195799 -7.071068 7.071068 
C -5.195799 8.946337 -2.652031 10 0 10 
z
" id="m60ab66f5d8" style="stroke:#ff3000;stroke-opacity:0.746154;"/>
    </defs>
    <g clip-path="url(#p842d91e206)">
     <use style="fill:#ff3000;fill-opacity:0.746154;stroke:#ff3000;stroke-opacity:0.746154;" x="430.214646" xlink:href="#m60ab66f5d8" y="258.448663"/>
    </g>
   </g>
   <g id="line2d_57">
    <defs>
     <path d="M 0 10 
C 2.652031 10 5.195799 8.946337 7.071068 7.071068 
C 8.946337 5.195799 10 2.652031 10 0 
C 10 -2.652031 8.946337 -5.195799 7.071068 -7.071068 
C 5.195799 -8.946337 2.652031 -10 0 -10 
C -2.652031 -10 -5.195799 -8.946337 -7.071068 -7.071068 
C -8.946337 -5.195799 -10 -2.652031 -10 0 
C -10 2.652031 -8.946337 5.195799 -7.071068 7.071068 
C -5.195799 8.946337 -2.652031 10 0 10 
z
" id="m89df453daa" style="stroke:#ff3000;stroke-opacity:0.720769;"/>
    </defs>
    <g clip-path="url(#p842d91e206)">
     <use style="fill:#ff3000;fill-opacity:0.720769;stroke:#ff3000;stroke-opacity:0.720769;" x="431.3414" xlink:href="#m89df453daa" y="259.622048"/>
    </g>
   </g>
   <g id="line2d_58">
    <defs>
     <path d="M 0 10 
C 2.652031 10 5.195799 8.946337 7.071068 7.071068 
C 8.946337 5.195799 10 2.652031 10 0 
C 10 -2.652031 8.946337 -5.195799 7.071068 -7.071068 
C 5.195799 -8.946337 2.652031 -10 0 -10 
C -2.652031 -10 -5.195799 -8.946337 -7.071068 -7.071068 
C -8.946337 -5.195799 -10 -2.652031 -10 0 
C -10 2.652031 -8.946337 5.195799 -7.071068 7.071068 
C -5.195799 8.946337 -2.652031 10 0 10 
z
" id="m6ded263727" style="stroke:#ff3000;stroke-opacity:0.695385;"/>
    </defs>
    <g clip-path="url(#p842d91e206)">
     <use style="fill:#ff3000;fill-opacity:0.695385;stroke:#ff3000;stroke-opacity:0.695385;" x="432.125745" xlink:href="#m6ded263727" y="259.21247"/>
    </g>
   </g>
   <g id="line2d_59">
    <defs>
     <path d="M 0 10 
C 2.652031 10 5.195799 8.946337 7.071068 7.071068 
C 8.946337 5.195799 10 2.652031 10 0 
C 10 -2.652031 8.946337 -5.195799 7.071068 -7.071068 
C 5.195799 -8.946337 2.652031 -10 0 -10 
C -2.652031 -10 -5.195799 -8.946337 -7.071068 -7.071068 
C -8.946337 -5.195799 -10 -2.652031 -10 0 
C -10 2.652031 -8.946337 5.195799 -7.071068 7.071068 
C -5.195799 8.946337 -2.652031 10 0 10 
z
" id="m54f7335138" style="stroke:#ff3000;stroke-opacity:0.67;"/>
    </defs>
    <g clip-path="url(#p842d91e206)">
     <use style="fill:#ff3000;fill-opacity:0.67;stroke:#ff3000;stroke-opacity:0.67;" x="433.626867" xlink:href="#m54f7335138" y="259.442561"/>
    </g>
   </g>
   <g id="line2d_60">
    <defs>
     <path d="M 0 10 
C 2.652031 10 5.195799 8.946337 7.071068 7.071068 
C 8.946337 5.195799 10 2.652031 10 0 
C 10 -2.652031 8.946337 -5.195799 7.071068 -7.071068 
C 5.195799 -8.946337 2.652031 -10 0 -10 
C -2.652031 -10 -5.195799 -8.946337 -7.071068 -7.071068 
C -8.946337 -5.195799 -10 -2.652031 -10 0 
C -10 2.652031 -8.946337 5.195799 -7.071068 7.071068 
C -5.195799 8.946337 -2.652031 10 0 10 
z
" id="mb547037ed8" style="stroke:#ff3000;stroke-opacity:0.644615;"/>
    </defs>
    <g clip-path="url(#p842d91e206)">
     <use style="fill:#ff3000;fill-opacity:0.644615;stroke:#ff3000;stroke-opacity:0.644615;" x="433.633259" xlink:href="#mb547037ed8" y="260.046649"/>
    </g>
   </g>
   <g id="line2d_61">
    <defs>
     <path d="M 0 10 
C 2.652031 10 5.195799 8.946337 7.071068 7.071068 
C 8.946337 5.195799 10 2.652031 10 0 
C 10 -2.652031 8.946337 -5.195799 7.071068 -7.071068 
C 5.195799 -8.946337 2.652031 -10 0 -10 
C -2.652031 -10 -5.195799 -8.946337 -7.071068 -7.071068 
C -8.946337 -5.195799 -10 -2.652031 -10 0 
C -10 2.652031 -8.946337 5.195799 -7.071068 7.071068 
C -5.195799 8.946337 -2.652031 10 0 10 
z
" id="m4e04357a1f" style="stroke:#ff3000;stroke-opacity:0.619231;"/>
    </defs>
    <g clip-path="url(#p842d91e206)">
     <use style="fill:#ff3000;fill-opacity:0.619231;stroke:#ff3000;stroke-opacity:0.619231;" x="434.853148" xlink:href="#m4e04357a1f" y="260.007114"/>
    </g>
   </g>
   <g id="line2d_62">
    <defs>
     <path d="M 0 10 
C 2.652031 10 5.195799 8.946337 7.071068 7.071068 
C 8.946337 5.195799 10 2.652031 10 0 
C 10 -2.652031 8.946337 -5.195799 7.071068 -7.071068 
C 5.195799 -8.946337 2.652031 -10 0 -10 
C -2.652031 -10 -5.195799 -8.946337 -7.071068 -7.071068 
C -8.946337 -5.195799 -10 -2.652031 -10 0 
C -10 2.652031 -8.946337 5.195799 -7.071068 7.071068 
C -5.195799 8.946337 -2.652031 10 0 10 
z
" id="m3cb2c2a28c" style="stroke:#ff3000;stroke-opacity:0.593846;"/>
    </defs>
    <g clip-path="url(#p842d91e206)">
     <use style="fill:#ff3000;fill-opacity:0.593846;stroke:#ff3000;stroke-opacity:0.593846;" x="434.06789" xlink:href="#m3cb2c2a28c" y="260.179485"/>
    </g>
   </g>
   <g id="line2d_63">
    <defs>
     <path d="M 0 10 
C 2.652031 10 5.195799 8.946337 7.071068 7.071068 
C 8.946337 5.195799 10 2.652031 10 0 
C 10 -2.652031 8.946337 -5.195799 7.071068 -7.071068 
C 5.195799 -8.946337 2.652031 -10 0 -10 
C -2.652031 -10 -5.195799 -8.946337 -7.071068 -7.071068 
C -8.946337 -5.195799 -10 -2.652031 -10 0 
C -10 2.652031 -8.946337 5.195799 -7.071068 7.071068 
C -5.195799 8.946337 -2.652031 10 0 10 
z
" id="m052d6cc085" style="stroke:#ff3000;stroke-opacity:0.568462;"/>
    </defs>
    <g clip-path="url(#p842d91e206)">
     <use style="fill:#ff3000;fill-opacity:0.568462;stroke:#ff3000;stroke-opacity:0.568462;" x="434.847669" xlink:href="#m052d6cc085" y="257.9189"/>
    </g>
   </g>
   <g id="line2d_64">
    <defs>
     <path d="M 0 10 
C 2.652031 10 5.195799 8.946337 7.071068 7.071068 
C 8.946337 5.195799 10 2.652031 10 0 
C 10 -2.652031 8.946337 -5.195799 7.071068 -7.071068 
C 5.195799 -8.946337 2.652031 -10 0 -10 
C -2.652031 -10 -5.195799 -8.946337 -7.071068 -7.071068 
C -8.946337 -5.195799 -10 -2.652031 -10 0 
C -10 2.652031 -8.946337 5.195799 -7.071068 7.071068 
C -5.195799 8.946337 -2.652031 10 0 10 
z
" id="mc4fb84e640" style="stroke:#ff3000;stroke-opacity:0.543077;"/>
    </defs>
    <g clip-path="url(#p842d91e206)">
     <use style="fill:#ff3000;fill-opacity:0.543077;stroke:#ff3000;stroke-opacity:0.543077;" x="435.15812" xlink:href="#mc4fb84e640" y="256.850676"/>
    </g>
   </g>
   <g id="line2d_65">
    <defs>
     <path d="M 0 10 
C 2.652031 10 5.195799 8.946337 7.071068 7.071068 
C 8.946337 5.195799 10 2.652031 10 0 
C 10 -2.652031 8.946337 -5.195799 7.071068 -7.071068 
C 5.195799 -8.946337 2.652031 -10 0 -10 
C -2.652031 -10 -5.195799 -8.946337 -7.071068 -7.071068 
C -8.946337 -5.195799 -10 -2.652031 -10 0 
C -10 2.652031 -8.946337 5.195799 -7.071068 7.071068 
C -5.195799 8.946337 -2.652031 10 0 10 
z
" id="mf3f0b664db" style="stroke:#ff3000;stroke-opacity:0.517692;"/>
    </defs>
    <g clip-path="url(#p842d91e206)">
     <use style="fill:#ff3000;fill-opacity:0.517692;stroke:#ff3000;stroke-opacity:0.517692;" x="436.724984" xlink:href="#mf3f0b664db" y="260.143904"/>
    </g>
   </g>
   <g id="line2d_66">
    <defs>
     <path d="M 0 10 
C 2.652031 10 5.195799 8.946337 7.071068 7.071068 
C 8.946337 5.195799 10 2.652031 10 0 
C 10 -2.652031 8.946337 -5.195799 7.071068 -7.071068 
C 5.195799 -8.946337 2.652031 -10 0 -10 
C -2.652031 -10 -5.195799 -8.946337 -7.071068 -7.071068 
C -8.946337 -5.195799 -10 -2.652031 -10 0 
C -10 2.652031 -8.946337 5.195799 -7.071068 7.071068 
C -5.195799 8.946337 -2.652031 10 0 10 
z
" id="mdabcb53180" style="stroke:#ff3000;stroke-opacity:0.492308;"/>
    </defs>
    <g clip-path="url(#p842d91e206)">
     <use style="fill:#ff3000;fill-opacity:0.492308;stroke:#ff3000;stroke-opacity:0.492308;" x="438.141188" xlink:href="#mdabcb53180" y="260.318647"/>
    </g>
   </g>
   <g id="line2d_67">
    <defs>
     <path d="M 0 10 
C 2.652031 10 5.195799 8.946337 7.071068 7.071068 
C 8.946337 5.195799 10 2.652031 10 0 
C 10 -2.652031 8.946337 -5.195799 7.071068 -7.071068 
C 5.195799 -8.946337 2.652031 -10 0 -10 
C -2.652031 -10 -5.195799 -8.946337 -7.071068 -7.071068 
C -8.946337 -5.195799 -10 -2.652031 -10 0 
C -10 2.652031 -8.946337 5.195799 -7.071068 7.071068 
C -5.195799 8.946337 -2.652031 10 0 10 
z
" id="m2afcc87b64" style="stroke:#ff3000;stroke-opacity:0.466923;"/>
    </defs>
    <g clip-path="url(#p842d91e206)">
     <use style="fill:#ff3000;fill-opacity:0.466923;stroke:#ff3000;stroke-opacity:0.466923;" x="438.391375" xlink:href="#m2afcc87b64" y="258.466848"/>
    </g>
   </g>
   <g id="line2d_68">
    <defs>
     <path d="M 0 10 
C 2.652031 10 5.195799 8.946337 7.071068 7.071068 
C 8.946337 5.195799 10 2.652031 10 0 
C 10 -2.652031 8.946337 -5.195799 7.071068 -7.071068 
C 5.195799 -8.946337 2.652031 -10 0 -10 
C -2.652031 -10 -5.195799 -8.946337 -7.071068 -7.071068 
C -8.946337 -5.195799 -10 -2.652031 -10 0 
C -10 2.652031 -8.946337 5.195799 -7.071068 7.071068 
C -5.195799 8.946337 -2.652031 10 0 10 
z
" id="m8c68e8b2cd" style="stroke:#ff3000;stroke-opacity:0.441538;"/>
    </defs>
    <g clip-path="url(#p842d91e206)">
     <use style="fill:#ff3000;fill-opacity:0.441538;stroke:#ff3000;stroke-opacity:0.441538;" x="438.922794" xlink:href="#m8c68e8b2cd" y="251.429699"/>
    </g>
   </g>
   <g id="line2d_69">
    <defs>
     <path d="M 0 10 
C 2.652031 10 5.195799 8.946337 7.071068 7.071068 
C 8.946337 5.195799 10 2.652031 10 0 
C 10 -2.652031 8.946337 -5.195799 7.071068 -7.071068 
C 5.195799 -8.946337 2.652031 -10 0 -10 
C -2.652031 -10 -5.195799 -8.946337 -7.071068 -7.071068 
C -8.946337 -5.195799 -10 -2.652031 -10 0 
C -10 2.652031 -8.946337 5.195799 -7.071068 7.071068 
C -5.195799 8.946337 -2.652031 10 0 10 
z
" id="mb0e3af7330" style="stroke:#ff3000;stroke-opacity:0.416154;"/>
    </defs>
    <g clip-path="url(#p842d91e206)">
     <use style="fill:#ff3000;fill-opacity:0.416154;stroke:#ff3000;stroke-opacity:0.416154;" x="439.529087" xlink:href="#mb0e3af7330" y="259.362701"/>
    </g>
   </g>
   <g id="line2d_70">
    <defs>
     <path d="M 0 10 
C 2.652031 10 5.195799 8.946337 7.071068 7.071068 
C 8.946337 5.195799 10 2.652031 10 0 
C 10 -2.652031 8.946337 -5.195799 7.071068 -7.071068 
C 5.195799 -8.946337 2.652031 -10 0 -10 
C -2.652031 -10 -5.195799 -8.946337 -7.071068 -7.071068 
C -8.946337 -5.195799 -10 -2.652031 -10 0 
C -10 2.652031 -8.946337 5.195799 -7.071068 7.071068 
C -5.195799 8.946337 -2.652031 10 0 10 
z
" id="m82c72ba92c" style="stroke:#ff3000;stroke-opacity:0.390769;"/>
    </defs>
    <g clip-path="url(#p842d91e206)">
     <use style="fill:#ff3000;fill-opacity:0.390769;stroke:#ff3000;stroke-opacity:0.390769;" x="438.813223" xlink:href="#m82c72ba92c" y="258.680335"/>
    </g>
   </g>
   <g id="line2d_71">
    <defs>
     <path d="M 0 10 
C 2.652031 10 5.195799 8.946337 7.071068 7.071068 
C 8.946337 5.195799 10 2.652031 10 0 
C 10 -2.652031 8.946337 -5.195799 7.071068 -7.071068 
C 5.195799 -8.946337 2.652031 -10 0 -10 
C -2.652031 -10 -5.195799 -8.946337 -7.071068 -7.071068 
C -8.946337 -5.195799 -10 -2.652031 -10 0 
C -10 2.652031 -8.946337 5.195799 -7.071068 7.071068 
C -5.195799 8.946337 -2.652031 10 0 10 
z
" id="m1fdb497447" style="stroke:#ff3000;stroke-opacity:0.365385;"/>
    </defs>
    <g clip-path="url(#p842d91e206)">
     <use style="fill:#ff3000;fill-opacity:0.365385;stroke:#ff3000;stroke-opacity:0.365385;" x="437.932091" xlink:href="#m1fdb497447" y="260.721108"/>
    </g>
   </g>
   <g id="line2d_72">
    <defs>
     <path d="M 0 10 
C 2.652031 10 5.195799 8.946337 7.071068 7.071068 
C 8.946337 5.195799 10 2.652031 10 0 
C 10 -2.652031 8.946337 -5.195799 7.071068 -7.071068 
C 5.195799 -8.946337 2.652031 -10 0 -10 
C -2.652031 -10 -5.195799 -8.946337 -7.071068 -7.071068 
C -8.946337 -5.195799 -10 -2.652031 -10 0 
C -10 2.652031 -8.946337 5.195799 -7.071068 7.071068 
C -5.195799 8.946337 -2.652031 10 0 10 
z
" id="m0d8c5c82fb" style="stroke:#ff3000;stroke-opacity:0.34;"/>
    </defs>
    <g clip-path="url(#p842d91e206)">
     <use style="fill:#ff3000;fill-opacity:0.34;stroke:#ff3000;stroke-opacity:0.34;" x="436.016426" xlink:href="#m0d8c5c82fb" y="259.350841"/>
    </g>
   </g>
   <g id="line2d_73">
    <defs>
     <path d="M 0 10 
C 2.652031 10 5.195799 8.946337 7.071068 7.071068 
C 8.946337 5.195799 10 2.652031 10 0 
C 10 -2.652031 8.946337 -5.195799 7.071068 -7.071068 
C 5.195799 -8.946337 2.652031 -10 0 -10 
C -2.652031 -10 -5.195799 -8.946337 -7.071068 -7.071068 
C -8.946337 -5.195799 -10 -2.652031 -10 0 
C -10 2.652031 -8.946337 5.195799 -7.071068 7.071068 
C -5.195799 8.946337 -2.652031 10 0 10 
z
" id="m7412f9ef29" style="stroke:#ff3000;stroke-opacity:0.314615;"/>
    </defs>
    <g clip-path="url(#p842d91e206)">
     <use style="fill:#ff3000;fill-opacity:0.314615;stroke:#ff3000;stroke-opacity:0.314615;" x="434.380167" xlink:href="#m7412f9ef29" y="262.576069"/>
    </g>
   </g>
   <g id="line2d_74">
    <defs>
     <path d="M 0 10 
C 2.652031 10 5.195799 8.946337 7.071068 7.071068 
C 8.946337 5.195799 10 2.652031 10 0 
C 10 -2.652031 8.946337 -5.195799 7.071068 -7.071068 
C 5.195799 -8.946337 2.652031 -10 0 -10 
C -2.652031 -10 -5.195799 -8.946337 -7.071068 -7.071068 
C -8.946337 -5.195799 -10 -2.652031 -10 0 
C -10 2.652031 -8.946337 5.195799 -7.071068 7.071068 
C -5.195799 8.946337 -2.652031 10 0 10 
z
" id="mcbf226022f" style="stroke:#ff3000;stroke-opacity:0.289231;"/>
    </defs>
    <g clip-path="url(#p842d91e206)">
     <use style="fill:#ff3000;fill-opacity:0.289231;stroke:#ff3000;stroke-opacity:0.289231;" x="433.698088" xlink:href="#mcbf226022f" y="261.435893"/>
    </g>
   </g>
   <g id="line2d_75">
    <defs>
     <path d="M 0 10 
C 2.652031 10 5.195799 8.946337 7.071068 7.071068 
C 8.946337 5.195799 10 2.652031 10 0 
C 10 -2.652031 8.946337 -5.195799 7.071068 -7.071068 
C 5.195799 -8.946337 2.652031 -10 0 -10 
C -2.652031 -10 -5.195799 -8.946337 -7.071068 -7.071068 
C -8.946337 -5.195799 -10 -2.652031 -10 0 
C -10 2.652031 -8.946337 5.195799 -7.071068 7.071068 
C -5.195799 8.946337 -2.652031 10 0 10 
z
" id="m85fab7c3f5" style="stroke:#ff3000;stroke-opacity:0.263846;"/>
    </defs>
    <g clip-path="url(#p842d91e206)">
     <use style="fill:#ff3000;fill-opacity:0.263846;stroke:#ff3000;stroke-opacity:0.263846;" x="432.985877" xlink:href="#m85fab7c3f5" y="262.001237"/>
    </g>
   </g>
   <g id="line2d_76">
    <defs>
     <path d="M 0 10 
C 2.652031 10 5.195799 8.946337 7.071068 7.071068 
C 8.946337 5.195799 10 2.652031 10 0 
C 10 -2.652031 8.946337 -5.195799 7.071068 -7.071068 
C 5.195799 -8.946337 2.652031 -10 0 -10 
C -2.652031 -10 -5.195799 -8.946337 -7.071068 -7.071068 
C -8.946337 -5.195799 -10 -2.652031 -10 0 
C -10 2.652031 -8.946337 5.195799 -7.071068 7.071068 
C -5.195799 8.946337 -2.652031 10 0 10 
z
" id="ma297149c53" style="stroke:#ff3000;stroke-opacity:0.238462;"/>
    </defs>
    <g clip-path="url(#p842d91e206)">
     <use style="fill:#ff3000;fill-opacity:0.238462;stroke:#ff3000;stroke-opacity:0.238462;" x="432.244447" xlink:href="#ma297149c53" y="258.162432"/>
    </g>
   </g>
   <g id="line2d_77">
    <defs>
     <path d="M 0 10 
C 2.652031 10 5.195799 8.946337 7.071068 7.071068 
C 8.946337 5.195799 10 2.652031 10 0 
C 10 -2.652031 8.946337 -5.195799 7.071068 -7.071068 
C 5.195799 -8.946337 2.652031 -10 0 -10 
C -2.652031 -10 -5.195799 -8.946337 -7.071068 -7.071068 
C -8.946337 -5.195799 -10 -2.652031 -10 0 
C -10 2.652031 -8.946337 5.195799 -7.071068 7.071068 
C -5.195799 8.946337 -2.652031 10 0 10 
z
" id="m6f12d79edf" style="stroke:#ff3000;stroke-opacity:0.213077;"/>
    </defs>
    <g clip-path="url(#p842d91e206)">
     <use style="fill:#ff3000;fill-opacity:0.213077;stroke:#ff3000;stroke-opacity:0.213077;" x="433.946449" xlink:href="#m6f12d79edf" y="260.608039"/>
    </g>
   </g>
   <g id="line2d_78">
    <defs>
     <path d="M 0 10 
C 2.652031 10 5.195799 8.946337 7.071068 7.071068 
C 8.946337 5.195799 10 2.652031 10 0 
C 10 -2.652031 8.946337 -5.195799 7.071068 -7.071068 
C 5.195799 -8.946337 2.652031 -10 0 -10 
C -2.652031 -10 -5.195799 -8.946337 -7.071068 -7.071068 
C -8.946337 -5.195799 -10 -2.652031 -10 0 
C -10 2.652031 -8.946337 5.195799 -7.071068 7.071068 
C -5.195799 8.946337 -2.652031 10 0 10 
z
" id="m5b88bfdf67" style="stroke:#ff3000;stroke-opacity:0.187692;"/>
    </defs>
    <g clip-path="url(#p842d91e206)">
     <use style="fill:#ff3000;fill-opacity:0.187692;stroke:#ff3000;stroke-opacity:0.187692;" x="433.440596" xlink:href="#m5b88bfdf67" y="261.979097"/>
    </g>
   </g>
   <g id="line2d_79">
    <defs>
     <path d="M 0 10 
C 2.652031 10 5.195799 8.946337 7.071068 7.071068 
C 8.946337 5.195799 10 2.652031 10 0 
C 10 -2.652031 8.946337 -5.195799 7.071068 -7.071068 
C 5.195799 -8.946337 2.652031 -10 0 -10 
C -2.652031 -10 -5.195799 -8.946337 -7.071068 -7.071068 
C -8.946337 -5.195799 -10 -2.652031 -10 0 
C -10 2.652031 -8.946337 5.195799 -7.071068 7.071068 
C -5.195799 8.946337 -2.652031 10 0 10 
z
" id="m93c27c7070" style="stroke:#ff3000;stroke-opacity:0.162308;"/>
    </defs>
    <g clip-path="url(#p842d91e206)">
     <use style="fill:#ff3000;fill-opacity:0.162308;stroke:#ff3000;stroke-opacity:0.162308;" x="434.482433" xlink:href="#m93c27c7070" y="263.386527"/>
    </g>
   </g>
   <g id="line2d_80">
    <defs>
     <path d="M 0 10 
C 2.652031 10 5.195799 8.946337 7.071068 7.071068 
C 8.946337 5.195799 10 2.652031 10 0 
C 10 -2.652031 8.946337 -5.195799 7.071068 -7.071068 
C 5.195799 -8.946337 2.652031 -10 0 -10 
C -2.652031 -10 -5.195799 -8.946337 -7.071068 -7.071068 
C -8.946337 -5.195799 -10 -2.652031 -10 0 
C -10 2.652031 -8.946337 5.195799 -7.071068 7.071068 
C -5.195799 8.946337 -2.652031 10 0 10 
z
" id="ma76e5efa4d" style="stroke:#ff3000;stroke-opacity:0.136923;"/>
    </defs>
    <g clip-path="url(#p842d91e206)">
     <use style="fill:#ff3000;fill-opacity:0.136923;stroke:#ff3000;stroke-opacity:0.136923;" x="433.94097" xlink:href="#ma76e5efa4d" y="261.770355"/>
    </g>
   </g>
   <g id="line2d_81">
    <defs>
     <path d="M 0 10 
C 2.652031 10 5.195799 8.946337 7.071068 7.071068 
C 8.946337 5.195799 10 2.652031 10 0 
C 10 -2.652031 8.946337 -5.195799 7.071068 -7.071068 
C 5.195799 -8.946337 2.652031 -10 0 -10 
C -2.652031 -10 -5.195799 -8.946337 -7.071068 -7.071068 
C -8.946337 -5.195799 -10 -2.652031 -10 0 
C -10 2.652031 -8.946337 5.195799 -7.071068 7.071068 
C -5.195799 8.946337 -2.652031 10 0 10 
z
" id="m7a2c43c958" style="stroke:#ff3000;stroke-opacity:0.111538;"/>
    </defs>
    <g clip-path="url(#p842d91e206)">
     <use style="fill:#ff3000;fill-opacity:0.111538;stroke:#ff3000;stroke-opacity:0.111538;" x="433.446988" xlink:href="#m7a2c43c958" y="262.172026"/>
    </g>
   </g>
   <g id="line2d_82">
    <defs>
     <path d="M 0 10 
C 2.652031 10 5.195799 8.946337 7.071068 7.071068 
C 8.946337 5.195799 10 2.652031 10 0 
C 10 -2.652031 8.946337 -5.195799 7.071068 -7.071068 
C 5.195799 -8.946337 2.652031 -10 0 -10 
C -2.652031 -10 -5.195799 -8.946337 -7.071068 -7.071068 
C -8.946337 -5.195799 -10 -2.652031 -10 0 
C -10 2.652031 -8.946337 5.195799 -7.071068 7.071068 
C -5.195799 8.946337 -2.652031 10 0 10 
z
" id="mc79df377a6" style="stroke:#ff3000;stroke-opacity:0.086154;"/>
    </defs>
    <g clip-path="url(#p842d91e206)">
     <use style="fill:#ff3000;fill-opacity:0.086154;stroke:#ff3000;stroke-opacity:0.086154;" x="433.344722" xlink:href="#mc79df377a6" y="265.150559"/>
    </g>
   </g>
   <g id="line2d_83">
    <defs>
     <path d="M 0 10 
C 2.652031 10 5.195799 8.946337 7.071068 7.071068 
C 8.946337 5.195799 10 2.652031 10 0 
C 10 -2.652031 8.946337 -5.195799 7.071068 -7.071068 
C 5.195799 -8.946337 2.652031 -10 0 -10 
C -2.652031 -10 -5.195799 -8.946337 -7.071068 -7.071068 
C -8.946337 -5.195799 -10 -2.652031 -10 0 
C -10 2.652031 -8.946337 5.195799 -7.071068 7.071068 
C -5.195799 8.946337 -2.652031 10 0 10 
z
" id="mcefbfa6938" style="stroke:#ff3000;stroke-opacity:0.060769;"/>
    </defs>
    <g clip-path="url(#p842d91e206)">
     <use style="fill:#ff3000;fill-opacity:0.060769;stroke:#ff3000;stroke-opacity:0.060769;" x="433.027879" xlink:href="#mcefbfa6938" y="264.001685"/>
    </g>
   </g>
   <g id="line2d_84">
    <defs>
     <path d="M 0 10 
C 2.652031 10 5.195799 8.946337 7.071068 7.071068 
C 8.946337 5.195799 10 2.652031 10 0 
C 10 -2.652031 8.946337 -5.195799 7.071068 -7.071068 
C 5.195799 -8.946337 2.652031 -10 0 -10 
C -2.652031 -10 -5.195799 -8.946337 -7.071068 -7.071068 
C -8.946337 -5.195799 -10 -2.652031 -10 0 
C -10 2.652031 -8.946337 5.195799 -7.071068 7.071068 
C -5.195799 8.946337 -2.652031 10 0 10 
z
" id="meaf86fbdde" style="stroke:#ff3000;stroke-opacity:0.035385;"/>
    </defs>
    <g clip-path="url(#p842d91e206)">
     <use style="fill:#ff3000;fill-opacity:0.035385;stroke:#ff3000;stroke-opacity:0.035385;" x="433.625954" xlink:href="#meaf86fbdde" y="262.962717"/>
    </g>
   </g>
   <g id="line2d_85">
    <defs>
     <path d="M 0 10 
C 2.652031 10 5.195799 8.946337 7.071068 7.071068 
C 8.946337 5.195799 10 2.652031 10 0 
C 10 -2.652031 8.946337 -5.195799 7.071068 -7.071068 
C 5.195799 -8.946337 2.652031 -10 0 -10 
C -2.652031 -10 -5.195799 -8.946337 -7.071068 -7.071068 
C -8.946337 -5.195799 -10 -2.652031 -10 0 
C -10 2.652031 -8.946337 5.195799 -7.071068 7.071068 
C -5.195799 8.946337 -2.652031 10 0 10 
z
" id="me666cea509" style="stroke:#ff3000;stroke-opacity:0.01;"/>
    </defs>
    <g clip-path="url(#p842d91e206)">
     <use style="fill:#ff3000;fill-opacity:0.01;stroke:#ff3000;stroke-opacity:0.01;" x="434.264204" xlink:href="#me666cea509" y="258.200386"/>
    </g>
   </g>
   <g id="line2d_86">
    <path clip-path="url(#p842d91e206)" d="M 166.484773 487.349727 
L 623.030227 92.004273 
" style="fill:none;stroke:#000000;stroke-linecap:square;stroke-width:4;"/>
   </g>
   <g id="line2d_87">
    <path clip-path="url(#p842d91e206)" d="M 166.484773 487.349727 
L 531.721136 171.073364 
" style="fill:none;stroke:#000000;stroke-linecap:square;stroke-width:4;"/>
   </g>
   <g id="patch_3">
    <path d="M 143.6575 507.117 
L 143.6575 72.237 
" style="fill:none;stroke:#000000;stroke-linecap:square;stroke-linejoin:miter;stroke-width:2;"/>
   </g>
   <g id="patch_4">
    <path d="M 645.8575 507.117 
L 645.8575 72.237 
" style="fill:none;stroke:#000000;stroke-linecap:square;stroke-linejoin:miter;stroke-width:2;"/>
   </g>
   <g id="patch_5">
    <path d="M 143.6575 507.117 
L 645.8575 507.117 
" style="fill:none;stroke:#000000;stroke-linecap:square;stroke-linejoin:miter;stroke-width:2;"/>
   </g>
   <g id="patch_6">
    <path d="M 143.6575 72.237 
L 645.8575 72.237 
" style="fill:none;stroke:#000000;stroke-linecap:square;stroke-linejoin:miter;stroke-width:2;"/>
   </g>
   <g id="text_8">
    <!-- Mean -->
    <g transform="translate(303.208 58.2615)scale(0.672 -0.672)">
     <defs>
      <path d="M 9.8125 72.90625 
L 24.515625 72.90625 
L 43.109375 23.296875 
L 61.8125 72.90625 
L 76.515625 72.90625 
L 76.515625 0 
L 66.890625 0 
L 66.890625 64.015625 
L 48.09375 14.015625 
L 38.1875 14.015625 
L 19.390625 64.015625 
L 19.390625 0 
L 9.8125 0 
z
" id="DejaVuSans-77"/>
      <path d="M 34.28125 27.484375 
Q 23.390625 27.484375 19.1875 25 
Q 14.984375 22.515625 14.984375 16.5 
Q 14.984375 11.71875 18.140625 8.90625 
Q 21.296875 6.109375 26.703125 6.109375 
Q 34.1875 6.109375 38.703125 11.40625 
Q 43.21875 16.703125 43.21875 25.484375 
L 43.21875 27.484375 
z
M 52.203125 31.203125 
L 52.203125 0 
L 43.21875 0 
L 43.21875 8.296875 
Q 40.140625 3.328125 35.546875 0.953125 
Q 30.953125 -1.421875 24.3125 -1.421875 
Q 15.921875 -1.421875 10.953125 3.296875 
Q 6 8.015625 6 15.921875 
Q 6 25.140625 12.171875 29.828125 
Q 18.359375 34.515625 30.609375 34.515625 
L 43.21875 34.515625 
L 43.21875 35.40625 
Q 43.21875 41.609375 39.140625 45 
Q 35.0625 48.390625 27.6875 48.390625 
Q 23 48.390625 18.546875 47.265625 
Q 14.109375 46.140625 10.015625 43.890625 
L 10.015625 52.203125 
Q 14.9375 54.109375 19.578125 55.046875 
Q 24.21875 56 28.609375 56 
Q 40.484375 56 46.34375 49.84375 
Q 52.203125 43.703125 52.203125 31.203125 
z
" id="DejaVuSans-97"/>
      <path d="M 54.890625 33.015625 
L 54.890625 0 
L 45.90625 0 
L 45.90625 32.71875 
Q 45.90625 40.484375 42.875 44.328125 
Q 39.84375 48.1875 33.796875 48.1875 
Q 26.515625 48.1875 22.3125 43.546875 
Q 18.109375 38.921875 18.109375 30.90625 
L 18.109375 0 
L 9.078125 0 
L 9.078125 54.6875 
L 18.109375 54.6875 
L 18.109375 46.1875 
Q 21.34375 51.125 25.703125 53.5625 
Q 30.078125 56 35.796875 56 
Q 45.21875 56 50.046875 50.171875 
Q 54.890625 44.34375 54.890625 33.015625 
z
" id="DejaVuSans-110"/>
     </defs>
     <use xlink:href="#DejaVuSans-77"/>
     <use x="86.279297" xlink:href="#DejaVuSans-101"/>
     <use x="147.802734" xlink:href="#DejaVuSans-97"/>
     <use x="209.082031" xlink:href="#DejaVuSans-110"/>
    </g>
   </g>
   <g id="legend_1">
    <g id="patch_7">
     <path d="M 178.6575 264.119812 
L 361.1575 264.119812 
Q 371.1575 264.119812 371.1575 254.119812 
L 371.1575 107.237 
Q 371.1575 97.237 361.1575 97.237 
L 178.6575 97.237 
Q 168.6575 97.237 168.6575 107.237 
L 168.6575 254.119812 
Q 168.6575 264.119812 178.6575 264.119812 
z
" style="fill:#ffffff;opacity:0.8;stroke:#cccccc;stroke-linejoin:miter;"/>
    </g>
    <g id="line2d_88"/>
    <g id="line2d_89">
     <g>
      <use style="fill:#ff3000;stroke:#ff3000;" x="238.6575" xlink:href="#m3ef77864e6" y="137.729187"/>
     </g>
    </g>
    <g id="text_9">
     <!-- $P_x$ -->
     <g transform="translate(298.6575 155.229187)scale(0.5 -0.5)">
      <defs>
       <path d="M 16.890625 72.90625 
L 39.703125 72.90625 
Q 49.65625 72.90625 54.875 68.265625 
Q 60.109375 63.625 60.109375 54.6875 
Q 60.109375 42.671875 52.390625 35.984375 
Q 44.671875 29.296875 30.71875 29.296875 
L 18.3125 29.296875 
L 12.59375 0 
L 2.6875 0 
z
M 25.203125 64.796875 
L 19.921875 37.40625 
L 32.328125 37.40625 
Q 40.71875 37.40625 45.203125 41.703125 
Q 49.703125 46 49.703125 54 
Q 49.703125 59.125 46.65625 61.953125 
Q 43.609375 64.796875 38.09375 64.796875 
z
" id="DejaVuSans-Oblique-80"/>
       <path d="M 60.015625 54.6875 
L 34.90625 27.875 
L 50.296875 0 
L 39.984375 0 
L 28.421875 21.6875 
L 8.296875 0 
L -2.59375 0 
L 24.3125 28.8125 
L 10.015625 54.6875 
L 20.3125 54.6875 
L 30.8125 34.90625 
L 49.125 54.6875 
z
" id="DejaVuSans-Oblique-120"/>
      </defs>
      <use transform="translate(0 0.09375)" xlink:href="#DejaVuSans-Oblique-80"/>
      <use transform="translate(60.302734 -16.3125)scale(0.7)" xlink:href="#DejaVuSans-Oblique-120"/>
     </g>
    </g>
    <g id="line2d_90"/>
    <g id="line2d_91">
     <g>
      <use style="fill:#b7ff40;stroke:#b7ff40;" x="238.6575" xlink:href="#m0a75bf4a11" y="211.119812"/>
     </g>
    </g>
    <g id="text_10">
     <!-- $P_y$ -->
     <g transform="translate(298.6575 228.619812)scale(0.5 -0.5)">
      <defs>
       <path d="M 24.8125 -5.078125 
Q 18.5625 -15.578125 14.625 -18.1875 
Q 10.6875 -20.796875 4.59375 -20.796875 
L -2.484375 -20.796875 
L -0.984375 -13.28125 
L 4.203125 -13.28125 
Q 7.953125 -13.28125 10.59375 -11.234375 
Q 13.234375 -9.1875 16.5 -3.21875 
L 19.28125 2 
L 7.171875 54.6875 
L 16.703125 54.6875 
L 25.78125 12.796875 
L 50.875 54.6875 
L 60.296875 54.6875 
z
" id="DejaVuSans-Oblique-121"/>
      </defs>
      <use transform="translate(0 0.09375)" xlink:href="#DejaVuSans-Oblique-80"/>
      <use transform="translate(60.302734 -16.3125)scale(0.7)" xlink:href="#DejaVuSans-Oblique-121"/>
     </g>
    </g>
   </g>
  </g>
 </g>
 <defs>
  <clipPath id="p842d91e206">
   <rect height="434.88" width="502.2" x="143.6575" y="72.237"/>
  </clipPath>
 </defs>
</svg>
