<?xml version="1.0" encoding="utf-8" standalone="no"?>
<!DOCTYPE svg PUBLIC "-//W3C//DTD SVG 1.1//EN"
  "http://www.w3.org/Graphics/SVG/1.1/DTD/svg11.dtd">
<!-- Created with matplotlib (https://matplotlib.org/) -->
<svg height="633.712pt" version="1.1" viewBox="0 0 653.0575 633.712" width="653.0575pt" xmlns="http://www.w3.org/2000/svg" xmlns:xlink="http://www.w3.org/1999/xlink">
 <metadata>
  <rdf:RDF xmlns:cc="http://creativecommons.org/ns#" xmlns:dc="http://purl.org/dc/elements/1.1/" xmlns:rdf="http://www.w3.org/1999/02/22-rdf-syntax-ns#">
   <cc:Work>
    <dc:type rdf:resource="http://purl.org/dc/dcmitype/StillImage"/>
    <dc:date>2023-01-05T11:24:57.125502</dc:date>
    <dc:format>image/svg+xml</dc:format>
    <dc:creator>
     <cc:Agent>
      <dc:title>Matplotlib v3.3.4, https://matplotlib.org/</dc:title>
     </cc:Agent>
    </dc:creator>
   </cc:Work>
  </rdf:RDF>
 </metadata>
 <defs>
  <style type="text/css">*{stroke-linecap:butt;stroke-linejoin:round;}</style>
 </defs>
 <g id="figure_1">
  <g id="patch_1">
   <path d="M 0 633.712 
L 653.0575 633.712 
L 653.0575 0 
L 0 0 
z
" style="fill:#ffffff;"/>
  </g>
  <g id="axes_1">
   <g id="patch_2">
    <path d="M 143.6575 507.117 
L 645.8575 507.117 
L 645.8575 72.237 
L 143.6575 72.237 
z
" style="fill:#ffffff;"/>
   </g>
   <g id="line2d_1">
    <defs>
     <path d="M 0 10 
C 2.652031 10 5.195799 8.946337 7.071068 7.071068 
C 8.946337 5.195799 10 2.652031 10 0 
C 10 -2.652031 8.946337 -5.195799 7.071068 -7.071068 
C 5.195799 -8.946337 2.652031 -10 0 -10 
C -2.652031 -10 -5.195799 -8.946337 -7.071068 -7.071068 
C -8.946337 -5.195799 -10 -2.652031 -10 0 
C -10 2.652031 -8.946337 5.195799 -7.071068 7.071068 
C -5.195799 8.946337 -2.652031 10 0 10 
z
" id="m1d278cfbbb" style="stroke:#b7ff40;"/>
    </defs>
    <g clip-path="url(#p110cf85861)">
     <use style="fill:#b7ff40;stroke:#b7ff40;" x="166.484773" xlink:href="#m1d278cfbbb" y="461.421679"/>
    </g>
   </g>
   <g id="line2d_2">
    <defs>
     <path d="M 0 10 
C 2.652031 10 5.195799 8.946337 7.071068 7.071068 
C 8.946337 5.195799 10 2.652031 10 0 
C 10 -2.652031 8.946337 -5.195799 7.071068 -7.071068 
C 5.195799 -8.946337 2.652031 -10 0 -10 
C -2.652031 -10 -5.195799 -8.946337 -7.071068 -7.071068 
C -8.946337 -5.195799 -10 -2.652031 -10 0 
C -10 2.652031 -8.946337 5.195799 -7.071068 7.071068 
C -5.195799 8.946337 -2.652031 10 0 10 
z
" id="m7c7780a03f" style="stroke:#b7ff40;stroke-opacity:0.974615;"/>
    </defs>
    <g clip-path="url(#p110cf85861)">
     <use style="fill:#b7ff40;fill-opacity:0.974615;stroke:#b7ff40;stroke-opacity:0.974615;" x="280.11083" xlink:href="#m7c7780a03f" y="361.083389"/>
    </g>
   </g>
   <g id="line2d_3">
    <defs>
     <path d="M 0 10 
C 2.652031 10 5.195799 8.946337 7.071068 7.071068 
C 8.946337 5.195799 10 2.652031 10 0 
C 10 -2.652031 8.946337 -5.195799 7.071068 -7.071068 
C 5.195799 -8.946337 2.652031 -10 0 -10 
C -2.652031 -10 -5.195799 -8.946337 -7.071068 -7.071068 
C -8.946337 -5.195799 -10 -2.652031 -10 0 
C -10 2.652031 -8.946337 5.195799 -7.071068 7.071068 
C -5.195799 8.946337 -2.652031 10 0 10 
z
" id="m133befdf3a" style="stroke:#b7ff40;stroke-opacity:0.949231;"/>
    </defs>
    <g clip-path="url(#p110cf85861)">
     <use style="fill:#b7ff40;fill-opacity:0.949231;stroke:#b7ff40;stroke-opacity:0.949231;" x="367.095524" xlink:href="#m133befdf3a" y="301.844403"/>
    </g>
   </g>
   <g id="line2d_4">
    <defs>
     <path d="M 0 10 
C 2.652031 10 5.195799 8.946337 7.071068 7.071068 
C 8.946337 5.195799 10 2.652031 10 0 
C 10 -2.652031 8.946337 -5.195799 7.071068 -7.071068 
C 5.195799 -8.946337 2.652031 -10 0 -10 
C -2.652031 -10 -5.195799 -8.946337 -7.071068 -7.071068 
C -8.946337 -5.195799 -10 -2.652031 -10 0 
C -10 2.652031 -8.946337 5.195799 -7.071068 7.071068 
C -5.195799 8.946337 -2.652031 10 0 10 
z
" id="mda7d3ba342" style="stroke:#b7ff40;stroke-opacity:0.923846;"/>
    </defs>
    <g clip-path="url(#p110cf85861)">
     <use style="fill:#b7ff40;fill-opacity:0.923846;stroke:#b7ff40;stroke-opacity:0.923846;" x="458.170259" xlink:href="#mda7d3ba342" y="226.450965"/>
    </g>
   </g>
   <g id="line2d_5">
    <defs>
     <path d="M 0 10 
C 2.652031 10 5.195799 8.946337 7.071068 7.071068 
C 8.946337 5.195799 10 2.652031 10 0 
C 10 -2.652031 8.946337 -5.195799 7.071068 -7.071068 
C 5.195799 -8.946337 2.652031 -10 0 -10 
C -2.652031 -10 -5.195799 -8.946337 -7.071068 -7.071068 
C -8.946337 -5.195799 -10 -2.652031 -10 0 
C -10 2.652031 -8.946337 5.195799 -7.071068 7.071068 
C -5.195799 8.946337 -2.652031 10 0 10 
z
" id="m01a5fffe62" style="stroke:#b7ff40;stroke-opacity:0.898462;"/>
    </defs>
    <g clip-path="url(#p110cf85861)">
     <use style="fill:#b7ff40;fill-opacity:0.898462;stroke:#b7ff40;stroke-opacity:0.898462;" x="521.038573" xlink:href="#m01a5fffe62" y="176.933109"/>
    </g>
   </g>
   <g id="line2d_6">
    <defs>
     <path d="M 0 10 
C 2.652031 10 5.195799 8.946337 7.071068 7.071068 
C 8.946337 5.195799 10 2.652031 10 0 
C 10 -2.652031 8.946337 -5.195799 7.071068 -7.071068 
C 5.195799 -8.946337 2.652031 -10 0 -10 
C -2.652031 -10 -5.195799 -8.946337 -7.071068 -7.071068 
C -8.946337 -5.195799 -10 -2.652031 -10 0 
C -10 2.652031 -8.946337 5.195799 -7.071068 7.071068 
C -5.195799 8.946337 -2.652031 10 0 10 
z
" id="m2e78e20528" style="stroke:#b7ff40;stroke-opacity:0.873077;"/>
    </defs>
    <g clip-path="url(#p110cf85861)">
     <use style="fill:#b7ff40;fill-opacity:0.873077;stroke:#b7ff40;stroke-opacity:0.873077;" x="557.943381" xlink:href="#m2e78e20528" y="149.068898"/>
    </g>
   </g>
   <g id="line2d_7">
    <defs>
     <path d="M 0 10 
C 2.652031 10 5.195799 8.946337 7.071068 7.071068 
C 8.946337 5.195799 10 2.652031 10 0 
C 10 -2.652031 8.946337 -5.195799 7.071068 -7.071068 
C 5.195799 -8.946337 2.652031 -10 0 -10 
C -2.652031 -10 -5.195799 -8.946337 -7.071068 -7.071068 
C -8.946337 -5.195799 -10 -2.652031 -10 0 
C -10 2.652031 -8.946337 5.195799 -7.071068 7.071068 
C -5.195799 8.946337 -2.652031 10 0 10 
z
" id="mf04a94f169" style="stroke:#b7ff40;stroke-opacity:0.847692;"/>
    </defs>
    <g clip-path="url(#p110cf85861)">
     <use style="fill:#b7ff40;fill-opacity:0.847692;stroke:#b7ff40;stroke-opacity:0.847692;" x="578.598563" xlink:href="#mf04a94f169" y="132.193205"/>
    </g>
   </g>
   <g id="line2d_8">
    <defs>
     <path d="M 0 10 
C 2.652031 10 5.195799 8.946337 7.071068 7.071068 
C 8.946337 5.195799 10 2.652031 10 0 
C 10 -2.652031 8.946337 -5.195799 7.071068 -7.071068 
C 5.195799 -8.946337 2.652031 -10 0 -10 
C -2.652031 -10 -5.195799 -8.946337 -7.071068 -7.071068 
C -8.946337 -5.195799 -10 -2.652031 -10 0 
C -10 2.652031 -8.946337 5.195799 -7.071068 7.071068 
C -5.195799 8.946337 -2.652031 10 0 10 
z
" id="m1c3d1a94e3" style="stroke:#b7ff40;stroke-opacity:0.822308;"/>
    </defs>
    <g clip-path="url(#p110cf85861)">
     <use style="fill:#b7ff40;fill-opacity:0.822308;stroke:#b7ff40;stroke-opacity:0.822308;" x="591.638249" xlink:href="#m1c3d1a94e3" y="123.249094"/>
    </g>
   </g>
   <g id="line2d_9">
    <defs>
     <path d="M 0 10 
C 2.652031 10 5.195799 8.946337 7.071068 7.071068 
C 8.946337 5.195799 10 2.652031 10 0 
C 10 -2.652031 8.946337 -5.195799 7.071068 -7.071068 
C 5.195799 -8.946337 2.652031 -10 0 -10 
C -2.652031 -10 -5.195799 -8.946337 -7.071068 -7.071068 
C -8.946337 -5.195799 -10 -2.652031 -10 0 
C -10 2.652031 -8.946337 5.195799 -7.071068 7.071068 
C -5.195799 8.946337 -2.652031 10 0 10 
z
" id="mcf410e640b" style="stroke:#b7ff40;stroke-opacity:0.796923;"/>
    </defs>
    <g clip-path="url(#p110cf85861)">
     <use style="fill:#b7ff40;fill-opacity:0.796923;stroke:#b7ff40;stroke-opacity:0.796923;" x="596.888153" xlink:href="#mcf410e640b" y="120.838772"/>
    </g>
   </g>
   <g id="line2d_10">
    <defs>
     <path d="M 0 10 
C 2.652031 10 5.195799 8.946337 7.071068 7.071068 
C 8.946337 5.195799 10 2.652031 10 0 
C 10 -2.652031 8.946337 -5.195799 7.071068 -7.071068 
C 5.195799 -8.946337 2.652031 -10 0 -10 
C -2.652031 -10 -5.195799 -8.946337 -7.071068 -7.071068 
C -8.946337 -5.195799 -10 -2.652031 -10 0 
C -10 2.652031 -8.946337 5.195799 -7.071068 7.071068 
C -5.195799 8.946337 -2.652031 10 0 10 
z
" id="m1dfc2e691b" style="stroke:#b7ff40;stroke-opacity:0.771538;"/>
    </defs>
    <g clip-path="url(#p110cf85861)">
     <use style="fill:#b7ff40;fill-opacity:0.771538;stroke:#b7ff40;stroke-opacity:0.771538;" x="596.37796" xlink:href="#m1dfc2e691b" y="115.127099"/>
    </g>
   </g>
   <g id="line2d_11">
    <defs>
     <path d="M 0 10 
C 2.652031 10 5.195799 8.946337 7.071068 7.071068 
C 8.946337 5.195799 10 2.652031 10 0 
C 10 -2.652031 8.946337 -5.195799 7.071068 -7.071068 
C 5.195799 -8.946337 2.652031 -10 0 -10 
C -2.652031 -10 -5.195799 -8.946337 -7.071068 -7.071068 
C -8.946337 -5.195799 -10 -2.652031 -10 0 
C -10 2.652031 -8.946337 5.195799 -7.071068 7.071068 
C -5.195799 8.946337 -2.652031 10 0 10 
z
" id="m4ef355f342" style="stroke:#b7ff40;stroke-opacity:0.746154;"/>
    </defs>
    <g clip-path="url(#p110cf85861)">
     <use style="fill:#b7ff40;fill-opacity:0.746154;stroke:#b7ff40;stroke-opacity:0.746154;" x="597.126156" xlink:href="#m4ef355f342" y="113.724148"/>
    </g>
   </g>
   <g id="line2d_12">
    <defs>
     <path d="M 0 10 
C 2.652031 10 5.195799 8.946337 7.071068 7.071068 
C 8.946337 5.195799 10 2.652031 10 0 
C 10 -2.652031 8.946337 -5.195799 7.071068 -7.071068 
C 5.195799 -8.946337 2.652031 -10 0 -10 
C -2.652031 -10 -5.195799 -8.946337 -7.071068 -7.071068 
C -8.946337 -5.195799 -10 -2.652031 -10 0 
C -10 2.652031 -8.946337 5.195799 -7.071068 7.071068 
C -5.195799 8.946337 -2.652031 10 0 10 
z
" id="ma9ec044bd8" style="stroke:#b7ff40;stroke-opacity:0.720769;"/>
    </defs>
    <g clip-path="url(#p110cf85861)">
     <use style="fill:#b7ff40;fill-opacity:0.720769;stroke:#b7ff40;stroke-opacity:0.720769;" x="599.509145" xlink:href="#ma9ec044bd8" y="113.116587"/>
    </g>
   </g>
   <g id="line2d_13">
    <defs>
     <path d="M 0 10 
C 2.652031 10 5.195799 8.946337 7.071068 7.071068 
C 8.946337 5.195799 10 2.652031 10 0 
C 10 -2.652031 8.946337 -5.195799 7.071068 -7.071068 
C 5.195799 -8.946337 2.652031 -10 0 -10 
C -2.652031 -10 -5.195799 -8.946337 -7.071068 -7.071068 
C -8.946337 -5.195799 -10 -2.652031 -10 0 
C -10 2.652031 -8.946337 5.195799 -7.071068 7.071068 
C -5.195799 8.946337 -2.652031 10 0 10 
z
" id="m83145320c0" style="stroke:#b7ff40;stroke-opacity:0.695385;"/>
    </defs>
    <g clip-path="url(#p110cf85861)">
     <use style="fill:#b7ff40;fill-opacity:0.695385;stroke:#b7ff40;stroke-opacity:0.695385;" x="599.379131" xlink:href="#m83145320c0" y="113.452516"/>
    </g>
   </g>
   <g id="line2d_14">
    <defs>
     <path d="M 0 10 
C 2.652031 10 5.195799 8.946337 7.071068 7.071068 
C 8.946337 5.195799 10 2.652031 10 0 
C 10 -2.652031 8.946337 -5.195799 7.071068 -7.071068 
C 5.195799 -8.946337 2.652031 -10 0 -10 
C -2.652031 -10 -5.195799 -8.946337 -7.071068 -7.071068 
C -8.946337 -5.195799 -10 -2.652031 -10 0 
C -10 2.652031 -8.946337 5.195799 -7.071068 7.071068 
C -5.195799 8.946337 -2.652031 10 0 10 
z
" id="m339e1eb2f8" style="stroke:#b7ff40;stroke-opacity:0.67;"/>
    </defs>
    <g clip-path="url(#p110cf85861)">
     <use style="fill:#b7ff40;fill-opacity:0.67;stroke:#b7ff40;stroke-opacity:0.67;" x="600.80003" xlink:href="#m339e1eb2f8" y="114.258879"/>
    </g>
   </g>
   <g id="line2d_15">
    <defs>
     <path d="M 0 10 
C 2.652031 10 5.195799 8.946337 7.071068 7.071068 
C 8.946337 5.195799 10 2.652031 10 0 
C 10 -2.652031 8.946337 -5.195799 7.071068 -7.071068 
C 5.195799 -8.946337 2.652031 -10 0 -10 
C -2.652031 -10 -5.195799 -8.946337 -7.071068 -7.071068 
C -8.946337 -5.195799 -10 -2.652031 -10 0 
C -10 2.652031 -8.946337 5.195799 -7.071068 7.071068 
C -5.195799 8.946337 -2.652031 10 0 10 
z
" id="me19af67458" style="stroke:#b7ff40;stroke-opacity:0.644615;"/>
    </defs>
    <g clip-path="url(#p110cf85861)">
     <use style="fill:#b7ff40;fill-opacity:0.644615;stroke:#b7ff40;stroke-opacity:0.644615;" x="600.250471" xlink:href="#me19af67458" y="114.487099"/>
    </g>
   </g>
   <g id="line2d_16">
    <defs>
     <path d="M 0 10 
C 2.652031 10 5.195799 8.946337 7.071068 7.071068 
C 8.946337 5.195799 10 2.652031 10 0 
C 10 -2.652031 8.946337 -5.195799 7.071068 -7.071068 
C 5.195799 -8.946337 2.652031 -10 0 -10 
C -2.652031 -10 -5.195799 -8.946337 -7.071068 -7.071068 
C -8.946337 -5.195799 -10 -2.652031 -10 0 
C -10 2.652031 -8.946337 5.195799 -7.071068 7.071068 
C -5.195799 8.946337 -2.652031 10 0 10 
z
" id="m6f80e2696f" style="stroke:#b7ff40;stroke-opacity:0.619231;"/>
    </defs>
    <g clip-path="url(#p110cf85861)">
     <use style="fill:#b7ff40;fill-opacity:0.619231;stroke:#b7ff40;stroke-opacity:0.619231;" x="598.55312" xlink:href="#m6f80e2696f" y="116.862435"/>
    </g>
   </g>
   <g id="line2d_17">
    <defs>
     <path d="M 0 10 
C 2.652031 10 5.195799 8.946337 7.071068 7.071068 
C 8.946337 5.195799 10 2.652031 10 0 
C 10 -2.652031 8.946337 -5.195799 7.071068 -7.071068 
C 5.195799 -8.946337 2.652031 -10 0 -10 
C -2.652031 -10 -5.195799 -8.946337 -7.071068 -7.071068 
C -8.946337 -5.195799 -10 -2.652031 -10 0 
C -10 2.652031 -8.946337 5.195799 -7.071068 7.071068 
C -5.195799 8.946337 -2.652031 10 0 10 
z
" id="mb765737604" style="stroke:#b7ff40;stroke-opacity:0.593846;"/>
    </defs>
    <g clip-path="url(#p110cf85861)">
     <use style="fill:#b7ff40;fill-opacity:0.593846;stroke:#b7ff40;stroke-opacity:0.593846;" x="598.79892" xlink:href="#mb765737604" y="113.818073"/>
    </g>
   </g>
   <g id="line2d_18">
    <defs>
     <path d="M 0 10 
C 2.652031 10 5.195799 8.946337 7.071068 7.071068 
C 8.946337 5.195799 10 2.652031 10 0 
C 10 -2.652031 8.946337 -5.195799 7.071068 -7.071068 
C 5.195799 -8.946337 2.652031 -10 0 -10 
C -2.652031 -10 -5.195799 -8.946337 -7.071068 -7.071068 
C -8.946337 -5.195799 -10 -2.652031 -10 0 
C -10 2.652031 -8.946337 5.195799 -7.071068 7.071068 
C -5.195799 8.946337 -2.652031 10 0 10 
z
" id="m54c0003f24" style="stroke:#b7ff40;stroke-opacity:0.568462;"/>
    </defs>
    <g clip-path="url(#p110cf85861)">
     <use style="fill:#b7ff40;fill-opacity:0.568462;stroke:#b7ff40;stroke-opacity:0.568462;" x="598.72832" xlink:href="#m54c0003f24" y="112.584185"/>
    </g>
   </g>
   <g id="line2d_19">
    <defs>
     <path d="M 0 10 
C 2.652031 10 5.195799 8.946337 7.071068 7.071068 
C 8.946337 5.195799 10 2.652031 10 0 
C 10 -2.652031 8.946337 -5.195799 7.071068 -7.071068 
C 5.195799 -8.946337 2.652031 -10 0 -10 
C -2.652031 -10 -5.195799 -8.946337 -7.071068 -7.071068 
C -8.946337 -5.195799 -10 -2.652031 -10 0 
C -10 2.652031 -8.946337 5.195799 -7.071068 7.071068 
C -5.195799 8.946337 -2.652031 10 0 10 
z
" id="m62421bd3be" style="stroke:#b7ff40;stroke-opacity:0.543077;"/>
    </defs>
    <g clip-path="url(#p110cf85861)">
     <use style="fill:#b7ff40;fill-opacity:0.543077;stroke:#b7ff40;stroke-opacity:0.543077;" x="599.192071" xlink:href="#m62421bd3be" y="111.839795"/>
    </g>
   </g>
   <g id="line2d_20">
    <defs>
     <path d="M 0 10 
C 2.652031 10 5.195799 8.946337 7.071068 7.071068 
C 8.946337 5.195799 10 2.652031 10 0 
C 10 -2.652031 8.946337 -5.195799 7.071068 -7.071068 
C 5.195799 -8.946337 2.652031 -10 0 -10 
C -2.652031 -10 -5.195799 -8.946337 -7.071068 -7.071068 
C -8.946337 -5.195799 -10 -2.652031 -10 0 
C -10 2.652031 -8.946337 5.195799 -7.071068 7.071068 
C -5.195799 8.946337 -2.652031 10 0 10 
z
" id="m0c82e5a3a9" style="stroke:#b7ff40;stroke-opacity:0.517692;"/>
    </defs>
    <g clip-path="url(#p110cf85861)">
     <use style="fill:#b7ff40;fill-opacity:0.517692;stroke:#b7ff40;stroke-opacity:0.517692;" x="599.190307" xlink:href="#m0c82e5a3a9" y="114.344133"/>
    </g>
   </g>
   <g id="line2d_21">
    <defs>
     <path d="M 0 10 
C 2.652031 10 5.195799 8.946337 7.071068 7.071068 
C 8.946337 5.195799 10 2.652031 10 0 
C 10 -2.652031 8.946337 -5.195799 7.071068 -7.071068 
C 5.195799 -8.946337 2.652031 -10 0 -10 
C -2.652031 -10 -5.195799 -8.946337 -7.071068 -7.071068 
C -8.946337 -5.195799 -10 -2.652031 -10 0 
C -10 2.652031 -8.946337 5.195799 -7.071068 7.071068 
C -5.195799 8.946337 -2.652031 10 0 10 
z
" id="mdaa6e8b830" style="stroke:#b7ff40;stroke-opacity:0.492308;"/>
    </defs>
    <g clip-path="url(#p110cf85861)">
     <use style="fill:#b7ff40;fill-opacity:0.492308;stroke:#b7ff40;stroke-opacity:0.492308;" x="598.099394" xlink:href="#mdaa6e8b830" y="112.769419"/>
    </g>
   </g>
   <g id="line2d_22">
    <defs>
     <path d="M 0 10 
C 2.652031 10 5.195799 8.946337 7.071068 7.071068 
C 8.946337 5.195799 10 2.652031 10 0 
C 10 -2.652031 8.946337 -5.195799 7.071068 -7.071068 
C 5.195799 -8.946337 2.652031 -10 0 -10 
C -2.652031 -10 -5.195799 -8.946337 -7.071068 -7.071068 
C -8.946337 -5.195799 -10 -2.652031 -10 0 
C -10 2.652031 -8.946337 5.195799 -7.071068 7.071068 
C -5.195799 8.946337 -2.652031 10 0 10 
z
" id="mf347802ab3" style="stroke:#b7ff40;stroke-opacity:0.466923;"/>
    </defs>
    <g clip-path="url(#p110cf85861)">
     <use style="fill:#b7ff40;fill-opacity:0.466923;stroke:#b7ff40;stroke-opacity:0.466923;" x="600.426142" xlink:href="#mf347802ab3" y="113.472993"/>
    </g>
   </g>
   <g id="line2d_23">
    <defs>
     <path d="M 0 10 
C 2.652031 10 5.195799 8.946337 7.071068 7.071068 
C 8.946337 5.195799 10 2.652031 10 0 
C 10 -2.652031 8.946337 -5.195799 7.071068 -7.071068 
C 5.195799 -8.946337 2.652031 -10 0 -10 
C -2.652031 -10 -5.195799 -8.946337 -7.071068 -7.071068 
C -8.946337 -5.195799 -10 -2.652031 -10 0 
C -10 2.652031 -8.946337 5.195799 -7.071068 7.071068 
C -5.195799 8.946337 -2.652031 10 0 10 
z
" id="mefd834664b" style="stroke:#b7ff40;stroke-opacity:0.441538;"/>
    </defs>
    <g clip-path="url(#p110cf85861)">
     <use style="fill:#b7ff40;fill-opacity:0.441538;stroke:#b7ff40;stroke-opacity:0.441538;" x="599.574875" xlink:href="#mefd834664b" y="112.208502"/>
    </g>
   </g>
   <g id="line2d_24">
    <defs>
     <path d="M 0 10 
C 2.652031 10 5.195799 8.946337 7.071068 7.071068 
C 8.946337 5.195799 10 2.652031 10 0 
C 10 -2.652031 8.946337 -5.195799 7.071068 -7.071068 
C 5.195799 -8.946337 2.652031 -10 0 -10 
C -2.652031 -10 -5.195799 -8.946337 -7.071068 -7.071068 
C -8.946337 -5.195799 -10 -2.652031 -10 0 
C -10 2.652031 -8.946337 5.195799 -7.071068 7.071068 
C -5.195799 8.946337 -2.652031 10 0 10 
z
" id="m17acc28a63" style="stroke:#b7ff40;stroke-opacity:0.416154;"/>
    </defs>
    <g clip-path="url(#p110cf85861)">
     <use style="fill:#b7ff40;fill-opacity:0.416154;stroke:#b7ff40;stroke-opacity:0.416154;" x="600.126024" xlink:href="#m17acc28a63" y="111.400206"/>
    </g>
   </g>
   <g id="line2d_25">
    <defs>
     <path d="M 0 10 
C 2.652031 10 5.195799 8.946337 7.071068 7.071068 
C 8.946337 5.195799 10 2.652031 10 0 
C 10 -2.652031 8.946337 -5.195799 7.071068 -7.071068 
C 5.195799 -8.946337 2.652031 -10 0 -10 
C -2.652031 -10 -5.195799 -8.946337 -7.071068 -7.071068 
C -8.946337 -5.195799 -10 -2.652031 -10 0 
C -10 2.652031 -8.946337 5.195799 -7.071068 7.071068 
C -5.195799 8.946337 -2.652031 10 0 10 
z
" id="mf11bf8fc9f" style="stroke:#b7ff40;stroke-opacity:0.390769;"/>
    </defs>
    <g clip-path="url(#p110cf85861)">
     <use style="fill:#b7ff40;fill-opacity:0.390769;stroke:#b7ff40;stroke-opacity:0.390769;" x="599.08113" xlink:href="#mf11bf8fc9f" y="113.080459"/>
    </g>
   </g>
   <g id="line2d_26">
    <defs>
     <path d="M 0 10 
C 2.652031 10 5.195799 8.946337 7.071068 7.071068 
C 8.946337 5.195799 10 2.652031 10 0 
C 10 -2.652031 8.946337 -5.195799 7.071068 -7.071068 
C 5.195799 -8.946337 2.652031 -10 0 -10 
C -2.652031 -10 -5.195799 -8.946337 -7.071068 -7.071068 
C -8.946337 -5.195799 -10 -2.652031 -10 0 
C -10 2.652031 -8.946337 5.195799 -7.071068 7.071068 
C -5.195799 8.946337 -2.652031 10 0 10 
z
" id="m8abfc66bae" style="stroke:#b7ff40;stroke-opacity:0.365385;"/>
    </defs>
    <g clip-path="url(#p110cf85861)">
     <use style="fill:#b7ff40;fill-opacity:0.365385;stroke:#b7ff40;stroke-opacity:0.365385;" x="597.106661" xlink:href="#m8abfc66bae" y="115.665427"/>
    </g>
   </g>
   <g id="line2d_27">
    <defs>
     <path d="M 0 10 
C 2.652031 10 5.195799 8.946337 7.071068 7.071068 
C 8.946337 5.195799 10 2.652031 10 0 
C 10 -2.652031 8.946337 -5.195799 7.071068 -7.071068 
C 5.195799 -8.946337 2.652031 -10 0 -10 
C -2.652031 -10 -5.195799 -8.946337 -7.071068 -7.071068 
C -8.946337 -5.195799 -10 -2.652031 -10 0 
C -10 2.652031 -8.946337 5.195799 -7.071068 7.071068 
C -5.195799 8.946337 -2.652031 10 0 10 
z
" id="mcb4f00ecda" style="stroke:#b7ff40;stroke-opacity:0.34;"/>
    </defs>
    <g clip-path="url(#p110cf85861)">
     <use style="fill:#b7ff40;fill-opacity:0.34;stroke:#b7ff40;stroke-opacity:0.34;" x="600.239463" xlink:href="#mcb4f00ecda" y="113.559865"/>
    </g>
   </g>
   <g id="line2d_28">
    <defs>
     <path d="M 0 10 
C 2.652031 10 5.195799 8.946337 7.071068 7.071068 
C 8.946337 5.195799 10 2.652031 10 0 
C 10 -2.652031 8.946337 -5.195799 7.071068 -7.071068 
C 5.195799 -8.946337 2.652031 -10 0 -10 
C -2.652031 -10 -5.195799 -8.946337 -7.071068 -7.071068 
C -8.946337 -5.195799 -10 -2.652031 -10 0 
C -10 2.652031 -8.946337 5.195799 -7.071068 7.071068 
C -5.195799 8.946337 -2.652031 10 0 10 
z
" id="mdc1d21b09a" style="stroke:#b7ff40;stroke-opacity:0.314615;"/>
    </defs>
    <g clip-path="url(#p110cf85861)">
     <use style="fill:#b7ff40;fill-opacity:0.314615;stroke:#b7ff40;stroke-opacity:0.314615;" x="599.029598" xlink:href="#mdc1d21b09a" y="113.351482"/>
    </g>
   </g>
   <g id="line2d_29">
    <defs>
     <path d="M 0 10 
C 2.652031 10 5.195799 8.946337 7.071068 7.071068 
C 8.946337 5.195799 10 2.652031 10 0 
C 10 -2.652031 8.946337 -5.195799 7.071068 -7.071068 
C 5.195799 -8.946337 2.652031 -10 0 -10 
C -2.652031 -10 -5.195799 -8.946337 -7.071068 -7.071068 
C -8.946337 -5.195799 -10 -2.652031 -10 0 
C -10 2.652031 -8.946337 5.195799 -7.071068 7.071068 
C -5.195799 8.946337 -2.652031 10 0 10 
z
" id="m7861ecea2c" style="stroke:#b7ff40;stroke-opacity:0.289231;"/>
    </defs>
    <g clip-path="url(#p110cf85861)">
     <use style="fill:#b7ff40;fill-opacity:0.289231;stroke:#b7ff40;stroke-opacity:0.289231;" x="597.838638" xlink:href="#m7861ecea2c" y="113.994064"/>
    </g>
   </g>
   <g id="line2d_30">
    <defs>
     <path d="M 0 10 
C 2.652031 10 5.195799 8.946337 7.071068 7.071068 
C 8.946337 5.195799 10 2.652031 10 0 
C 10 -2.652031 8.946337 -5.195799 7.071068 -7.071068 
C 5.195799 -8.946337 2.652031 -10 0 -10 
C -2.652031 -10 -5.195799 -8.946337 -7.071068 -7.071068 
C -8.946337 -5.195799 -10 -2.652031 -10 0 
C -10 2.652031 -8.946337 5.195799 -7.071068 7.071068 
C -5.195799 8.946337 -2.652031 10 0 10 
z
" id="m30fe15c8b2" style="stroke:#b7ff40;stroke-opacity:0.263846;"/>
    </defs>
    <g clip-path="url(#p110cf85861)">
     <use style="fill:#b7ff40;fill-opacity:0.263846;stroke:#b7ff40;stroke-opacity:0.263846;" x="596.479514" xlink:href="#m30fe15c8b2" y="113.351576"/>
    </g>
   </g>
   <g id="line2d_31">
    <defs>
     <path d="M 0 10 
C 2.652031 10 5.195799 8.946337 7.071068 7.071068 
C 8.946337 5.195799 10 2.652031 10 0 
C 10 -2.652031 8.946337 -5.195799 7.071068 -7.071068 
C 5.195799 -8.946337 2.652031 -10 0 -10 
C -2.652031 -10 -5.195799 -8.946337 -7.071068 -7.071068 
C -8.946337 -5.195799 -10 -2.652031 -10 0 
C -10 2.652031 -8.946337 5.195799 -7.071068 7.071068 
C -5.195799 8.946337 -2.652031 10 0 10 
z
" id="m30e9048080" style="stroke:#b7ff40;stroke-opacity:0.238462;"/>
    </defs>
    <g clip-path="url(#p110cf85861)">
     <use style="fill:#b7ff40;fill-opacity:0.238462;stroke:#b7ff40;stroke-opacity:0.238462;" x="596.869833" xlink:href="#m30e9048080" y="114.808799"/>
    </g>
   </g>
   <g id="line2d_32">
    <defs>
     <path d="M 0 10 
C 2.652031 10 5.195799 8.946337 7.071068 7.071068 
C 8.946337 5.195799 10 2.652031 10 0 
C 10 -2.652031 8.946337 -5.195799 7.071068 -7.071068 
C 5.195799 -8.946337 2.652031 -10 0 -10 
C -2.652031 -10 -5.195799 -8.946337 -7.071068 -7.071068 
C -8.946337 -5.195799 -10 -2.652031 -10 0 
C -10 2.652031 -8.946337 5.195799 -7.071068 7.071068 
C -5.195799 8.946337 -2.652031 10 0 10 
z
" id="mcd4ff45d2b" style="stroke:#b7ff40;stroke-opacity:0.213077;"/>
    </defs>
    <g clip-path="url(#p110cf85861)">
     <use style="fill:#b7ff40;fill-opacity:0.213077;stroke:#b7ff40;stroke-opacity:0.213077;" x="597.792866" xlink:href="#mcd4ff45d2b" y="112.969599"/>
    </g>
   </g>
   <g id="line2d_33">
    <defs>
     <path d="M 0 10 
C 2.652031 10 5.195799 8.946337 7.071068 7.071068 
C 8.946337 5.195799 10 2.652031 10 0 
C 10 -2.652031 8.946337 -5.195799 7.071068 -7.071068 
C 5.195799 -8.946337 2.652031 -10 0 -10 
C -2.652031 -10 -5.195799 -8.946337 -7.071068 -7.071068 
C -8.946337 -5.195799 -10 -2.652031 -10 0 
C -10 2.652031 -8.946337 5.195799 -7.071068 7.071068 
C -5.195799 8.946337 -2.652031 10 0 10 
z
" id="m77aeb9a105" style="stroke:#b7ff40;stroke-opacity:0.187692;"/>
    </defs>
    <g clip-path="url(#p110cf85861)">
     <use style="fill:#b7ff40;fill-opacity:0.187692;stroke:#b7ff40;stroke-opacity:0.187692;" x="597.156141" xlink:href="#m77aeb9a105" y="114.024223"/>
    </g>
   </g>
   <g id="line2d_34">
    <defs>
     <path d="M 0 10 
C 2.652031 10 5.195799 8.946337 7.071068 7.071068 
C 8.946337 5.195799 10 2.652031 10 0 
C 10 -2.652031 8.946337 -5.195799 7.071068 -7.071068 
C 5.195799 -8.946337 2.652031 -10 0 -10 
C -2.652031 -10 -5.195799 -8.946337 -7.071068 -7.071068 
C -8.946337 -5.195799 -10 -2.652031 -10 0 
C -10 2.652031 -8.946337 5.195799 -7.071068 7.071068 
C -5.195799 8.946337 -2.652031 10 0 10 
z
" id="ma74a1b219e" style="stroke:#b7ff40;stroke-opacity:0.162308;"/>
    </defs>
    <g clip-path="url(#p110cf85861)">
     <use style="fill:#b7ff40;fill-opacity:0.162308;stroke:#b7ff40;stroke-opacity:0.162308;" x="598.244193" xlink:href="#ma74a1b219e" y="114.465719"/>
    </g>
   </g>
   <g id="line2d_35">
    <defs>
     <path d="M 0 10 
C 2.652031 10 5.195799 8.946337 7.071068 7.071068 
C 8.946337 5.195799 10 2.652031 10 0 
C 10 -2.652031 8.946337 -5.195799 7.071068 -7.071068 
C 5.195799 -8.946337 2.652031 -10 0 -10 
C -2.652031 -10 -5.195799 -8.946337 -7.071068 -7.071068 
C -8.946337 -5.195799 -10 -2.652031 -10 0 
C -10 2.652031 -8.946337 5.195799 -7.071068 7.071068 
C -5.195799 8.946337 -2.652031 10 0 10 
z
" id="m9ee99934b1" style="stroke:#b7ff40;stroke-opacity:0.136923;"/>
    </defs>
    <g clip-path="url(#p110cf85861)">
     <use style="fill:#b7ff40;fill-opacity:0.136923;stroke:#b7ff40;stroke-opacity:0.136923;" x="599.238149" xlink:href="#m9ee99934b1" y="115.239478"/>
    </g>
   </g>
   <g id="line2d_36">
    <defs>
     <path d="M 0 10 
C 2.652031 10 5.195799 8.946337 7.071068 7.071068 
C 8.946337 5.195799 10 2.652031 10 0 
C 10 -2.652031 8.946337 -5.195799 7.071068 -7.071068 
C 5.195799 -8.946337 2.652031 -10 0 -10 
C -2.652031 -10 -5.195799 -8.946337 -7.071068 -7.071068 
C -8.946337 -5.195799 -10 -2.652031 -10 0 
C -10 2.652031 -8.946337 5.195799 -7.071068 7.071068 
C -5.195799 8.946337 -2.652031 10 0 10 
z
" id="m3e3f27b6cb" style="stroke:#b7ff40;stroke-opacity:0.111538;"/>
    </defs>
    <g clip-path="url(#p110cf85861)">
     <use style="fill:#b7ff40;fill-opacity:0.111538;stroke:#b7ff40;stroke-opacity:0.111538;" x="598.608977" xlink:href="#m3e3f27b6cb" y="114.211826"/>
    </g>
   </g>
   <g id="line2d_37">
    <defs>
     <path d="M 0 10 
C 2.652031 10 5.195799 8.946337 7.071068 7.071068 
C 8.946337 5.195799 10 2.652031 10 0 
C 10 -2.652031 8.946337 -5.195799 7.071068 -7.071068 
C 5.195799 -8.946337 2.652031 -10 0 -10 
C -2.652031 -10 -5.195799 -8.946337 -7.071068 -7.071068 
C -8.946337 -5.195799 -10 -2.652031 -10 0 
C -10 2.652031 -8.946337 5.195799 -7.071068 7.071068 
C -5.195799 8.946337 -2.652031 10 0 10 
z
" id="mc06a88b7c0" style="stroke:#b7ff40;stroke-opacity:0.086154;"/>
    </defs>
    <g clip-path="url(#p110cf85861)">
     <use style="fill:#b7ff40;fill-opacity:0.086154;stroke:#b7ff40;stroke-opacity:0.086154;" x="600.393602" xlink:href="#mc06a88b7c0" y="115.453113"/>
    </g>
   </g>
   <g id="line2d_38">
    <defs>
     <path d="M 0 10 
C 2.652031 10 5.195799 8.946337 7.071068 7.071068 
C 8.946337 5.195799 10 2.652031 10 0 
C 10 -2.652031 8.946337 -5.195799 7.071068 -7.071068 
C 5.195799 -8.946337 2.652031 -10 0 -10 
C -2.652031 -10 -5.195799 -8.946337 -7.071068 -7.071068 
C -8.946337 -5.195799 -10 -2.652031 -10 0 
C -10 2.652031 -8.946337 5.195799 -7.071068 7.071068 
C -5.195799 8.946337 -2.652031 10 0 10 
z
" id="mf297998f7e" style="stroke:#b7ff40;stroke-opacity:0.060769;"/>
    </defs>
    <g clip-path="url(#p110cf85861)">
     <use style="fill:#b7ff40;fill-opacity:0.060769;stroke:#b7ff40;stroke-opacity:0.060769;" x="599.135457" xlink:href="#mf297998f7e" y="111.972302"/>
    </g>
   </g>
   <g id="line2d_39">
    <defs>
     <path d="M 0 10 
C 2.652031 10 5.195799 8.946337 7.071068 7.071068 
C 8.946337 5.195799 10 2.652031 10 0 
C 10 -2.652031 8.946337 -5.195799 7.071068 -7.071068 
C 5.195799 -8.946337 2.652031 -10 0 -10 
C -2.652031 -10 -5.195799 -8.946337 -7.071068 -7.071068 
C -8.946337 -5.195799 -10 -2.652031 -10 0 
C -10 2.652031 -8.946337 5.195799 -7.071068 7.071068 
C -5.195799 8.946337 -2.652031 10 0 10 
z
" id="m3f3a8495a4" style="stroke:#b7ff40;stroke-opacity:0.035385;"/>
    </defs>
    <g clip-path="url(#p110cf85861)">
     <use style="fill:#b7ff40;fill-opacity:0.035385;stroke:#b7ff40;stroke-opacity:0.035385;" x="597.760609" xlink:href="#m3f3a8495a4" y="112.910452"/>
    </g>
   </g>
   <g id="line2d_40">
    <defs>
     <path d="M 0 10 
C 2.652031 10 5.195799 8.946337 7.071068 7.071068 
C 8.946337 5.195799 10 2.652031 10 0 
C 10 -2.652031 8.946337 -5.195799 7.071068 -7.071068 
C 5.195799 -8.946337 2.652031 -10 0 -10 
C -2.652031 -10 -5.195799 -8.946337 -7.071068 -7.071068 
C -8.946337 -5.195799 -10 -2.652031 -10 0 
C -10 2.652031 -8.946337 5.195799 -7.071068 7.071068 
C -5.195799 8.946337 -2.652031 10 0 10 
z
" id="m98aeeb8c04" style="stroke:#b7ff40;stroke-opacity:0.01;"/>
    </defs>
    <g clip-path="url(#p110cf85861)">
     <use style="fill:#b7ff40;fill-opacity:0.01;stroke:#b7ff40;stroke-opacity:0.01;" x="598.791193" xlink:href="#m98aeeb8c04" y="113.491881"/>
    </g>
   </g>
   <g id="matplotlib.axis_1">
    <g id="xtick_1">
     <g id="line2d_41">
      <defs>
       <path d="M 0 0 
L 0 3.5 
" id="m01850f33db" style="stroke:#000000;stroke-width:0.8;"/>
      </defs>
      <g>
       <use style="stroke:#000000;stroke-width:0.8;" x="166.484773" xlink:href="#m01850f33db" y="507.117"/>
      </g>
     </g>
     <g id="text_1">
      <!-- 0 -->
      <g transform="translate(148.669773 556.66825)scale(0.56 -0.56)">
       <defs>
        <path d="M 31.78125 66.40625 
Q 24.171875 66.40625 20.328125 58.90625 
Q 16.5 51.421875 16.5 36.375 
Q 16.5 21.390625 20.328125 13.890625 
Q 24.171875 6.390625 31.78125 6.390625 
Q 39.453125 6.390625 43.28125 13.890625 
Q 47.125 21.390625 47.125 36.375 
Q 47.125 51.421875 43.28125 58.90625 
Q 39.453125 66.40625 31.78125 66.40625 
z
M 31.78125 74.21875 
Q 44.046875 74.21875 50.515625 64.515625 
Q 56.984375 54.828125 56.984375 36.375 
Q 56.984375 17.96875 50.515625 8.265625 
Q 44.046875 -1.421875 31.78125 -1.421875 
Q 19.53125 -1.421875 13.0625 8.265625 
Q 6.59375 17.96875 6.59375 36.375 
Q 6.59375 54.828125 13.0625 64.515625 
Q 19.53125 74.21875 31.78125 74.21875 
z
" id="DejaVuSans-48"/>
       </defs>
       <use xlink:href="#DejaVuSans-48"/>
      </g>
     </g>
    </g>
    <g id="xtick_2">
     <g id="line2d_42">
      <g>
       <use style="stroke:#000000;stroke-width:0.8;" x="531.721136" xlink:href="#m01850f33db" y="507.117"/>
      </g>
     </g>
     <g id="text_2">
      <!-- 20 -->
      <g transform="translate(496.091136 556.66825)scale(0.56 -0.56)">
       <defs>
        <path d="M 19.1875 8.296875 
L 53.609375 8.296875 
L 53.609375 0 
L 7.328125 0 
L 7.328125 8.296875 
Q 12.9375 14.109375 22.625 23.890625 
Q 32.328125 33.6875 34.8125 36.53125 
Q 39.546875 41.84375 41.421875 45.53125 
Q 43.3125 49.21875 43.3125 52.78125 
Q 43.3125 58.59375 39.234375 62.25 
Q 35.15625 65.921875 28.609375 65.921875 
Q 23.96875 65.921875 18.8125 64.3125 
Q 13.671875 62.703125 7.8125 59.421875 
L 7.8125 69.390625 
Q 13.765625 71.78125 18.9375 73 
Q 24.125 74.21875 28.421875 74.21875 
Q 39.75 74.21875 46.484375 68.546875 
Q 53.21875 62.890625 53.21875 53.421875 
Q 53.21875 48.921875 51.53125 44.890625 
Q 49.859375 40.875 45.40625 35.40625 
Q 44.1875 33.984375 37.640625 27.21875 
Q 31.109375 20.453125 19.1875 8.296875 
z
" id="DejaVuSans-50"/>
       </defs>
       <use xlink:href="#DejaVuSans-50"/>
       <use x="63.623047" xlink:href="#DejaVuSans-48"/>
      </g>
     </g>
    </g>
    <g id="text_3">
     <!-- Gillespie -->
     <g transform="translate(275.1275 614.86575)scale(0.56 -0.56)">
      <defs>
       <path d="M 59.515625 10.40625 
L 59.515625 29.984375 
L 43.40625 29.984375 
L 43.40625 38.09375 
L 69.28125 38.09375 
L 69.28125 6.78125 
Q 63.578125 2.734375 56.6875 0.65625 
Q 49.8125 -1.421875 42 -1.421875 
Q 24.90625 -1.421875 15.25 8.5625 
Q 5.609375 18.5625 5.609375 36.375 
Q 5.609375 54.25 15.25 64.234375 
Q 24.90625 74.21875 42 74.21875 
Q 49.125 74.21875 55.546875 72.453125 
Q 61.96875 70.703125 67.390625 67.28125 
L 67.390625 56.78125 
Q 61.921875 61.421875 55.765625 63.765625 
Q 49.609375 66.109375 42.828125 66.109375 
Q 29.4375 66.109375 22.71875 58.640625 
Q 16.015625 51.171875 16.015625 36.375 
Q 16.015625 21.625 22.71875 14.15625 
Q 29.4375 6.6875 42.828125 6.6875 
Q 48.046875 6.6875 52.140625 7.59375 
Q 56.25 8.5 59.515625 10.40625 
z
" id="DejaVuSans-71"/>
       <path d="M 9.421875 54.6875 
L 18.40625 54.6875 
L 18.40625 0 
L 9.421875 0 
z
M 9.421875 75.984375 
L 18.40625 75.984375 
L 18.40625 64.59375 
L 9.421875 64.59375 
z
" id="DejaVuSans-105"/>
       <path d="M 9.421875 75.984375 
L 18.40625 75.984375 
L 18.40625 0 
L 9.421875 0 
z
" id="DejaVuSans-108"/>
       <path d="M 56.203125 29.59375 
L 56.203125 25.203125 
L 14.890625 25.203125 
Q 15.484375 15.921875 20.484375 11.0625 
Q 25.484375 6.203125 34.421875 6.203125 
Q 39.59375 6.203125 44.453125 7.46875 
Q 49.3125 8.734375 54.109375 11.28125 
L 54.109375 2.78125 
Q 49.265625 0.734375 44.1875 -0.34375 
Q 39.109375 -1.421875 33.890625 -1.421875 
Q 20.796875 -1.421875 13.15625 6.1875 
Q 5.515625 13.8125 5.515625 26.8125 
Q 5.515625 40.234375 12.765625 48.109375 
Q 20.015625 56 32.328125 56 
Q 43.359375 56 49.78125 48.890625 
Q 56.203125 41.796875 56.203125 29.59375 
z
M 47.21875 32.234375 
Q 47.125 39.59375 43.09375 43.984375 
Q 39.0625 48.390625 32.421875 48.390625 
Q 24.90625 48.390625 20.390625 44.140625 
Q 15.875 39.890625 15.1875 32.171875 
z
" id="DejaVuSans-101"/>
       <path d="M 44.28125 53.078125 
L 44.28125 44.578125 
Q 40.484375 46.53125 36.375 47.5 
Q 32.28125 48.484375 27.875 48.484375 
Q 21.1875 48.484375 17.84375 46.4375 
Q 14.5 44.390625 14.5 40.28125 
Q 14.5 37.15625 16.890625 35.375 
Q 19.28125 33.59375 26.515625 31.984375 
L 29.59375 31.296875 
Q 39.15625 29.25 43.1875 25.515625 
Q 47.21875 21.78125 47.21875 15.09375 
Q 47.21875 7.46875 41.1875 3.015625 
Q 35.15625 -1.421875 24.609375 -1.421875 
Q 20.21875 -1.421875 15.453125 -0.5625 
Q 10.6875 0.296875 5.421875 2 
L 5.421875 11.28125 
Q 10.40625 8.6875 15.234375 7.390625 
Q 20.0625 6.109375 24.8125 6.109375 
Q 31.15625 6.109375 34.5625 8.28125 
Q 37.984375 10.453125 37.984375 14.40625 
Q 37.984375 18.0625 35.515625 20.015625 
Q 33.0625 21.96875 24.703125 23.78125 
L 21.578125 24.515625 
Q 13.234375 26.265625 9.515625 29.90625 
Q 5.8125 33.546875 5.8125 39.890625 
Q 5.8125 47.609375 11.28125 51.796875 
Q 16.75 56 26.8125 56 
Q 31.78125 56 36.171875 55.265625 
Q 40.578125 54.546875 44.28125 53.078125 
z
" id="DejaVuSans-115"/>
       <path d="M 18.109375 8.203125 
L 18.109375 -20.796875 
L 9.078125 -20.796875 
L 9.078125 54.6875 
L 18.109375 54.6875 
L 18.109375 46.390625 
Q 20.953125 51.265625 25.265625 53.625 
Q 29.59375 56 35.59375 56 
Q 45.5625 56 51.78125 48.09375 
Q 58.015625 40.1875 58.015625 27.296875 
Q 58.015625 14.40625 51.78125 6.484375 
Q 45.5625 -1.421875 35.59375 -1.421875 
Q 29.59375 -1.421875 25.265625 0.953125 
Q 20.953125 3.328125 18.109375 8.203125 
z
M 48.6875 27.296875 
Q 48.6875 37.203125 44.609375 42.84375 
Q 40.53125 48.484375 33.40625 48.484375 
Q 26.265625 48.484375 22.1875 42.84375 
Q 18.109375 37.203125 18.109375 27.296875 
Q 18.109375 17.390625 22.1875 11.75 
Q 26.265625 6.109375 33.40625 6.109375 
Q 40.53125 6.109375 44.609375 11.75 
Q 48.6875 17.390625 48.6875 27.296875 
z
" id="DejaVuSans-112"/>
      </defs>
      <use xlink:href="#DejaVuSans-71"/>
      <use x="77.490234" xlink:href="#DejaVuSans-105"/>
      <use x="105.273438" xlink:href="#DejaVuSans-108"/>
      <use x="133.056641" xlink:href="#DejaVuSans-108"/>
      <use x="160.839844" xlink:href="#DejaVuSans-101"/>
      <use x="222.363281" xlink:href="#DejaVuSans-115"/>
      <use x="274.462891" xlink:href="#DejaVuSans-112"/>
      <use x="337.939453" xlink:href="#DejaVuSans-105"/>
      <use x="365.722656" xlink:href="#DejaVuSans-101"/>
     </g>
    </g>
   </g>
   <g id="matplotlib.axis_2">
    <g id="ytick_1">
     <g id="line2d_43">
      <defs>
       <path d="M 0 0 
L -3.5 0 
" id="m0e5a01fcd1" style="stroke:#000000;stroke-width:0.8;"/>
      </defs>
      <g>
       <use style="stroke:#000000;stroke-width:0.8;" x="143.6575" xlink:href="#m0e5a01fcd1" y="487.349727"/>
      </g>
     </g>
     <g id="text_4">
      <!-- 0 -->
      <g transform="translate(101.0275 508.625352)scale(0.56 -0.56)">
       <use xlink:href="#DejaVuSans-48"/>
      </g>
     </g>
    </g>
    <g id="ytick_2">
     <g id="line2d_44">
      <g>
       <use style="stroke:#000000;stroke-width:0.8;" x="143.6575" xlink:href="#m0e5a01fcd1" y="329.211545"/>
      </g>
     </g>
     <g id="text_5">
      <!-- 10 -->
      <g transform="translate(65.3975 350.48717)scale(0.56 -0.56)">
       <defs>
        <path d="M 12.40625 8.296875 
L 28.515625 8.296875 
L 28.515625 63.921875 
L 10.984375 60.40625 
L 10.984375 69.390625 
L 28.421875 72.90625 
L 38.28125 72.90625 
L 38.28125 8.296875 
L 54.390625 8.296875 
L 54.390625 0 
L 12.40625 0 
z
" id="DejaVuSans-49"/>
       </defs>
       <use xlink:href="#DejaVuSans-49"/>
       <use x="63.623047" xlink:href="#DejaVuSans-48"/>
      </g>
     </g>
    </g>
    <g id="ytick_3">
     <g id="line2d_45">
      <g>
       <use style="stroke:#000000;stroke-width:0.8;" x="143.6575" xlink:href="#m0e5a01fcd1" y="171.073364"/>
      </g>
     </g>
     <g id="text_6">
      <!-- 20 -->
      <g transform="translate(65.3975 192.348989)scale(0.56 -0.56)">
       <use xlink:href="#DejaVuSans-50"/>
       <use x="63.623047" xlink:href="#DejaVuSans-48"/>
      </g>
     </g>
    </g>
    <g id="text_7">
     <!-- VAN -->
     <g transform="translate(49.75125 347.147)rotate(-90)scale(0.56 -0.56)">
      <defs>
       <path d="M 28.609375 0 
L 0.78125 72.90625 
L 11.078125 72.90625 
L 34.1875 11.53125 
L 57.328125 72.90625 
L 67.578125 72.90625 
L 39.796875 0 
z
" id="DejaVuSans-86"/>
       <path d="M 34.1875 63.1875 
L 20.796875 26.90625 
L 47.609375 26.90625 
z
M 28.609375 72.90625 
L 39.796875 72.90625 
L 67.578125 0 
L 57.328125 0 
L 50.6875 18.703125 
L 17.828125 18.703125 
L 11.1875 0 
L 0.78125 0 
z
" id="DejaVuSans-65"/>
       <path d="M 9.8125 72.90625 
L 23.09375 72.90625 
L 55.421875 11.921875 
L 55.421875 72.90625 
L 64.984375 72.90625 
L 64.984375 0 
L 51.703125 0 
L 19.390625 60.984375 
L 19.390625 0 
L 9.8125 0 
z
" id="DejaVuSans-78"/>
      </defs>
      <use xlink:href="#DejaVuSans-86"/>
      <use x="62.033203" xlink:href="#DejaVuSans-65"/>
      <use x="130.441406" xlink:href="#DejaVuSans-78"/>
     </g>
    </g>
   </g>
   <g id="line2d_46">
    <defs>
     <path d="M 0 10 
C 2.652031 10 5.195799 8.946337 7.071068 7.071068 
C 8.946337 5.195799 10 2.652031 10 0 
C 10 -2.652031 8.946337 -5.195799 7.071068 -7.071068 
C 5.195799 -8.946337 2.652031 -10 0 -10 
C -2.652031 -10 -5.195799 -8.946337 -7.071068 -7.071068 
C -8.946337 -5.195799 -10 -2.652031 -10 0 
C -10 2.652031 -8.946337 5.195799 -7.071068 7.071068 
C -5.195799 8.946337 -2.652031 10 0 10 
z
" id="me1cd05a320" style="stroke:#ff3000;"/>
    </defs>
    <g clip-path="url(#p110cf85861)">
     <use style="fill:#ff3000;stroke:#ff3000;" x="166.484773" xlink:href="#me1cd05a320" y="460.191535"/>
    </g>
   </g>
   <g id="line2d_47">
    <defs>
     <path d="M 0 10 
C 2.652031 10 5.195799 8.946337 7.071068 7.071068 
C 8.946337 5.195799 10 2.652031 10 0 
C 10 -2.652031 8.946337 -5.195799 7.071068 -7.071068 
C 5.195799 -8.946337 2.652031 -10 0 -10 
C -2.652031 -10 -5.195799 -8.946337 -7.071068 -7.071068 
C -8.946337 -5.195799 -10 -2.652031 -10 0 
C -10 2.652031 -8.946337 5.195799 -7.071068 7.071068 
C -5.195799 8.946337 -2.652031 10 0 10 
z
" id="m1cf2793624" style="stroke:#ff3000;stroke-opacity:0.974615;"/>
    </defs>
    <g clip-path="url(#p110cf85861)">
     <use style="fill:#ff3000;fill-opacity:0.974615;stroke:#ff3000;stroke-opacity:0.974615;" x="280.4384" xlink:href="#m1cf2793624" y="350.681023"/>
    </g>
   </g>
   <g id="line2d_48">
    <defs>
     <path d="M 0 10 
C 2.652031 10 5.195799 8.946337 7.071068 7.071068 
C 8.946337 5.195799 10 2.652031 10 0 
C 10 -2.652031 8.946337 -5.195799 7.071068 -7.071068 
C 5.195799 -8.946337 2.652031 -10 0 -10 
C -2.652031 -10 -5.195799 -8.946337 -7.071068 -7.071068 
C -8.946337 -5.195799 -10 -2.652031 -10 0 
C -10 2.652031 -8.946337 5.195799 -7.071068 7.071068 
C -5.195799 8.946337 -2.652031 10 0 10 
z
" id="m9b756398a0" style="stroke:#ff3000;stroke-opacity:0.949231;"/>
    </defs>
    <g clip-path="url(#p110cf85861)">
     <use style="fill:#ff3000;fill-opacity:0.949231;stroke:#ff3000;stroke-opacity:0.949231;" x="367.502073" xlink:href="#m9b756398a0" y="303.759018"/>
    </g>
   </g>
   <g id="line2d_49">
    <defs>
     <path d="M 0 10 
C 2.652031 10 5.195799 8.946337 7.071068 7.071068 
C 8.946337 5.195799 10 2.652031 10 0 
C 10 -2.652031 8.946337 -5.195799 7.071068 -7.071068 
C 5.195799 -8.946337 2.652031 -10 0 -10 
C -2.652031 -10 -5.195799 -8.946337 -7.071068 -7.071068 
C -8.946337 -5.195799 -10 -2.652031 -10 0 
C -10 2.652031 -8.946337 5.195799 -7.071068 7.071068 
C -5.195799 8.946337 -2.652031 10 0 10 
z
" id="m48c76e8c83" style="stroke:#ff3000;stroke-opacity:0.923846;"/>
    </defs>
    <g clip-path="url(#p110cf85861)">
     <use style="fill:#ff3000;fill-opacity:0.923846;stroke:#ff3000;stroke-opacity:0.923846;" x="456.300505" xlink:href="#m48c76e8c83" y="231.702871"/>
    </g>
   </g>
   <g id="line2d_50">
    <defs>
     <path d="M 0 10 
C 2.652031 10 5.195799 8.946337 7.071068 7.071068 
C 8.946337 5.195799 10 2.652031 10 0 
C 10 -2.652031 8.946337 -5.195799 7.071068 -7.071068 
C 5.195799 -8.946337 2.652031 -10 0 -10 
C -2.652031 -10 -5.195799 -8.946337 -7.071068 -7.071068 
C -8.946337 -5.195799 -10 -2.652031 -10 0 
C -10 2.652031 -8.946337 5.195799 -7.071068 7.071068 
C -5.195799 8.946337 -2.652031 10 0 10 
z
" id="mf842059e5a" style="stroke:#ff3000;stroke-opacity:0.898462;"/>
    </defs>
    <g clip-path="url(#p110cf85861)">
     <use style="fill:#ff3000;fill-opacity:0.898462;stroke:#ff3000;stroke-opacity:0.898462;" x="517.806367" xlink:href="#mf842059e5a" y="179.676641"/>
    </g>
   </g>
   <g id="line2d_51">
    <defs>
     <path d="M 0 10 
C 2.652031 10 5.195799 8.946337 7.071068 7.071068 
C 8.946337 5.195799 10 2.652031 10 0 
C 10 -2.652031 8.946337 -5.195799 7.071068 -7.071068 
C 5.195799 -8.946337 2.652031 -10 0 -10 
C -2.652031 -10 -5.195799 -8.946337 -7.071068 -7.071068 
C -8.946337 -5.195799 -10 -2.652031 -10 0 
C -10 2.652031 -8.946337 5.195799 -7.071068 7.071068 
C -5.195799 8.946337 -2.652031 10 0 10 
z
" id="m47a76fda95" style="stroke:#ff3000;stroke-opacity:0.873077;"/>
    </defs>
    <g clip-path="url(#p110cf85861)">
     <use style="fill:#ff3000;fill-opacity:0.873077;stroke:#ff3000;stroke-opacity:0.873077;" x="554.322044" xlink:href="#m47a76fda95" y="149.509129"/>
    </g>
   </g>
   <g id="line2d_52">
    <defs>
     <path d="M 0 10 
C 2.652031 10 5.195799 8.946337 7.071068 7.071068 
C 8.946337 5.195799 10 2.652031 10 0 
C 10 -2.652031 8.946337 -5.195799 7.071068 -7.071068 
C 5.195799 -8.946337 2.652031 -10 0 -10 
C -2.652031 -10 -5.195799 -8.946337 -7.071068 -7.071068 
C -8.946337 -5.195799 -10 -2.652031 -10 0 
C -10 2.652031 -8.946337 5.195799 -7.071068 7.071068 
C -5.195799 8.946337 -2.652031 10 0 10 
z
" id="m793657d6dd" style="stroke:#ff3000;stroke-opacity:0.847692;"/>
    </defs>
    <g clip-path="url(#p110cf85861)">
     <use style="fill:#ff3000;fill-opacity:0.847692;stroke:#ff3000;stroke-opacity:0.847692;" x="575.23555" xlink:href="#m793657d6dd" y="135.218143"/>
    </g>
   </g>
   <g id="line2d_53">
    <defs>
     <path d="M 0 10 
C 2.652031 10 5.195799 8.946337 7.071068 7.071068 
C 8.946337 5.195799 10 2.652031 10 0 
C 10 -2.652031 8.946337 -5.195799 7.071068 -7.071068 
C 5.195799 -8.946337 2.652031 -10 0 -10 
C -2.652031 -10 -5.195799 -8.946337 -7.071068 -7.071068 
C -8.946337 -5.195799 -10 -2.652031 -10 0 
C -10 2.652031 -8.946337 5.195799 -7.071068 7.071068 
C -5.195799 8.946337 -2.652031 10 0 10 
z
" id="md20183d040" style="stroke:#ff3000;stroke-opacity:0.822308;"/>
    </defs>
    <g clip-path="url(#p110cf85861)">
     <use style="fill:#ff3000;fill-opacity:0.822308;stroke:#ff3000;stroke-opacity:0.822308;" x="587.534316" xlink:href="#md20183d040" y="126.102124"/>
    </g>
   </g>
   <g id="line2d_54">
    <defs>
     <path d="M 0 10 
C 2.652031 10 5.195799 8.946337 7.071068 7.071068 
C 8.946337 5.195799 10 2.652031 10 0 
C 10 -2.652031 8.946337 -5.195799 7.071068 -7.071068 
C 5.195799 -8.946337 2.652031 -10 0 -10 
C -2.652031 -10 -5.195799 -8.946337 -7.071068 -7.071068 
C -8.946337 -5.195799 -10 -2.652031 -10 0 
C -10 2.652031 -8.946337 5.195799 -7.071068 7.071068 
C -5.195799 8.946337 -2.652031 10 0 10 
z
" id="m515d9e5548" style="stroke:#ff3000;stroke-opacity:0.796923;"/>
    </defs>
    <g clip-path="url(#p110cf85861)">
     <use style="fill:#ff3000;fill-opacity:0.796923;stroke:#ff3000;stroke-opacity:0.796923;" x="593.997458" xlink:href="#m515d9e5548" y="119.962352"/>
    </g>
   </g>
   <g id="line2d_55">
    <defs>
     <path d="M 0 10 
C 2.652031 10 5.195799 8.946337 7.071068 7.071068 
C 8.946337 5.195799 10 2.652031 10 0 
C 10 -2.652031 8.946337 -5.195799 7.071068 -7.071068 
C 5.195799 -8.946337 2.652031 -10 0 -10 
C -2.652031 -10 -5.195799 -8.946337 -7.071068 -7.071068 
C -8.946337 -5.195799 -10 -2.652031 -10 0 
C -10 2.652031 -8.946337 5.195799 -7.071068 7.071068 
C -5.195799 8.946337 -2.652031 10 0 10 
z
" id="me32c4db185" style="stroke:#ff3000;stroke-opacity:0.771538;"/>
    </defs>
    <g clip-path="url(#p110cf85861)">
     <use style="fill:#ff3000;fill-opacity:0.771538;stroke:#ff3000;stroke-opacity:0.771538;" x="595.083433" xlink:href="#me32c4db185" y="115.860111"/>
    </g>
   </g>
   <g id="line2d_56">
    <defs>
     <path d="M 0 10 
C 2.652031 10 5.195799 8.946337 7.071068 7.071068 
C 8.946337 5.195799 10 2.652031 10 0 
C 10 -2.652031 8.946337 -5.195799 7.071068 -7.071068 
C 5.195799 -8.946337 2.652031 -10 0 -10 
C -2.652031 -10 -5.195799 -8.946337 -7.071068 -7.071068 
C -8.946337 -5.195799 -10 -2.652031 -10 0 
C -10 2.652031 -8.946337 5.195799 -7.071068 7.071068 
C -5.195799 8.946337 -2.652031 10 0 10 
z
" id="mb8906c93dc" style="stroke:#ff3000;stroke-opacity:0.746154;"/>
    </defs>
    <g clip-path="url(#p110cf85861)">
     <use style="fill:#ff3000;fill-opacity:0.746154;stroke:#ff3000;stroke-opacity:0.746154;" x="595.488954" xlink:href="#mb8906c93dc" y="112.398346"/>
    </g>
   </g>
   <g id="line2d_57">
    <defs>
     <path d="M 0 10 
C 2.652031 10 5.195799 8.946337 7.071068 7.071068 
C 8.946337 5.195799 10 2.652031 10 0 
C 10 -2.652031 8.946337 -5.195799 7.071068 -7.071068 
C 5.195799 -8.946337 2.652031 -10 0 -10 
C -2.652031 -10 -5.195799 -8.946337 -7.071068 -7.071068 
C -8.946337 -5.195799 -10 -2.652031 -10 0 
C -10 2.652031 -8.946337 5.195799 -7.071068 7.071068 
C -5.195799 8.946337 -2.652031 10 0 10 
z
" id="m6bc2832870" style="stroke:#ff3000;stroke-opacity:0.720769;"/>
    </defs>
    <g clip-path="url(#p110cf85861)">
     <use style="fill:#ff3000;fill-opacity:0.720769;stroke:#ff3000;stroke-opacity:0.720769;" x="597.15891" xlink:href="#m6bc2832870" y="112.971304"/>
    </g>
   </g>
   <g id="line2d_58">
    <defs>
     <path d="M 0 10 
C 2.652031 10 5.195799 8.946337 7.071068 7.071068 
C 8.946337 5.195799 10 2.652031 10 0 
C 10 -2.652031 8.946337 -5.195799 7.071068 -7.071068 
C 5.195799 -8.946337 2.652031 -10 0 -10 
C -2.652031 -10 -5.195799 -8.946337 -7.071068 -7.071068 
C -8.946337 -5.195799 -10 -2.652031 -10 0 
C -10 2.652031 -8.946337 5.195799 -7.071068 7.071068 
C -5.195799 8.946337 -2.652031 10 0 10 
z
" id="ma4d25bf1d0" style="stroke:#ff3000;stroke-opacity:0.695385;"/>
    </defs>
    <g clip-path="url(#p110cf85861)">
     <use style="fill:#ff3000;fill-opacity:0.695385;stroke:#ff3000;stroke-opacity:0.695385;" x="596.526646" xlink:href="#ma4d25bf1d0" y="111.848205"/>
    </g>
   </g>
   <g id="line2d_59">
    <defs>
     <path d="M 0 10 
C 2.652031 10 5.195799 8.946337 7.071068 7.071068 
C 8.946337 5.195799 10 2.652031 10 0 
C 10 -2.652031 8.946337 -5.195799 7.071068 -7.071068 
C 5.195799 -8.946337 2.652031 -10 0 -10 
C -2.652031 -10 -5.195799 -8.946337 -7.071068 -7.071068 
C -8.946337 -5.195799 -10 -2.652031 -10 0 
C -10 2.652031 -8.946337 5.195799 -7.071068 7.071068 
C -5.195799 8.946337 -2.652031 10 0 10 
z
" id="mabbf251d05" style="stroke:#ff3000;stroke-opacity:0.67;"/>
    </defs>
    <g clip-path="url(#p110cf85861)">
     <use style="fill:#ff3000;fill-opacity:0.67;stroke:#ff3000;stroke-opacity:0.67;" x="595.623008" xlink:href="#mabbf251d05" y="113.927061"/>
    </g>
   </g>
   <g id="line2d_60">
    <defs>
     <path d="M 0 10 
C 2.652031 10 5.195799 8.946337 7.071068 7.071068 
C 8.946337 5.195799 10 2.652031 10 0 
C 10 -2.652031 8.946337 -5.195799 7.071068 -7.071068 
C 5.195799 -8.946337 2.652031 -10 0 -10 
C -2.652031 -10 -5.195799 -8.946337 -7.071068 -7.071068 
C -8.946337 -5.195799 -10 -2.652031 -10 0 
C -10 2.652031 -8.946337 5.195799 -7.071068 7.071068 
C -5.195799 8.946337 -2.652031 10 0 10 
z
" id="mc90d8c335b" style="stroke:#ff3000;stroke-opacity:0.644615;"/>
    </defs>
    <g clip-path="url(#p110cf85861)">
     <use style="fill:#ff3000;fill-opacity:0.644615;stroke:#ff3000;stroke-opacity:0.644615;" x="595.831669" xlink:href="#mc90d8c335b" y="114.496985"/>
    </g>
   </g>
   <g id="line2d_61">
    <defs>
     <path d="M 0 10 
C 2.652031 10 5.195799 8.946337 7.071068 7.071068 
C 8.946337 5.195799 10 2.652031 10 0 
C 10 -2.652031 8.946337 -5.195799 7.071068 -7.071068 
C 5.195799 -8.946337 2.652031 -10 0 -10 
C -2.652031 -10 -5.195799 -8.946337 -7.071068 -7.071068 
C -8.946337 -5.195799 -10 -2.652031 -10 0 
C -10 2.652031 -8.946337 5.195799 -7.071068 7.071068 
C -5.195799 8.946337 -2.652031 10 0 10 
z
" id="m540ea36ef8" style="stroke:#ff3000;stroke-opacity:0.619231;"/>
    </defs>
    <g clip-path="url(#p110cf85861)">
     <use style="fill:#ff3000;fill-opacity:0.619231;stroke:#ff3000;stroke-opacity:0.619231;" x="596.935298" xlink:href="#m540ea36ef8" y="115.594712"/>
    </g>
   </g>
   <g id="line2d_62">
    <defs>
     <path d="M 0 10 
C 2.652031 10 5.195799 8.946337 7.071068 7.071068 
C 8.946337 5.195799 10 2.652031 10 0 
C 10 -2.652031 8.946337 -5.195799 7.071068 -7.071068 
C 5.195799 -8.946337 2.652031 -10 0 -10 
C -2.652031 -10 -5.195799 -8.946337 -7.071068 -7.071068 
C -8.946337 -5.195799 -10 -2.652031 -10 0 
C -10 2.652031 -8.946337 5.195799 -7.071068 7.071068 
C -5.195799 8.946337 -2.652031 10 0 10 
z
" id="m2b9427282b" style="stroke:#ff3000;stroke-opacity:0.593846;"/>
    </defs>
    <g clip-path="url(#p110cf85861)">
     <use style="fill:#ff3000;fill-opacity:0.593846;stroke:#ff3000;stroke-opacity:0.593846;" x="596.303676" xlink:href="#m2b9427282b" y="116.380194"/>
    </g>
   </g>
   <g id="line2d_63">
    <defs>
     <path d="M 0 10 
C 2.652031 10 5.195799 8.946337 7.071068 7.071068 
C 8.946337 5.195799 10 2.652031 10 0 
C 10 -2.652031 8.946337 -5.195799 7.071068 -7.071068 
C 5.195799 -8.946337 2.652031 -10 0 -10 
C -2.652031 -10 -5.195799 -8.946337 -7.071068 -7.071068 
C -8.946337 -5.195799 -10 -2.652031 -10 0 
C -10 2.652031 -8.946337 5.195799 -7.071068 7.071068 
C -5.195799 8.946337 -2.652031 10 0 10 
z
" id="m644c27db13" style="stroke:#ff3000;stroke-opacity:0.568462;"/>
    </defs>
    <g clip-path="url(#p110cf85861)">
     <use style="fill:#ff3000;fill-opacity:0.568462;stroke:#ff3000;stroke-opacity:0.568462;" x="598.175163" xlink:href="#m644c27db13" y="114.206266"/>
    </g>
   </g>
   <g id="line2d_64">
    <defs>
     <path d="M 0 10 
C 2.652031 10 5.195799 8.946337 7.071068 7.071068 
C 8.946337 5.195799 10 2.652031 10 0 
C 10 -2.652031 8.946337 -5.195799 7.071068 -7.071068 
C 5.195799 -8.946337 2.652031 -10 0 -10 
C -2.652031 -10 -5.195799 -8.946337 -7.071068 -7.071068 
C -8.946337 -5.195799 -10 -2.652031 -10 0 
C -10 2.652031 -8.946337 5.195799 -7.071068 7.071068 
C -5.195799 8.946337 -2.652031 10 0 10 
z
" id="m14667c2b82" style="stroke:#ff3000;stroke-opacity:0.543077;"/>
    </defs>
    <g clip-path="url(#p110cf85861)">
     <use style="fill:#ff3000;fill-opacity:0.543077;stroke:#ff3000;stroke-opacity:0.543077;" x="598.130309" xlink:href="#m14667c2b82" y="112.164027"/>
    </g>
   </g>
   <g id="line2d_65">
    <defs>
     <path d="M 0 10 
C 2.652031 10 5.195799 8.946337 7.071068 7.071068 
C 8.946337 5.195799 10 2.652031 10 0 
C 10 -2.652031 8.946337 -5.195799 7.071068 -7.071068 
C 5.195799 -8.946337 2.652031 -10 0 -10 
C -2.652031 -10 -5.195799 -8.946337 -7.071068 -7.071068 
C -8.946337 -5.195799 -10 -2.652031 -10 0 
C -10 2.652031 -8.946337 5.195799 -7.071068 7.071068 
C -5.195799 8.946337 -2.652031 10 0 10 
z
" id="mfe26b5d881" style="stroke:#ff3000;stroke-opacity:0.517692;"/>
    </defs>
    <g clip-path="url(#p110cf85861)">
     <use style="fill:#ff3000;fill-opacity:0.517692;stroke:#ff3000;stroke-opacity:0.517692;" x="595.511881" xlink:href="#mfe26b5d881" y="114.703174"/>
    </g>
   </g>
   <g id="line2d_66">
    <defs>
     <path d="M 0 10 
C 2.652031 10 5.195799 8.946337 7.071068 7.071068 
C 8.946337 5.195799 10 2.652031 10 0 
C 10 -2.652031 8.946337 -5.195799 7.071068 -7.071068 
C 5.195799 -8.946337 2.652031 -10 0 -10 
C -2.652031 -10 -5.195799 -8.946337 -7.071068 -7.071068 
C -8.946337 -5.195799 -10 -2.652031 -10 0 
C -10 2.652031 -8.946337 5.195799 -7.071068 7.071068 
C -5.195799 8.946337 -2.652031 10 0 10 
z
" id="m2e33068c5f" style="stroke:#ff3000;stroke-opacity:0.492308;"/>
    </defs>
    <g clip-path="url(#p110cf85861)">
     <use style="fill:#ff3000;fill-opacity:0.492308;stroke:#ff3000;stroke-opacity:0.492308;" x="595.017179" xlink:href="#m2e33068c5f" y="112.832159"/>
    </g>
   </g>
   <g id="line2d_67">
    <defs>
     <path d="M 0 10 
C 2.652031 10 5.195799 8.946337 7.071068 7.071068 
C 8.946337 5.195799 10 2.652031 10 0 
C 10 -2.652031 8.946337 -5.195799 7.071068 -7.071068 
C 5.195799 -8.946337 2.652031 -10 0 -10 
C -2.652031 -10 -5.195799 -8.946337 -7.071068 -7.071068 
C -8.946337 -5.195799 -10 -2.652031 -10 0 
C -10 2.652031 -8.946337 5.195799 -7.071068 7.071068 
C -5.195799 8.946337 -2.652031 10 0 10 
z
" id="m340c426c6e" style="stroke:#ff3000;stroke-opacity:0.466923;"/>
    </defs>
    <g clip-path="url(#p110cf85861)">
     <use style="fill:#ff3000;fill-opacity:0.466923;stroke:#ff3000;stroke-opacity:0.466923;" x="594.345855" xlink:href="#m340c426c6e" y="114.380495"/>
    </g>
   </g>
   <g id="line2d_68">
    <defs>
     <path d="M 0 10 
C 2.652031 10 5.195799 8.946337 7.071068 7.071068 
C 8.946337 5.195799 10 2.652031 10 0 
C 10 -2.652031 8.946337 -5.195799 7.071068 -7.071068 
C 5.195799 -8.946337 2.652031 -10 0 -10 
C -2.652031 -10 -5.195799 -8.946337 -7.071068 -7.071068 
C -8.946337 -5.195799 -10 -2.652031 -10 0 
C -10 2.652031 -8.946337 5.195799 -7.071068 7.071068 
C -5.195799 8.946337 -2.652031 10 0 10 
z
" id="m0b47f6a55a" style="stroke:#ff3000;stroke-opacity:0.441538;"/>
    </defs>
    <g clip-path="url(#p110cf85861)">
     <use style="fill:#ff3000;fill-opacity:0.441538;stroke:#ff3000;stroke-opacity:0.441538;" x="593.691623" xlink:href="#m0b47f6a55a" y="114.460265"/>
    </g>
   </g>
   <g id="line2d_69">
    <defs>
     <path d="M 0 10 
C 2.652031 10 5.195799 8.946337 7.071068 7.071068 
C 8.946337 5.195799 10 2.652031 10 0 
C 10 -2.652031 8.946337 -5.195799 7.071068 -7.071068 
C 5.195799 -8.946337 2.652031 -10 0 -10 
C -2.652031 -10 -5.195799 -8.946337 -7.071068 -7.071068 
C -8.946337 -5.195799 -10 -2.652031 -10 0 
C -10 2.652031 -8.946337 5.195799 -7.071068 7.071068 
C -5.195799 8.946337 -2.652031 10 0 10 
z
" id="ma893fec992" style="stroke:#ff3000;stroke-opacity:0.416154;"/>
    </defs>
    <g clip-path="url(#p110cf85861)">
     <use style="fill:#ff3000;fill-opacity:0.416154;stroke:#ff3000;stroke-opacity:0.416154;" x="594.886924" xlink:href="#ma893fec992" y="111.873164"/>
    </g>
   </g>
   <g id="line2d_70">
    <defs>
     <path d="M 0 10 
C 2.652031 10 5.195799 8.946337 7.071068 7.071068 
C 8.946337 5.195799 10 2.652031 10 0 
C 10 -2.652031 8.946337 -5.195799 7.071068 -7.071068 
C 5.195799 -8.946337 2.652031 -10 0 -10 
C -2.652031 -10 -5.195799 -8.946337 -7.071068 -7.071068 
C -8.946337 -5.195799 -10 -2.652031 -10 0 
C -10 2.652031 -8.946337 5.195799 -7.071068 7.071068 
C -5.195799 8.946337 -2.652031 10 0 10 
z
" id="m1c9a082e40" style="stroke:#ff3000;stroke-opacity:0.390769;"/>
    </defs>
    <g clip-path="url(#p110cf85861)">
     <use style="fill:#ff3000;fill-opacity:0.390769;stroke:#ff3000;stroke-opacity:0.390769;" x="594.54726" xlink:href="#m1c9a082e40" y="113.314571"/>
    </g>
   </g>
   <g id="line2d_71">
    <defs>
     <path d="M 0 10 
C 2.652031 10 5.195799 8.946337 7.071068 7.071068 
C 8.946337 5.195799 10 2.652031 10 0 
C 10 -2.652031 8.946337 -5.195799 7.071068 -7.071068 
C 5.195799 -8.946337 2.652031 -10 0 -10 
C -2.652031 -10 -5.195799 -8.946337 -7.071068 -7.071068 
C -8.946337 -5.195799 -10 -2.652031 -10 0 
C -10 2.652031 -8.946337 5.195799 -7.071068 7.071068 
C -5.195799 8.946337 -2.652031 10 0 10 
z
" id="mb2fba21aa1" style="stroke:#ff3000;stroke-opacity:0.365385;"/>
    </defs>
    <g clip-path="url(#p110cf85861)">
     <use style="fill:#ff3000;fill-opacity:0.365385;stroke:#ff3000;stroke-opacity:0.365385;" x="596.144736" xlink:href="#mb2fba21aa1" y="111.783123"/>
    </g>
   </g>
   <g id="line2d_72">
    <defs>
     <path d="M 0 10 
C 2.652031 10 5.195799 8.946337 7.071068 7.071068 
C 8.946337 5.195799 10 2.652031 10 0 
C 10 -2.652031 8.946337 -5.195799 7.071068 -7.071068 
C 5.195799 -8.946337 2.652031 -10 0 -10 
C -2.652031 -10 -5.195799 -8.946337 -7.071068 -7.071068 
C -8.946337 -5.195799 -10 -2.652031 -10 0 
C -10 2.652031 -8.946337 5.195799 -7.071068 7.071068 
C -5.195799 8.946337 -2.652031 10 0 10 
z
" id="m4c2f92434e" style="stroke:#ff3000;stroke-opacity:0.34;"/>
    </defs>
    <g clip-path="url(#p110cf85861)">
     <use style="fill:#ff3000;fill-opacity:0.34;stroke:#ff3000;stroke-opacity:0.34;" x="597.728186" xlink:href="#m4c2f92434e" y="113.009926"/>
    </g>
   </g>
   <g id="line2d_73">
    <defs>
     <path d="M 0 10 
C 2.652031 10 5.195799 8.946337 7.071068 7.071068 
C 8.946337 5.195799 10 2.652031 10 0 
C 10 -2.652031 8.946337 -5.195799 7.071068 -7.071068 
C 5.195799 -8.946337 2.652031 -10 0 -10 
C -2.652031 -10 -5.195799 -8.946337 -7.071068 -7.071068 
C -8.946337 -5.195799 -10 -2.652031 -10 0 
C -10 2.652031 -8.946337 5.195799 -7.071068 7.071068 
C -5.195799 8.946337 -2.652031 10 0 10 
z
" id="m0d0358a9b7" style="stroke:#ff3000;stroke-opacity:0.314615;"/>
    </defs>
    <g clip-path="url(#p110cf85861)">
     <use style="fill:#ff3000;fill-opacity:0.314615;stroke:#ff3000;stroke-opacity:0.314615;" x="597.842528" xlink:href="#m0d0358a9b7" y="112.677841"/>
    </g>
   </g>
   <g id="line2d_74">
    <defs>
     <path d="M 0 10 
C 2.652031 10 5.195799 8.946337 7.071068 7.071068 
C 8.946337 5.195799 10 2.652031 10 0 
C 10 -2.652031 8.946337 -5.195799 7.071068 -7.071068 
C 5.195799 -8.946337 2.652031 -10 0 -10 
C -2.652031 -10 -5.195799 -8.946337 -7.071068 -7.071068 
C -8.946337 -5.195799 -10 -2.652031 -10 0 
C -10 2.652031 -8.946337 5.195799 -7.071068 7.071068 
C -5.195799 8.946337 -2.652031 10 0 10 
z
" id="mfa75ebdfde" style="stroke:#ff3000;stroke-opacity:0.289231;"/>
    </defs>
    <g clip-path="url(#p110cf85861)">
     <use style="fill:#ff3000;fill-opacity:0.289231;stroke:#ff3000;stroke-opacity:0.289231;" x="598.239511" xlink:href="#mfa75ebdfde" y="111.842212"/>
    </g>
   </g>
   <g id="line2d_75">
    <defs>
     <path d="M 0 10 
C 2.652031 10 5.195799 8.946337 7.071068 7.071068 
C 8.946337 5.195799 10 2.652031 10 0 
C 10 -2.652031 8.946337 -5.195799 7.071068 -7.071068 
C 5.195799 -8.946337 2.652031 -10 0 -10 
C -2.652031 -10 -5.195799 -8.946337 -7.071068 -7.071068 
C -8.946337 -5.195799 -10 -2.652031 -10 0 
C -10 2.652031 -8.946337 5.195799 -7.071068 7.071068 
C -5.195799 8.946337 -2.652031 10 0 10 
z
" id="md0a774a017" style="stroke:#ff3000;stroke-opacity:0.263846;"/>
    </defs>
    <g clip-path="url(#p110cf85861)">
     <use style="fill:#ff3000;fill-opacity:0.263846;stroke:#ff3000;stroke-opacity:0.263846;" x="598.06955" xlink:href="#md0a774a017" y="112.677955"/>
    </g>
   </g>
   <g id="line2d_76">
    <defs>
     <path d="M 0 10 
C 2.652031 10 5.195799 8.946337 7.071068 7.071068 
C 8.946337 5.195799 10 2.652031 10 0 
C 10 -2.652031 8.946337 -5.195799 7.071068 -7.071068 
C 5.195799 -8.946337 2.652031 -10 0 -10 
C -2.652031 -10 -5.195799 -8.946337 -7.071068 -7.071068 
C -8.946337 -5.195799 -10 -2.652031 -10 0 
C -10 2.652031 -8.946337 5.195799 -7.071068 7.071068 
C -5.195799 8.946337 -2.652031 10 0 10 
z
" id="m5b0a26201c" style="stroke:#ff3000;stroke-opacity:0.238462;"/>
    </defs>
    <g clip-path="url(#p110cf85861)">
     <use style="fill:#ff3000;fill-opacity:0.238462;stroke:#ff3000;stroke-opacity:0.238462;" x="596.325679" xlink:href="#m5b0a26201c" y="111.765954"/>
    </g>
   </g>
   <g id="line2d_77">
    <defs>
     <path d="M 0 10 
C 2.652031 10 5.195799 8.946337 7.071068 7.071068 
C 8.946337 5.195799 10 2.652031 10 0 
C 10 -2.652031 8.946337 -5.195799 7.071068 -7.071068 
C 5.195799 -8.946337 2.652031 -10 0 -10 
C -2.652031 -10 -5.195799 -8.946337 -7.071068 -7.071068 
C -8.946337 -5.195799 -10 -2.652031 -10 0 
C -10 2.652031 -8.946337 5.195799 -7.071068 7.071068 
C -5.195799 8.946337 -2.652031 10 0 10 
z
" id="m2a0e40d44a" style="stroke:#ff3000;stroke-opacity:0.213077;"/>
    </defs>
    <g clip-path="url(#p110cf85861)">
     <use style="fill:#ff3000;fill-opacity:0.213077;stroke:#ff3000;stroke-opacity:0.213077;" x="596.693945" xlink:href="#m2a0e40d44a" y="111.160137"/>
    </g>
   </g>
   <g id="line2d_78">
    <defs>
     <path d="M 0 10 
C 2.652031 10 5.195799 8.946337 7.071068 7.071068 
C 8.946337 5.195799 10 2.652031 10 0 
C 10 -2.652031 8.946337 -5.195799 7.071068 -7.071068 
C 5.195799 -8.946337 2.652031 -10 0 -10 
C -2.652031 -10 -5.195799 -8.946337 -7.071068 -7.071068 
C -8.946337 -5.195799 -10 -2.652031 -10 0 
C -10 2.652031 -8.946337 5.195799 -7.071068 7.071068 
C -5.195799 8.946337 -2.652031 10 0 10 
z
" id="m88364c46e0" style="stroke:#ff3000;stroke-opacity:0.187692;"/>
    </defs>
    <g clip-path="url(#p110cf85861)">
     <use style="fill:#ff3000;fill-opacity:0.187692;stroke:#ff3000;stroke-opacity:0.187692;" x="595.531634" xlink:href="#m88364c46e0" y="114.449771"/>
    </g>
   </g>
   <g id="line2d_79">
    <defs>
     <path d="M 0 10 
C 2.652031 10 5.195799 8.946337 7.071068 7.071068 
C 8.946337 5.195799 10 2.652031 10 0 
C 10 -2.652031 8.946337 -5.195799 7.071068 -7.071068 
C 5.195799 -8.946337 2.652031 -10 0 -10 
C -2.652031 -10 -5.195799 -8.946337 -7.071068 -7.071068 
C -8.946337 -5.195799 -10 -2.652031 -10 0 
C -10 2.652031 -8.946337 5.195799 -7.071068 7.071068 
C -5.195799 8.946337 -2.652031 10 0 10 
z
" id="mf9a4eeedc1" style="stroke:#ff3000;stroke-opacity:0.162308;"/>
    </defs>
    <g clip-path="url(#p110cf85861)">
     <use style="fill:#ff3000;fill-opacity:0.162308;stroke:#ff3000;stroke-opacity:0.162308;" x="597.672203" xlink:href="#mf9a4eeedc1" y="113.958932"/>
    </g>
   </g>
   <g id="line2d_80">
    <defs>
     <path d="M 0 10 
C 2.652031 10 5.195799 8.946337 7.071068 7.071068 
C 8.946337 5.195799 10 2.652031 10 0 
C 10 -2.652031 8.946337 -5.195799 7.071068 -7.071068 
C 5.195799 -8.946337 2.652031 -10 0 -10 
C -2.652031 -10 -5.195799 -8.946337 -7.071068 -7.071068 
C -8.946337 -5.195799 -10 -2.652031 -10 0 
C -10 2.652031 -8.946337 5.195799 -7.071068 7.071068 
C -5.195799 8.946337 -2.652031 10 0 10 
z
" id="m624b6fec7e" style="stroke:#ff3000;stroke-opacity:0.136923;"/>
    </defs>
    <g clip-path="url(#p110cf85861)">
     <use style="fill:#ff3000;fill-opacity:0.136923;stroke:#ff3000;stroke-opacity:0.136923;" x="598.167751" xlink:href="#m624b6fec7e" y="114.075432"/>
    </g>
   </g>
   <g id="line2d_81">
    <defs>
     <path d="M 0 10 
C 2.652031 10 5.195799 8.946337 7.071068 7.071068 
C 8.946337 5.195799 10 2.652031 10 0 
C 10 -2.652031 8.946337 -5.195799 7.071068 -7.071068 
C 5.195799 -8.946337 2.652031 -10 0 -10 
C -2.652031 -10 -5.195799 -8.946337 -7.071068 -7.071068 
C -8.946337 -5.195799 -10 -2.652031 -10 0 
C -10 2.652031 -8.946337 5.195799 -7.071068 7.071068 
C -5.195799 8.946337 -2.652031 10 0 10 
z
" id="md83b21e9cd" style="stroke:#ff3000;stroke-opacity:0.111538;"/>
    </defs>
    <g clip-path="url(#p110cf85861)">
     <use style="fill:#ff3000;fill-opacity:0.111538;stroke:#ff3000;stroke-opacity:0.111538;" x="596.20384" xlink:href="#md83b21e9cd" y="112.595419"/>
    </g>
   </g>
   <g id="line2d_82">
    <defs>
     <path d="M 0 10 
C 2.652031 10 5.195799 8.946337 7.071068 7.071068 
C 8.946337 5.195799 10 2.652031 10 0 
C 10 -2.652031 8.946337 -5.195799 7.071068 -7.071068 
C 5.195799 -8.946337 2.652031 -10 0 -10 
C -2.652031 -10 -5.195799 -8.946337 -7.071068 -7.071068 
C -8.946337 -5.195799 -10 -2.652031 -10 0 
C -10 2.652031 -8.946337 5.195799 -7.071068 7.071068 
C -5.195799 8.946337 -2.652031 10 0 10 
z
" id="m1833bbf1af" style="stroke:#ff3000;stroke-opacity:0.086154;"/>
    </defs>
    <g clip-path="url(#p110cf85861)">
     <use style="fill:#ff3000;fill-opacity:0.086154;stroke:#ff3000;stroke-opacity:0.086154;" x="597.601987" xlink:href="#m1833bbf1af" y="113.186596"/>
    </g>
   </g>
   <g id="line2d_83">
    <defs>
     <path d="M 0 10 
C 2.652031 10 5.195799 8.946337 7.071068 7.071068 
C 8.946337 5.195799 10 2.652031 10 0 
C 10 -2.652031 8.946337 -5.195799 7.071068 -7.071068 
C 5.195799 -8.946337 2.652031 -10 0 -10 
C -2.652031 -10 -5.195799 -8.946337 -7.071068 -7.071068 
C -8.946337 -5.195799 -10 -2.652031 -10 0 
C -10 2.652031 -8.946337 5.195799 -7.071068 7.071068 
C -5.195799 8.946337 -2.652031 10 0 10 
z
" id="m02d93f40f0" style="stroke:#ff3000;stroke-opacity:0.060769;"/>
    </defs>
    <g clip-path="url(#p110cf85861)">
     <use style="fill:#ff3000;fill-opacity:0.060769;stroke:#ff3000;stroke-opacity:0.060769;" x="597.64723" xlink:href="#m02d93f40f0" y="113.835278"/>
    </g>
   </g>
   <g id="line2d_84">
    <defs>
     <path d="M 0 10 
C 2.652031 10 5.195799 8.946337 7.071068 7.071068 
C 8.946337 5.195799 10 2.652031 10 0 
C 10 -2.652031 8.946337 -5.195799 7.071068 -7.071068 
C 5.195799 -8.946337 2.652031 -10 0 -10 
C -2.652031 -10 -5.195799 -8.946337 -7.071068 -7.071068 
C -8.946337 -5.195799 -10 -2.652031 -10 0 
C -10 2.652031 -8.946337 5.195799 -7.071068 7.071068 
C -5.195799 8.946337 -2.652031 10 0 10 
z
" id="m651feece46" style="stroke:#ff3000;stroke-opacity:0.035385;"/>
    </defs>
    <g clip-path="url(#p110cf85861)">
     <use style="fill:#ff3000;fill-opacity:0.035385;stroke:#ff3000;stroke-opacity:0.035385;" x="598.430417" xlink:href="#m651feece46" y="112.913353"/>
    </g>
   </g>
   <g id="line2d_85">
    <defs>
     <path d="M 0 10 
C 2.652031 10 5.195799 8.946337 7.071068 7.071068 
C 8.946337 5.195799 10 2.652031 10 0 
C 10 -2.652031 8.946337 -5.195799 7.071068 -7.071068 
C 5.195799 -8.946337 2.652031 -10 0 -10 
C -2.652031 -10 -5.195799 -8.946337 -7.071068 -7.071068 
C -8.946337 -5.195799 -10 -2.652031 -10 0 
C -10 2.652031 -8.946337 5.195799 -7.071068 7.071068 
C -5.195799 8.946337 -2.652031 10 0 10 
z
" id="m5745a0d524" style="stroke:#ff3000;stroke-opacity:0.01;"/>
    </defs>
    <g clip-path="url(#p110cf85861)">
     <use style="fill:#ff3000;fill-opacity:0.01;stroke:#ff3000;stroke-opacity:0.01;" x="598.734397" xlink:href="#m5745a0d524" y="113.096839"/>
    </g>
   </g>
   <g id="line2d_86">
    <path clip-path="url(#p110cf85861)" d="M 166.484773 487.349727 
L 604.768409 107.818091 
" style="fill:none;stroke:#000000;stroke-linecap:square;stroke-width:4;"/>
   </g>
   <g id="line2d_87">
    <path clip-path="url(#p110cf85861)" d="M 166.484773 487.349727 
L 623.030227 92.004273 
" style="fill:none;stroke:#000000;stroke-linecap:square;stroke-width:4;"/>
   </g>
   <g id="patch_3">
    <path d="M 143.6575 507.117 
L 143.6575 72.237 
" style="fill:none;stroke:#000000;stroke-linecap:square;stroke-linejoin:miter;stroke-width:2;"/>
   </g>
   <g id="patch_4">
    <path d="M 645.8575 507.117 
L 645.8575 72.237 
" style="fill:none;stroke:#000000;stroke-linecap:square;stroke-linejoin:miter;stroke-width:2;"/>
   </g>
   <g id="patch_5">
    <path d="M 143.6575 507.117 
L 645.8575 507.117 
" style="fill:none;stroke:#000000;stroke-linecap:square;stroke-linejoin:miter;stroke-width:2;"/>
   </g>
   <g id="patch_6">
    <path d="M 143.6575 72.237 
L 645.8575 72.237 
" style="fill:none;stroke:#000000;stroke-linecap:square;stroke-linejoin:miter;stroke-width:2;"/>
   </g>
   <g id="text_8">
    <!-- Std -->
    <g transform="translate(338.92375 58.2615)scale(0.672 -0.672)">
     <defs>
      <path d="M 53.515625 70.515625 
L 53.515625 60.890625 
Q 47.90625 63.578125 42.921875 64.890625 
Q 37.9375 66.21875 33.296875 66.21875 
Q 25.25 66.21875 20.875 63.09375 
Q 16.5 59.96875 16.5 54.203125 
Q 16.5 49.359375 19.40625 46.890625 
Q 22.3125 44.4375 30.421875 42.921875 
L 36.375 41.703125 
Q 47.40625 39.59375 52.65625 34.296875 
Q 57.90625 29 57.90625 20.125 
Q 57.90625 9.515625 50.796875 4.046875 
Q 43.703125 -1.421875 29.984375 -1.421875 
Q 24.8125 -1.421875 18.96875 -0.25 
Q 13.140625 0.921875 6.890625 3.21875 
L 6.890625 13.375 
Q 12.890625 10.015625 18.65625 8.296875 
Q 24.421875 6.59375 29.984375 6.59375 
Q 38.421875 6.59375 43.015625 9.90625 
Q 47.609375 13.234375 47.609375 19.390625 
Q 47.609375 24.75 44.3125 27.78125 
Q 41.015625 30.8125 33.5 32.328125 
L 27.484375 33.5 
Q 16.453125 35.6875 11.515625 40.375 
Q 6.59375 45.0625 6.59375 53.421875 
Q 6.59375 63.09375 13.40625 68.65625 
Q 20.21875 74.21875 32.171875 74.21875 
Q 37.3125 74.21875 42.625 73.28125 
Q 47.953125 72.359375 53.515625 70.515625 
z
" id="DejaVuSans-83"/>
      <path d="M 18.3125 70.21875 
L 18.3125 54.6875 
L 36.8125 54.6875 
L 36.8125 47.703125 
L 18.3125 47.703125 
L 18.3125 18.015625 
Q 18.3125 11.328125 20.140625 9.421875 
Q 21.96875 7.515625 27.59375 7.515625 
L 36.8125 7.515625 
L 36.8125 0 
L 27.59375 0 
Q 17.1875 0 13.234375 3.875 
Q 9.28125 7.765625 9.28125 18.015625 
L 9.28125 47.703125 
L 2.6875 47.703125 
L 2.6875 54.6875 
L 9.28125 54.6875 
L 9.28125 70.21875 
z
" id="DejaVuSans-116"/>
      <path d="M 45.40625 46.390625 
L 45.40625 75.984375 
L 54.390625 75.984375 
L 54.390625 0 
L 45.40625 0 
L 45.40625 8.203125 
Q 42.578125 3.328125 38.25 0.953125 
Q 33.9375 -1.421875 27.875 -1.421875 
Q 17.96875 -1.421875 11.734375 6.484375 
Q 5.515625 14.40625 5.515625 27.296875 
Q 5.515625 40.1875 11.734375 48.09375 
Q 17.96875 56 27.875 56 
Q 33.9375 56 38.25 53.625 
Q 42.578125 51.265625 45.40625 46.390625 
z
M 14.796875 27.296875 
Q 14.796875 17.390625 18.875 11.75 
Q 22.953125 6.109375 30.078125 6.109375 
Q 37.203125 6.109375 41.296875 11.75 
Q 45.40625 17.390625 45.40625 27.296875 
Q 45.40625 37.203125 41.296875 42.84375 
Q 37.203125 48.484375 30.078125 48.484375 
Q 22.953125 48.484375 18.875 42.84375 
Q 14.796875 37.203125 14.796875 27.296875 
z
" id="DejaVuSans-100"/>
     </defs>
     <use xlink:href="#DejaVuSans-83"/>
     <use x="63.476562" xlink:href="#DejaVuSans-116"/>
     <use x="102.685547" xlink:href="#DejaVuSans-100"/>
    </g>
   </g>
   <g id="legend_1">
    <g id="patch_7">
     <path d="M 178.6575 264.119812 
L 361.1575 264.119812 
Q 371.1575 264.119812 371.1575 254.119812 
L 371.1575 107.237 
Q 371.1575 97.237 361.1575 97.237 
L 178.6575 97.237 
Q 168.6575 97.237 168.6575 107.237 
L 168.6575 254.119812 
Q 168.6575 264.119812 178.6575 264.119812 
z
" style="fill:#ffffff;opacity:0.8;stroke:#cccccc;stroke-linejoin:miter;"/>
    </g>
    <g id="line2d_88"/>
    <g id="line2d_89">
     <g>
      <use style="fill:#ff3000;stroke:#ff3000;" x="238.6575" xlink:href="#me1cd05a320" y="137.729187"/>
     </g>
    </g>
    <g id="text_9">
     <!-- $P_x$ -->
     <g transform="translate(298.6575 155.229187)scale(0.5 -0.5)">
      <defs>
       <path d="M 16.890625 72.90625 
L 39.703125 72.90625 
Q 49.65625 72.90625 54.875 68.265625 
Q 60.109375 63.625 60.109375 54.6875 
Q 60.109375 42.671875 52.390625 35.984375 
Q 44.671875 29.296875 30.71875 29.296875 
L 18.3125 29.296875 
L 12.59375 0 
L 2.6875 0 
z
M 25.203125 64.796875 
L 19.921875 37.40625 
L 32.328125 37.40625 
Q 40.71875 37.40625 45.203125 41.703125 
Q 49.703125 46 49.703125 54 
Q 49.703125 59.125 46.65625 61.953125 
Q 43.609375 64.796875 38.09375 64.796875 
z
" id="DejaVuSans-Oblique-80"/>
       <path d="M 60.015625 54.6875 
L 34.90625 27.875 
L 50.296875 0 
L 39.984375 0 
L 28.421875 21.6875 
L 8.296875 0 
L -2.59375 0 
L 24.3125 28.8125 
L 10.015625 54.6875 
L 20.3125 54.6875 
L 30.8125 34.90625 
L 49.125 54.6875 
z
" id="DejaVuSans-Oblique-120"/>
      </defs>
      <use transform="translate(0 0.09375)" xlink:href="#DejaVuSans-Oblique-80"/>
      <use transform="translate(60.302734 -16.3125)scale(0.7)" xlink:href="#DejaVuSans-Oblique-120"/>
     </g>
    </g>
    <g id="line2d_90"/>
    <g id="line2d_91">
     <g>
      <use style="fill:#b7ff40;stroke:#b7ff40;" x="238.6575" xlink:href="#m1d278cfbbb" y="211.119812"/>
     </g>
    </g>
    <g id="text_10">
     <!-- $P_y$ -->
     <g transform="translate(298.6575 228.619812)scale(0.5 -0.5)">
      <defs>
       <path d="M 24.8125 -5.078125 
Q 18.5625 -15.578125 14.625 -18.1875 
Q 10.6875 -20.796875 4.59375 -20.796875 
L -2.484375 -20.796875 
L -0.984375 -13.28125 
L 4.203125 -13.28125 
Q 7.953125 -13.28125 10.59375 -11.234375 
Q 13.234375 -9.1875 16.5 -3.21875 
L 19.28125 2 
L 7.171875 54.6875 
L 16.703125 54.6875 
L 25.78125 12.796875 
L 50.875 54.6875 
L 60.296875 54.6875 
z
" id="DejaVuSans-Oblique-121"/>
      </defs>
      <use transform="translate(0 0.09375)" xlink:href="#DejaVuSans-Oblique-80"/>
      <use transform="translate(60.302734 -16.3125)scale(0.7)" xlink:href="#DejaVuSans-Oblique-121"/>
     </g>
    </g>
   </g>
  </g>
 </g>
 <defs>
  <clipPath id="p110cf85861">
   <rect height="434.88" width="502.2" x="143.6575" y="72.237"/>
  </clipPath>
 </defs>
</svg>
