<?xml version="1.0" encoding="utf-8" standalone="no"?>
<!DOCTYPE svg PUBLIC "-//W3C//DTD SVG 1.1//EN"
  "http://www.w3.org/Graphics/SVG/1.1/DTD/svg11.dtd">
<!-- Created with matplotlib (https://matplotlib.org/) -->
<svg height="626.74375pt" version="1.1" viewBox="0 0 620.950041 626.74375" width="620.950041pt" xmlns="http://www.w3.org/2000/svg" xmlns:xlink="http://www.w3.org/1999/xlink">
 <metadata>
  <rdf:RDF xmlns:cc="http://creativecommons.org/ns#" xmlns:dc="http://purl.org/dc/elements/1.1/" xmlns:rdf="http://www.w3.org/1999/02/22-rdf-syntax-ns#">
   <cc:Work>
    <dc:type rdf:resource="http://purl.org/dc/dcmitype/StillImage"/>
    <dc:date>2023-01-05T11:24:50.274957</dc:date>
    <dc:format>image/svg+xml</dc:format>
    <dc:creator>
     <cc:Agent>
      <dc:title>Matplotlib v3.3.4, https://matplotlib.org/</dc:title>
     </cc:Agent>
    </dc:creator>
   </cc:Work>
  </rdf:RDF>
 </metadata>
 <defs>
  <style type="text/css">*{stroke-linecap:butt;stroke-linejoin:round;}</style>
 </defs>
 <g id="figure_1">
  <g id="patch_1">
   <path d="M 0 626.74375 
L 620.950041 626.74375 
L 620.950041 0 
L 0 0 
z
" style="fill:#ffffff;"/>
  </g>
  <g id="axes_1">
   <g id="patch_2">
    <path d="M 100.076875 504.02 
L 602.276875 504.02 
L 602.276875 69.14 
L 100.076875 69.14 
z
" style="fill:#ffffff;"/>
   </g>
   <g id="matplotlib.axis_1">
    <g id="xtick_1">
     <g id="line2d_1">
      <defs>
       <path d="M 0 0 
L 0 3.5 
" id="md457237266" style="stroke:#000000;stroke-width:0.8;"/>
      </defs>
      <g>
       <use style="stroke:#000000;stroke-width:0.8;" x="122.904148" xlink:href="#md457237266" y="504.02"/>
      </g>
     </g>
     <g id="text_1">
      <!-- 0 -->
      <g transform="translate(105.725398 552.051563)scale(0.54 -0.54)">
       <defs>
        <path d="M 31.78125 66.40625 
Q 24.171875 66.40625 20.328125 58.90625 
Q 16.5 51.421875 16.5 36.375 
Q 16.5 21.390625 20.328125 13.890625 
Q 24.171875 6.390625 31.78125 6.390625 
Q 39.453125 6.390625 43.28125 13.890625 
Q 47.125 21.390625 47.125 36.375 
Q 47.125 51.421875 43.28125 58.90625 
Q 39.453125 66.40625 31.78125 66.40625 
z
M 31.78125 74.21875 
Q 44.046875 74.21875 50.515625 64.515625 
Q 56.984375 54.828125 56.984375 36.375 
Q 56.984375 17.96875 50.515625 8.265625 
Q 44.046875 -1.421875 31.78125 -1.421875 
Q 19.53125 -1.421875 13.0625 8.265625 
Q 6.59375 17.96875 6.59375 36.375 
Q 6.59375 54.828125 13.0625 64.515625 
Q 19.53125 74.21875 31.78125 74.21875 
z
" id="DejaVuSans-48"/>
       </defs>
       <use xlink:href="#DejaVuSans-48"/>
      </g>
     </g>
    </g>
    <g id="xtick_2">
     <g id="line2d_2">
      <g>
       <use style="stroke:#000000;stroke-width:0.8;" x="351.148344" xlink:href="#md457237266" y="504.02"/>
      </g>
     </g>
     <g id="text_2">
      <!-- 20 -->
      <g transform="translate(316.790844 552.051563)scale(0.54 -0.54)">
       <defs>
        <path d="M 19.1875 8.296875 
L 53.609375 8.296875 
L 53.609375 0 
L 7.328125 0 
L 7.328125 8.296875 
Q 12.9375 14.109375 22.625 23.890625 
Q 32.328125 33.6875 34.8125 36.53125 
Q 39.546875 41.84375 41.421875 45.53125 
Q 43.3125 49.21875 43.3125 52.78125 
Q 43.3125 58.59375 39.234375 62.25 
Q 35.15625 65.921875 28.609375 65.921875 
Q 23.96875 65.921875 18.8125 64.3125 
Q 13.671875 62.703125 7.8125 59.421875 
L 7.8125 69.390625 
Q 13.765625 71.78125 18.9375 73 
Q 24.125 74.21875 28.421875 74.21875 
Q 39.75 74.21875 46.484375 68.546875 
Q 53.21875 62.890625 53.21875 53.421875 
Q 53.21875 48.921875 51.53125 44.890625 
Q 49.859375 40.875 45.40625 35.40625 
Q 44.1875 33.984375 37.640625 27.21875 
Q 31.109375 20.453125 19.1875 8.296875 
z
" id="DejaVuSans-50"/>
       </defs>
       <use xlink:href="#DejaVuSans-50"/>
       <use x="63.623047" xlink:href="#DejaVuSans-48"/>
      </g>
     </g>
    </g>
    <g id="xtick_3">
     <g id="line2d_3">
      <g>
       <use style="stroke:#000000;stroke-width:0.8;" x="579.392541" xlink:href="#md457237266" y="504.02"/>
      </g>
     </g>
     <g id="text_3">
      <!-- 40 -->
      <g transform="translate(545.035041 552.051563)scale(0.54 -0.54)">
       <defs>
        <path d="M 37.796875 64.3125 
L 12.890625 25.390625 
L 37.796875 25.390625 
z
M 35.203125 72.90625 
L 47.609375 72.90625 
L 47.609375 25.390625 
L 58.015625 25.390625 
L 58.015625 17.1875 
L 47.609375 17.1875 
L 47.609375 0 
L 37.796875 0 
L 37.796875 17.1875 
L 4.890625 17.1875 
L 4.890625 26.703125 
z
" id="DejaVuSans-52"/>
       </defs>
       <use xlink:href="#DejaVuSans-52"/>
       <use x="63.623047" xlink:href="#DejaVuSans-48"/>
      </g>
     </g>
    </g>
    <g id="text_4">
     <!-- Time (hr) -->
     <g transform="translate(227.255313 608.313438)scale(0.54 -0.54)">
      <defs>
       <path d="M -0.296875 72.90625 
L 61.375 72.90625 
L 61.375 64.59375 
L 35.5 64.59375 
L 35.5 0 
L 25.59375 0 
L 25.59375 64.59375 
L -0.296875 64.59375 
z
" id="DejaVuSans-84"/>
       <path d="M 9.421875 54.6875 
L 18.40625 54.6875 
L 18.40625 0 
L 9.421875 0 
z
M 9.421875 75.984375 
L 18.40625 75.984375 
L 18.40625 64.59375 
L 9.421875 64.59375 
z
" id="DejaVuSans-105"/>
       <path d="M 52 44.1875 
Q 55.375 50.25 60.0625 53.125 
Q 64.75 56 71.09375 56 
Q 79.640625 56 84.28125 50.015625 
Q 88.921875 44.046875 88.921875 33.015625 
L 88.921875 0 
L 79.890625 0 
L 79.890625 32.71875 
Q 79.890625 40.578125 77.09375 44.375 
Q 74.3125 48.1875 68.609375 48.1875 
Q 61.625 48.1875 57.5625 43.546875 
Q 53.515625 38.921875 53.515625 30.90625 
L 53.515625 0 
L 44.484375 0 
L 44.484375 32.71875 
Q 44.484375 40.625 41.703125 44.40625 
Q 38.921875 48.1875 33.109375 48.1875 
Q 26.21875 48.1875 22.15625 43.53125 
Q 18.109375 38.875 18.109375 30.90625 
L 18.109375 0 
L 9.078125 0 
L 9.078125 54.6875 
L 18.109375 54.6875 
L 18.109375 46.1875 
Q 21.1875 51.21875 25.484375 53.609375 
Q 29.78125 56 35.6875 56 
Q 41.65625 56 45.828125 52.96875 
Q 50 49.953125 52 44.1875 
z
" id="DejaVuSans-109"/>
       <path d="M 56.203125 29.59375 
L 56.203125 25.203125 
L 14.890625 25.203125 
Q 15.484375 15.921875 20.484375 11.0625 
Q 25.484375 6.203125 34.421875 6.203125 
Q 39.59375 6.203125 44.453125 7.46875 
Q 49.3125 8.734375 54.109375 11.28125 
L 54.109375 2.78125 
Q 49.265625 0.734375 44.1875 -0.34375 
Q 39.109375 -1.421875 33.890625 -1.421875 
Q 20.796875 -1.421875 13.15625 6.1875 
Q 5.515625 13.8125 5.515625 26.8125 
Q 5.515625 40.234375 12.765625 48.109375 
Q 20.015625 56 32.328125 56 
Q 43.359375 56 49.78125 48.890625 
Q 56.203125 41.796875 56.203125 29.59375 
z
M 47.21875 32.234375 
Q 47.125 39.59375 43.09375 43.984375 
Q 39.0625 48.390625 32.421875 48.390625 
Q 24.90625 48.390625 20.390625 44.140625 
Q 15.875 39.890625 15.1875 32.171875 
z
" id="DejaVuSans-101"/>
       <path id="DejaVuSans-32"/>
       <path d="M 31 75.875 
Q 24.46875 64.65625 21.28125 53.65625 
Q 18.109375 42.671875 18.109375 31.390625 
Q 18.109375 20.125 21.3125 9.0625 
Q 24.515625 -2 31 -13.1875 
L 23.1875 -13.1875 
Q 15.875 -1.703125 12.234375 9.375 
Q 8.59375 20.453125 8.59375 31.390625 
Q 8.59375 42.28125 12.203125 53.3125 
Q 15.828125 64.359375 23.1875 75.875 
z
" id="DejaVuSans-40"/>
       <path d="M 54.890625 33.015625 
L 54.890625 0 
L 45.90625 0 
L 45.90625 32.71875 
Q 45.90625 40.484375 42.875 44.328125 
Q 39.84375 48.1875 33.796875 48.1875 
Q 26.515625 48.1875 22.3125 43.546875 
Q 18.109375 38.921875 18.109375 30.90625 
L 18.109375 0 
L 9.078125 0 
L 9.078125 75.984375 
L 18.109375 75.984375 
L 18.109375 46.1875 
Q 21.34375 51.125 25.703125 53.5625 
Q 30.078125 56 35.796875 56 
Q 45.21875 56 50.046875 50.171875 
Q 54.890625 44.34375 54.890625 33.015625 
z
" id="DejaVuSans-104"/>
       <path d="M 41.109375 46.296875 
Q 39.59375 47.171875 37.8125 47.578125 
Q 36.03125 48 33.890625 48 
Q 26.265625 48 22.1875 43.046875 
Q 18.109375 38.09375 18.109375 28.8125 
L 18.109375 0 
L 9.078125 0 
L 9.078125 54.6875 
L 18.109375 54.6875 
L 18.109375 46.1875 
Q 20.953125 51.171875 25.484375 53.578125 
Q 30.03125 56 36.53125 56 
Q 37.453125 56 38.578125 55.875 
Q 39.703125 55.765625 41.0625 55.515625 
z
" id="DejaVuSans-114"/>
       <path d="M 8.015625 75.875 
L 15.828125 75.875 
Q 23.140625 64.359375 26.78125 53.3125 
Q 30.421875 42.28125 30.421875 31.390625 
Q 30.421875 20.453125 26.78125 9.375 
Q 23.140625 -1.703125 15.828125 -13.1875 
L 8.015625 -13.1875 
Q 14.5 -2 17.703125 9.0625 
Q 20.90625 20.125 20.90625 31.390625 
Q 20.90625 42.671875 17.703125 53.65625 
Q 14.5 64.65625 8.015625 75.875 
z
" id="DejaVuSans-41"/>
      </defs>
      <use xlink:href="#DejaVuSans-84"/>
      <use x="57.958984" xlink:href="#DejaVuSans-105"/>
      <use x="85.742188" xlink:href="#DejaVuSans-109"/>
      <use x="183.154297" xlink:href="#DejaVuSans-101"/>
      <use x="244.677734" xlink:href="#DejaVuSans-32"/>
      <use x="276.464844" xlink:href="#DejaVuSans-40"/>
      <use x="315.478516" xlink:href="#DejaVuSans-104"/>
      <use x="378.857422" xlink:href="#DejaVuSans-114"/>
      <use x="419.970703" xlink:href="#DejaVuSans-41"/>
     </g>
    </g>
   </g>
   <g id="matplotlib.axis_2">
    <g id="ytick_1">
     <g id="line2d_4">
      <defs>
       <path d="M 0 0 
L -3.5 0 
" id="md76518113d" style="stroke:#000000;stroke-width:0.8;"/>
      </defs>
      <g>
       <use style="stroke:#000000;stroke-width:0.8;" x="100.076875" xlink:href="#md76518113d" y="504.02"/>
      </g>
     </g>
     <g id="text_5">
      <!-- 0.0 -->
      <g transform="translate(7.2 524.535781)scale(0.54 -0.54)">
       <defs>
        <path d="M 10.6875 12.40625 
L 21 12.40625 
L 21 0 
L 10.6875 0 
z
" id="DejaVuSans-46"/>
       </defs>
       <use xlink:href="#DejaVuSans-48"/>
       <use x="63.623047" xlink:href="#DejaVuSans-46"/>
       <use x="95.410156" xlink:href="#DejaVuSans-48"/>
      </g>
     </g>
    </g>
    <g id="ytick_2">
     <g id="line2d_5">
      <g>
       <use style="stroke:#000000;stroke-width:0.8;" x="100.076875" xlink:href="#md76518113d" y="296.934286"/>
      </g>
     </g>
     <g id="text_6">
      <!-- 0.5 -->
      <g transform="translate(7.2 317.450067)scale(0.54 -0.54)">
       <defs>
        <path d="M 10.796875 72.90625 
L 49.515625 72.90625 
L 49.515625 64.59375 
L 19.828125 64.59375 
L 19.828125 46.734375 
Q 21.96875 47.46875 24.109375 47.828125 
Q 26.265625 48.1875 28.421875 48.1875 
Q 40.625 48.1875 47.75 41.5 
Q 54.890625 34.8125 54.890625 23.390625 
Q 54.890625 11.625 47.5625 5.09375 
Q 40.234375 -1.421875 26.90625 -1.421875 
Q 22.3125 -1.421875 17.546875 -0.640625 
Q 12.796875 0.140625 7.71875 1.703125 
L 7.71875 11.625 
Q 12.109375 9.234375 16.796875 8.0625 
Q 21.484375 6.890625 26.703125 6.890625 
Q 35.15625 6.890625 40.078125 11.328125 
Q 45.015625 15.765625 45.015625 23.390625 
Q 45.015625 31 40.078125 35.4375 
Q 35.15625 39.890625 26.703125 39.890625 
Q 22.75 39.890625 18.8125 39.015625 
Q 14.890625 38.140625 10.796875 36.28125 
z
" id="DejaVuSans-53"/>
       </defs>
       <use xlink:href="#DejaVuSans-48"/>
       <use x="63.623047" xlink:href="#DejaVuSans-46"/>
       <use x="95.410156" xlink:href="#DejaVuSans-53"/>
      </g>
     </g>
    </g>
    <g id="ytick_3">
     <g id="line2d_6">
      <g>
       <use style="stroke:#000000;stroke-width:0.8;" x="100.076875" xlink:href="#md76518113d" y="89.848571"/>
      </g>
     </g>
     <g id="text_7">
      <!-- 1.0 -->
      <g transform="translate(7.2 110.364353)scale(0.54 -0.54)">
       <defs>
        <path d="M 12.40625 8.296875 
L 28.515625 8.296875 
L 28.515625 63.921875 
L 10.984375 60.40625 
L 10.984375 69.390625 
L 28.421875 72.90625 
L 38.28125 72.90625 
L 38.28125 8.296875 
L 54.390625 8.296875 
L 54.390625 0 
L 12.40625 0 
z
" id="DejaVuSans-49"/>
       </defs>
       <use xlink:href="#DejaVuSans-49"/>
       <use x="63.623047" xlink:href="#DejaVuSans-46"/>
       <use x="95.410156" xlink:href="#DejaVuSans-48"/>
      </g>
     </g>
    </g>
   </g>
   <g id="line2d_7">
    <path clip-path="url(#p941e40071c)" d="M 122.904148 89.848571 
L 134.316358 105.66992 
L 145.728567 152.388457 
L 157.140777 200.18384 
L 168.552987 230.128434 
L 179.965197 248.683314 
L 191.377407 259.410354 
L 202.789617 263.800571 
L 214.201826 264.711749 
L 225.614036 264.504663 
L 237.026246 263.3864 
L 248.438456 262.475223 
L 259.850666 261.439794 
L 271.262876 261.398377 
L 282.675085 260.818537 
L 294.087295 260.528617 
L 305.499505 261.315543 
L 316.911715 260.818537 
L 328.323925 259.244686 
L 339.736135 256.842491 
L 351.148344 256.42832 
L 362.560554 256.096983 
L 373.972764 256.759657 
L 385.384974 257.00816 
L 396.797184 256.842491 
L 408.209394 258.292091 
L 419.621603 261.35696 
L 431.033813 262.268137 
L 442.446023 262.143886 
L 453.858233 262.682309 
L 465.270443 261.64688 
L 476.682653 261.191291 
L 488.094863 261.35696 
L 499.507072 260.984206 
L 510.919282 261.729714 
L 522.331492 261.398377 
L 533.743702 262.558057 
L 545.155912 262.143886 
L 556.568122 262.102469 
L 567.980331 261.398377 
L 579.392541 262.723726 
" style="fill:none;stroke:#000080;stroke-linecap:square;stroke-width:6;"/>
   </g>
   <g id="line2d_8">
    <defs>
     <path d="M 0 6 
C 1.591219 6 3.117479 5.367802 4.242641 4.242641 
C 5.367802 3.117479 6 1.591219 6 0 
C 6 -1.591219 5.367802 -3.117479 4.242641 -4.242641 
C 3.117479 -5.367802 1.591219 -6 0 -6 
C -1.591219 -6 -3.117479 -5.367802 -4.242641 -4.242641 
C -5.367802 -3.117479 -6 -1.591219 -6 0 
C -6 1.591219 -5.367802 3.117479 -4.242641 4.242641 
C -3.117479 5.367802 -1.591219 6 0 6 
z
" id="mea4a0a37a4" style="stroke:#000080;"/>
    </defs>
    <g clip-path="url(#p941e40071c)">
     <use style="fill:#000080;stroke:#000080;" x="122.961209" xlink:href="#mea4a0a37a4" y="90.097074"/>
     <use style="fill:#000080;stroke:#000080;" x="145.785628" xlink:href="#mea4a0a37a4" y="156.737257"/>
     <use style="fill:#000080;stroke:#000080;" x="168.610048" xlink:href="#mea4a0a37a4" y="231.619451"/>
     <use style="fill:#000080;stroke:#000080;" x="191.434468" xlink:href="#mea4a0a37a4" y="255.310057"/>
     <use style="fill:#000080;stroke:#000080;" x="214.258887" xlink:href="#mea4a0a37a4" y="265.99568"/>
     <use style="fill:#000080;stroke:#000080;" x="237.083307" xlink:href="#mea4a0a37a4" y="265.788594"/>
     <use style="fill:#000080;stroke:#000080;" x="259.907727" xlink:href="#mea4a0a37a4" y="266.451269"/>
     <use style="fill:#000080;stroke:#000080;" x="282.732147" xlink:href="#mea4a0a37a4" y="265.043086"/>
     <use style="fill:#000080;stroke:#000080;" x="305.556566" xlink:href="#mea4a0a37a4" y="266.699771"/>
     <use style="fill:#000080;stroke:#000080;" x="328.380986" xlink:href="#mea4a0a37a4" y="262.765143"/>
     <use style="fill:#000080;stroke:#000080;" x="351.205406" xlink:href="#mea4a0a37a4" y="265.291589"/>
     <use style="fill:#000080;stroke:#000080;" x="374.029825" xlink:href="#mea4a0a37a4" y="264.54608"/>
     <use style="fill:#000080;stroke:#000080;" x="396.854245" xlink:href="#mea4a0a37a4" y="265.41584"/>
     <use style="fill:#000080;stroke:#000080;" x="419.678665" xlink:href="#mea4a0a37a4" y="261.812549"/>
     <use style="fill:#000080;stroke:#000080;" x="442.503084" xlink:href="#mea4a0a37a4" y="266.741189"/>
     <use style="fill:#000080;stroke:#000080;" x="465.327504" xlink:href="#mea4a0a37a4" y="267.362446"/>
     <use style="fill:#000080;stroke:#000080;" x="488.151924" xlink:href="#mea4a0a37a4" y="259.700274"/>
     <use style="fill:#000080;stroke:#000080;" x="510.976343" xlink:href="#mea4a0a37a4" y="265.788594"/>
     <use style="fill:#000080;stroke:#000080;" x="533.800763" xlink:href="#mea4a0a37a4" y="265.664343"/>
     <use style="fill:#000080;stroke:#000080;" x="556.625183" xlink:href="#mea4a0a37a4" y="269.309051"/>
     <use style="fill:#000080;stroke:#000080;" x="579.449602" xlink:href="#mea4a0a37a4" y="272.829509"/>
    </g>
   </g>
   <g id="line2d_9">
    <path clip-path="url(#p941e40071c)" d="M 122.904148 89.848571 
L 134.316358 104.965829 
L 145.728567 155.701829 
L 157.140777 202.130446 
L 168.552987 236.13392 
L 179.965197 253.984709 
L 191.377407 265.250171 
L 202.789617 269.516137 
L 214.201826 271.586994 
L 225.614036 271.255657 
L 237.026246 268.60496 
L 248.438456 269.76464 
L 259.850666 269.391886 
L 271.262876 271.876914 
L 282.675085 271.959749 
L 294.087295 270.510149 
L 305.499505 269.433303 
L 316.911715 268.60496 
L 328.323925 267.776617 
L 339.736135 268.480709 
L 351.148344 268.89488 
L 362.560554 270.137394 
L 373.972764 269.557554 
L 385.384974 268.977714 
L 396.797184 271.172823 
L 408.209394 269.847474 
L 419.621603 268.60496 
L 431.033813 267.321029 
L 442.446023 265.788594 
L 453.858233 264.877417 
L 465.270443 265.333006 
L 476.682653 264.131909 
L 488.094863 263.179314 
L 499.507072 265.41584 
L 510.919282 266.492686 
L 522.331492 266.451269 
L 533.743702 265.498674 
L 545.155912 264.54608 
L 556.568122 265.084503 
L 567.980331 264.463246 
L 579.392541 265.167337 
" style="fill:none;stroke:#00a4ff;stroke-linecap:square;stroke-width:6;"/>
   </g>
   <g id="line2d_10">
    <defs>
     <path d="M 0 6 
C 1.591219 6 3.117479 5.367802 4.242641 4.242641 
C 5.367802 3.117479 6 1.591219 6 0 
C 6 -1.591219 5.367802 -3.117479 4.242641 -4.242641 
C 3.117479 -5.367802 1.591219 -6 0 -6 
C -1.591219 -6 -3.117479 -5.367802 -4.242641 -4.242641 
C -5.367802 -3.117479 -6 -1.591219 -6 0 
C -6 1.591219 -5.367802 3.117479 -4.242641 4.242641 
C -3.117479 5.367802 -1.591219 6 0 6 
z
" id="mf6eef71aa9" style="stroke:#00a4ff;"/>
    </defs>
    <g clip-path="url(#p941e40071c)">
     <use style="fill:#00a4ff;stroke:#00a4ff;" x="122.961209" xlink:href="#mf6eef71aa9" y="89.848571"/>
     <use style="fill:#00a4ff;stroke:#00a4ff;" x="145.785628" xlink:href="#mf6eef71aa9" y="163.695337"/>
     <use style="fill:#00a4ff;stroke:#00a4ff;" x="168.610048" xlink:href="#mf6eef71aa9" y="236.258171"/>
     <use style="fill:#00a4ff;stroke:#00a4ff;" x="191.434468" xlink:href="#mf6eef71aa9" y="257.836503"/>
     <use style="fill:#00a4ff;stroke:#00a4ff;" x="214.258887" xlink:href="#mf6eef71aa9" y="264.338994"/>
     <use style="fill:#00a4ff;stroke:#00a4ff;" x="237.083307" xlink:href="#mf6eef71aa9" y="267.528114"/>
     <use style="fill:#00a4ff;stroke:#00a4ff;" x="259.907727" xlink:href="#mf6eef71aa9" y="266.699771"/>
     <use style="fill:#00a4ff;stroke:#00a4ff;" x="282.732147" xlink:href="#mf6eef71aa9" y="261.729714"/>
     <use style="fill:#00a4ff;stroke:#00a4ff;" x="305.556566" xlink:href="#mf6eef71aa9" y="264.090491"/>
     <use style="fill:#00a4ff;stroke:#00a4ff;" x="328.380986" xlink:href="#mf6eef71aa9" y="263.634903"/>
     <use style="fill:#00a4ff;stroke:#00a4ff;" x="351.205406" xlink:href="#mf6eef71aa9" y="262.185303"/>
     <use style="fill:#00a4ff;stroke:#00a4ff;" x="374.029825" xlink:href="#mf6eef71aa9" y="264.670331"/>
     <use style="fill:#00a4ff;stroke:#00a4ff;" x="396.854245" xlink:href="#mf6eef71aa9" y="267.362446"/>
     <use style="fill:#00a4ff;stroke:#00a4ff;" x="419.678665" xlink:href="#mf6eef71aa9" y="264.587497"/>
     <use style="fill:#00a4ff;stroke:#00a4ff;" x="442.503084" xlink:href="#mf6eef71aa9" y="264.877417"/>
     <use style="fill:#00a4ff;stroke:#00a4ff;" x="465.327504" xlink:href="#mf6eef71aa9" y="262.143886"/>
     <use style="fill:#00a4ff;stroke:#00a4ff;" x="488.151924" xlink:href="#mf6eef71aa9" y="262.475223"/>
     <use style="fill:#00a4ff;stroke:#00a4ff;" x="510.976343" xlink:href="#mf6eef71aa9" y="260.942789"/>
     <use style="fill:#00a4ff;stroke:#00a4ff;" x="533.800763" xlink:href="#mf6eef71aa9" y="263.924823"/>
     <use style="fill:#00a4ff;stroke:#00a4ff;" x="556.625183" xlink:href="#mf6eef71aa9" y="259.079017"/>
     <use style="fill:#00a4ff;stroke:#00a4ff;" x="579.449602" xlink:href="#mf6eef71aa9" y="257.629417"/>
    </g>
   </g>
   <g id="patch_3">
    <path d="M 100.076875 504.02 
L 100.076875 69.14 
" style="fill:none;stroke:#000000;stroke-linecap:square;stroke-linejoin:miter;stroke-width:1.5;"/>
   </g>
   <g id="patch_4">
    <path d="M 602.276875 504.02 
L 602.276875 69.14 
" style="fill:none;stroke:#000000;stroke-linecap:square;stroke-linejoin:miter;stroke-width:1.5;"/>
   </g>
   <g id="patch_5">
    <path d="M 100.076875 504.02 
L 602.276875 504.02 
" style="fill:none;stroke:#000000;stroke-linecap:square;stroke-linejoin:miter;stroke-width:1.5;"/>
   </g>
   <g id="patch_6">
    <path d="M 100.076875 69.14 
L 602.276875 69.14 
" style="fill:none;stroke:#000000;stroke-linecap:square;stroke-linejoin:miter;stroke-width:1.5;"/>
   </g>
   <g id="text_8">
    <!-- Average Count -->
    <g transform="translate(114.566875 55.83)scale(0.64 -0.64)">
     <defs>
      <path d="M 34.1875 63.1875 
L 20.796875 26.90625 
L 47.609375 26.90625 
z
M 28.609375 72.90625 
L 39.796875 72.90625 
L 67.578125 0 
L 57.328125 0 
L 50.6875 18.703125 
L 17.828125 18.703125 
L 11.1875 0 
L 0.78125 0 
z
" id="DejaVuSans-65"/>
      <path d="M 2.984375 54.6875 
L 12.5 54.6875 
L 29.59375 8.796875 
L 46.6875 54.6875 
L 56.203125 54.6875 
L 35.6875 0 
L 23.484375 0 
z
" id="DejaVuSans-118"/>
      <path d="M 34.28125 27.484375 
Q 23.390625 27.484375 19.1875 25 
Q 14.984375 22.515625 14.984375 16.5 
Q 14.984375 11.71875 18.140625 8.90625 
Q 21.296875 6.109375 26.703125 6.109375 
Q 34.1875 6.109375 38.703125 11.40625 
Q 43.21875 16.703125 43.21875 25.484375 
L 43.21875 27.484375 
z
M 52.203125 31.203125 
L 52.203125 0 
L 43.21875 0 
L 43.21875 8.296875 
Q 40.140625 3.328125 35.546875 0.953125 
Q 30.953125 -1.421875 24.3125 -1.421875 
Q 15.921875 -1.421875 10.953125 3.296875 
Q 6 8.015625 6 15.921875 
Q 6 25.140625 12.171875 29.828125 
Q 18.359375 34.515625 30.609375 34.515625 
L 43.21875 34.515625 
L 43.21875 35.40625 
Q 43.21875 41.609375 39.140625 45 
Q 35.0625 48.390625 27.6875 48.390625 
Q 23 48.390625 18.546875 47.265625 
Q 14.109375 46.140625 10.015625 43.890625 
L 10.015625 52.203125 
Q 14.9375 54.109375 19.578125 55.046875 
Q 24.21875 56 28.609375 56 
Q 40.484375 56 46.34375 49.84375 
Q 52.203125 43.703125 52.203125 31.203125 
z
" id="DejaVuSans-97"/>
      <path d="M 45.40625 27.984375 
Q 45.40625 37.75 41.375 43.109375 
Q 37.359375 48.484375 30.078125 48.484375 
Q 22.859375 48.484375 18.828125 43.109375 
Q 14.796875 37.75 14.796875 27.984375 
Q 14.796875 18.265625 18.828125 12.890625 
Q 22.859375 7.515625 30.078125 7.515625 
Q 37.359375 7.515625 41.375 12.890625 
Q 45.40625 18.265625 45.40625 27.984375 
z
M 54.390625 6.78125 
Q 54.390625 -7.171875 48.1875 -13.984375 
Q 42 -20.796875 29.203125 -20.796875 
Q 24.46875 -20.796875 20.265625 -20.09375 
Q 16.0625 -19.390625 12.109375 -17.921875 
L 12.109375 -9.1875 
Q 16.0625 -11.328125 19.921875 -12.34375 
Q 23.78125 -13.375 27.78125 -13.375 
Q 36.625 -13.375 41.015625 -8.765625 
Q 45.40625 -4.15625 45.40625 5.171875 
L 45.40625 9.625 
Q 42.625 4.78125 38.28125 2.390625 
Q 33.9375 0 27.875 0 
Q 17.828125 0 11.671875 7.65625 
Q 5.515625 15.328125 5.515625 27.984375 
Q 5.515625 40.671875 11.671875 48.328125 
Q 17.828125 56 27.875 56 
Q 33.9375 56 38.28125 53.609375 
Q 42.625 51.21875 45.40625 46.390625 
L 45.40625 54.6875 
L 54.390625 54.6875 
z
" id="DejaVuSans-103"/>
      <path d="M 64.40625 67.28125 
L 64.40625 56.890625 
Q 59.421875 61.53125 53.78125 63.8125 
Q 48.140625 66.109375 41.796875 66.109375 
Q 29.296875 66.109375 22.65625 58.46875 
Q 16.015625 50.828125 16.015625 36.375 
Q 16.015625 21.96875 22.65625 14.328125 
Q 29.296875 6.6875 41.796875 6.6875 
Q 48.140625 6.6875 53.78125 8.984375 
Q 59.421875 11.28125 64.40625 15.921875 
L 64.40625 5.609375 
Q 59.234375 2.09375 53.4375 0.328125 
Q 47.65625 -1.421875 41.21875 -1.421875 
Q 24.65625 -1.421875 15.125 8.703125 
Q 5.609375 18.84375 5.609375 36.375 
Q 5.609375 53.953125 15.125 64.078125 
Q 24.65625 74.21875 41.21875 74.21875 
Q 47.75 74.21875 53.53125 72.484375 
Q 59.328125 70.75 64.40625 67.28125 
z
" id="DejaVuSans-67"/>
      <path d="M 30.609375 48.390625 
Q 23.390625 48.390625 19.1875 42.75 
Q 14.984375 37.109375 14.984375 27.296875 
Q 14.984375 17.484375 19.15625 11.84375 
Q 23.34375 6.203125 30.609375 6.203125 
Q 37.796875 6.203125 41.984375 11.859375 
Q 46.1875 17.53125 46.1875 27.296875 
Q 46.1875 37.015625 41.984375 42.703125 
Q 37.796875 48.390625 30.609375 48.390625 
z
M 30.609375 56 
Q 42.328125 56 49.015625 48.375 
Q 55.71875 40.765625 55.71875 27.296875 
Q 55.71875 13.875 49.015625 6.21875 
Q 42.328125 -1.421875 30.609375 -1.421875 
Q 18.84375 -1.421875 12.171875 6.21875 
Q 5.515625 13.875 5.515625 27.296875 
Q 5.515625 40.765625 12.171875 48.375 
Q 18.84375 56 30.609375 56 
z
" id="DejaVuSans-111"/>
      <path d="M 8.5 21.578125 
L 8.5 54.6875 
L 17.484375 54.6875 
L 17.484375 21.921875 
Q 17.484375 14.15625 20.5 10.265625 
Q 23.53125 6.390625 29.59375 6.390625 
Q 36.859375 6.390625 41.078125 11.03125 
Q 45.3125 15.671875 45.3125 23.6875 
L 45.3125 54.6875 
L 54.296875 54.6875 
L 54.296875 0 
L 45.3125 0 
L 45.3125 8.40625 
Q 42.046875 3.421875 37.71875 1 
Q 33.40625 -1.421875 27.6875 -1.421875 
Q 18.265625 -1.421875 13.375 4.4375 
Q 8.5 10.296875 8.5 21.578125 
z
M 31.109375 56 
z
" id="DejaVuSans-117"/>
      <path d="M 54.890625 33.015625 
L 54.890625 0 
L 45.90625 0 
L 45.90625 32.71875 
Q 45.90625 40.484375 42.875 44.328125 
Q 39.84375 48.1875 33.796875 48.1875 
Q 26.515625 48.1875 22.3125 43.546875 
Q 18.109375 38.921875 18.109375 30.90625 
L 18.109375 0 
L 9.078125 0 
L 9.078125 54.6875 
L 18.109375 54.6875 
L 18.109375 46.1875 
Q 21.34375 51.125 25.703125 53.5625 
Q 30.078125 56 35.796875 56 
Q 45.21875 56 50.046875 50.171875 
Q 54.890625 44.34375 54.890625 33.015625 
z
" id="DejaVuSans-110"/>
      <path d="M 18.3125 70.21875 
L 18.3125 54.6875 
L 36.8125 54.6875 
L 36.8125 47.703125 
L 18.3125 47.703125 
L 18.3125 18.015625 
Q 18.3125 11.328125 20.140625 9.421875 
Q 21.96875 7.515625 27.59375 7.515625 
L 36.8125 7.515625 
L 36.8125 0 
L 27.59375 0 
Q 17.1875 0 13.234375 3.875 
Q 9.28125 7.765625 9.28125 18.015625 
L 9.28125 47.703125 
L 2.6875 47.703125 
L 2.6875 54.6875 
L 9.28125 54.6875 
L 9.28125 70.21875 
z
" id="DejaVuSans-116"/>
     </defs>
     <use xlink:href="#DejaVuSans-65"/>
     <use x="62.533203" xlink:href="#DejaVuSans-118"/>
     <use x="121.712891" xlink:href="#DejaVuSans-101"/>
     <use x="183.236328" xlink:href="#DejaVuSans-114"/>
     <use x="224.349609" xlink:href="#DejaVuSans-97"/>
     <use x="285.628906" xlink:href="#DejaVuSans-103"/>
     <use x="349.105469" xlink:href="#DejaVuSans-101"/>
     <use x="410.628906" xlink:href="#DejaVuSans-32"/>
     <use x="442.416016" xlink:href="#DejaVuSans-67"/>
     <use x="512.240234" xlink:href="#DejaVuSans-111"/>
     <use x="573.421875" xlink:href="#DejaVuSans-117"/>
     <use x="636.800781" xlink:href="#DejaVuSans-110"/>
     <use x="700.179688" xlink:href="#DejaVuSans-116"/>
    </g>
   </g>
   <g id="legend_1">
    <g id="patch_7">
     <path d="M 358.196875 477.02 
L 564.476875 477.02 
Q 575.276875 477.02 575.276875 466.22 
L 575.276875 307.586563 
Q 575.276875 296.786563 564.476875 296.786563 
L 358.196875 296.786563 
Q 347.396875 296.786563 347.396875 307.586563 
L 347.396875 466.22 
Q 347.396875 477.02 358.196875 477.02 
z
" style="fill:#ffffff;opacity:0.8;stroke:#cccccc;stroke-linejoin:miter;"/>
    </g>
    <g id="line2d_11">
     <path d="M 385.196875 340.518125 
L 460.796875 340.518125 
" style="fill:none;stroke:#000080;stroke-linecap:square;stroke-width:6;"/>
    </g>
    <g id="line2d_12"/>
    <g id="text_9">
     <!-- $G_x$ -->
     <g transform="translate(487.796875 359.418125)scale(0.54 -0.54)">
      <defs>
       <path d="M 54.59375 10.890625 
L 58.40625 29.984375 
L 42.1875 29.984375 
L 43.703125 38.09375 
L 69.578125 38.09375 
L 63.28125 6 
Q 56.78125 2.4375 49.109375 0.5 
Q 41.453125 -1.421875 33.6875 -1.421875 
Q 19.96875 -1.421875 12.234375 6.1875 
Q 4.5 13.8125 4.5 27.390625 
Q 4.5 38.671875 9.203125 48.84375 
Q 13.921875 59.03125 22.21875 65.828125 
Q 27.4375 70.0625 33.640625 72.140625 
Q 39.84375 74.21875 47.40625 74.21875 
Q 54.25 74.21875 60.515625 72.484375 
Q 66.796875 70.75 72.515625 67.28125 
L 70.515625 56.78125 
Q 66.109375 61.375 60.203125 63.796875 
Q 54.296875 66.21875 47.609375 66.21875 
Q 39.84375 66.21875 33.9375 63.25 
Q 28.03125 60.296875 23.390625 54.109375 
Q 19.4375 48.828125 17.15625 41.671875 
Q 14.890625 34.515625 14.890625 27.09375 
Q 14.890625 16.890625 20.109375 11.734375 
Q 25.34375 6.59375 35.6875 6.59375 
Q 40.875 6.59375 45.703125 7.6875 
Q 50.53125 8.796875 54.59375 10.890625 
z
" id="DejaVuSans-Oblique-71"/>
       <path d="M 60.015625 54.6875 
L 34.90625 27.875 
L 50.296875 0 
L 39.984375 0 
L 28.421875 21.6875 
L 8.296875 0 
L -2.59375 0 
L 24.3125 28.8125 
L 10.015625 54.6875 
L 20.3125 54.6875 
L 30.8125 34.90625 
L 49.125 54.6875 
z
" id="DejaVuSans-Oblique-120"/>
      </defs>
      <use transform="translate(0 0.78125)" xlink:href="#DejaVuSans-Oblique-71"/>
      <use transform="translate(77.490234 -15.625)scale(0.7)" xlink:href="#DejaVuSans-Oblique-120"/>
     </g>
    </g>
    <g id="line2d_13">
     <path d="M 385.196875 419.78 
L 460.796875 419.78 
" style="fill:none;stroke:#00a4ff;stroke-linecap:square;stroke-width:6;"/>
    </g>
    <g id="line2d_14"/>
    <g id="text_10">
     <!-- $G_y$ -->
     <g transform="translate(487.796875 438.68)scale(0.54 -0.54)">
      <defs>
       <path d="M 24.8125 -5.078125 
Q 18.5625 -15.578125 14.625 -18.1875 
Q 10.6875 -20.796875 4.59375 -20.796875 
L -2.484375 -20.796875 
L -0.984375 -13.28125 
L 4.203125 -13.28125 
Q 7.953125 -13.28125 10.59375 -11.234375 
Q 13.234375 -9.1875 16.5 -3.21875 
L 19.28125 2 
L 7.171875 54.6875 
L 16.703125 54.6875 
L 25.78125 12.796875 
L 50.875 54.6875 
L 60.296875 54.6875 
z
" id="DejaVuSans-Oblique-121"/>
      </defs>
      <use transform="translate(0 0.78125)" xlink:href="#DejaVuSans-Oblique-71"/>
      <use transform="translate(77.490234 -15.625)scale(0.7)" xlink:href="#DejaVuSans-Oblique-121"/>
     </g>
    </g>
   </g>
  </g>
 </g>
 <defs>
  <clipPath id="p941e40071c">
   <rect height="434.88" width="502.2" x="100.076875" y="69.14"/>
  </clipPath>
 </defs>
</svg>
