<?xml version="1.0" encoding="utf-8" standalone="no"?>
<!DOCTYPE svg PUBLIC "-//W3C//DTD SVG 1.1//EN"
  "http://www.w3.org/Graphics/SVG/1.1/DTD/svg11.dtd">
<!-- Created with matplotlib (https://matplotlib.org/) -->
<svg height="626.74375pt" version="1.1" viewBox="0 0 603.788166 626.74375" width="603.788166pt" xmlns="http://www.w3.org/2000/svg" xmlns:xlink="http://www.w3.org/1999/xlink">
 <metadata>
  <rdf:RDF xmlns:cc="http://creativecommons.org/ns#" xmlns:dc="http://purl.org/dc/elements/1.1/" xmlns:rdf="http://www.w3.org/1999/02/22-rdf-syntax-ns#">
   <cc:Work>
    <dc:type rdf:resource="http://purl.org/dc/dcmitype/StillImage"/>
    <dc:date>2023-01-05T11:24:50.828099</dc:date>
    <dc:format>image/svg+xml</dc:format>
    <dc:creator>
     <cc:Agent>
      <dc:title>Matplotlib v3.3.4, https://matplotlib.org/</dc:title>
     </cc:Agent>
    </dc:creator>
   </cc:Work>
  </rdf:RDF>
 </metadata>
 <defs>
  <style type="text/css">*{stroke-linecap:butt;stroke-linejoin:round;}</style>
 </defs>
 <g id="figure_1">
  <g id="patch_1">
   <path d="M 0 626.74375 
L 603.788166 626.74375 
L 603.788166 0 
L 0 0 
z
" style="fill:#ffffff;"/>
  </g>
  <g id="axes_1">
   <g id="patch_2">
    <path d="M 82.915 504.02 
L 585.115 504.02 
L 585.115 69.14 
L 82.915 69.14 
z
" style="fill:#ffffff;"/>
   </g>
   <g id="line2d_1">
    <path clip-path="url(#pde1efcbe05)" d="M 105.742273 484.142799 
L 117.154483 177.548612 
L 128.566692 92.72698 
L 139.978902 99.277108 
L 151.391112 131.081144 
L 162.803322 161.15699 
L 174.215532 181.673937 
L 185.627742 194.43725 
L 197.039951 201.898407 
L 208.452161 205.882434 
L 219.864371 205.438776 
L 231.276581 205.070214 
L 242.688791 204.788605 
L 254.101001 204.760938 
L 265.51321 206.189734 
L 276.92542 207.264789 
L 288.33763 206.206531 
L 299.74984 204.913106 
L 311.16205 203.126618 
L 322.57426 203.310405 
L 333.986469 203.962552 
L 345.398679 203.784694 
L 356.810889 204.629521 
L 368.223099 203.798527 
L 379.635309 203.785682 
L 391.047519 205.094917 
L 402.459728 203.935873 
L 413.871938 202.921093 
L 425.284148 201.952753 
L 436.696358 200.622768 
L 448.108568 199.838215 
L 459.520778 199.182115 
L 470.932988 198.217728 
L 482.345197 197.747391 
L 493.757407 199.235473 
L 505.169617 201.196855 
L 516.581827 199.876751 
L 527.994037 199.906394 
L 539.406247 199.682095 
L 550.818456 199.180139 
L 562.230666 198.441039 
" style="fill:none;stroke:#b7ff40;stroke-linecap:square;stroke-width:6;"/>
   </g>
   <g id="line2d_2">
    <defs>
     <path d="M 0 6 
C 1.591219 6 3.117479 5.367802 4.242641 4.242641 
C 5.367802 3.117479 6 1.591219 6 0 
C 6 -1.591219 5.367802 -3.117479 4.242641 -4.242641 
C 3.117479 -5.367802 1.591219 -6 0 -6 
C -1.591219 -6 -3.117479 -5.367802 -4.242641 -4.242641 
C -5.367802 -3.117479 -6 -1.591219 -6 0 
C -6 1.591219 -5.367802 3.117479 -4.242641 4.242641 
C -3.117479 5.367802 -1.591219 6 0 6 
z
" id="meec2ccfedf" style="stroke:#b7ff40;"/>
    </defs>
    <g clip-path="url(#pde1efcbe05)">
     <use style="fill:#b7ff40;stroke:#b7ff40;" x="105.799334" xlink:href="#meec2ccfedf" y="483.682343"/>
     <use style="fill:#b7ff40;stroke:#b7ff40;" x="128.623753" xlink:href="#meec2ccfedf" y="100.652546"/>
     <use style="fill:#b7ff40;stroke:#b7ff40;" x="151.448173" xlink:href="#meec2ccfedf" y="134.114617"/>
     <use style="fill:#b7ff40;stroke:#b7ff40;" x="174.272593" xlink:href="#meec2ccfedf" y="174.707819"/>
     <use style="fill:#b7ff40;stroke:#b7ff40;" x="197.097012" xlink:href="#meec2ccfedf" y="194.927348"/>
     <use style="fill:#b7ff40;stroke:#b7ff40;" x="219.921432" xlink:href="#meec2ccfedf" y="199.249306"/>
     <use style="fill:#b7ff40;stroke:#b7ff40;" x="242.745852" xlink:href="#meec2ccfedf" y="200.924139"/>
     <use style="fill:#b7ff40;stroke:#b7ff40;" x="265.570272" xlink:href="#meec2ccfedf" y="196.813635"/>
     <use style="fill:#b7ff40;stroke:#b7ff40;" x="288.394691" xlink:href="#meec2ccfedf" y="197.088327"/>
     <use style="fill:#b7ff40;stroke:#b7ff40;" x="311.219111" xlink:href="#meec2ccfedf" y="196.969755"/>
     <use style="fill:#b7ff40;stroke:#b7ff40;" x="334.043531" xlink:href="#meec2ccfedf" y="195.980665"/>
     <use style="fill:#b7ff40;stroke:#b7ff40;" x="356.86795" xlink:href="#meec2ccfedf" y="199.272032"/>
     <use style="fill:#b7ff40;stroke:#b7ff40;" x="379.69237" xlink:href="#meec2ccfedf" y="203.711574"/>
     <use style="fill:#b7ff40;stroke:#b7ff40;" x="402.51679" xlink:href="#meec2ccfedf" y="200.159348"/>
     <use style="fill:#b7ff40;stroke:#b7ff40;" x="425.341209" xlink:href="#meec2ccfedf" y="199.547713"/>
     <use style="fill:#b7ff40;stroke:#b7ff40;" x="448.165629" xlink:href="#meec2ccfedf" y="198.170299"/>
     <use style="fill:#b7ff40;stroke:#b7ff40;" x="470.990049" xlink:href="#meec2ccfedf" y="196.356144"/>
     <use style="fill:#b7ff40;stroke:#b7ff40;" x="493.814468" xlink:href="#meec2ccfedf" y="195.343339"/>
     <use style="fill:#b7ff40;stroke:#b7ff40;" x="516.638888" xlink:href="#meec2ccfedf" y="196.645657"/>
     <use style="fill:#b7ff40;stroke:#b7ff40;" x="539.463308" xlink:href="#meec2ccfedf" y="192.120151"/>
     <use style="fill:#b7ff40;stroke:#b7ff40;" x="562.287727" xlink:href="#meec2ccfedf" y="189.420656"/>
    </g>
   </g>
   <g id="matplotlib.axis_1">
    <g id="xtick_1">
     <g id="line2d_3">
      <defs>
       <path d="M 0 0 
L 0 3.5 
" id="mbbd17b480e" style="stroke:#000000;stroke-width:0.8;"/>
      </defs>
      <g>
       <use style="stroke:#000000;stroke-width:0.8;" x="105.742273" xlink:href="#mbbd17b480e" y="504.02"/>
      </g>
     </g>
     <g id="text_1">
      <!-- 0 -->
      <g transform="translate(88.563523 552.051563)scale(0.54 -0.54)">
       <defs>
        <path d="M 31.78125 66.40625 
Q 24.171875 66.40625 20.328125 58.90625 
Q 16.5 51.421875 16.5 36.375 
Q 16.5 21.390625 20.328125 13.890625 
Q 24.171875 6.390625 31.78125 6.390625 
Q 39.453125 6.390625 43.28125 13.890625 
Q 47.125 21.390625 47.125 36.375 
Q 47.125 51.421875 43.28125 58.90625 
Q 39.453125 66.40625 31.78125 66.40625 
z
M 31.78125 74.21875 
Q 44.046875 74.21875 50.515625 64.515625 
Q 56.984375 54.828125 56.984375 36.375 
Q 56.984375 17.96875 50.515625 8.265625 
Q 44.046875 -1.421875 31.78125 -1.421875 
Q 19.53125 -1.421875 13.0625 8.265625 
Q 6.59375 17.96875 6.59375 36.375 
Q 6.59375 54.828125 13.0625 64.515625 
Q 19.53125 74.21875 31.78125 74.21875 
z
" id="DejaVuSans-48"/>
       </defs>
       <use xlink:href="#DejaVuSans-48"/>
      </g>
     </g>
    </g>
    <g id="xtick_2">
     <g id="line2d_4">
      <g>
       <use style="stroke:#000000;stroke-width:0.8;" x="333.986469" xlink:href="#mbbd17b480e" y="504.02"/>
      </g>
     </g>
     <g id="text_2">
      <!-- 20 -->
      <g transform="translate(299.628969 552.051563)scale(0.54 -0.54)">
       <defs>
        <path d="M 19.1875 8.296875 
L 53.609375 8.296875 
L 53.609375 0 
L 7.328125 0 
L 7.328125 8.296875 
Q 12.9375 14.109375 22.625 23.890625 
Q 32.328125 33.6875 34.8125 36.53125 
Q 39.546875 41.84375 41.421875 45.53125 
Q 43.3125 49.21875 43.3125 52.78125 
Q 43.3125 58.59375 39.234375 62.25 
Q 35.15625 65.921875 28.609375 65.921875 
Q 23.96875 65.921875 18.8125 64.3125 
Q 13.671875 62.703125 7.8125 59.421875 
L 7.8125 69.390625 
Q 13.765625 71.78125 18.9375 73 
Q 24.125 74.21875 28.421875 74.21875 
Q 39.75 74.21875 46.484375 68.546875 
Q 53.21875 62.890625 53.21875 53.421875 
Q 53.21875 48.921875 51.53125 44.890625 
Q 49.859375 40.875 45.40625 35.40625 
Q 44.1875 33.984375 37.640625 27.21875 
Q 31.109375 20.453125 19.1875 8.296875 
z
" id="DejaVuSans-50"/>
       </defs>
       <use xlink:href="#DejaVuSans-50"/>
       <use x="63.623047" xlink:href="#DejaVuSans-48"/>
      </g>
     </g>
    </g>
    <g id="xtick_3">
     <g id="line2d_5">
      <g>
       <use style="stroke:#000000;stroke-width:0.8;" x="562.230666" xlink:href="#mbbd17b480e" y="504.02"/>
      </g>
     </g>
     <g id="text_3">
      <!-- 40 -->
      <g transform="translate(527.873166 552.051563)scale(0.54 -0.54)">
       <defs>
        <path d="M 37.796875 64.3125 
L 12.890625 25.390625 
L 37.796875 25.390625 
z
M 35.203125 72.90625 
L 47.609375 72.90625 
L 47.609375 25.390625 
L 58.015625 25.390625 
L 58.015625 17.1875 
L 47.609375 17.1875 
L 47.609375 0 
L 37.796875 0 
L 37.796875 17.1875 
L 4.890625 17.1875 
L 4.890625 26.703125 
z
" id="DejaVuSans-52"/>
       </defs>
       <use xlink:href="#DejaVuSans-52"/>
       <use x="63.623047" xlink:href="#DejaVuSans-48"/>
      </g>
     </g>
    </g>
    <g id="text_4">
     <!-- Time (hr) -->
     <g transform="translate(210.093437 608.313438)scale(0.54 -0.54)">
      <defs>
       <path d="M -0.296875 72.90625 
L 61.375 72.90625 
L 61.375 64.59375 
L 35.5 64.59375 
L 35.5 0 
L 25.59375 0 
L 25.59375 64.59375 
L -0.296875 64.59375 
z
" id="DejaVuSans-84"/>
       <path d="M 9.421875 54.6875 
L 18.40625 54.6875 
L 18.40625 0 
L 9.421875 0 
z
M 9.421875 75.984375 
L 18.40625 75.984375 
L 18.40625 64.59375 
L 9.421875 64.59375 
z
" id="DejaVuSans-105"/>
       <path d="M 52 44.1875 
Q 55.375 50.25 60.0625 53.125 
Q 64.75 56 71.09375 56 
Q 79.640625 56 84.28125 50.015625 
Q 88.921875 44.046875 88.921875 33.015625 
L 88.921875 0 
L 79.890625 0 
L 79.890625 32.71875 
Q 79.890625 40.578125 77.09375 44.375 
Q 74.3125 48.1875 68.609375 48.1875 
Q 61.625 48.1875 57.5625 43.546875 
Q 53.515625 38.921875 53.515625 30.90625 
L 53.515625 0 
L 44.484375 0 
L 44.484375 32.71875 
Q 44.484375 40.625 41.703125 44.40625 
Q 38.921875 48.1875 33.109375 48.1875 
Q 26.21875 48.1875 22.15625 43.53125 
Q 18.109375 38.875 18.109375 30.90625 
L 18.109375 0 
L 9.078125 0 
L 9.078125 54.6875 
L 18.109375 54.6875 
L 18.109375 46.1875 
Q 21.1875 51.21875 25.484375 53.609375 
Q 29.78125 56 35.6875 56 
Q 41.65625 56 45.828125 52.96875 
Q 50 49.953125 52 44.1875 
z
" id="DejaVuSans-109"/>
       <path d="M 56.203125 29.59375 
L 56.203125 25.203125 
L 14.890625 25.203125 
Q 15.484375 15.921875 20.484375 11.0625 
Q 25.484375 6.203125 34.421875 6.203125 
Q 39.59375 6.203125 44.453125 7.46875 
Q 49.3125 8.734375 54.109375 11.28125 
L 54.109375 2.78125 
Q 49.265625 0.734375 44.1875 -0.34375 
Q 39.109375 -1.421875 33.890625 -1.421875 
Q 20.796875 -1.421875 13.15625 6.1875 
Q 5.515625 13.8125 5.515625 26.8125 
Q 5.515625 40.234375 12.765625 48.109375 
Q 20.015625 56 32.328125 56 
Q 43.359375 56 49.78125 48.890625 
Q 56.203125 41.796875 56.203125 29.59375 
z
M 47.21875 32.234375 
Q 47.125 39.59375 43.09375 43.984375 
Q 39.0625 48.390625 32.421875 48.390625 
Q 24.90625 48.390625 20.390625 44.140625 
Q 15.875 39.890625 15.1875 32.171875 
z
" id="DejaVuSans-101"/>
       <path id="DejaVuSans-32"/>
       <path d="M 31 75.875 
Q 24.46875 64.65625 21.28125 53.65625 
Q 18.109375 42.671875 18.109375 31.390625 
Q 18.109375 20.125 21.3125 9.0625 
Q 24.515625 -2 31 -13.1875 
L 23.1875 -13.1875 
Q 15.875 -1.703125 12.234375 9.375 
Q 8.59375 20.453125 8.59375 31.390625 
Q 8.59375 42.28125 12.203125 53.3125 
Q 15.828125 64.359375 23.1875 75.875 
z
" id="DejaVuSans-40"/>
       <path d="M 54.890625 33.015625 
L 54.890625 0 
L 45.90625 0 
L 45.90625 32.71875 
Q 45.90625 40.484375 42.875 44.328125 
Q 39.84375 48.1875 33.796875 48.1875 
Q 26.515625 48.1875 22.3125 43.546875 
Q 18.109375 38.921875 18.109375 30.90625 
L 18.109375 0 
L 9.078125 0 
L 9.078125 75.984375 
L 18.109375 75.984375 
L 18.109375 46.1875 
Q 21.34375 51.125 25.703125 53.5625 
Q 30.078125 56 35.796875 56 
Q 45.21875 56 50.046875 50.171875 
Q 54.890625 44.34375 54.890625 33.015625 
z
" id="DejaVuSans-104"/>
       <path d="M 41.109375 46.296875 
Q 39.59375 47.171875 37.8125 47.578125 
Q 36.03125 48 33.890625 48 
Q 26.265625 48 22.1875 43.046875 
Q 18.109375 38.09375 18.109375 28.8125 
L 18.109375 0 
L 9.078125 0 
L 9.078125 54.6875 
L 18.109375 54.6875 
L 18.109375 46.1875 
Q 20.953125 51.171875 25.484375 53.578125 
Q 30.03125 56 36.53125 56 
Q 37.453125 56 38.578125 55.875 
Q 39.703125 55.765625 41.0625 55.515625 
z
" id="DejaVuSans-114"/>
       <path d="M 8.015625 75.875 
L 15.828125 75.875 
Q 23.140625 64.359375 26.78125 53.3125 
Q 30.421875 42.28125 30.421875 31.390625 
Q 30.421875 20.453125 26.78125 9.375 
Q 23.140625 -1.703125 15.828125 -13.1875 
L 8.015625 -13.1875 
Q 14.5 -2 17.703125 9.0625 
Q 20.90625 20.125 20.90625 31.390625 
Q 20.90625 42.671875 17.703125 53.65625 
Q 14.5 64.65625 8.015625 75.875 
z
" id="DejaVuSans-41"/>
      </defs>
      <use xlink:href="#DejaVuSans-84"/>
      <use x="57.958984" xlink:href="#DejaVuSans-105"/>
      <use x="85.742188" xlink:href="#DejaVuSans-109"/>
      <use x="183.154297" xlink:href="#DejaVuSans-101"/>
      <use x="244.677734" xlink:href="#DejaVuSans-32"/>
      <use x="276.464844" xlink:href="#DejaVuSans-40"/>
      <use x="315.478516" xlink:href="#DejaVuSans-104"/>
      <use x="378.857422" xlink:href="#DejaVuSans-114"/>
      <use x="419.970703" xlink:href="#DejaVuSans-41"/>
     </g>
    </g>
   </g>
   <g id="matplotlib.axis_2">
    <g id="ytick_1">
     <g id="line2d_6">
      <defs>
       <path d="M 0 0 
L -3.5 0 
" id="m3fa158ce57" style="stroke:#000000;stroke-width:0.8;"/>
      </defs>
      <g>
       <use style="stroke:#000000;stroke-width:0.8;" x="82.915" xlink:href="#m3fa158ce57" y="484.142799"/>
      </g>
     </g>
     <g id="text_5">
      <!-- 0 -->
      <g transform="translate(41.5575 504.65858)scale(0.54 -0.54)">
       <use xlink:href="#DejaVuSans-48"/>
      </g>
     </g>
    </g>
    <g id="ytick_2">
     <g id="line2d_7">
      <g>
       <use style="stroke:#000000;stroke-width:0.8;" x="82.915" xlink:href="#m3fa158ce57" y="286.522418"/>
      </g>
     </g>
     <g id="text_6">
      <!-- 20 -->
      <g transform="translate(7.2 307.0382)scale(0.54 -0.54)">
       <use xlink:href="#DejaVuSans-50"/>
       <use x="63.623047" xlink:href="#DejaVuSans-48"/>
      </g>
     </g>
    </g>
    <g id="ytick_3">
     <g id="line2d_8">
      <g>
       <use style="stroke:#000000;stroke-width:0.8;" x="82.915" xlink:href="#m3fa158ce57" y="88.902038"/>
      </g>
     </g>
     <g id="text_7">
      <!-- 40 -->
      <g transform="translate(7.2 109.417819)scale(0.54 -0.54)">
       <use xlink:href="#DejaVuSans-52"/>
       <use x="63.623047" xlink:href="#DejaVuSans-48"/>
      </g>
     </g>
    </g>
   </g>
   <g id="line2d_9">
    <path clip-path="url(#pde1efcbe05)" d="M 105.742273 484.142799 
L 117.154483 176.932036 
L 128.566692 91.177637 
L 139.978902 97.920444 
L 151.391112 127.504215 
L 162.803322 156.434851 
L 174.215532 176.700821 
L 185.627742 188.38809 
L 197.039951 194.337451 
L 208.452161 197.319543 
L 219.864371 198.74735 
L 231.276581 197.528032 
L 242.688791 196.679253 
L 254.101001 195.054813 
L 265.51321 195.047897 
L 276.92542 193.727793 
L 288.33763 194.57756 
L 299.74984 193.733721 
L 311.16205 193.397767 
L 322.57426 191.702184 
L 333.986469 190.169638 
L 345.398679 189.898898 
L 356.810889 189.323822 
L 368.223099 188.667723 
L 379.635309 189.442395 
L 391.047519 190.395913 
L 402.459728 192.468951 
L 413.871938 194.239629 
L 425.284148 194.977741 
L 436.696358 195.748461 
L 448.108568 196.5508 
L 459.520778 194.708978 
L 470.932988 195.256386 
L 482.345197 194.128962 
L 493.757407 194.714906 
L 505.169617 195.24947 
L 516.581827 195.360137 
L 527.994037 195.703008 
L 539.406247 195.055802 
L 550.818456 194.365118 
L 562.230666 195.218838 
" style="fill:none;stroke:#ff3000;stroke-linecap:square;stroke-width:6;"/>
   </g>
   <g id="line2d_10">
    <defs>
     <path d="M 0 6 
C 1.591219 6 3.117479 5.367802 4.242641 4.242641 
C 5.367802 3.117479 6 1.591219 6 0 
C 6 -1.591219 5.367802 -3.117479 4.242641 -4.242641 
C 3.117479 -5.367802 1.591219 -6 0 -6 
C -1.591219 -6 -3.117479 -5.367802 -4.242641 -4.242641 
C -5.367802 -3.117479 -6 -1.591219 -6 0 
C -6 1.591219 -5.367802 3.117479 -4.242641 4.242641 
C -3.117479 5.367802 -1.591219 6 0 6 
z
" id="m8f4b96910b" style="stroke:#ff3000;"/>
    </defs>
    <g clip-path="url(#pde1efcbe05)">
     <use style="fill:#ff3000;stroke:#ff3000;" x="105.799334" xlink:href="#m8f4b96910b" y="483.387889"/>
     <use style="fill:#ff3000;stroke:#ff3000;" x="128.623753" xlink:href="#m8f4b96910b" y="86.598773"/>
     <use style="fill:#ff3000;stroke:#ff3000;" x="151.448173" xlink:href="#m8f4b96910b" y="128.30853"/>
     <use style="fill:#ff3000;stroke:#ff3000;" x="174.272593" xlink:href="#m8f4b96910b" y="172.894652"/>
     <use style="fill:#ff3000;stroke:#ff3000;" x="197.097012" xlink:href="#m8f4b96910b" y="194.195165"/>
     <use style="fill:#ff3000;stroke:#ff3000;" x="219.921432" xlink:href="#m8f4b96910b" y="198.092239"/>
     <use style="fill:#ff3000;stroke:#ff3000;" x="242.745852" xlink:href="#m8f4b96910b" y="199.046745"/>
     <use style="fill:#ff3000;stroke:#ff3000;" x="265.570272" xlink:href="#m8f4b96910b" y="200.089193"/>
     <use style="fill:#ff3000;stroke:#ff3000;" x="288.394691" xlink:href="#m8f4b96910b" y="200.255194"/>
     <use style="fill:#ff3000;stroke:#ff3000;" x="311.219111" xlink:href="#m8f4b96910b" y="196.095285"/>
     <use style="fill:#ff3000;stroke:#ff3000;" x="334.043531" xlink:href="#m8f4b96910b" y="200.4291"/>
     <use style="fill:#ff3000;stroke:#ff3000;" x="356.86795" xlink:href="#m8f4b96910b" y="198.631742"/>
     <use style="fill:#ff3000;stroke:#ff3000;" x="379.69237" xlink:href="#m8f4b96910b" y="200.787781"/>
     <use style="fill:#ff3000;stroke:#ff3000;" x="402.51679" xlink:href="#m8f4b96910b" y="196.105166"/>
     <use style="fill:#ff3000;stroke:#ff3000;" x="425.341209" xlink:href="#m8f4b96910b" y="202.33416"/>
     <use style="fill:#ff3000;stroke:#ff3000;" x="448.165629" xlink:href="#m8f4b96910b" y="201.889514"/>
     <use style="fill:#ff3000;stroke:#ff3000;" x="470.990049" xlink:href="#m8f4b96910b" y="194.985646"/>
     <use style="fill:#ff3000;stroke:#ff3000;" x="493.814468" xlink:href="#m8f4b96910b" y="199.399497"/>
     <use style="fill:#ff3000;stroke:#ff3000;" x="516.638888" xlink:href="#m8f4b96910b" y="200.761102"/>
     <use style="fill:#ff3000;stroke:#ff3000;" x="539.463308" xlink:href="#m8f4b96910b" y="206.21246"/>
     <use style="fill:#ff3000;stroke:#ff3000;" x="562.287727" xlink:href="#m8f4b96910b" y="209.831877"/>
    </g>
   </g>
   <g id="patch_3">
    <path d="M 82.915 504.02 
L 82.915 69.14 
" style="fill:none;stroke:#000000;stroke-linecap:square;stroke-linejoin:miter;stroke-width:1.5;"/>
   </g>
   <g id="patch_4">
    <path d="M 585.115 504.02 
L 585.115 69.14 
" style="fill:none;stroke:#000000;stroke-linecap:square;stroke-linejoin:miter;stroke-width:1.5;"/>
   </g>
   <g id="patch_5">
    <path d="M 82.915 504.02 
L 585.115 504.02 
" style="fill:none;stroke:#000000;stroke-linecap:square;stroke-linejoin:miter;stroke-width:1.5;"/>
   </g>
   <g id="patch_6">
    <path d="M 82.915 69.14 
L 585.115 69.14 
" style="fill:none;stroke:#000000;stroke-linecap:square;stroke-linejoin:miter;stroke-width:1.5;"/>
   </g>
   <g id="text_8">
    <!-- Average Count -->
    <g transform="translate(97.405 55.83)scale(0.64 -0.64)">
     <defs>
      <path d="M 34.1875 63.1875 
L 20.796875 26.90625 
L 47.609375 26.90625 
z
M 28.609375 72.90625 
L 39.796875 72.90625 
L 67.578125 0 
L 57.328125 0 
L 50.6875 18.703125 
L 17.828125 18.703125 
L 11.1875 0 
L 0.78125 0 
z
" id="DejaVuSans-65"/>
      <path d="M 2.984375 54.6875 
L 12.5 54.6875 
L 29.59375 8.796875 
L 46.6875 54.6875 
L 56.203125 54.6875 
L 35.6875 0 
L 23.484375 0 
z
" id="DejaVuSans-118"/>
      <path d="M 34.28125 27.484375 
Q 23.390625 27.484375 19.1875 25 
Q 14.984375 22.515625 14.984375 16.5 
Q 14.984375 11.71875 18.140625 8.90625 
Q 21.296875 6.109375 26.703125 6.109375 
Q 34.1875 6.109375 38.703125 11.40625 
Q 43.21875 16.703125 43.21875 25.484375 
L 43.21875 27.484375 
z
M 52.203125 31.203125 
L 52.203125 0 
L 43.21875 0 
L 43.21875 8.296875 
Q 40.140625 3.328125 35.546875 0.953125 
Q 30.953125 -1.421875 24.3125 -1.421875 
Q 15.921875 -1.421875 10.953125 3.296875 
Q 6 8.015625 6 15.921875 
Q 6 25.140625 12.171875 29.828125 
Q 18.359375 34.515625 30.609375 34.515625 
L 43.21875 34.515625 
L 43.21875 35.40625 
Q 43.21875 41.609375 39.140625 45 
Q 35.0625 48.390625 27.6875 48.390625 
Q 23 48.390625 18.546875 47.265625 
Q 14.109375 46.140625 10.015625 43.890625 
L 10.015625 52.203125 
Q 14.9375 54.109375 19.578125 55.046875 
Q 24.21875 56 28.609375 56 
Q 40.484375 56 46.34375 49.84375 
Q 52.203125 43.703125 52.203125 31.203125 
z
" id="DejaVuSans-97"/>
      <path d="M 45.40625 27.984375 
Q 45.40625 37.75 41.375 43.109375 
Q 37.359375 48.484375 30.078125 48.484375 
Q 22.859375 48.484375 18.828125 43.109375 
Q 14.796875 37.75 14.796875 27.984375 
Q 14.796875 18.265625 18.828125 12.890625 
Q 22.859375 7.515625 30.078125 7.515625 
Q 37.359375 7.515625 41.375 12.890625 
Q 45.40625 18.265625 45.40625 27.984375 
z
M 54.390625 6.78125 
Q 54.390625 -7.171875 48.1875 -13.984375 
Q 42 -20.796875 29.203125 -20.796875 
Q 24.46875 -20.796875 20.265625 -20.09375 
Q 16.0625 -19.390625 12.109375 -17.921875 
L 12.109375 -9.1875 
Q 16.0625 -11.328125 19.921875 -12.34375 
Q 23.78125 -13.375 27.78125 -13.375 
Q 36.625 -13.375 41.015625 -8.765625 
Q 45.40625 -4.15625 45.40625 5.171875 
L 45.40625 9.625 
Q 42.625 4.78125 38.28125 2.390625 
Q 33.9375 0 27.875 0 
Q 17.828125 0 11.671875 7.65625 
Q 5.515625 15.328125 5.515625 27.984375 
Q 5.515625 40.671875 11.671875 48.328125 
Q 17.828125 56 27.875 56 
Q 33.9375 56 38.28125 53.609375 
Q 42.625 51.21875 45.40625 46.390625 
L 45.40625 54.6875 
L 54.390625 54.6875 
z
" id="DejaVuSans-103"/>
      <path d="M 64.40625 67.28125 
L 64.40625 56.890625 
Q 59.421875 61.53125 53.78125 63.8125 
Q 48.140625 66.109375 41.796875 66.109375 
Q 29.296875 66.109375 22.65625 58.46875 
Q 16.015625 50.828125 16.015625 36.375 
Q 16.015625 21.96875 22.65625 14.328125 
Q 29.296875 6.6875 41.796875 6.6875 
Q 48.140625 6.6875 53.78125 8.984375 
Q 59.421875 11.28125 64.40625 15.921875 
L 64.40625 5.609375 
Q 59.234375 2.09375 53.4375 0.328125 
Q 47.65625 -1.421875 41.21875 -1.421875 
Q 24.65625 -1.421875 15.125 8.703125 
Q 5.609375 18.84375 5.609375 36.375 
Q 5.609375 53.953125 15.125 64.078125 
Q 24.65625 74.21875 41.21875 74.21875 
Q 47.75 74.21875 53.53125 72.484375 
Q 59.328125 70.75 64.40625 67.28125 
z
" id="DejaVuSans-67"/>
      <path d="M 30.609375 48.390625 
Q 23.390625 48.390625 19.1875 42.75 
Q 14.984375 37.109375 14.984375 27.296875 
Q 14.984375 17.484375 19.15625 11.84375 
Q 23.34375 6.203125 30.609375 6.203125 
Q 37.796875 6.203125 41.984375 11.859375 
Q 46.1875 17.53125 46.1875 27.296875 
Q 46.1875 37.015625 41.984375 42.703125 
Q 37.796875 48.390625 30.609375 48.390625 
z
M 30.609375 56 
Q 42.328125 56 49.015625 48.375 
Q 55.71875 40.765625 55.71875 27.296875 
Q 55.71875 13.875 49.015625 6.21875 
Q 42.328125 -1.421875 30.609375 -1.421875 
Q 18.84375 -1.421875 12.171875 6.21875 
Q 5.515625 13.875 5.515625 27.296875 
Q 5.515625 40.765625 12.171875 48.375 
Q 18.84375 56 30.609375 56 
z
" id="DejaVuSans-111"/>
      <path d="M 8.5 21.578125 
L 8.5 54.6875 
L 17.484375 54.6875 
L 17.484375 21.921875 
Q 17.484375 14.15625 20.5 10.265625 
Q 23.53125 6.390625 29.59375 6.390625 
Q 36.859375 6.390625 41.078125 11.03125 
Q 45.3125 15.671875 45.3125 23.6875 
L 45.3125 54.6875 
L 54.296875 54.6875 
L 54.296875 0 
L 45.3125 0 
L 45.3125 8.40625 
Q 42.046875 3.421875 37.71875 1 
Q 33.40625 -1.421875 27.6875 -1.421875 
Q 18.265625 -1.421875 13.375 4.4375 
Q 8.5 10.296875 8.5 21.578125 
z
M 31.109375 56 
z
" id="DejaVuSans-117"/>
      <path d="M 54.890625 33.015625 
L 54.890625 0 
L 45.90625 0 
L 45.90625 32.71875 
Q 45.90625 40.484375 42.875 44.328125 
Q 39.84375 48.1875 33.796875 48.1875 
Q 26.515625 48.1875 22.3125 43.546875 
Q 18.109375 38.921875 18.109375 30.90625 
L 18.109375 0 
L 9.078125 0 
L 9.078125 54.6875 
L 18.109375 54.6875 
L 18.109375 46.1875 
Q 21.34375 51.125 25.703125 53.5625 
Q 30.078125 56 35.796875 56 
Q 45.21875 56 50.046875 50.171875 
Q 54.890625 44.34375 54.890625 33.015625 
z
" id="DejaVuSans-110"/>
      <path d="M 18.3125 70.21875 
L 18.3125 54.6875 
L 36.8125 54.6875 
L 36.8125 47.703125 
L 18.3125 47.703125 
L 18.3125 18.015625 
Q 18.3125 11.328125 20.140625 9.421875 
Q 21.96875 7.515625 27.59375 7.515625 
L 36.8125 7.515625 
L 36.8125 0 
L 27.59375 0 
Q 17.1875 0 13.234375 3.875 
Q 9.28125 7.765625 9.28125 18.015625 
L 9.28125 47.703125 
L 2.6875 47.703125 
L 2.6875 54.6875 
L 9.28125 54.6875 
L 9.28125 70.21875 
z
" id="DejaVuSans-116"/>
     </defs>
     <use xlink:href="#DejaVuSans-65"/>
     <use x="62.533203" xlink:href="#DejaVuSans-118"/>
     <use x="121.712891" xlink:href="#DejaVuSans-101"/>
     <use x="183.236328" xlink:href="#DejaVuSans-114"/>
     <use x="224.349609" xlink:href="#DejaVuSans-97"/>
     <use x="285.628906" xlink:href="#DejaVuSans-103"/>
     <use x="349.105469" xlink:href="#DejaVuSans-101"/>
     <use x="410.628906" xlink:href="#DejaVuSans-32"/>
     <use x="442.416016" xlink:href="#DejaVuSans-67"/>
     <use x="512.240234" xlink:href="#DejaVuSans-111"/>
     <use x="573.421875" xlink:href="#DejaVuSans-117"/>
     <use x="636.800781" xlink:href="#DejaVuSans-110"/>
     <use x="700.179688" xlink:href="#DejaVuSans-116"/>
    </g>
   </g>
   <g id="legend_1">
    <g id="patch_7">
     <path d="M 350.215 477.02 
L 547.315 477.02 
Q 558.115 477.02 558.115 466.22 
L 558.115 307.586563 
Q 558.115 296.786563 547.315 296.786563 
L 350.215 296.786563 
Q 339.415 296.786563 339.415 307.586563 
L 339.415 466.22 
Q 339.415 477.02 350.215 477.02 
z
" style="fill:#ffffff;opacity:0.8;stroke:#cccccc;stroke-linejoin:miter;"/>
    </g>
    <g id="line2d_11">
     <path d="M 377.215 340.518125 
L 452.815 340.518125 
" style="fill:none;stroke:#ff3000;stroke-linecap:square;stroke-width:6;"/>
    </g>
    <g id="line2d_12"/>
    <g id="text_9">
     <!-- $P_x$ -->
     <g transform="translate(479.815 359.418125)scale(0.54 -0.54)">
      <defs>
       <path d="M 16.890625 72.90625 
L 39.703125 72.90625 
Q 49.65625 72.90625 54.875 68.265625 
Q 60.109375 63.625 60.109375 54.6875 
Q 60.109375 42.671875 52.390625 35.984375 
Q 44.671875 29.296875 30.71875 29.296875 
L 18.3125 29.296875 
L 12.59375 0 
L 2.6875 0 
z
M 25.203125 64.796875 
L 19.921875 37.40625 
L 32.328125 37.40625 
Q 40.71875 37.40625 45.203125 41.703125 
Q 49.703125 46 49.703125 54 
Q 49.703125 59.125 46.65625 61.953125 
Q 43.609375 64.796875 38.09375 64.796875 
z
" id="DejaVuSans-Oblique-80"/>
       <path d="M 60.015625 54.6875 
L 34.90625 27.875 
L 50.296875 0 
L 39.984375 0 
L 28.421875 21.6875 
L 8.296875 0 
L -2.59375 0 
L 24.3125 28.8125 
L 10.015625 54.6875 
L 20.3125 54.6875 
L 30.8125 34.90625 
L 49.125 54.6875 
z
" id="DejaVuSans-Oblique-120"/>
      </defs>
      <use transform="translate(0 0.09375)" xlink:href="#DejaVuSans-Oblique-80"/>
      <use transform="translate(60.302734 -16.3125)scale(0.7)" xlink:href="#DejaVuSans-Oblique-120"/>
     </g>
    </g>
    <g id="line2d_13">
     <path d="M 377.215 419.78 
L 452.815 419.78 
" style="fill:none;stroke:#b7ff40;stroke-linecap:square;stroke-width:6;"/>
    </g>
    <g id="line2d_14"/>
    <g id="text_10">
     <!-- $P_y$ -->
     <g transform="translate(479.815 438.68)scale(0.54 -0.54)">
      <defs>
       <path d="M 24.8125 -5.078125 
Q 18.5625 -15.578125 14.625 -18.1875 
Q 10.6875 -20.796875 4.59375 -20.796875 
L -2.484375 -20.796875 
L -0.984375 -13.28125 
L 4.203125 -13.28125 
Q 7.953125 -13.28125 10.59375 -11.234375 
Q 13.234375 -9.1875 16.5 -3.21875 
L 19.28125 2 
L 7.171875 54.6875 
L 16.703125 54.6875 
L 25.78125 12.796875 
L 50.875 54.6875 
L 60.296875 54.6875 
z
" id="DejaVuSans-Oblique-121"/>
      </defs>
      <use transform="translate(0 0.09375)" xlink:href="#DejaVuSans-Oblique-80"/>
      <use transform="translate(60.302734 -16.3125)scale(0.7)" xlink:href="#DejaVuSans-Oblique-121"/>
     </g>
    </g>
   </g>
  </g>
 </g>
 <defs>
  <clipPath id="pde1efcbe05">
   <rect height="434.88" width="502.2" x="82.915" y="69.14"/>
  </clipPath>
 </defs>
</svg>
